<svg width="337" height="766" viewBox="0 0 337 766" fill="none" xmlns="http://www.w3.org/2000/svg">
<path d="M21 765H13C6.37258 765 0.99999 759.627 0.99999 753L1 94C1 87.3726 6.37258 82 13 82L324 82C330.627 82 336 87.3726 336 94L336 753C336 759.627 330.627 765 324 765H316" stroke="#534CFB" stroke-opacity="0.16" stroke-width="2" stroke-dasharray="8 8"/>
<g filter="url(#filter0_ddddd_4615_4595)">
<rect x="103.684" y="63" width="131.707" height="39.7246" rx="11.3513" fill="white"/>
<path d="M126.387 87.4739C128.346 87.4739 129.934 85.8858 129.934 83.9267C129.934 81.9676 128.346 80.3794 126.387 80.3794C124.428 80.3794 122.84 81.9676 122.84 83.9267C122.84 85.8858 124.428 87.4739 126.387 87.4739Z" stroke="#FFCB00" stroke-width="1.41891" stroke-linecap="round" stroke-linejoin="round"/>
<path d="M132.416 81.7983C133.242 81.797 134.057 81.9887 134.797 82.3582C135.536 82.7277 136.178 83.2648 136.673 83.9267" stroke="#FFCB00" stroke-width="1.41891" stroke-linecap="round" stroke-linejoin="round"/>
<path d="M116.1 83.9267C116.594 83.2648 117.237 82.7277 117.976 82.3582C118.715 81.9887 119.53 81.797 120.356 81.7983" stroke="#FFCB00" stroke-width="1.41891" stroke-linecap="round" stroke-linejoin="round"/>
<path d="M121.279 90.6663C121.746 89.7095 122.473 88.9032 123.376 88.3392C124.279 87.7751 125.323 87.4761 126.387 87.4761C127.452 87.4761 128.495 87.7751 129.399 88.3392C130.302 88.9032 131.028 89.7095 131.495 90.6663" stroke="#FFCB00" stroke-width="1.41891" stroke-linecap="round" stroke-linejoin="round"/>
<path d="M120.356 81.7982C119.818 81.7987 119.29 81.646 118.835 81.3578C118.38 81.0696 118.016 80.6579 117.787 80.1707C117.557 79.6835 117.471 79.141 117.538 78.6066C117.605 78.0722 117.823 77.5679 118.166 77.1527C118.509 76.7375 118.963 76.4285 119.475 76.2619C119.987 76.0952 120.536 76.0777 121.058 76.2115C121.58 76.3452 122.053 76.6247 122.422 77.0173C122.79 77.4098 123.04 77.8992 123.141 78.4283" stroke="#FFCB00" stroke-width="1.41891" stroke-linecap="round" stroke-linejoin="round"/>
<path d="M129.631 78.4283C129.732 77.8992 129.981 77.4098 130.35 77.0173C130.719 76.6247 131.192 76.3452 131.714 76.2115C132.235 76.0777 132.784 76.0952 133.297 76.2619C133.809 76.4285 134.263 76.7375 134.606 77.1527C134.949 77.5679 135.167 78.0722 135.234 78.6066C135.301 79.141 135.215 79.6835 134.985 80.1707C134.755 80.6579 134.392 81.0696 133.937 81.3578C133.482 81.646 132.954 81.7987 132.415 81.7982" stroke="#FFCB00" stroke-width="1.41891" stroke-linecap="round" stroke-linejoin="round"/>
<path d="M153.049 88.4852C150.283 88.4852 147.795 86.6723 147.795 82.9849C147.795 79.2975 150.314 77.4845 153.049 77.4845C155.492 77.4845 157.428 78.9595 157.72 81.0644H156.045C155.861 79.8045 154.601 78.898 153.034 78.898C150.944 78.898 149.438 80.3269 149.438 82.9849C149.438 85.6429 150.944 87.0717 153.034 87.0717C154.632 87.0717 155.907 86.1652 156.076 84.9054H157.689C157.459 87.0103 155.538 88.4852 153.049 88.4852ZM165.969 80.6188V88.3623H164.478V86.9949C164.063 87.9628 163.142 88.4852 161.989 88.4852C160.238 88.4852 159.101 87.2254 159.101 85.3817V80.6188H160.591V85.0898C160.591 86.3189 161.313 87.1485 162.404 87.1485C163.618 87.1485 164.478 86.1652 164.478 84.8132V80.6188H165.969ZM170.598 88.4852C168.785 88.4852 167.571 87.4712 167.463 85.8426H168.861C168.954 86.7337 169.599 87.2407 170.598 87.2407C171.489 87.2407 172.057 86.7644 172.057 86.196C172.057 84.1372 167.663 86.027 167.663 82.7237C167.663 81.387 168.8 80.4959 170.413 80.4959C172.165 80.4959 173.363 81.4638 173.44 82.9234H172.042C171.934 82.0323 171.074 81.6789 170.413 81.6789C169.614 81.6789 169.077 82.0784 169.077 82.6776C169.077 84.5981 173.501 82.6315 173.501 86.1652C173.501 87.5787 172.349 88.4852 170.598 88.4852ZM175.836 78.1913H177.326V80.6188H179.616V81.9094H177.326V85.7811C177.326 86.6108 177.772 87.0717 178.525 87.0717H179.616V88.3623H178.402C176.835 88.3623 175.836 87.4097 175.836 85.8272V81.9094H174.254V80.6188H175.836V78.1913ZM184.256 88.4852C181.936 88.4852 180.261 86.8105 180.261 84.4906C180.261 82.1706 181.936 80.4959 184.256 80.4959C186.576 80.4959 188.235 82.1706 188.235 84.4906C188.235 86.8105 186.576 88.4852 184.256 88.4852ZM184.256 87.1793C185.715 87.1793 186.714 86.0731 186.714 84.4906C186.714 82.908 185.715 81.8018 184.256 81.8018C182.781 81.8018 181.782 82.908 181.782 84.4906C181.782 86.0731 182.781 87.1793 184.256 87.1793ZM189.694 88.3623V80.6188H191.184V82.0016C191.507 81.1258 192.337 80.4959 193.474 80.4959C194.733 80.4959 195.671 81.0644 195.978 82.0784C196.285 81.2026 197.299 80.4959 198.498 80.4959C200.172 80.4959 201.217 81.6482 201.217 83.4458V88.3623H199.727V83.8606C199.727 82.6315 199.112 81.8018 198.083 81.8018C196.9 81.8018 196.193 82.6315 196.193 83.8606V88.3623H194.703V83.8606C194.703 82.6315 194.088 81.8018 193.074 81.8018C191.891 81.8018 191.184 82.6315 191.184 83.8606V88.3623H189.694ZM208.654 85.8426H210.144C209.867 87.4405 208.469 88.4852 206.564 88.4852C204.167 88.4852 202.677 86.5954 202.677 84.4445C202.677 82.2781 204.029 80.4959 206.41 80.4959C208.807 80.4959 210.082 82.2013 210.082 84.1679C210.082 84.3676 210.067 84.6135 210.052 84.7517H204.137C204.259 86.2113 205.212 87.21 206.564 87.21C207.701 87.21 208.439 86.7183 208.654 85.8426ZM206.41 81.6943C205.197 81.6943 204.413 82.3703 204.183 83.6609H208.577C208.485 82.4779 207.686 81.6943 206.41 81.6943ZM216.086 81.9094H214.965C213.551 81.9094 213.09 83.1692 213.09 84.8593V88.3623H211.6V80.6188H213.09V82.1091C213.444 81.0797 214.058 80.6188 215.149 80.6188H216.086V81.9094ZM219.826 88.4852C218.013 88.4852 216.799 87.4712 216.691 85.8426H218.09C218.182 86.7337 218.827 87.2407 219.826 87.2407C220.717 87.2407 221.285 86.7644 221.285 86.196C221.285 84.1372 216.891 86.027 216.891 82.7237C216.891 81.387 218.028 80.4959 219.641 80.4959C221.393 80.4959 222.591 81.4638 222.668 82.9234H221.27C221.162 82.0323 220.302 81.6789 219.641 81.6789C218.842 81.6789 218.305 82.0784 218.305 82.6776C218.305 84.5981 222.73 82.6315 222.73 86.1652C222.73 87.5787 221.577 88.4852 219.826 88.4852Z" fill="#111729"/>
</g>
<path d="M259.861 406.637C259.861 406.637 259.861 417.805 259.861 481.686C259.861 545.566 166.833 562.988 166.833 562.988" stroke="#FE4A22" stroke-opacity="0.32" stroke-width="1.38896" stroke-dasharray="5.56 5.56"/>
<path d="M84.748 406.637C84.748 406.637 84.748 411.551 84.748 475.432C84.748 539.312 166.051 562.988 166.051 562.988" stroke="#FE4A22" stroke-opacity="0.32" stroke-width="1.38896" stroke-dasharray="5.56 5.56"/>
<path d="M169.178 406.637L169.178 627.869" stroke="#FE4A22" stroke-opacity="0.32" stroke-width="1.38896" stroke-dasharray="5.56 5.56"/>
<path d="M291.698 175.525C278.795 220.899 258.658 217.453 258.658 266.696C258.658 315.94 258.658 316.047 258.658 316.047" stroke="url(#paint0_linear_4615_4595)" stroke-opacity="0.32" stroke-width="1.18222" stroke-dasharray="5.56 5.56"/>
<path d="M225.976 175.525C238.879 220.899 259.016 217.453 259.016 266.696C259.016 315.94 259.016 316.047 259.016 316.047" stroke="url(#paint1_linear_4615_4595)" stroke-opacity="0.32" stroke-width="1.18222" stroke-dasharray="5.56 5.56"/>
<g filter="url(#filter1_d_4615_4595)">
<g clip-path="url(#clip0_4615_4595)">
<rect x="232.406" y="268.526" width="48.61" height="20.7825" rx="4.7289" transform="rotate(-30 232.406 268.526)" fill="white"/>
<path d="M247.776 268.523L245.792 275.927" stroke="#FE4A22" stroke-width="0.602247" stroke-linecap="round" stroke-linejoin="round"/>
<path d="M250.486 273.217L243.082 271.233" stroke="#FE4A22" stroke-width="0.602247" stroke-linecap="round" stroke-linejoin="round"/>
<path d="M256.905 269.34C255.685 270.044 254.125 269.878 253.186 268.251C252.246 266.625 252.896 265.183 254.103 264.487C255.181 263.864 256.41 264.022 257.075 264.876L256.336 265.303C255.934 264.794 255.147 264.715 254.456 265.114C253.534 265.646 253.234 266.66 253.911 267.833C254.588 269.005 255.616 269.252 256.538 268.72C257.243 268.313 257.575 267.588 257.328 266.989L258.04 266.579C258.474 267.566 258.003 268.706 256.905 269.34ZM258.902 263.487C259.783 262.979 260.659 263.15 261.098 263.91L262.369 266.112L261.712 266.492L261.391 265.936C261.44 266.396 261.147 266.891 260.632 267.188C259.933 267.591 259.23 267.437 258.878 266.827C258.498 266.169 258.785 265.461 259.592 264.996L260.304 264.585C260.459 264.495 260.487 264.37 260.417 264.248C260.178 263.835 259.715 263.722 259.187 264.028C258.712 264.302 258.539 264.799 258.718 265.157L258.108 265.509C257.775 264.807 258.095 263.953 258.902 263.487ZM260.459 266.592C261.083 266.232 261.211 265.624 260.847 264.994L260.8 264.913L259.919 265.421C259.472 265.68 259.313 266.078 259.521 266.438C259.701 266.749 260.079 266.811 260.459 266.592ZM263.131 265.673L261.159 262.256L261.816 261.877L262.164 262.48C262.101 261.947 262.375 261.482 262.883 261.189C263.656 260.743 264.478 261.009 264.948 261.822L266.161 263.923L265.503 264.303L264.365 262.331C264.052 261.788 263.522 261.606 263.04 261.884C262.505 262.193 262.376 262.846 262.72 263.443L263.789 265.293L263.131 265.673ZM268.533 262.626C267.455 263.249 266.365 262.785 265.821 261.842C265.277 260.9 265.42 259.724 266.498 259.102C267.297 258.64 268.263 258.715 268.804 259.433L268.146 259.813C267.862 259.462 267.305 259.404 266.844 259.67C266.159 260.065 266.126 260.79 266.505 261.447C266.885 262.105 267.536 262.434 268.214 262.042C268.681 261.772 268.886 261.329 268.771 260.88L269.422 260.504C269.728 261.285 269.4 262.125 268.533 262.626ZM272.508 258.776L273.166 258.397C273.451 259.172 273.1 259.989 272.26 260.475C271.202 261.085 270.064 260.631 269.516 259.682C268.964 258.726 269.106 257.596 270.157 256.989C271.214 256.379 272.211 256.806 272.712 257.674C272.763 257.762 272.819 257.874 272.847 257.939L270.238 259.446C270.664 260.058 271.338 260.256 271.935 259.912C272.437 259.622 272.637 259.218 272.508 258.776ZM270.462 257.518C269.927 257.827 269.753 258.325 269.98 258.953L271.919 257.834C271.577 257.335 271.025 257.193 270.462 257.518ZM274.484 259.118L271.686 254.272L272.343 253.892L275.141 258.738L274.484 259.118Z" fill="#111729"/>
</g>
</g>
<path d="M258.733 323.311L254.671 315.688L262.795 315.688L258.733 323.311Z" fill="#FE4A22" fill-opacity="0.32"/>
<path d="M201.798 175.525C188.895 220.899 168.758 217.453 168.758 266.696C168.758 315.94 168.758 316.047 168.758 316.047" stroke="url(#paint2_linear_4615_4595)" stroke-opacity="0.32" stroke-width="1.18222" stroke-dasharray="5.56 5.56"/>
<path d="M136.075 175.525C148.978 220.899 169.115 217.453 169.115 266.696C169.115 315.94 169.116 316.047 169.116 316.047" stroke="url(#paint3_linear_4615_4595)" stroke-opacity="0.32" stroke-width="1.18222" stroke-dasharray="5.56 5.56"/>
<g filter="url(#filter2_d_4615_4595)">
<g clip-path="url(#clip1_4615_4595)">
<rect x="147.963" y="249.044" width="48.61" height="20.7825" rx="4.7289" transform="rotate(15 147.963 249.044)" fill="white"/>
<path d="M158.831 259.909L152.193 263.741" stroke="#FE4A22" stroke-width="0.602247" stroke-linecap="round" stroke-linejoin="round"/>
<path d="M157.428 265.144L153.596 258.506" stroke="#FE4A22" stroke-width="0.602247" stroke-linecap="round" stroke-linejoin="round"/>
<path d="M164.712 266.943C163.351 266.578 162.365 265.358 162.851 263.543C163.337 261.729 164.816 261.169 166.162 261.53C167.364 261.852 168.122 262.833 167.988 263.907L167.164 263.686C167.24 263.042 166.739 262.43 165.968 262.223C164.94 261.948 164.011 262.452 163.66 263.76C163.31 265.068 163.862 265.97 164.89 266.245C165.677 266.456 166.424 266.178 166.673 265.58L167.467 265.793C167.076 266.798 165.936 267.271 164.712 266.943ZM170.262 264.216C171.245 264.48 171.743 265.221 171.516 266.068L170.858 268.525L170.124 268.328L170.29 267.708C170 268.068 169.443 268.21 168.868 268.056C168.09 267.848 167.701 267.241 167.883 266.561C168.08 265.828 168.784 265.53 169.683 265.771L170.477 265.984C170.651 266.03 170.758 265.962 170.795 265.826C170.918 265.365 170.671 264.958 170.081 264.8C169.552 264.658 169.077 264.888 168.951 265.267L168.271 265.085C168.532 264.352 169.362 263.975 170.262 264.216ZM169.168 267.513C169.863 267.699 170.384 267.361 170.572 266.657L170.596 266.567L169.613 266.303C169.114 266.17 168.721 266.34 168.613 266.74C168.52 267.088 168.744 267.399 169.168 267.513ZM171.707 268.752L172.728 264.942L173.461 265.139L173.281 265.811C173.613 265.39 174.135 265.254 174.702 265.406C175.564 265.637 175.958 266.407 175.714 267.314L175.086 269.658L174.353 269.461L174.943 267.261C175.105 266.657 174.859 266.153 174.322 266.009C173.725 265.849 173.172 266.22 172.993 266.885L172.44 268.949L171.707 268.752ZM177.681 270.418C176.479 270.096 176.036 268.997 176.317 267.946C176.599 266.895 177.532 266.164 178.734 266.487C179.626 266.726 180.255 267.461 180.13 268.352L179.397 268.155C179.444 267.706 179.091 267.271 178.577 267.133C177.813 266.929 177.277 267.417 177.081 268.15C176.884 268.884 177.112 269.577 177.868 269.779C178.39 269.919 178.848 269.75 179.085 269.352L179.81 269.546C179.475 270.315 178.648 270.677 177.681 270.418ZM183.214 270.507L183.948 270.703C183.601 271.453 182.775 271.783 181.838 271.532C180.658 271.216 180.174 270.089 180.458 269.031C180.743 267.965 181.644 267.266 182.816 267.58C183.995 267.896 184.398 268.903 184.138 269.871C184.112 269.969 184.072 270.088 184.046 270.154L181.136 269.375C181.004 270.109 181.341 270.726 182.006 270.904C182.565 271.054 182.993 270.909 183.214 270.507ZM182.658 268.17C182.06 268.01 181.586 268.239 181.302 268.844L183.464 269.423C183.575 268.829 183.285 268.338 182.658 268.17ZM184.37 272.145L185.818 266.74L186.551 266.936L185.103 272.342L184.37 272.145Z" fill="#111729"/>
</g>
</g>
<path d="M168.833 323.311L164.771 315.688L172.895 315.688L168.833 323.311Z" fill="#FE4A22" fill-opacity="0.32"/>
<path d="M116.587 175.525C103.684 220.899 83.5468 217.453 83.5468 266.696C83.5468 315.94 83.5466 316.047 83.5466 316.047" stroke="url(#paint4_linear_4615_4595)" stroke-opacity="0.32" stroke-width="1.18222" stroke-dasharray="5.56 5.56"/>
<path d="M50.8645 175.525C63.7673 220.899 83.9044 217.453 83.9044 266.696C83.9044 315.94 83.9046 316.047 83.9046 316.047" stroke="url(#paint5_linear_4615_4595)" stroke-opacity="0.32" stroke-width="1.18222" stroke-dasharray="5.56 5.56"/>
<g filter="url(#filter3_d_4615_4595)">
<g clip-path="url(#clip2_4615_4595)">
<rect x="57.5664" y="260.464" width="48.61" height="20.7825" rx="4.7289" transform="rotate(-12.4477 57.5664 260.464)" fill="white"/>
<path d="M72.2205 265.096L68.0961 271.557" stroke="#FE4A22" stroke-width="0.602247" stroke-linecap="round" stroke-linejoin="round"/>
<path d="M73.3889 270.389L66.9277 266.264" stroke="#FE4A22" stroke-width="0.602247" stroke-linecap="round" stroke-linejoin="round"/>
<path d="M80.6785 268.628C79.3028 268.932 77.8656 268.303 77.4607 266.469C77.0559 264.635 78.1102 263.456 79.4706 263.156C80.6858 262.888 81.8108 263.409 82.1871 264.424L81.354 264.608C81.124 264.001 80.3977 263.689 79.6182 263.861C78.5788 264.09 77.9867 264.966 78.2785 266.288C78.5704 267.611 79.4763 268.156 80.5157 267.927C81.3105 267.751 81.8454 267.16 81.7911 266.515L82.5936 266.338C82.7101 267.41 81.9167 268.355 80.6785 268.628ZM84.3474 263.65C85.3409 263.431 86.1247 263.859 86.3137 264.715L86.862 267.199L86.1206 267.363L85.9823 266.736C85.8899 267.189 85.4615 267.572 84.8807 267.701C84.0935 267.874 83.4692 267.515 83.3173 266.827C83.1537 266.086 83.641 265.498 84.5505 265.297L85.353 265.12C85.5287 265.081 85.5926 264.971 85.5622 264.833C85.4593 264.367 85.0522 264.12 84.456 264.252C83.921 264.37 83.6055 264.792 83.6686 265.187L82.9807 265.339C82.8749 264.569 83.4379 263.851 84.3474 263.65ZM84.896 267.08C85.5991 266.925 85.9047 266.384 85.7478 265.674L85.7275 265.582L84.734 265.801C84.2295 265.913 83.9583 266.245 84.0477 266.65C84.1253 267.002 84.468 267.174 84.896 267.08ZM87.7208 267.01L86.8705 263.158L87.6118 262.994L87.762 263.674C87.8621 263.147 88.2633 262.786 88.8365 262.659C89.7077 262.467 90.4116 262.969 90.6141 263.886L91.1371 266.255L90.3957 266.419L89.9048 264.195C89.7698 263.584 89.3195 263.25 88.7769 263.37C88.1731 263.503 87.8531 264.087 88.0015 264.759L88.4621 266.846L87.7208 267.01ZM93.7895 265.734C92.5743 266.002 91.6747 265.231 91.4402 264.169C91.2057 263.106 91.6971 262.028 92.9123 261.76C93.8141 261.561 94.7118 261.924 95.0111 262.771L94.2698 262.935C94.1048 262.514 93.5907 262.291 93.071 262.406C92.299 262.576 92.0485 263.257 92.2121 263.998C92.3758 264.74 92.8972 265.25 93.6614 265.081C94.1888 264.965 94.5178 264.603 94.5439 264.141L95.2777 263.979C95.3342 264.816 94.7678 265.518 93.7895 265.734ZM98.7414 263.262L99.4827 263.099C99.5206 263.924 98.9398 264.597 97.9921 264.806C96.7998 265.07 95.851 264.293 95.6148 263.223C95.3769 262.146 95.8538 261.11 97.0384 260.849C98.2307 260.586 99.0523 261.294 99.2682 262.272C99.2902 262.372 99.3095 262.496 99.3171 262.566L96.3746 263.216C96.596 263.928 97.1795 264.32 97.8521 264.172C98.4177 264.047 98.7305 263.722 98.7414 263.262ZM97.17 261.445C96.5662 261.578 96.2507 262.001 96.2777 262.668L98.4636 262.186C98.2878 261.607 97.8044 261.305 97.17 261.445ZM100.522 264.184L99.3156 258.719L100.057 258.556L101.263 264.02L100.522 264.184Z" fill="#111729"/>
</g>
</g>
<path d="M83.622 323.311L79.5599 315.688L87.6841 315.688L83.622 323.311Z" fill="#FE4A22" fill-opacity="0.32"/>
<g filter="url(#filter4_d_4615_4595)">
<g clip-path="url(#clip3_4615_4595)">
<rect x="129.723" y="412.802" width="88.6323" height="21.1514" rx="4.7289" transform="rotate(15 129.723 412.802)" fill="white"/>
<path d="M136.29 429.251C138.217 429.768 140.199 428.624 140.715 426.696C141.232 424.769 140.088 422.787 138.16 422.271C136.233 421.754 134.251 422.898 133.735 424.826C133.218 426.753 134.362 428.735 136.29 429.251Z" stroke="#FE4A22" stroke-width="0.602247" stroke-miterlimit="10"/>
<path d="M138.7 424.909L135.75 426.613" stroke="#FE4A22" stroke-width="0.602247" stroke-linecap="round" stroke-linejoin="round"/>
<path d="M138.076 427.236L136.373 424.286" stroke="#FE4A22" stroke-width="0.602934" stroke-linecap="round" stroke-linejoin="round"/>
<path d="M144.095 430.19L145.513 424.898L147.471 425.423C148.461 425.688 148.972 426.352 148.739 427.221C148.608 427.713 148.162 428.015 147.782 428.075C148.253 428.403 148.538 428.942 148.343 429.668C148.086 430.628 147.248 431.035 146.151 430.741L144.095 430.19ZM145.718 427.246L146.86 427.552C147.45 427.71 147.834 427.546 147.966 427.054C148.095 426.571 147.847 426.229 147.25 426.068L146.116 425.765L145.718 427.246ZM145.06 429.703L146.232 430.017C146.973 430.216 147.419 430.003 147.573 429.429C147.727 428.854 147.447 428.447 146.706 428.248L145.534 427.934L145.06 429.703ZM153.093 428.518L152.072 432.328L151.339 432.131L151.519 431.458C151.188 431.88 150.665 432.016 150.098 431.864C149.236 431.633 148.843 430.863 149.086 429.956L149.714 427.612L150.447 427.809L149.858 430.009C149.696 430.613 149.942 431.117 150.478 431.261C151.076 431.421 151.629 431.05 151.807 430.385L152.36 428.321L153.093 428.518ZM153.05 432.59L154.498 427.184L155.231 427.381L153.783 432.786L153.05 432.59ZM157.378 433.749L156.498 431.561L155.904 431.872L155.533 433.255L154.792 433.057L156.241 427.651L156.981 427.85L156.147 430.964L158.21 429.888L159.162 430.144L157.16 431.204L158.285 433.992L157.378 433.749ZM162.96 435.31C161.599 434.945 160.614 433.725 161.1 431.911C161.586 430.096 163.065 429.536 164.411 429.897C165.613 430.219 166.371 431.2 166.237 432.274L165.413 432.053C165.488 431.409 164.988 430.797 164.217 430.59C163.188 430.315 162.259 430.82 161.909 432.127C161.558 433.435 162.111 434.337 163.139 434.612C163.925 434.823 164.672 434.545 164.921 433.948L165.715 434.16C165.324 435.166 164.185 435.638 162.96 435.31ZM168.51 432.584C169.493 432.847 169.991 433.588 169.765 434.435L169.106 436.892L168.373 436.696L168.539 436.076C168.248 436.435 167.691 436.578 167.117 436.424C166.338 436.215 165.95 435.609 166.132 434.928C166.328 434.195 167.032 433.897 167.932 434.138L168.726 434.351C168.899 434.398 169.007 434.329 169.043 434.193C169.167 433.732 168.919 433.325 168.33 433.167C167.8 433.026 167.326 433.255 167.2 433.634L166.519 433.452C166.78 432.72 167.611 432.343 168.51 432.584ZM167.416 435.88C168.112 436.066 168.632 435.728 168.821 435.025L168.845 434.934L167.862 434.671C167.363 434.537 166.969 434.707 166.862 435.108C166.769 435.455 166.993 435.767 167.416 435.88ZM169.956 437.12L170.977 433.309L171.71 433.506L171.53 434.179C171.861 433.757 172.384 433.622 172.951 433.774C173.813 434.004 174.206 434.774 173.963 435.681L173.335 438.025L172.602 437.829L173.191 435.629C173.353 435.024 173.107 434.52 172.571 434.377C171.973 434.217 171.42 434.587 171.242 435.252L170.689 437.316L169.956 437.12ZM175.929 438.785C174.727 438.463 174.284 437.364 174.566 436.313C174.847 435.262 175.781 434.532 176.983 434.854C177.875 435.093 178.504 435.829 178.379 436.719L177.646 436.522C177.693 436.073 177.34 435.638 176.826 435.5C176.062 435.296 175.526 435.784 175.329 436.518C175.133 437.251 175.361 437.944 176.117 438.147C176.638 438.286 177.097 438.117 177.333 437.719L178.059 437.913C177.723 438.682 176.897 439.044 175.929 438.785ZM181.463 438.874L182.196 439.071C181.849 439.82 181.024 440.15 180.086 439.899C178.907 439.583 178.423 438.457 178.706 437.398C178.992 436.332 179.892 435.633 181.064 435.947C182.243 436.263 182.646 437.271 182.387 438.238C182.36 438.337 182.321 438.456 182.295 438.522L179.384 437.742C179.252 438.476 179.589 439.093 180.254 439.271C180.814 439.421 181.242 439.277 181.463 438.874ZM180.906 436.537C180.309 436.377 179.834 436.606 179.551 437.211L181.713 437.79C181.823 437.196 181.534 436.705 180.906 436.537ZM182.618 440.513L184.067 435.107L184.8 435.304L183.352 440.709L182.618 440.513ZM184.361 440.979L185.809 435.574L186.542 435.77L185.094 441.176L184.361 440.979ZM188.548 437.953C189.53 438.216 190.029 438.957 189.802 439.804L189.143 442.261L188.41 442.064L188.576 441.445C188.285 441.804 187.728 441.947 187.154 441.793C186.375 441.584 185.987 440.978 186.169 440.297C186.366 439.564 187.069 439.266 187.969 439.507L188.763 439.72C188.937 439.767 189.044 439.698 189.081 439.562C189.204 439.101 188.957 438.694 188.367 438.536C187.838 438.394 187.363 438.624 187.237 439.003L186.557 438.821C186.818 438.089 187.648 437.712 188.548 437.953ZM187.454 441.249C188.149 441.435 188.669 441.097 188.858 440.394L188.882 440.303L187.899 440.04C187.4 439.906 187.006 440.076 186.899 440.477C186.806 440.824 187.03 441.136 187.454 441.249ZM191.735 437.591L192.469 437.788L192.149 438.982L193.275 439.284L193.105 439.919L191.979 439.617L191.468 441.523C191.359 441.931 191.517 442.216 191.888 442.316L192.424 442.459L192.254 443.094L191.657 442.934C190.886 442.728 190.52 442.127 190.729 441.349L191.245 439.421L190.467 439.212L190.637 438.577L191.415 438.786L191.735 437.591ZM194.283 437.844L195.099 438.063L194.852 438.986L194.035 438.767L194.283 437.844ZM192.88 443.262L193.9 439.452L194.634 439.648L193.613 443.459L192.88 443.262ZM196.271 444.236C195.129 443.93 194.526 442.885 194.832 441.743C195.138 440.602 196.183 439.998 197.324 440.304C198.466 440.61 199.061 441.653 198.756 442.795C198.45 443.936 197.412 444.541 196.271 444.236ZM196.443 443.593C197.161 443.785 197.798 443.373 198.007 442.594C198.216 441.815 197.87 441.139 197.152 440.947C196.426 440.752 195.789 441.165 195.58 441.944C195.372 442.723 195.717 443.398 196.443 443.593ZM198.963 444.892L199.984 441.082L200.717 441.278L200.537 441.951C200.869 441.53 201.391 441.394 201.958 441.546C202.82 441.777 203.213 442.547 202.97 443.454L202.342 445.798L201.609 445.601L202.199 443.401C202.361 442.796 202.115 442.293 201.578 442.149C200.981 441.989 200.428 442.359 200.249 443.025L199.696 445.089L198.963 444.892ZM204.604 446.468C203.712 446.229 203.248 445.57 203.41 444.755L204.098 444.939C204.026 445.39 204.277 445.724 204.768 445.856C205.206 445.974 205.549 445.814 205.624 445.534C205.895 444.521 203.484 444.872 203.92 443.246C204.096 442.589 204.773 442.3 205.567 442.513C206.428 442.744 206.89 443.378 206.736 444.106L206.048 443.922C206.112 443.469 205.736 443.182 205.411 443.095C205.017 442.99 204.7 443.115 204.621 443.41C204.368 444.355 206.805 443.971 206.339 445.71C206.152 446.405 205.466 446.699 204.604 446.468Z" fill="#111729"/>
</g>
</g>
<g filter="url(#filter5_d_4615_4595)">
<g clip-path="url(#clip4_4615_4595)">
<rect x="124.248" y="488.408" width="88.6323" height="21.1514" rx="4.7289" transform="rotate(-15 124.248 488.408)" fill="white"/>
<path d="M138.16 499.37C140.087 498.854 141.231 496.872 140.715 494.945C140.198 493.017 138.217 491.873 136.289 492.389C134.362 492.906 133.218 494.887 133.734 496.815C134.251 498.743 136.232 499.887 138.16 499.37Z" stroke="#FE4A22" stroke-width="0.602247" stroke-miterlimit="10"/>
<path d="M138.077 494.405L136.373 497.355" stroke="#FE4A22" stroke-width="0.602247" stroke-linecap="round" stroke-linejoin="round"/>
<path d="M138.7 496.732L135.75 495.028" stroke="#FE4A22" stroke-width="0.602934" stroke-linecap="round" stroke-linejoin="round"/>
<path d="M145.389 496.281L143.971 490.989L145.929 490.464C146.919 490.198 147.693 490.518 147.926 491.387C148.058 491.879 147.823 492.363 147.523 492.605C148.096 492.654 148.612 492.978 148.806 493.704C149.064 494.664 148.541 495.436 147.445 495.73L145.389 496.281ZM145.323 492.919L146.464 492.613C147.054 492.455 147.305 492.121 147.173 491.63C147.043 491.146 146.657 490.974 146.06 491.134L144.926 491.438L145.323 492.919ZM145.981 495.376L147.153 495.062C147.894 494.864 148.173 494.457 148.02 493.882C147.866 493.308 147.42 493.095 146.679 493.293L145.507 493.607L145.981 495.376ZM152.345 490.333L153.366 494.143L152.633 494.34L152.452 493.667C152.376 494.198 151.991 494.576 151.424 494.728C150.562 494.959 149.837 494.489 149.594 493.582L148.966 491.238L149.699 491.042L150.288 493.242C150.45 493.847 150.915 494.16 151.452 494.016C152.049 493.856 152.343 493.258 152.165 492.593L151.612 490.529L152.345 490.333ZM154.343 493.881L152.895 488.476L153.628 488.279L155.077 493.685L154.343 493.881ZM158.671 492.722L156.815 491.266L156.456 491.832L156.827 493.216L156.086 493.414L154.637 488.009L155.378 487.81L156.213 490.925L157.461 488.962L158.414 488.707L157.21 490.625L159.578 492.478L158.671 492.722ZM164.286 491.282C162.925 491.646 161.462 491.083 160.975 489.268C160.489 487.454 161.49 486.229 162.836 485.869C164.038 485.547 165.185 486.017 165.606 487.014L164.782 487.235C164.525 486.64 163.786 486.36 163.014 486.566C161.986 486.842 161.434 487.743 161.784 489.051C162.135 490.359 163.064 490.864 164.092 490.588C164.878 490.378 165.386 489.763 165.303 489.121L166.097 488.909C166.261 489.975 165.511 490.954 164.286 491.282ZM167.73 486.146C168.712 485.882 169.515 486.275 169.741 487.122L170.4 489.579L169.666 489.775L169.5 489.155C169.428 489.612 169.017 490.014 168.443 490.168C167.664 490.377 167.024 490.046 166.842 489.365C166.646 488.632 167.106 488.022 168.006 487.781L168.8 487.569C168.974 487.522 169.032 487.409 168.996 487.273C168.872 486.812 168.455 486.583 167.865 486.741C167.336 486.883 167.039 487.319 167.12 487.711L166.44 487.893C166.299 487.128 166.83 486.387 167.73 486.146ZM168.43 489.547C169.126 489.361 169.407 488.808 169.219 488.105L169.194 488.014L168.212 488.277C167.713 488.411 167.456 488.755 167.564 489.156C167.657 489.503 168.007 489.661 168.43 489.547ZM171.249 489.351L170.228 485.541L170.962 485.344L171.142 486.017C171.218 485.486 171.603 485.108 172.17 484.956C173.032 484.725 173.758 485.195 174.001 486.102L174.629 488.446L173.895 488.642L173.306 486.442C173.144 485.837 172.679 485.524 172.142 485.668C171.545 485.828 171.251 486.426 171.43 487.091L171.983 489.155L171.249 489.351ZM177.255 487.807C176.053 488.129 175.12 487.398 174.839 486.348C174.557 485.297 175 484.198 176.202 483.876C177.094 483.636 178.007 483.959 178.344 484.793L177.61 484.989C177.427 484.576 176.903 484.376 176.389 484.514C175.626 484.719 175.406 485.41 175.602 486.143C175.799 486.876 176.342 487.363 177.098 487.16C177.62 487.02 177.932 486.645 177.938 486.182L178.664 485.987C178.757 486.821 178.223 487.547 177.255 487.807ZM182.092 485.117L182.825 484.921C182.9 485.743 182.35 486.442 181.412 486.693C180.233 487.009 179.25 486.275 178.967 485.217C178.681 484.151 179.112 483.096 180.283 482.782C181.463 482.466 182.315 483.137 182.574 484.105C182.601 484.203 182.626 484.326 182.636 484.396L179.726 485.176C179.978 485.878 180.579 486.244 181.244 486.065C181.804 485.915 182.102 485.576 182.092 485.117ZM180.441 483.372C179.844 483.532 179.548 483.968 179.604 484.633L181.767 484.054C181.565 483.484 181.069 483.203 180.441 483.372ZM183.912 485.958L182.463 480.553L183.197 480.356L184.645 485.762L183.912 485.958ZM185.654 485.491L184.206 480.086L184.939 479.89L186.387 485.295L185.654 485.491ZM187.767 480.777C188.75 480.513 189.552 480.906 189.779 481.753L190.437 484.21L189.704 484.406L189.537 483.786C189.465 484.243 189.054 484.645 188.48 484.799C187.701 485.008 187.062 484.677 186.879 483.996C186.683 483.263 187.143 482.653 188.043 482.412L188.837 482.2C189.011 482.153 189.07 482.04 189.033 481.904C188.909 481.443 188.492 481.214 187.902 481.372C187.373 481.514 187.076 481.95 187.157 482.342L186.477 482.524C186.337 481.76 186.867 481.018 187.767 480.777ZM188.468 484.179C189.163 483.992 189.444 483.439 189.256 482.736L189.232 482.645L188.249 482.908C187.75 483.042 187.494 483.386 187.601 483.787C187.694 484.135 188.044 484.292 188.468 484.179ZM190.347 478.87L191.08 478.673L191.4 479.868L192.527 479.566L192.697 480.201L191.57 480.503L192.081 482.408C192.19 482.816 192.47 482.984 192.841 482.885L193.378 482.741L193.548 483.376L192.95 483.536C192.179 483.743 191.562 483.406 191.354 482.627L190.837 480.699L190.058 480.908L189.888 480.273L190.667 480.064L190.347 478.87ZM192.679 477.816L193.496 477.597L193.743 478.519L192.926 478.738L192.679 477.816ZM194.173 483.209L193.152 479.399L193.885 479.202L194.906 483.012L194.173 483.209ZM197.597 482.356C196.455 482.662 195.41 482.059 195.105 480.917C194.799 479.776 195.402 478.731 196.543 478.425C197.685 478.119 198.722 478.724 199.028 479.866C199.334 481.008 198.738 482.05 197.597 482.356ZM197.425 481.714C198.143 481.521 198.488 480.845 198.28 480.067C198.071 479.288 197.434 478.875 196.716 479.068C195.99 479.262 195.644 479.938 195.853 480.717C196.062 481.495 196.699 481.908 197.425 481.714ZM200.257 481.579L199.236 477.768L199.969 477.572L200.149 478.245C200.226 477.714 200.61 477.335 201.177 477.183C202.039 476.952 202.765 477.422 203.008 478.33L203.636 480.673L202.903 480.87L202.313 478.67C202.151 478.065 201.686 477.752 201.15 477.896C200.552 478.056 200.259 478.653 200.437 479.318L200.99 481.382L200.257 481.579ZM205.93 480.123C205.038 480.362 204.307 480.024 204.039 479.236L204.727 479.052C204.89 479.478 205.274 479.643 205.766 479.511C206.204 479.394 206.421 479.084 206.346 478.805C206.075 477.791 204.162 479.301 203.726 477.675C203.55 477.018 203.992 476.429 204.786 476.216C205.648 475.986 206.365 476.304 206.595 477.012L205.907 477.196C205.737 476.772 205.267 476.711 204.942 476.799C204.549 476.904 204.337 477.171 204.416 477.466C204.669 478.411 206.587 476.86 207.053 478.599C207.239 479.295 206.792 479.892 205.93 480.123Z" fill="#111729"/>
</g>
</g>
<g filter="url(#filter6_d_4615_4595)">
<g clip-path="url(#clip5_4615_4595)">
<rect x="34.832" y="483.021" width="88.6323" height="21.1514" rx="4.7289" transform="rotate(-21.4962 34.832 483.021)" fill="white"/>
<path d="M49.8932 492.339C51.75 491.608 52.6625 489.51 51.9312 487.653C51.1999 485.796 49.1018 484.884 47.2449 485.615C45.3881 486.346 44.4756 488.444 45.2069 490.301C45.9382 492.158 48.0363 493.07 49.8932 492.339Z" stroke="#FE4A22" stroke-width="0.602247" stroke-miterlimit="10"/>
<path d="M49.2492 487.415L47.8906 490.539" stroke="#FE4A22" stroke-width="0.602247" stroke-linecap="round" stroke-linejoin="round"/>
<path d="M50.132 489.657L47.0078 488.298" stroke="#FE4A22" stroke-width="0.602934" stroke-linecap="round" stroke-linejoin="round"/>
<path d="M56.7283 488.451L54.7207 483.354L56.6068 482.611C57.5608 482.235 58.3662 482.465 58.6961 483.302C58.8825 483.776 58.7039 484.283 58.4336 484.558C59.0077 484.542 59.5572 484.805 59.8325 485.504C60.1968 486.429 59.7651 487.255 58.7091 487.671L56.7283 488.451ZM56.2824 485.119L57.3821 484.686C57.9501 484.462 58.1613 484.102 57.9749 483.628C57.7913 483.162 57.388 483.035 56.8126 483.262L55.7203 483.692L56.2824 485.119ZM57.2145 487.486L58.3433 487.041C59.057 486.76 59.2889 486.324 59.071 485.771C58.853 485.217 58.3859 485.056 57.6722 485.337L56.5434 485.782L57.2145 487.486ZM62.9671 481.755L64.4126 485.425L63.7062 485.703L63.4509 485.055C63.435 485.591 63.0956 486.011 62.5494 486.226C61.7192 486.553 60.9451 486.168 60.601 485.294L59.7119 483.037L60.4182 482.759L61.2528 484.878C61.4823 485.46 61.9794 485.719 62.4965 485.515C63.0718 485.289 63.296 484.662 63.0437 484.021L62.2607 482.033L62.9671 481.755ZM65.3541 485.054L63.3034 479.847L64.0098 479.569L66.0605 484.776L65.3541 485.054ZM69.523 483.412L67.5137 482.176L67.2213 482.78L67.7461 484.112L67.0324 484.393L64.9818 479.186L65.6955 478.905L66.8771 481.906L67.8954 479.814L68.813 479.452L67.8342 481.495L70.3969 483.068L69.523 483.412ZM74.9389 481.347C73.6281 481.863 72.1099 481.468 71.4216 479.72C70.7333 477.973 71.5891 476.643 72.8854 476.133C74.0433 475.677 75.2362 476.014 75.7675 476.957L74.9737 477.27C74.6511 476.707 73.8848 476.513 73.142 476.805C72.1516 477.195 71.7046 478.154 72.2008 479.414C72.697 480.673 73.6774 481.07 74.6678 480.68C75.4251 480.381 75.8604 479.714 75.7053 479.085L76.4699 478.784C76.7536 479.824 76.1187 480.882 74.9389 481.347ZM77.7792 475.854C78.7259 475.481 79.5673 475.781 79.8885 476.596L80.8206 478.963L80.1143 479.241L79.8791 478.644C79.8592 479.106 79.4964 479.552 78.9429 479.77C78.1928 480.065 77.5198 479.809 77.2617 479.153C76.9835 478.447 77.3721 477.789 78.2387 477.448L79.0034 477.147C79.1709 477.081 79.2166 476.962 79.1649 476.831C78.99 476.387 78.5491 476.207 77.9811 476.431C77.4713 476.631 77.2261 477.098 77.3505 477.478L76.6951 477.736C76.4694 476.992 76.9126 476.195 77.7792 475.854ZM78.8604 479.155C79.5304 478.891 79.7471 478.309 79.4804 477.632L79.446 477.544L78.4993 477.917C78.0187 478.107 77.803 478.477 77.955 478.863C78.087 479.198 78.4526 479.315 78.8604 479.155ZM81.6389 478.641L80.1934 474.97L80.8998 474.692L81.1551 475.34C81.171 474.804 81.5105 474.384 82.0566 474.169C82.8868 473.842 83.6609 474.227 84.0051 475.101L84.8941 477.359L84.1878 477.637L83.3532 475.518C83.1237 474.935 82.6266 474.677 82.1095 474.88C81.5342 475.107 81.31 475.734 81.5623 476.374L82.3453 478.363L81.6389 478.641ZM87.4316 476.427C86.2737 476.883 85.264 476.262 84.8653 475.25C84.4667 474.238 84.7823 473.096 85.9402 472.64C86.7995 472.301 87.7431 472.519 88.172 473.309L87.4656 473.587C87.2366 473.198 86.6938 473.058 86.1986 473.253C85.4631 473.543 85.3226 474.254 85.6008 474.961C85.879 475.667 86.4741 476.089 87.2024 475.802C87.7049 475.604 87.973 475.196 87.9261 474.735L88.6252 474.459C88.8127 475.277 88.3637 476.06 87.4316 476.427ZM91.9331 473.207L92.6395 472.929C92.8067 473.738 92.339 474.494 91.436 474.85C90.2999 475.297 89.2408 474.679 88.8393 473.66C88.4349 472.633 88.743 471.536 89.8718 471.091C91.0078 470.644 91.9306 471.214 92.2977 472.146C92.335 472.241 92.3736 472.361 92.3921 472.429L89.5884 473.533C89.9192 474.202 90.5571 474.498 91.1979 474.245C91.7368 474.033 91.9946 473.662 91.9331 473.207ZM90.0955 471.659C89.5202 471.886 89.275 472.353 89.4067 473.007L91.4894 472.187C91.2249 471.644 90.6999 471.421 90.0955 471.659ZM93.8363 473.837L91.7856 468.63L92.492 468.352L94.5427 473.559L93.8363 473.837ZM95.5146 473.176L93.464 467.969L94.1704 467.691L96.221 472.898L95.5146 473.176ZM97.0803 468.252C98.027 467.88 98.8684 468.179 99.1896 468.995L100.122 471.362L99.4153 471.64L99.1801 471.043C99.1602 471.505 98.7974 471.95 98.2439 472.168C97.4939 472.464 96.8208 472.207 96.5627 471.552C96.2845 470.846 96.6732 470.188 97.5398 469.846L98.3044 469.545C98.4719 469.479 98.5176 469.36 98.466 469.229C98.291 468.785 97.8502 468.605 97.2821 468.829C96.7724 469.03 96.5272 469.497 96.6516 469.877L95.9962 470.135C95.7705 469.391 96.2137 468.594 97.0803 468.252ZM98.1615 471.553C98.8314 471.289 99.0482 470.708 98.7815 470.03L98.7471 469.943L97.8003 470.316C97.3197 470.505 97.1041 470.876 97.2561 471.262C97.388 471.597 97.7537 471.714 98.1615 471.553ZM99.4282 466.066L100.135 465.788L100.588 466.938L101.673 466.511L101.914 467.123L100.829 467.55L101.551 469.385C101.706 469.779 102.003 469.914 102.36 469.773L102.877 469.57L103.118 470.181L102.543 470.408C101.8 470.701 101.149 470.435 100.854 469.685L100.122 467.828L99.3721 468.124L99.1312 467.512L99.8813 467.217L99.4282 466.066ZM101.626 464.754L102.413 464.445L102.763 465.333L101.976 465.643L101.626 464.754ZM103.721 469.944L102.275 466.274L102.982 465.996L104.427 469.666L103.721 469.944ZM107.026 468.71C105.926 469.143 104.82 468.662 104.387 467.562C103.954 466.462 104.435 465.356 105.535 464.923C106.634 464.49 107.733 464.974 108.166 466.073C108.599 467.173 108.126 468.277 107.026 468.71ZM106.782 468.091C107.474 467.818 107.741 467.108 107.445 466.357C107.15 465.607 106.47 465.269 105.778 465.542C105.079 465.817 104.812 466.528 105.108 467.278C105.403 468.028 106.083 468.366 106.782 468.091ZM109.581 467.636L108.135 463.966L108.842 463.688L109.097 464.336C109.113 463.8 109.452 463.38 109.998 463.165C110.829 462.838 111.603 463.223 111.947 464.097L112.836 466.354L112.129 466.632L111.295 464.513C111.065 463.931 110.568 463.672 110.051 463.876C109.476 464.102 109.252 464.729 109.504 465.37L110.287 467.358L109.581 467.636ZM115.053 465.548C114.194 465.887 113.429 465.633 113.074 464.881L113.737 464.62C113.947 465.025 114.347 465.145 114.821 464.959C115.243 464.792 115.423 464.46 115.317 464.191C114.933 463.215 113.203 464.931 112.586 463.365C112.337 462.732 112.709 462.097 113.474 461.796C114.304 461.469 115.053 461.704 115.362 462.382L114.699 462.643C114.482 462.24 114.008 462.233 113.695 462.357C113.316 462.506 113.136 462.796 113.248 463.08C113.606 463.99 115.337 462.232 115.996 463.907C116.26 464.577 115.883 465.221 115.053 465.548Z" fill="#111729"/>
</g>
</g>
<g filter="url(#filter7_d_4615_4595)">
<g clip-path="url(#clip6_4615_4595)">
<rect x="224.301" y="454.938" width="88.6323" height="21.1514" rx="4.7289" transform="rotate(15 224.301 454.938)" fill="white"/>
<path d="M230.868 471.387C232.796 471.903 234.777 470.759 235.294 468.832C235.81 466.904 234.666 464.922 232.738 464.406C230.811 463.889 228.829 465.033 228.313 466.961C227.796 468.889 228.94 470.87 230.868 471.387Z" stroke="#FE4A22" stroke-width="0.602247" stroke-miterlimit="10"/>
<path d="M233.278 467.044L230.328 468.748" stroke="#FE4A22" stroke-width="0.602247" stroke-linecap="round" stroke-linejoin="round"/>
<path d="M232.655 469.371L230.951 466.421" stroke="#FE4A22" stroke-width="0.602934" stroke-linecap="round" stroke-linejoin="round"/>
<path d="M238.673 472.326L240.091 467.033L242.049 467.558C243.04 467.824 243.551 468.487 243.318 469.357C243.186 469.848 242.74 470.15 242.36 470.21C242.831 470.539 243.116 471.077 242.921 471.803C242.664 472.763 241.826 473.17 240.73 472.877L238.673 472.326ZM240.297 469.382L241.438 469.688C242.028 469.846 242.412 469.681 242.544 469.19C242.674 468.706 242.425 468.364 241.828 468.204L240.694 467.9L240.297 469.382ZM239.638 471.839L240.81 472.153C241.551 472.351 241.997 472.138 242.151 471.564C242.305 470.989 242.025 470.582 241.284 470.384L240.112 470.07L239.638 471.839ZM247.671 470.653L246.65 474.463L245.917 474.267L246.097 473.594C245.766 474.015 245.243 474.151 244.676 473.999C243.814 473.768 243.421 472.998 243.664 472.091L244.292 469.747L245.025 469.944L244.436 472.144C244.274 472.749 244.52 473.252 245.057 473.396C245.654 473.556 246.207 473.185 246.385 472.52L246.938 470.456L247.671 470.653ZM247.628 474.725L249.076 469.32L249.81 469.516L248.361 474.921L247.628 474.725ZM251.956 475.885L251.076 473.696L250.482 474.007L250.111 475.39L249.37 475.192L250.819 469.786L251.56 469.985L250.725 473.1L252.788 472.024L253.74 472.279L251.739 473.339L252.863 476.128L251.956 475.885ZM257.538 477.445C256.177 477.081 255.192 475.86 255.678 474.046C256.164 472.232 257.643 471.672 258.989 472.032C260.191 472.354 260.949 473.335 260.815 474.41L259.991 474.189C260.066 473.545 259.566 472.932 258.795 472.726C257.767 472.45 256.837 472.955 256.487 474.263C256.136 475.571 256.689 476.472 257.717 476.748C258.503 476.958 259.25 476.68 259.5 476.083L260.293 476.296C259.902 477.301 258.763 477.773 257.538 477.445ZM263.088 474.719C264.071 474.982 264.57 475.724 264.343 476.57L263.684 479.027L262.951 478.831L263.117 478.211C262.826 478.57 262.269 478.713 261.695 478.559C260.916 478.35 260.528 477.744 260.71 477.063C260.907 476.33 261.61 476.033 262.51 476.274L263.304 476.486C263.478 476.533 263.585 476.464 263.621 476.328C263.745 475.867 263.497 475.461 262.908 475.303C262.379 475.161 261.904 475.39 261.778 475.77L261.098 475.587C261.359 474.855 262.189 474.478 263.088 474.719ZM261.995 478.015C262.69 478.202 263.21 477.863 263.399 477.16L263.423 477.069L262.44 476.806C261.941 476.672 261.547 476.842 261.44 477.243C261.347 477.591 261.571 477.902 261.995 478.015ZM264.534 479.255L265.555 475.445L266.288 475.641L266.108 476.314C266.44 475.892 266.962 475.757 267.529 475.909C268.391 476.14 268.784 476.91 268.541 477.817L267.913 480.16L267.18 479.964L267.769 477.764C267.931 477.159 267.685 476.656 267.149 476.512C266.551 476.352 265.998 476.722 265.82 477.387L265.267 479.451L264.534 479.255ZM270.507 480.92C269.305 480.598 268.862 479.499 269.144 478.448C269.426 477.397 270.359 476.667 271.561 476.989C272.453 477.228 273.082 477.964 272.957 478.854L272.224 478.658C272.271 478.208 271.918 477.773 271.404 477.636C270.64 477.431 270.104 477.92 269.908 478.653C269.711 479.386 269.939 480.079 270.695 480.282C271.216 480.422 271.675 480.253 271.911 479.854L272.637 480.049C272.301 480.818 271.475 481.18 270.507 480.92ZM276.041 481.009L276.774 481.206C276.428 481.956 275.602 482.285 274.664 482.034C273.485 481.718 273.001 480.592 273.285 479.533C273.57 478.467 274.47 477.769 275.642 478.083C276.822 478.399 277.224 479.406 276.965 480.374C276.939 480.472 276.899 480.591 276.873 480.657L273.962 479.877C273.83 480.611 274.167 481.228 274.833 481.407C275.392 481.557 275.82 481.412 276.041 481.009ZM275.484 478.672C274.887 478.512 274.412 478.742 274.129 479.346L276.291 479.926C276.402 479.331 276.112 478.841 275.484 478.672ZM277.196 482.648L278.645 477.242L279.378 477.439L277.93 482.844L277.196 482.648ZM278.939 483.115L280.387 477.709L281.12 477.906L279.672 483.311L278.939 483.115ZM283.126 480.088C284.108 480.351 284.607 481.092 284.38 481.939L283.721 484.396L282.988 484.2L283.154 483.58C282.863 483.939 282.307 484.082 281.732 483.928C280.953 483.719 280.565 483.113 280.747 482.432C280.944 481.699 281.647 481.401 282.547 481.643L283.341 481.855C283.515 481.902 283.622 481.833 283.659 481.697C283.782 481.236 283.535 480.829 282.945 480.671C282.416 480.53 281.941 480.759 281.815 481.139L281.135 480.956C281.396 480.224 282.226 479.847 283.126 480.088ZM282.032 483.384C282.727 483.571 283.247 483.232 283.436 482.529L283.46 482.438L282.477 482.175C281.978 482.041 281.584 482.211 281.477 482.612C281.384 482.96 281.608 483.271 282.032 483.384ZM286.314 479.727L287.047 479.923L286.727 481.118L287.853 481.419L287.683 482.055L286.557 481.753L286.046 483.658C285.937 484.066 286.095 484.352 286.466 484.451L287.002 484.595L286.832 485.23L286.235 485.07C285.464 484.863 285.098 484.263 285.307 483.484L285.823 481.556L285.045 481.348L285.215 480.712L285.993 480.921L286.314 479.727ZM288.861 479.98L289.677 480.198L289.43 481.121L288.614 480.902L288.861 479.98ZM287.458 485.397L288.479 481.587L289.212 481.784L288.191 485.594L287.458 485.397ZM290.849 486.371C289.707 486.065 289.104 485.02 289.41 483.879C289.716 482.737 290.761 482.134 291.902 482.44C293.044 482.745 293.64 483.788 293.334 484.93C293.028 486.071 291.991 486.677 290.849 486.371ZM291.021 485.728C291.739 485.921 292.377 485.508 292.585 484.729C292.794 483.951 292.448 483.275 291.73 483.082C291.004 482.888 290.367 483.3 290.158 484.079C289.95 484.858 290.295 485.534 291.021 485.728ZM293.541 487.027L294.562 483.217L295.295 483.414L295.115 484.086C295.447 483.665 295.969 483.529 296.536 483.681C297.398 483.912 297.792 484.682 297.548 485.589L296.92 487.933L296.187 487.736L296.777 485.536C296.939 484.932 296.693 484.428 296.156 484.284C295.559 484.124 295.006 484.495 294.827 485.16L294.274 487.224L293.541 487.027ZM299.182 488.604C298.29 488.365 297.826 487.706 297.988 486.89L298.676 487.074C298.604 487.525 298.855 487.86 299.346 487.991C299.785 488.109 300.127 487.949 300.202 487.67C300.474 486.657 298.062 487.007 298.498 485.382C298.674 484.724 299.351 484.435 300.145 484.648C301.007 484.879 301.469 485.513 301.314 486.242L300.626 486.057C300.691 485.605 300.314 485.317 299.989 485.23C299.596 485.125 299.278 485.251 299.199 485.545C298.946 486.49 301.383 486.106 300.917 487.845C300.73 488.54 300.044 488.835 299.182 488.604Z" fill="#111729"/>
</g>
</g>
<g filter="url(#filter8_dddddddd_4615_4595)">
<rect x="122.445" y="530.937" width="93.8106" height="93.8106" rx="15.6351" fill="white"/>
<g filter="url(#filter9_i_4615_4595)">
<rect x="132.865" y="541.36" width="5.2117" height="5.2117" rx="2.60585" fill="#0E3F7E" fill-opacity="0.06"/>
</g>
<g filter="url(#filter10_i_4615_4595)">
<rect x="200.617" y="541.36" width="5.2117" height="5.2117" rx="2.60585" fill="#0E3F7E" fill-opacity="0.06"/>
</g>
<g filter="url(#filter11_i_4615_4595)">
<rect x="132.865" y="609.113" width="5.2117" height="5.2117" rx="2.60585" fill="#0E3F7E" fill-opacity="0.06"/>
</g>
<g filter="url(#filter12_i_4615_4595)">
<rect x="200.617" y="609.113" width="5.2117" height="5.2117" rx="2.60585" fill="#0E3F7E" fill-opacity="0.06"/>
</g>
<path d="M193.911 590.843L174.227 556.804C173.756 555.985 173.077 555.305 172.259 554.833C171.442 554.36 170.514 554.111 169.569 554.111C168.625 554.111 167.697 554.36 166.879 554.833C166.061 555.305 165.382 555.985 164.911 556.804V556.804L145.227 590.843C144.749 591.658 144.495 592.584 144.49 593.529C144.486 594.473 144.732 595.402 145.203 596.221C145.673 597.039 146.352 597.719 147.171 598.19C147.989 598.662 148.918 598.908 149.862 598.905H189.276C190.22 598.908 191.149 598.662 191.967 598.19C192.786 597.719 193.465 597.039 193.936 596.221C194.407 595.402 194.652 594.473 194.648 593.529C194.644 592.584 194.39 591.658 193.911 590.843V590.843ZM167.778 572.032C167.778 571.557 167.966 571.101 168.302 570.765C168.638 570.429 169.094 570.241 169.569 570.241C170.044 570.241 170.5 570.429 170.836 570.765C171.172 571.101 171.361 571.557 171.361 572.032V580.99C171.361 581.465 171.172 581.92 170.836 582.256C170.5 582.592 170.044 582.781 169.569 582.781C169.094 582.781 168.638 582.592 168.302 582.256C167.966 581.92 167.778 581.465 167.778 580.99V572.032ZM169.569 591.739C169.038 591.739 168.518 591.581 168.076 591.286C167.634 590.991 167.29 590.571 167.086 590.08C166.883 589.589 166.83 589.049 166.934 588.527C167.037 588.006 167.293 587.527 167.669 587.151C168.045 586.775 168.524 586.52 169.045 586.416C169.566 586.312 170.107 586.365 170.598 586.569C171.089 586.772 171.508 587.117 171.804 587.559C172.099 588 172.256 588.52 172.256 589.051C172.256 589.764 171.973 590.448 171.469 590.952C170.965 591.456 170.282 591.739 169.569 591.739Z" fill="#FE4A22"/>
</g>
<g filter="url(#filter13_ddddd_4615_4595)">
<rect x="127.918" y="634.128" width="83.763" height="28.8302" rx="7.81755" fill="white"/>
<path d="M144.664 650.709C146.158 650.709 147.37 649.497 147.37 648.002C147.37 646.508 146.158 645.296 144.664 645.296C143.169 645.296 141.957 646.508 141.957 648.002C141.957 649.497 143.169 650.709 144.664 650.709Z" stroke="#FE4A22" stroke-width="0.902025" stroke-miterlimit="10"/>
<path d="M140.32 653.375C140.728 652.573 141.349 651.899 142.116 651.428C142.883 650.958 143.765 650.708 144.664 650.708C145.564 650.708 146.446 650.958 147.213 651.428C147.98 651.899 148.601 652.573 149.008 653.375" stroke="#FE4A22" stroke-width="0.902025" stroke-linecap="round" stroke-linejoin="round"/>
<path d="M149.534 644.755C150.132 644.755 150.616 644.27 150.616 643.672C150.616 643.074 150.132 642.589 149.534 642.589C148.936 642.589 148.451 643.074 148.451 643.672C148.451 644.27 148.936 644.755 149.534 644.755Z" stroke="#FE4A22" stroke-width="0.902025" stroke-linecap="round" stroke-linejoin="round"/>
<path d="M149.535 642.589V641.777" stroke="#FE4A22" stroke-width="0.902025" stroke-linecap="round" stroke-linejoin="round"/>
<path d="M148.595 643.131L147.898 642.725" stroke="#FE4A22" stroke-width="0.902025" stroke-linecap="round" stroke-linejoin="round"/>
<path d="M148.595 644.213L147.898 644.619" stroke="#FE4A22" stroke-width="0.902025" stroke-linecap="round" stroke-linejoin="round"/>
<path d="M149.535 644.754V645.566" stroke="#FE4A22" stroke-width="0.902025" stroke-linecap="round" stroke-linejoin="round"/>
<path d="M150.475 644.213L151.172 644.619" stroke="#FE4A22" stroke-width="0.902025" stroke-linecap="round" stroke-linejoin="round"/>
<path d="M150.475 643.131L151.172 642.725" stroke="#FE4A22" stroke-width="0.902025" stroke-linecap="round" stroke-linejoin="round"/>
<path d="M151.112 647.766C151.145 648.024 151.161 648.284 151.159 648.544C151.159 649.828 150.778 651.084 150.065 652.152C149.351 653.221 148.336 654.053 147.149 654.545C145.962 655.036 144.656 655.165 143.396 654.914C142.136 654.664 140.979 654.045 140.071 653.137C139.162 652.228 138.543 651.071 138.293 649.811C138.042 648.551 138.171 647.245 138.662 646.058C139.154 644.871 139.987 643.856 141.055 643.143C142.123 642.429 143.379 642.048 144.664 642.048C144.865 642.047 145.066 642.056 145.266 642.075" stroke="#FE4A22" stroke-width="0.902025" stroke-linecap="round" stroke-linejoin="round"/>
<path d="M163.987 652.131C162.018 652.131 160.245 650.84 160.245 648.214C160.245 645.588 162.039 644.297 163.987 644.297C165.727 644.297 167.105 645.347 167.313 646.846H166.121C165.989 645.949 165.092 645.304 163.976 645.304C162.488 645.304 161.416 646.321 161.416 648.214C161.416 650.107 162.488 651.124 163.976 651.124C165.114 651.124 166.022 650.479 166.142 649.582H167.291C167.127 651.081 165.759 652.131 163.987 652.131ZM173.537 652.043H172.345L170.528 649.133L168.701 652.043H167.498L169.927 648.181L167.552 644.385H168.734L170.517 647.229L172.312 644.385H173.493L171.119 648.181L173.537 652.043ZM178.907 652.043V645.391H176.511V644.385H182.441V645.391H180.045V652.043H178.907ZM186.158 650.249H187.219C187.022 651.387 186.027 652.131 184.67 652.131C182.963 652.131 181.902 650.785 181.902 649.253C181.902 647.711 182.865 646.442 184.561 646.442C186.267 646.442 187.176 647.656 187.176 649.056C187.176 649.199 187.165 649.374 187.154 649.472H182.941C183.029 650.512 183.707 651.223 184.67 651.223C185.48 651.223 186.005 650.873 186.158 650.249ZM184.561 647.295C183.696 647.295 183.138 647.776 182.974 648.695H186.103C186.038 647.853 185.469 647.295 184.561 647.295ZM190.38 646.442C191.802 646.442 192.743 647.262 192.743 648.488V652.043H191.682V651.146C191.419 651.737 190.719 652.131 189.887 652.131C188.76 652.131 188.016 651.453 188.016 650.468C188.016 649.407 188.859 648.75 190.161 648.75H191.31C191.561 648.75 191.682 648.619 191.682 648.422C191.682 647.754 191.2 647.295 190.347 647.295C189.581 647.295 189.023 647.776 188.99 648.334H188.005C188.093 647.251 189.078 646.442 190.38 646.442ZM190.095 651.289C191.102 651.289 191.682 650.643 191.682 649.625V649.494H190.259C189.537 649.494 189.067 649.866 189.067 650.446C189.067 650.949 189.482 651.289 190.095 651.289ZM193.972 652.043V646.529H195.034V647.514C195.264 646.89 195.854 646.442 196.664 646.442C197.561 646.442 198.229 646.846 198.447 647.568C198.666 646.945 199.388 646.442 200.242 646.442C201.434 646.442 202.178 647.262 202.178 648.542V652.043H201.117V648.838C201.117 647.962 200.679 647.372 199.946 647.372C199.104 647.372 198.601 647.962 198.601 648.838V652.043H197.539V648.838C197.539 647.962 197.102 647.372 196.38 647.372C195.537 647.372 195.034 647.962 195.034 648.838V652.043H193.972Z" fill="#111729"/>
</g>
<g filter="url(#filter14_dd_4615_4595)">
<rect x="56.7773" y="327.774" width="54.3823" height="54.3823" rx="27.1911" fill="white" shape-rendering="crispEdges"/>
<path d="M83.9683 343.919C81.7835 343.919 79.6478 344.567 77.8312 345.781C76.0147 346.994 74.5988 348.72 73.7627 350.738C72.9267 352.757 72.7079 354.978 73.1341 357.12C73.5604 359.263 74.6124 361.231 76.1573 362.776C77.7022 364.321 79.6704 365.373 81.8132 365.799C83.956 366.226 86.1771 366.007 88.1956 365.171C90.214 364.335 91.9392 362.919 93.153 361.102C94.3668 359.286 95.0147 357.15 95.0147 354.965C95.0091 352.037 93.8435 349.231 91.7731 347.161C89.7027 345.09 86.8962 343.925 83.9683 343.919V343.919ZM83.9683 361.763C83.7162 361.763 83.4698 361.688 83.2602 361.548C83.0506 361.408 82.8872 361.209 82.7907 360.976C82.6942 360.743 82.669 360.487 82.7182 360.24C82.7674 359.993 82.8888 359.766 83.067 359.587C83.2453 359.409 83.4724 359.288 83.7196 359.238C83.9669 359.189 84.2231 359.215 84.456 359.311C84.6889 359.407 84.888 359.571 85.0281 359.78C85.1681 359.99 85.2429 360.236 85.2429 360.489C85.2429 360.827 85.1086 361.151 84.8695 361.39C84.6305 361.629 84.3063 361.763 83.9683 361.763ZM84.818 356.569V356.665C84.818 356.89 84.7285 357.106 84.5691 357.266C84.4098 357.425 84.1936 357.515 83.9683 357.515C83.7429 357.515 83.5268 357.425 83.3674 357.266C83.2081 357.106 83.1186 356.89 83.1186 356.665V355.815C83.1186 355.59 83.2081 355.374 83.3674 355.214C83.5268 355.055 83.7429 354.965 83.9683 354.965C84.3884 354.965 84.7991 354.841 85.1485 354.607C85.4978 354.374 85.7701 354.042 85.9309 353.654C86.0917 353.266 86.1337 352.839 86.0518 352.427C85.9698 352.015 85.7675 351.636 85.4704 351.339C85.1733 351.042 84.7948 350.84 84.3827 350.758C83.9706 350.676 83.5435 350.718 83.1553 350.878C82.7672 351.039 82.4354 351.311 82.202 351.661C81.9686 352.01 81.844 352.421 81.844 352.841C81.844 353.066 81.7544 353.283 81.5951 353.442C81.4357 353.601 81.2196 353.691 80.9943 353.691C80.7689 353.691 80.5528 353.601 80.3934 353.442C80.2341 353.283 80.1445 353.066 80.1445 352.841C80.1445 352.121 80.3477 351.416 80.7307 350.807C81.1137 350.197 81.6609 349.708 82.3095 349.396C82.958 349.084 83.6816 348.961 84.3969 349.041C85.1121 349.122 85.7901 349.403 86.3528 349.852C86.9155 350.301 87.3401 350.899 87.5777 351.579C87.8153 352.258 87.8563 352.991 87.696 353.693C87.5356 354.395 87.1805 355.037 86.6714 355.546C86.1622 356.054 85.5198 356.409 84.818 356.569Z" fill="#FE4A22"/>
</g>
<path d="M69.5399 397.885V391.265H72.0273C73.3419 391.265 74.1363 392.059 74.1363 393.223C74.1363 394.386 73.3419 395.18 72.0273 395.18H70.3438V397.885H69.5399ZM70.3438 394.462H72.0273C72.9636 394.462 73.3135 393.875 73.3135 393.223C73.3135 392.57 72.9636 391.984 72.0273 391.984H70.3438V394.462ZM77.6635 393.79H77.0015C76.0368 393.79 75.7625 394.66 75.7625 395.786V397.885H75.0059V393.119H75.7625V394.083C75.9611 393.431 76.3583 393.119 77.0582 393.119H77.6635V393.79ZM80.3947 397.961C78.9855 397.961 77.9735 396.93 77.9735 395.502C77.9735 394.064 78.9855 393.043 80.3947 393.043C81.8133 393.043 82.8253 394.064 82.8253 395.502C82.8253 396.93 81.8133 397.961 80.3947 397.961ZM80.3947 397.28C81.3783 397.28 82.0498 396.542 82.0498 395.502C82.0498 394.462 81.3783 393.724 80.3947 393.724C79.4205 393.724 78.749 394.462 78.749 395.502C78.749 396.542 79.4205 397.28 80.3947 397.28ZM87.3146 397.885H86.5107L85.1677 395.965L83.8247 397.885H83.0208L84.7515 395.379L83.1721 393.119H84.0138L85.1677 394.783L86.3215 393.119H87.1633L85.5838 395.379L87.3146 397.885ZM88.0275 391.161H88.8976V392.22H88.0275V391.161ZM88.0842 397.885V393.119H88.8408V397.885H88.0842ZM93.5878 396.353H94.3539C94.1931 397.327 93.3514 397.961 92.1692 397.961C90.76 397.961 89.8142 396.835 89.8142 395.474C89.8142 394.074 90.6843 393.043 92.0841 393.043C93.4743 393.043 94.3066 394.008 94.3066 395.275C94.3066 395.379 94.2972 395.54 94.2877 395.606H90.5613C90.6181 396.59 91.2707 397.289 92.1692 397.289C92.9447 397.289 93.4365 396.949 93.5878 396.353ZM92.0841 393.686C91.2801 393.686 90.741 394.159 90.5992 395.001H93.5311C93.4743 394.197 92.9353 393.686 92.0841 393.686ZM96.9343 397.961C95.8277 397.961 95.1089 397.346 95.0333 396.353H95.7615C95.8277 396.968 96.2439 397.299 96.9343 397.299C97.5301 397.299 97.9273 396.968 97.9273 396.58C97.9273 395.161 95.1562 396.438 95.1562 394.376C95.1562 393.573 95.8372 393.043 96.8397 393.043C97.8895 393.043 98.5988 393.62 98.6556 394.499H97.9179C97.8517 393.894 97.2558 393.686 96.8208 393.686C96.2628 393.686 95.8939 393.951 95.8939 394.367C95.8939 395.653 98.684 394.376 98.684 396.561C98.684 397.412 97.9841 397.961 96.9343 397.961Z" fill="#677489"/>
<g filter="url(#filter15_dd_4615_4595)">
<rect x="143.994" y="327.774" width="54.3823" height="54.3823" rx="27.1911" fill="white" shape-rendering="crispEdges"/>
<path d="M171.185 343.919C169 343.919 166.865 344.567 165.048 345.781C163.231 346.994 161.816 348.72 160.98 350.738C160.143 352.757 159.925 354.978 160.351 357.12C160.777 359.263 161.829 361.231 163.374 362.776C164.919 364.321 166.887 365.373 169.03 365.799C171.173 366.226 173.394 366.007 175.412 365.171C177.431 364.335 179.156 362.919 180.37 361.102C181.584 359.286 182.231 357.15 182.231 354.965C182.226 352.037 181.06 349.231 178.99 347.161C176.919 345.09 174.113 343.925 171.185 343.919V343.919ZM171.185 361.763C170.933 361.763 170.687 361.688 170.477 361.548C170.267 361.408 170.104 361.209 170.008 360.976C169.911 360.743 169.886 360.487 169.935 360.24C169.984 359.993 170.106 359.766 170.284 359.587C170.462 359.409 170.689 359.288 170.936 359.238C171.184 359.189 171.44 359.215 171.673 359.311C171.906 359.407 172.105 359.571 172.245 359.78C172.385 359.99 172.46 360.236 172.46 360.489C172.46 360.827 172.325 361.151 172.086 361.39C171.847 361.629 171.523 361.763 171.185 361.763ZM172.035 356.569V356.665C172.035 356.89 171.945 357.106 171.786 357.266C171.627 357.425 171.41 357.515 171.185 357.515C170.96 357.515 170.744 357.425 170.584 357.266C170.425 357.106 170.335 356.89 170.335 356.665V355.815C170.335 355.59 170.425 355.374 170.584 355.214C170.744 355.055 170.96 354.965 171.185 354.965C171.605 354.965 172.016 354.841 172.365 354.607C172.715 354.374 172.987 354.042 173.148 353.654C173.308 353.266 173.351 352.839 173.269 352.427C173.187 352.015 172.984 351.636 172.687 351.339C172.39 351.042 172.012 350.84 171.6 350.758C171.187 350.676 170.76 350.718 170.372 350.878C169.984 351.039 169.652 351.311 169.419 351.661C169.185 352.01 169.061 352.421 169.061 352.841C169.061 353.066 168.971 353.283 168.812 353.442C168.653 353.601 168.436 353.691 168.211 353.691C167.986 353.691 167.77 353.601 167.61 353.442C167.451 353.283 167.361 353.066 167.361 352.841C167.361 352.121 167.565 351.416 167.947 350.807C168.33 350.197 168.878 349.708 169.526 349.396C170.175 349.084 170.898 348.961 171.614 349.041C172.329 349.122 173.007 349.403 173.57 349.852C174.132 350.301 174.557 350.899 174.795 351.579C175.032 352.258 175.073 352.991 174.913 353.693C174.752 354.395 174.397 355.037 173.888 355.546C173.379 356.054 172.737 356.409 172.035 356.569Z" fill="#FE4A22"/>
</g>
<path d="M156.757 397.885V391.265H159.244C160.559 391.265 161.353 392.059 161.353 393.223C161.353 394.386 160.559 395.18 159.244 395.18H157.561V397.885H156.757ZM157.561 394.462H159.244C160.18 394.462 160.53 393.875 160.53 393.223C160.53 392.57 160.18 391.984 159.244 391.984H157.561V394.462ZM164.88 393.79H164.218C163.254 393.79 162.979 394.66 162.979 395.786V397.885H162.223V393.119H162.979V394.083C163.178 393.431 163.575 393.119 164.275 393.119H164.88V393.79ZM167.611 397.961C166.202 397.961 165.19 396.93 165.19 395.502C165.19 394.064 166.202 393.043 167.611 393.043C169.03 393.043 170.042 394.064 170.042 395.502C170.042 396.93 169.03 397.961 167.611 397.961ZM167.611 397.28C168.595 397.28 169.267 396.542 169.267 395.502C169.267 394.462 168.595 393.724 167.611 393.724C166.637 393.724 165.966 394.462 165.966 395.502C165.966 396.542 166.637 397.28 167.611 397.28ZM174.531 397.885H173.727L172.384 395.965L171.041 397.885H170.238L171.968 395.379L170.389 393.119H171.231L172.384 394.783L173.538 393.119H174.38L172.801 395.379L174.531 397.885ZM175.244 391.161H176.114V392.22H175.244V391.161ZM175.301 397.885V393.119H176.058V397.885H175.301ZM180.805 396.353H181.571C181.41 397.327 180.568 397.961 179.386 397.961C177.977 397.961 177.031 396.835 177.031 395.474C177.031 394.074 177.901 393.043 179.301 393.043C180.691 393.043 181.523 394.008 181.523 395.275C181.523 395.379 181.514 395.54 181.505 395.606H177.778C177.835 396.59 178.487 397.289 179.386 397.289C180.162 397.289 180.653 396.949 180.805 396.353ZM179.301 393.686C178.497 393.686 177.958 394.159 177.816 395.001H180.748C180.691 394.197 180.152 393.686 179.301 393.686ZM184.151 397.961C183.045 397.961 182.326 397.346 182.25 396.353H182.978C183.045 396.968 183.461 397.299 184.151 397.299C184.747 397.299 185.144 396.968 185.144 396.58C185.144 395.161 182.373 396.438 182.373 394.376C182.373 393.573 183.054 393.043 184.056 393.043C185.106 393.043 185.816 393.62 185.872 394.499H185.135C185.068 393.894 184.473 393.686 184.038 393.686C183.48 393.686 183.111 393.951 183.111 394.367C183.111 395.653 185.901 394.376 185.901 396.561C185.901 397.412 185.201 397.961 184.151 397.961Z" fill="#677489"/>
<g filter="url(#filter16_dd_4615_4595)">
<rect x="231.209" y="327.774" width="54.3823" height="54.3823" rx="27.1911" fill="white" shape-rendering="crispEdges"/>
<path d="M258.4 343.919C256.215 343.919 254.079 344.567 252.263 345.781C250.446 346.994 249.03 348.72 248.194 350.738C247.358 352.757 247.14 354.978 247.566 357.12C247.992 359.263 249.044 361.231 250.589 362.776C252.134 364.321 254.102 365.373 256.245 365.799C258.388 366.226 260.609 366.007 262.627 365.171C264.646 364.335 266.371 362.919 267.585 361.102C268.798 359.286 269.446 357.15 269.446 354.965C269.441 352.037 268.275 349.231 266.205 347.161C264.134 345.09 261.328 343.925 258.4 343.919V343.919ZM258.4 361.763C258.148 361.763 257.901 361.688 257.692 361.548C257.482 361.408 257.319 361.209 257.222 360.976C257.126 360.743 257.101 360.487 257.15 360.24C257.199 359.993 257.32 359.766 257.499 359.587C257.677 359.409 257.904 359.288 258.151 359.238C258.399 359.189 258.655 359.215 258.888 359.311C259.121 359.407 259.32 359.571 259.46 359.78C259.6 359.99 259.675 360.236 259.675 360.489C259.675 360.827 259.54 361.151 259.301 361.39C259.062 361.629 258.738 361.763 258.4 361.763ZM259.25 356.569V356.665C259.25 356.89 259.16 357.106 259.001 357.266C258.841 357.425 258.625 357.515 258.4 357.515C258.175 357.515 257.958 357.425 257.799 357.266C257.64 357.106 257.55 356.89 257.55 356.665V355.815C257.55 355.59 257.64 355.374 257.799 355.214C257.958 355.055 258.175 354.965 258.4 354.965C258.82 354.965 259.231 354.841 259.58 354.607C259.929 354.374 260.202 354.042 260.363 353.654C260.523 353.266 260.565 352.839 260.483 352.427C260.401 352.015 260.199 351.636 259.902 351.339C259.605 351.042 259.226 350.84 258.814 350.758C258.402 350.676 257.975 350.718 257.587 350.878C257.199 351.039 256.867 351.311 256.634 351.661C256.4 352.01 256.276 352.421 256.276 352.841C256.276 353.066 256.186 353.283 256.027 353.442C255.867 353.601 255.651 353.691 255.426 353.691C255.201 353.691 254.984 353.601 254.825 353.442C254.666 353.283 254.576 353.066 254.576 352.841C254.576 352.121 254.779 351.416 255.162 350.807C255.545 350.197 256.093 349.708 256.741 349.396C257.39 349.084 258.113 348.961 258.828 349.041C259.544 349.122 260.222 349.403 260.784 349.852C261.347 350.301 261.772 350.899 262.009 351.579C262.247 352.258 262.288 352.991 262.128 353.693C261.967 354.395 261.612 355.037 261.103 355.546C260.594 356.054 259.951 356.409 259.25 356.569Z" fill="#FE4A22"/>
</g>
<path d="M243.971 397.885V391.265H246.459C247.774 391.265 248.568 392.059 248.568 393.223C248.568 394.386 247.774 395.18 246.459 395.18H244.775V397.885H243.971ZM244.775 394.462H246.459C247.395 394.462 247.745 393.875 247.745 393.223C247.745 392.57 247.395 391.984 246.459 391.984H244.775V394.462ZM252.095 393.79H251.433C250.468 393.79 250.194 394.66 250.194 395.786V397.885H249.438V393.119H250.194V394.083C250.393 393.431 250.79 393.119 251.49 393.119H252.095V393.79ZM254.826 397.961C253.417 397.961 252.405 396.93 252.405 395.502C252.405 394.064 253.417 393.043 254.826 393.043C256.245 393.043 257.257 394.064 257.257 395.502C257.257 396.93 256.245 397.961 254.826 397.961ZM254.826 397.28C255.81 397.28 256.481 396.542 256.481 395.502C256.481 394.462 255.81 393.724 254.826 393.724C253.852 393.724 253.181 394.462 253.181 395.502C253.181 396.542 253.852 397.28 254.826 397.28ZM261.746 397.885H260.942L259.599 395.965L258.256 397.885H257.452L259.183 395.379L257.604 393.119H258.445L259.599 394.783L260.753 393.119H261.595L260.015 395.379L261.746 397.885ZM262.459 391.161H263.329V392.22H262.459V391.161ZM262.516 397.885V393.119H263.272V397.885H262.516ZM268.019 396.353H268.786C268.625 397.327 267.783 397.961 266.601 397.961C265.192 397.961 264.246 396.835 264.246 395.474C264.246 394.074 265.116 393.043 266.516 393.043C267.906 393.043 268.738 394.008 268.738 395.275C268.738 395.379 268.729 395.54 268.719 395.606H264.993C265.05 396.59 265.702 397.289 266.601 397.289C267.376 397.289 267.868 396.949 268.019 396.353ZM266.516 393.686C265.712 393.686 265.173 394.159 265.031 395.001H267.963C267.906 394.197 267.367 393.686 266.516 393.686ZM271.366 397.961C270.259 397.961 269.541 397.346 269.465 396.353H270.193C270.259 396.968 270.675 397.299 271.366 397.299C271.962 397.299 272.359 396.968 272.359 396.58C272.359 395.161 269.588 396.438 269.588 394.376C269.588 393.573 270.269 393.043 271.271 393.043C272.321 393.043 273.03 393.62 273.087 394.499H272.35C272.283 393.894 271.687 393.686 271.252 393.686C270.694 393.686 270.326 393.951 270.326 394.367C270.326 395.653 273.116 394.376 273.116 396.561C273.116 397.412 272.416 397.961 271.366 397.961Z" fill="#677489"/>
<g filter="url(#filter17_d_4615_4595)">
<rect x="13" y="119" width="72.4732" height="72.7088" rx="36.2366" fill="white" fill-opacity="0.7" shape-rendering="crispEdges"/>
<g clip-path="url(#clip7_4615_4595)">
<rect x="16.623" y="122.624" width="65.2258" height="65.4615" rx="32.6129" fill="url(#paint6_radial_4615_4595)"/>
<g filter="url(#filter18_i_4615_4595)">
<rect x="16.623" y="122.624" width="65.2258" height="65.4043" rx="3.62366" fill="white" fill-opacity="0.01"/>
</g>
</g>
</g>
<g filter="url(#filter19_d_4615_4595)">
<rect x="92.5098" y="119" width="72.4732" height="72.7088" rx="36.2366" fill="white" fill-opacity="0.7" shape-rendering="crispEdges"/>
<g clip-path="url(#clip8_4615_4595)">
<rect x="96.1328" y="122.624" width="65.2258" height="65.4615" rx="32.6129" fill="url(#paint7_radial_4615_4595)"/>
</g>
</g>
<g filter="url(#filter20_d_4615_4595)">
<rect x="172.018" y="119" width="72.4732" height="72.7088" rx="36.2366" fill="white" fill-opacity="0.7" shape-rendering="crispEdges"/>
<g clip-path="url(#clip9_4615_4595)">
<rect x="175.641" y="122.624" width="65.2258" height="65.4615" rx="32.6129" fill="url(#paint8_radial_4615_4595)"/>
<g filter="url(#filter21_i_4615_4595)">
<rect x="175.641" y="122.624" width="65.2258" height="65.4043" rx="3.62366" fill="white" fill-opacity="0.01"/>
</g>
</g>
</g>
<g filter="url(#filter22_d_4615_4595)">
<rect x="251.527" y="119" width="72.4732" height="72.7088" rx="36.2366" fill="white" fill-opacity="0.7" shape-rendering="crispEdges"/>
<g clip-path="url(#clip10_4615_4595)">
<rect x="255.15" y="122.624" width="65.2258" height="65.4615" rx="32.6129" fill="url(#paint9_radial_4615_4595)"/>
<rect x="255.15" y="122.624" width="65.2258" height="65.4043" rx="32.6129" fill="white" fill-opacity="0.01"/>
</g>
</g>
<defs>
<filter id="filter0_ddddd_4615_4595" x="7.19794" y="0.568108" width="324.678" height="232.696" filterUnits="userSpaceOnUse" color-interpolation-filters="sRGB">
<feFlood flood-opacity="0" result="BackgroundImageFix"/>
<feColorMatrix in="SourceAlpha" type="matrix" values="0 0 0 0 0 0 0 0 0 0 0 0 0 0 0 0 0 0 127 0" result="hardAlpha"/>
<feOffset dy="2.83781"/>
<feGaussianBlur stdDeviation="2.12836"/>
<feComposite in2="hardAlpha" operator="out"/>
<feColorMatrix type="matrix" values="0 0 0 0 0 0 0 0 0 0 0 0 0 0 0 0 0 0 0.04 0"/>
<feBlend mode="normal" in2="BackgroundImageFix" result="effect1_dropShadow_4615_4595"/>
<feColorMatrix in="SourceAlpha" type="matrix" values="0 0 0 0 0 0 0 0 0 0 0 0 0 0 0 0 0 0 127 0" result="hardAlpha"/>
<feOffset dy="34.0538"/>
<feGaussianBlur stdDeviation="48.2428"/>
<feComposite in2="hardAlpha" operator="out"/>
<feColorMatrix type="matrix" values="0 0 0 0 0.184314 0 0 0 0 0.188235 0 0 0 0 0.215686 0 0 0 0.05 0"/>
<feBlend mode="normal" in2="effect1_dropShadow_4615_4595" result="effect2_dropShadow_4615_4595"/>
<feColorMatrix in="SourceAlpha" type="matrix" values="0 0 0 0 0 0 0 0 0 0 0 0 0 0 0 0 0 0 127 0" result="hardAlpha"/>
<feOffset dy="5.67563"/>
<feGaussianBlur stdDeviation="4.25672"/>
<feComposite in2="hardAlpha" operator="out"/>
<feColorMatrix type="matrix" values="0 0 0 0 0.133333 0 0 0 0 0.164706 0 0 0 0 0.207843 0 0 0 0.04 0"/>
<feBlend mode="normal" in2="effect2_dropShadow_4615_4595" result="effect3_dropShadow_4615_4595"/>
<feColorMatrix in="SourceAlpha" type="matrix" values="0 0 0 0 0 0 0 0 0 0 0 0 0 0 0 0 0 0 127 0" result="hardAlpha"/>
<feOffset dy="1.41891"/>
<feGaussianBlur stdDeviation="0.709453"/>
<feComposite in2="hardAlpha" operator="out"/>
<feColorMatrix type="matrix" values="0 0 0 0 0 0 0 0 0 0 0 0 0 0 0 0 0 0 0.05 0"/>
<feBlend mode="normal" in2="effect3_dropShadow_4615_4595" result="effect4_dropShadow_4615_4595"/>
<feColorMatrix in="SourceAlpha" type="matrix" values="0 0 0 0 0 0 0 0 0 0 0 0 0 0 0 0 0 0 127 0" result="hardAlpha"/>
<feMorphology radius="1.41891" operator="dilate" in="SourceAlpha" result="effect5_dropShadow_4615_4595"/>
<feOffset/>
<feComposite in2="hardAlpha" operator="out"/>
<feColorMatrix type="matrix" values="0 0 0 0 0.129412 0 0 0 0 0.129412 0 0 0 0 0.14902 0 0 0 0.05 0"/>
<feBlend mode="normal" in2="effect4_dropShadow_4615_4595" result="effect5_dropShadow_4615_4595"/>
<feBlend mode="normal" in="SourceGraphic" in2="effect5_dropShadow_4615_4595" result="shape"/>
</filter>
<filter id="filter1_d_4615_4595" x="231.683" y="243.498" width="53.9339" height="43.7489" filterUnits="userSpaceOnUse" color-interpolation-filters="sRGB">
<feFlood flood-opacity="0" result="BackgroundImageFix"/>
<feColorMatrix in="SourceAlpha" type="matrix" values="0 0 0 0 0 0 0 0 0 0 0 0 0 0 0 0 0 0 127 0" result="hardAlpha"/>
<feMorphology radius="0.722817" operator="dilate" in="SourceAlpha" result="effect1_dropShadow_4615_4595"/>
<feOffset/>
<feComposite in2="hardAlpha" operator="out"/>
<feColorMatrix type="matrix" values="0 0 0 0 0.129412 0 0 0 0 0.129412 0 0 0 0 0.14902 0 0 0 0.05 0"/>
<feBlend mode="normal" in2="BackgroundImageFix" result="effect1_dropShadow_4615_4595"/>
<feBlend mode="normal" in="SourceGraphic" in2="effect1_dropShadow_4615_4595" result="shape"/>
</filter>
<filter id="filter2_d_4615_4595" x="141.861" y="248.322" width="53.7777" height="34.1014" filterUnits="userSpaceOnUse" color-interpolation-filters="sRGB">
<feFlood flood-opacity="0" result="BackgroundImageFix"/>
<feColorMatrix in="SourceAlpha" type="matrix" values="0 0 0 0 0 0 0 0 0 0 0 0 0 0 0 0 0 0 127 0" result="hardAlpha"/>
<feMorphology radius="0.722817" operator="dilate" in="SourceAlpha" result="effect1_dropShadow_4615_4595"/>
<feOffset/>
<feComposite in2="hardAlpha" operator="out"/>
<feColorMatrix type="matrix" values="0 0 0 0 0.129412 0 0 0 0 0.129412 0 0 0 0 0.14902 0 0 0 0.05 0"/>
<feBlend mode="normal" in2="BackgroundImageFix" result="effect1_dropShadow_4615_4595"/>
<feBlend mode="normal" in="SourceGraphic" in2="effect1_dropShadow_4615_4595" result="shape"/>
</filter>
<filter id="filter3_d_4615_4595" x="56.8436" y="249.264" width="53.3929" height="32.2176" filterUnits="userSpaceOnUse" color-interpolation-filters="sRGB">
<feFlood flood-opacity="0" result="BackgroundImageFix"/>
<feColorMatrix in="SourceAlpha" type="matrix" values="0 0 0 0 0 0 0 0 0 0 0 0 0 0 0 0 0 0 127 0" result="hardAlpha"/>
<feMorphology radius="0.722817" operator="dilate" in="SourceAlpha" result="effect1_dropShadow_4615_4595"/>
<feOffset/>
<feComposite in2="hardAlpha" operator="out"/>
<feColorMatrix type="matrix" values="0 0 0 0 0.129412 0 0 0 0 0.129412 0 0 0 0 0.14902 0 0 0 0.05 0"/>
<feBlend mode="normal" in2="BackgroundImageFix" result="effect1_dropShadow_4615_4595"/>
<feBlend mode="normal" in="SourceGraphic" in2="effect1_dropShadow_4615_4595" result="shape"/>
</filter>
<filter id="filter4_d_4615_4595" x="123.525" y="412.079" width="92.5316" height="44.8162" filterUnits="userSpaceOnUse" color-interpolation-filters="sRGB">
<feFlood flood-opacity="0" result="BackgroundImageFix"/>
<feColorMatrix in="SourceAlpha" type="matrix" values="0 0 0 0 0 0 0 0 0 0 0 0 0 0 0 0 0 0 127 0" result="hardAlpha"/>
<feMorphology radius="0.722817" operator="dilate" in="SourceAlpha" result="effect1_dropShadow_4615_4595"/>
<feOffset/>
<feComposite in2="hardAlpha" operator="out"/>
<feColorMatrix type="matrix" values="0 0 0 0 0.129412 0 0 0 0 0.129412 0 0 0 0 0.14902 0 0 0 0.05 0"/>
<feBlend mode="normal" in2="BackgroundImageFix" result="effect1_dropShadow_4615_4595"/>
<feBlend mode="normal" in="SourceGraphic" in2="effect1_dropShadow_4615_4595" result="shape"/>
</filter>
<filter id="filter5_d_4615_4595" x="123.525" y="464.745" width="92.5316" height="44.8162" filterUnits="userSpaceOnUse" color-interpolation-filters="sRGB">
<feFlood flood-opacity="0" result="BackgroundImageFix"/>
<feColorMatrix in="SourceAlpha" type="matrix" values="0 0 0 0 0 0 0 0 0 0 0 0 0 0 0 0 0 0 127 0" result="hardAlpha"/>
<feMorphology radius="0.722817" operator="dilate" in="SourceAlpha" result="effect1_dropShadow_4615_4595"/>
<feOffset/>
<feComposite in2="hardAlpha" operator="out"/>
<feColorMatrix type="matrix" values="0 0 0 0 0.129412 0 0 0 0 0.129412 0 0 0 0 0.14902 0 0 0 0.05 0"/>
<feBlend mode="normal" in2="BackgroundImageFix" result="effect1_dropShadow_4615_4595"/>
<feBlend mode="normal" in="SourceGraphic" in2="effect1_dropShadow_4615_4595" result="shape"/>
</filter>
<filter id="filter6_d_4615_4595" x="34.1092" y="449.82" width="91.6644" height="53.6043" filterUnits="userSpaceOnUse" color-interpolation-filters="sRGB">
<feFlood flood-opacity="0" result="BackgroundImageFix"/>
<feColorMatrix in="SourceAlpha" type="matrix" values="0 0 0 0 0 0 0 0 0 0 0 0 0 0 0 0 0 0 127 0" result="hardAlpha"/>
<feMorphology radius="0.722817" operator="dilate" in="SourceAlpha" result="effect1_dropShadow_4615_4595"/>
<feOffset/>
<feComposite in2="hardAlpha" operator="out"/>
<feColorMatrix type="matrix" values="0 0 0 0 0.129412 0 0 0 0 0.129412 0 0 0 0 0.14902 0 0 0 0.05 0"/>
<feBlend mode="normal" in2="BackgroundImageFix" result="effect1_dropShadow_4615_4595"/>
<feBlend mode="normal" in="SourceGraphic" in2="effect1_dropShadow_4615_4595" result="shape"/>
</filter>
<filter id="filter7_d_4615_4595" x="218.103" y="454.215" width="92.5316" height="44.8162" filterUnits="userSpaceOnUse" color-interpolation-filters="sRGB">
<feFlood flood-opacity="0" result="BackgroundImageFix"/>
<feColorMatrix in="SourceAlpha" type="matrix" values="0 0 0 0 0 0 0 0 0 0 0 0 0 0 0 0 0 0 127 0" result="hardAlpha"/>
<feMorphology radius="0.722817" operator="dilate" in="SourceAlpha" result="effect1_dropShadow_4615_4595"/>
<feOffset/>
<feComposite in2="hardAlpha" operator="out"/>
<feColorMatrix type="matrix" values="0 0 0 0 0.129412 0 0 0 0 0.129412 0 0 0 0 0.14902 0 0 0 0.05 0"/>
<feBlend mode="normal" in2="BackgroundImageFix" result="effect1_dropShadow_4615_4595"/>
<feBlend mode="normal" in="SourceGraphic" in2="effect1_dropShadow_4615_4595" result="shape"/>
</filter>
<filter id="filter8_dddddddd_4615_4595" x="101.599" y="529.634" width="135.504" height="147.23" filterUnits="userSpaceOnUse" color-interpolation-filters="sRGB">
<feFlood flood-opacity="0" result="BackgroundImageFix"/>
<feColorMatrix in="SourceAlpha" type="matrix" values="0 0 0 0 0 0 0 0 0 0 0 0 0 0 0 0 0 0 127 0" result="hardAlpha"/>
<feMorphology radius="10.4234" operator="erode" in="SourceAlpha" result="effect1_dropShadow_4615_4595"/>
<feOffset dy="20.8468"/>
<feGaussianBlur stdDeviation="10.4234"/>
<feComposite in2="hardAlpha" operator="out"/>
<feColorMatrix type="matrix" values="0 0 0 0 0.164706 0 0 0 0 0.2 0 0 0 0 0.27451 0 0 0 0.04 0"/>
<feBlend mode="normal" in2="BackgroundImageFix" result="effect1_dropShadow_4615_4595"/>
<feColorMatrix in="SourceAlpha" type="matrix" values="0 0 0 0 0 0 0 0 0 0 0 0 0 0 0 0 0 0 127 0" result="hardAlpha"/>
<feMorphology radius="3.25731" operator="erode" in="SourceAlpha" result="effect2_dropShadow_4615_4595"/>
<feOffset dy="6.51462"/>
<feGaussianBlur stdDeviation="3.25731"/>
<feComposite in2="hardAlpha" operator="out"/>
<feColorMatrix type="matrix" values="0 0 0 0 0.164706 0 0 0 0 0.2 0 0 0 0 0.27451 0 0 0 0.03 0"/>
<feBlend mode="normal" in2="effect1_dropShadow_4615_4595" result="effect2_dropShadow_4615_4595"/>
<feColorMatrix in="SourceAlpha" type="matrix" values="0 0 0 0 0 0 0 0 0 0 0 0 0 0 0 0 0 0 127 0" result="hardAlpha"/>
<feMorphology radius="1.95439" operator="erode" in="SourceAlpha" result="effect3_dropShadow_4615_4595"/>
<feOffset dy="3.90877"/>
<feGaussianBlur stdDeviation="1.95439"/>
<feComposite in2="hardAlpha" operator="out"/>
<feColorMatrix type="matrix" values="0 0 0 0 0.164706 0 0 0 0 0.2 0 0 0 0 0.27451 0 0 0 0.05 0"/>
<feBlend mode="normal" in2="effect2_dropShadow_4615_4595" result="effect3_dropShadow_4615_4595"/>
<feColorMatrix in="SourceAlpha" type="matrix" values="0 0 0 0 0 0 0 0 0 0 0 0 0 0 0 0 0 0 127 0" result="hardAlpha"/>
<feMorphology radius="0.651462" operator="erode" in="SourceAlpha" result="effect4_dropShadow_4615_4595"/>
<feOffset dy="1.30292"/>
<feGaussianBlur stdDeviation="0.651462"/>
<feComposite in2="hardAlpha" operator="out"/>
<feColorMatrix type="matrix" values="0 0 0 0 0.164706 0 0 0 0 0.2 0 0 0 0 0.27451 0 0 0 0.03 0"/>
<feBlend mode="normal" in2="effect3_dropShadow_4615_4595" result="effect4_dropShadow_4615_4595"/>
<feColorMatrix in="SourceAlpha" type="matrix" values="0 0 0 0 0 0 0 0 0 0 0 0 0 0 0 0 0 0 127 0" result="hardAlpha"/>
<feMorphology radius="1.30292" operator="dilate" in="SourceAlpha" result="effect5_dropShadow_4615_4595"/>
<feOffset/>
<feComposite in2="hardAlpha" operator="out"/>
<feColorMatrix type="matrix" values="0 0 0 0 0.054902 0 0 0 0 0.247059 0 0 0 0 0.494118 0 0 0 0.06 0"/>
<feBlend mode="normal" in2="effect4_dropShadow_4615_4595" result="effect5_dropShadow_4615_4595"/>
<feColorMatrix in="SourceAlpha" type="matrix" values="0 0 0 0 0 0 0 0 0 0 0 0 0 0 0 0 0 0 127 0" result="hardAlpha"/>
<feMorphology radius="10.4234" operator="erode" in="SourceAlpha" result="effect6_dropShadow_4615_4595"/>
<feOffset dy="31.2702"/>
<feGaussianBlur stdDeviation="15.6351"/>
<feComposite in2="hardAlpha" operator="out"/>
<feColorMatrix type="matrix" values="0 0 0 0 0.996078 0 0 0 0 0.290196 0 0 0 0 0.133333 0 0 0 0.12 0"/>
<feBlend mode="normal" in2="effect5_dropShadow_4615_4595" result="effect6_dropShadow_4615_4595"/>
<feColorMatrix in="SourceAlpha" type="matrix" values="0 0 0 0 0 0 0 0 0 0 0 0 0 0 0 0 0 0 127 0" result="hardAlpha"/>
<feMorphology radius="10.4234" operator="erode" in="SourceAlpha" result="effect7_dropShadow_4615_4595"/>
<feOffset dy="20.8468"/>
<feGaussianBlur stdDeviation="10.4234"/>
<feComposite in2="hardAlpha" operator="out"/>
<feColorMatrix type="matrix" values="0 0 0 0 0.996078 0 0 0 0 0.290196 0 0 0 0 0.133333 0 0 0 0.16 0"/>
<feBlend mode="normal" in2="effect6_dropShadow_4615_4595" result="effect7_dropShadow_4615_4595"/>
<feColorMatrix in="SourceAlpha" type="matrix" values="0 0 0 0 0 0 0 0 0 0 0 0 0 0 0 0 0 0 127 0" result="hardAlpha"/>
<feMorphology radius="3.25731" operator="erode" in="SourceAlpha" result="effect8_dropShadow_4615_4595"/>
<feOffset dy="6.51462"/>
<feGaussianBlur stdDeviation="3.25731"/>
<feComposite in2="hardAlpha" operator="out"/>
<feColorMatrix type="matrix" values="0 0 0 0 0.996078 0 0 0 0 0.290196 0 0 0 0 0.133333 0 0 0 0.12 0"/>
<feBlend mode="normal" in2="effect7_dropShadow_4615_4595" result="effect8_dropShadow_4615_4595"/>
<feBlend mode="normal" in="SourceGraphic" in2="effect8_dropShadow_4615_4595" result="shape"/>
</filter>
<filter id="filter9_i_4615_4595" x="132.865" y="541.36" width="5.21094" height="6.51484" filterUnits="userSpaceOnUse" color-interpolation-filters="sRGB">
<feFlood flood-opacity="0" result="BackgroundImageFix"/>
<feBlend mode="normal" in="SourceGraphic" in2="BackgroundImageFix" result="shape"/>
<feColorMatrix in="SourceAlpha" type="matrix" values="0 0 0 0 0 0 0 0 0 0 0 0 0 0 0 0 0 0 127 0" result="hardAlpha"/>
<feOffset dy="1.30292"/>
<feGaussianBlur stdDeviation="1.30292"/>
<feComposite in2="hardAlpha" operator="arithmetic" k2="-1" k3="1"/>
<feColorMatrix type="matrix" values="0 0 0 0 0.054902 0 0 0 0 0.247059 0 0 0 0 0.494118 0 0 0 0.08 0"/>
<feBlend mode="normal" in2="shape" result="effect1_innerShadow_4615_4595"/>
</filter>
<filter id="filter10_i_4615_4595" x="200.617" y="541.36" width="5.21094" height="6.51484" filterUnits="userSpaceOnUse" color-interpolation-filters="sRGB">
<feFlood flood-opacity="0" result="BackgroundImageFix"/>
<feBlend mode="normal" in="SourceGraphic" in2="BackgroundImageFix" result="shape"/>
<feColorMatrix in="SourceAlpha" type="matrix" values="0 0 0 0 0 0 0 0 0 0 0 0 0 0 0 0 0 0 127 0" result="hardAlpha"/>
<feOffset dy="1.30292"/>
<feGaussianBlur stdDeviation="1.30292"/>
<feComposite in2="hardAlpha" operator="arithmetic" k2="-1" k3="1"/>
<feColorMatrix type="matrix" values="0 0 0 0 0.054902 0 0 0 0 0.247059 0 0 0 0 0.494118 0 0 0 0.08 0"/>
<feBlend mode="normal" in2="shape" result="effect1_innerShadow_4615_4595"/>
</filter>
<filter id="filter11_i_4615_4595" x="132.865" y="609.113" width="5.21094" height="6.51484" filterUnits="userSpaceOnUse" color-interpolation-filters="sRGB">
<feFlood flood-opacity="0" result="BackgroundImageFix"/>
<feBlend mode="normal" in="SourceGraphic" in2="BackgroundImageFix" result="shape"/>
<feColorMatrix in="SourceAlpha" type="matrix" values="0 0 0 0 0 0 0 0 0 0 0 0 0 0 0 0 0 0 127 0" result="hardAlpha"/>
<feOffset dy="1.30292"/>
<feGaussianBlur stdDeviation="1.30292"/>
<feComposite in2="hardAlpha" operator="arithmetic" k2="-1" k3="1"/>
<feColorMatrix type="matrix" values="0 0 0 0 0.054902 0 0 0 0 0.247059 0 0 0 0 0.494118 0 0 0 0.08 0"/>
<feBlend mode="normal" in2="shape" result="effect1_innerShadow_4615_4595"/>
</filter>
<filter id="filter12_i_4615_4595" x="200.617" y="609.113" width="5.21094" height="6.51484" filterUnits="userSpaceOnUse" color-interpolation-filters="sRGB">
<feFlood flood-opacity="0" result="BackgroundImageFix"/>
<feBlend mode="normal" in="SourceGraphic" in2="BackgroundImageFix" result="shape"/>
<feColorMatrix in="SourceAlpha" type="matrix" values="0 0 0 0 0 0 0 0 0 0 0 0 0 0 0 0 0 0 127 0" result="hardAlpha"/>
<feOffset dy="1.30292"/>
<feGaussianBlur stdDeviation="1.30292"/>
<feComposite in2="hardAlpha" operator="arithmetic" k2="-1" k3="1"/>
<feColorMatrix type="matrix" values="0 0 0 0 0.054902 0 0 0 0 0.247059 0 0 0 0 0.494118 0 0 0 0.08 0"/>
<feBlend mode="normal" in2="shape" result="effect1_innerShadow_4615_4595"/>
</filter>
<filter id="filter13_ddddd_4615_4595" x="59.2071" y="589.668" width="221.185" height="166.252" filterUnits="userSpaceOnUse" color-interpolation-filters="sRGB">
<feFlood flood-opacity="0" result="BackgroundImageFix"/>
<feColorMatrix in="SourceAlpha" type="matrix" values="0 0 0 0 0 0 0 0 0 0 0 0 0 0 0 0 0 0 127 0" result="hardAlpha"/>
<feOffset dy="2.02091"/>
<feGaussianBlur stdDeviation="1.51568"/>
<feComposite in2="hardAlpha" operator="out"/>
<feColorMatrix type="matrix" values="0 0 0 0 0 0 0 0 0 0 0 0 0 0 0 0 0 0 0.04 0"/>
<feBlend mode="normal" in2="BackgroundImageFix" result="effect1_dropShadow_4615_4595"/>
<feColorMatrix in="SourceAlpha" type="matrix" values="0 0 0 0 0 0 0 0 0 0 0 0 0 0 0 0 0 0 127 0" result="hardAlpha"/>
<feOffset dy="24.2509"/>
<feGaussianBlur stdDeviation="34.3554"/>
<feComposite in2="hardAlpha" operator="out"/>
<feColorMatrix type="matrix" values="0 0 0 0 0.184314 0 0 0 0 0.188235 0 0 0 0 0.215686 0 0 0 0.05 0"/>
<feBlend mode="normal" in2="effect1_dropShadow_4615_4595" result="effect2_dropShadow_4615_4595"/>
<feColorMatrix in="SourceAlpha" type="matrix" values="0 0 0 0 0 0 0 0 0 0 0 0 0 0 0 0 0 0 127 0" result="hardAlpha"/>
<feOffset dy="4.04181"/>
<feGaussianBlur stdDeviation="3.03136"/>
<feComposite in2="hardAlpha" operator="out"/>
<feColorMatrix type="matrix" values="0 0 0 0 0.133333 0 0 0 0 0.164706 0 0 0 0 0.207843 0 0 0 0.04 0"/>
<feBlend mode="normal" in2="effect2_dropShadow_4615_4595" result="effect3_dropShadow_4615_4595"/>
<feColorMatrix in="SourceAlpha" type="matrix" values="0 0 0 0 0 0 0 0 0 0 0 0 0 0 0 0 0 0 127 0" result="hardAlpha"/>
<feOffset dy="1.01045"/>
<feGaussianBlur stdDeviation="0.505227"/>
<feComposite in2="hardAlpha" operator="out"/>
<feColorMatrix type="matrix" values="0 0 0 0 0 0 0 0 0 0 0 0 0 0 0 0 0 0 0.05 0"/>
<feBlend mode="normal" in2="effect3_dropShadow_4615_4595" result="effect4_dropShadow_4615_4595"/>
<feColorMatrix in="SourceAlpha" type="matrix" values="0 0 0 0 0 0 0 0 0 0 0 0 0 0 0 0 0 0 127 0" result="hardAlpha"/>
<feMorphology radius="1.01045" operator="dilate" in="SourceAlpha" result="effect5_dropShadow_4615_4595"/>
<feOffset/>
<feComposite in2="hardAlpha" operator="out"/>
<feColorMatrix type="matrix" values="0 0 0 0 0.129412 0 0 0 0 0.129412 0 0 0 0 0.14902 0 0 0 0.05 0"/>
<feBlend mode="normal" in2="effect4_dropShadow_4615_4595" result="effect5_dropShadow_4615_4595"/>
<feBlend mode="normal" in="SourceGraphic" in2="effect5_dropShadow_4615_4595" result="shape"/>
</filter>
<filter id="filter14_dd_4615_4595" x="51.9218" y="322.918" width="64.0939" height="64.0934" filterUnits="userSpaceOnUse" color-interpolation-filters="sRGB">
<feFlood flood-opacity="0" result="BackgroundImageFix"/>
<feColorMatrix in="SourceAlpha" type="matrix" values="0 0 0 0 0 0 0 0 0 0 0 0 0 0 0 0 0 0 127 0" result="hardAlpha"/>
<feOffset/>
<feGaussianBlur stdDeviation="2.42778"/>
<feComposite in2="hardAlpha" operator="out"/>
<feColorMatrix type="matrix" values="0 0 0 0 0.572549 0 0 0 0 0.611765 0 0 0 0 0.768627 0 0 0 0.02 0"/>
<feBlend mode="normal" in2="BackgroundImageFix" result="effect1_dropShadow_4615_4595"/>
<feColorMatrix in="SourceAlpha" type="matrix" values="0 0 0 0 0 0 0 0 0 0 0 0 0 0 0 0 0 0 127 0" result="hardAlpha"/>
<feOffset dy="1.94222"/>
<feGaussianBlur stdDeviation="0.971112"/>
<feComposite in2="hardAlpha" operator="out"/>
<feColorMatrix type="matrix" values="0 0 0 0 0.572549 0 0 0 0 0.611765 0 0 0 0 0.768627 0 0 0 0.24 0"/>
<feBlend mode="normal" in2="effect1_dropShadow_4615_4595" result="effect2_dropShadow_4615_4595"/>
<feBlend mode="normal" in="SourceGraphic" in2="effect2_dropShadow_4615_4595" result="shape"/>
</filter>
<filter id="filter15_dd_4615_4595" x="139.139" y="322.918" width="64.0939" height="64.0934" filterUnits="userSpaceOnUse" color-interpolation-filters="sRGB">
<feFlood flood-opacity="0" result="BackgroundImageFix"/>
<feColorMatrix in="SourceAlpha" type="matrix" values="0 0 0 0 0 0 0 0 0 0 0 0 0 0 0 0 0 0 127 0" result="hardAlpha"/>
<feOffset/>
<feGaussianBlur stdDeviation="2.42778"/>
<feComposite in2="hardAlpha" operator="out"/>
<feColorMatrix type="matrix" values="0 0 0 0 0.572549 0 0 0 0 0.611765 0 0 0 0 0.768627 0 0 0 0.02 0"/>
<feBlend mode="normal" in2="BackgroundImageFix" result="effect1_dropShadow_4615_4595"/>
<feColorMatrix in="SourceAlpha" type="matrix" values="0 0 0 0 0 0 0 0 0 0 0 0 0 0 0 0 0 0 127 0" result="hardAlpha"/>
<feOffset dy="1.94222"/>
<feGaussianBlur stdDeviation="0.971112"/>
<feComposite in2="hardAlpha" operator="out"/>
<feColorMatrix type="matrix" values="0 0 0 0 0.572549 0 0 0 0 0.611765 0 0 0 0 0.768627 0 0 0 0.24 0"/>
<feBlend mode="normal" in2="effect1_dropShadow_4615_4595" result="effect2_dropShadow_4615_4595"/>
<feBlend mode="normal" in="SourceGraphic" in2="effect2_dropShadow_4615_4595" result="shape"/>
</filter>
<filter id="filter16_dd_4615_4595" x="226.353" y="322.918" width="64.0939" height="64.0934" filterUnits="userSpaceOnUse" color-interpolation-filters="sRGB">
<feFlood flood-opacity="0" result="BackgroundImageFix"/>
<feColorMatrix in="SourceAlpha" type="matrix" values="0 0 0 0 0 0 0 0 0 0 0 0 0 0 0 0 0 0 127 0" result="hardAlpha"/>
<feOffset/>
<feGaussianBlur stdDeviation="2.42778"/>
<feComposite in2="hardAlpha" operator="out"/>
<feColorMatrix type="matrix" values="0 0 0 0 0.572549 0 0 0 0 0.611765 0 0 0 0 0.768627 0 0 0 0.02 0"/>
<feBlend mode="normal" in2="BackgroundImageFix" result="effect1_dropShadow_4615_4595"/>
<feColorMatrix in="SourceAlpha" type="matrix" values="0 0 0 0 0 0 0 0 0 0 0 0 0 0 0 0 0 0 127 0" result="hardAlpha"/>
<feOffset dy="1.94222"/>
<feGaussianBlur stdDeviation="0.971112"/>
<feComposite in2="hardAlpha" operator="out"/>
<feColorMatrix type="matrix" values="0 0 0 0 0.572549 0 0 0 0 0.611765 0 0 0 0 0.768627 0 0 0 0.24 0"/>
<feBlend mode="normal" in2="effect1_dropShadow_4615_4595" result="effect2_dropShadow_4615_4595"/>
<feBlend mode="normal" in="SourceGraphic" in2="effect2_dropShadow_4615_4595" result="shape"/>
</filter>
<filter id="filter17_d_4615_4595" x="9" y="119" width="80.4727" height="80.709" filterUnits="userSpaceOnUse" color-interpolation-filters="sRGB">
<feFlood flood-opacity="0" result="BackgroundImageFix"/>
<feColorMatrix in="SourceAlpha" type="matrix" values="0 0 0 0 0 0 0 0 0 0 0 0 0 0 0 0 0 0 127 0" result="hardAlpha"/>
<feOffset dy="4"/>
<feGaussianBlur stdDeviation="2"/>
<feComposite in2="hardAlpha" operator="out"/>
<feColorMatrix type="matrix" values="0 0 0 0 0 0 0 0 0 0 0 0 0 0 0 0 0 0 0.05 0"/>
<feBlend mode="normal" in2="BackgroundImageFix" result="effect1_dropShadow_4615_4595"/>
<feBlend mode="normal" in="SourceGraphic" in2="effect1_dropShadow_4615_4595" result="shape"/>
</filter>
<filter id="filter18_i_4615_4595" x="16.623" y="122.624" width="65.2266" height="65.4043" filterUnits="userSpaceOnUse" color-interpolation-filters="sRGB">
<feFlood flood-opacity="0" result="BackgroundImageFix"/>
<feBlend mode="normal" in="SourceGraphic" in2="BackgroundImageFix" result="shape"/>
<feColorMatrix in="SourceAlpha" type="matrix" values="0 0 0 0 0 0 0 0 0 0 0 0 0 0 0 0 0 0 127 0" result="hardAlpha"/>
<feMorphology radius="0.905914" operator="erode" in="SourceAlpha" result="effect1_innerShadow_4615_4595"/>
<feOffset/>
<feComposite in2="hardAlpha" operator="arithmetic" k2="-1" k3="1"/>
<feColorMatrix type="matrix" values="0 0 0 0 0 0 0 0 0 0 0 0 0 0 0 0 0 0 0.05 0"/>
<feBlend mode="normal" in2="shape" result="effect1_innerShadow_4615_4595"/>
</filter>
<filter id="filter19_d_4615_4595" x="88.5098" y="119" width="80.4727" height="80.709" filterUnits="userSpaceOnUse" color-interpolation-filters="sRGB">
<feFlood flood-opacity="0" result="BackgroundImageFix"/>
<feColorMatrix in="SourceAlpha" type="matrix" values="0 0 0 0 0 0 0 0 0 0 0 0 0 0 0 0 0 0 127 0" result="hardAlpha"/>
<feOffset dy="4"/>
<feGaussianBlur stdDeviation="2"/>
<feComposite in2="hardAlpha" operator="out"/>
<feColorMatrix type="matrix" values="0 0 0 0 0 0 0 0 0 0 0 0 0 0 0 0 0 0 0.05 0"/>
<feBlend mode="normal" in2="BackgroundImageFix" result="effect1_dropShadow_4615_4595"/>
<feBlend mode="normal" in="SourceGraphic" in2="effect1_dropShadow_4615_4595" result="shape"/>
</filter>
<filter id="filter20_d_4615_4595" x="168.018" y="119" width="80.4727" height="80.709" filterUnits="userSpaceOnUse" color-interpolation-filters="sRGB">
<feFlood flood-opacity="0" result="BackgroundImageFix"/>
<feColorMatrix in="SourceAlpha" type="matrix" values="0 0 0 0 0 0 0 0 0 0 0 0 0 0 0 0 0 0 127 0" result="hardAlpha"/>
<feOffset dy="4"/>
<feGaussianBlur stdDeviation="2"/>
<feComposite in2="hardAlpha" operator="out"/>
<feColorMatrix type="matrix" values="0 0 0 0 0 0 0 0 0 0 0 0 0 0 0 0 0 0 0.05 0"/>
<feBlend mode="normal" in2="BackgroundImageFix" result="effect1_dropShadow_4615_4595"/>
<feBlend mode="normal" in="SourceGraphic" in2="effect1_dropShadow_4615_4595" result="shape"/>
</filter>
<filter id="filter21_i_4615_4595" x="175.641" y="122.624" width="65.2266" height="65.4043" filterUnits="userSpaceOnUse" color-interpolation-filters="sRGB">
<feFlood flood-opacity="0" result="BackgroundImageFix"/>
<feBlend mode="normal" in="SourceGraphic" in2="BackgroundImageFix" result="shape"/>
<feColorMatrix in="SourceAlpha" type="matrix" values="0 0 0 0 0 0 0 0 0 0 0 0 0 0 0 0 0 0 127 0" result="hardAlpha"/>
<feMorphology radius="0.905914" operator="erode" in="SourceAlpha" result="effect1_innerShadow_4615_4595"/>
<feOffset/>
<feComposite in2="hardAlpha" operator="arithmetic" k2="-1" k3="1"/>
<feColorMatrix type="matrix" values="0 0 0 0 0 0 0 0 0 0 0 0 0 0 0 0 0 0 0.05 0"/>
<feBlend mode="normal" in2="shape" result="effect1_innerShadow_4615_4595"/>
</filter>
<filter id="filter22_d_4615_4595" x="247.527" y="119" width="80.4727" height="80.709" filterUnits="userSpaceOnUse" color-interpolation-filters="sRGB">
<feFlood flood-opacity="0" result="BackgroundImageFix"/>
<feColorMatrix in="SourceAlpha" type="matrix" values="0 0 0 0 0 0 0 0 0 0 0 0 0 0 0 0 0 0 127 0" result="hardAlpha"/>
<feOffset dy="4"/>
<feGaussianBlur stdDeviation="2"/>
<feComposite in2="hardAlpha" operator="out"/>
<feColorMatrix type="matrix" values="0 0 0 0 0 0 0 0 0 0 0 0 0 0 0 0 0 0 0.05 0"/>
<feBlend mode="normal" in2="BackgroundImageFix" result="effect1_dropShadow_4615_4595"/>
<feBlend mode="normal" in="SourceGraphic" in2="effect1_dropShadow_4615_4595" result="shape"/>
</filter>
<linearGradient id="paint0_linear_4615_4595" x1="251.133" y1="398.379" x2="381.686" y2="312.794" gradientUnits="userSpaceOnUse">
<stop stop-color="#FE4A22"/>
<stop offset="1" stop-color="#534CFB"/>
</linearGradient>
<linearGradient id="paint1_linear_4615_4595" x1="266.541" y1="398.379" x2="135.988" y2="312.794" gradientUnits="userSpaceOnUse">
<stop stop-color="#FE4A22"/>
<stop offset="1" stop-color="#534CFB"/>
</linearGradient>
<linearGradient id="paint2_linear_4615_4595" x1="161.233" y1="398.379" x2="291.785" y2="312.794" gradientUnits="userSpaceOnUse">
<stop stop-color="#FE4A22"/>
<stop offset="1" stop-color="#534CFB"/>
</linearGradient>
<linearGradient id="paint3_linear_4615_4595" x1="176.64" y1="398.379" x2="46.0878" y2="312.794" gradientUnits="userSpaceOnUse">
<stop stop-color="#FE4A22"/>
<stop offset="1" stop-color="#534CFB"/>
</linearGradient>
<linearGradient id="paint4_linear_4615_4595" x1="76.0217" y1="398.379" x2="206.574" y2="312.794" gradientUnits="userSpaceOnUse">
<stop stop-color="#FE4A22"/>
<stop offset="1" stop-color="#534CFB"/>
</linearGradient>
<linearGradient id="paint5_linear_4615_4595" x1="91.4295" y1="398.379" x2="-39.1231" y2="312.794" gradientUnits="userSpaceOnUse">
<stop stop-color="#FE4A22"/>
<stop offset="1" stop-color="#534CFB"/>
</linearGradient>
<radialGradient id="paint6_radial_4615_4595" cx="0" cy="0" r="1" gradientUnits="userSpaceOnUse" gradientTransform="translate(48.7598 116.392) scale(157.338 105.203)">
<stop stop-color="#6C47FF" stop-opacity="0.3"/>
<stop offset="0.4124" stop-color="#FFF963" stop-opacity="0.24"/>
<stop offset="0.6234" stop-color="#38DAFD" stop-opacity="0.18"/>
<stop offset="0.9189" stop-color="#6248F6" stop-opacity="0"/>
</radialGradient>
<radialGradient id="paint7_radial_4615_4595" cx="0" cy="0" r="1" gradientUnits="userSpaceOnUse" gradientTransform="translate(128.27 116.392) scale(157.338 105.203)">
<stop stop-color="#6C47FF" stop-opacity="0.3"/>
<stop offset="0.4124" stop-color="#FFF963" stop-opacity="0.24"/>
<stop offset="0.6234" stop-color="#38DAFD" stop-opacity="0.18"/>
<stop offset="0.9189" stop-color="#6248F6" stop-opacity="0"/>
</radialGradient>
<radialGradient id="paint8_radial_4615_4595" cx="0" cy="0" r="1" gradientUnits="userSpaceOnUse" gradientTransform="translate(207.777 116.392) scale(157.338 105.203)">
<stop stop-color="#6C47FF" stop-opacity="0.3"/>
<stop offset="0.4124" stop-color="#FFF963" stop-opacity="0.24"/>
<stop offset="0.6234" stop-color="#38DAFD" stop-opacity="0.18"/>
<stop offset="0.9189" stop-color="#6248F6" stop-opacity="0"/>
</radialGradient>
<radialGradient id="paint9_radial_4615_4595" cx="0" cy="0" r="1" gradientUnits="userSpaceOnUse" gradientTransform="translate(287.287 116.392) scale(157.338 105.203)">
<stop stop-color="#6C47FF" stop-opacity="0.3"/>
<stop offset="0.4124" stop-color="#FFF963" stop-opacity="0.24"/>
<stop offset="0.6234" stop-color="#38DAFD" stop-opacity="0.18"/>
<stop offset="0.9189" stop-color="#6248F6" stop-opacity="0"/>
</radialGradient>
<clipPath id="clip0_4615_4595">
<rect x="232.406" y="268.526" width="48.61" height="20.7825" rx="4.7289" transform="rotate(-30 232.406 268.526)" fill="white"/>
</clipPath>
<clipPath id="clip1_4615_4595">
<rect x="147.963" y="249.044" width="48.61" height="20.7825" rx="4.7289" transform="rotate(15 147.963 249.044)" fill="white"/>
</clipPath>
<clipPath id="clip2_4615_4595">
<rect x="57.5664" y="260.464" width="48.61" height="20.7825" rx="4.7289" transform="rotate(-12.4477 57.5664 260.464)" fill="white"/>
</clipPath>
<clipPath id="clip3_4615_4595">
<rect x="129.723" y="412.802" width="88.6323" height="21.1514" rx="4.7289" transform="rotate(15 129.723 412.802)" fill="white"/>
</clipPath>
<clipPath id="clip4_4615_4595">
<rect x="124.248" y="488.408" width="88.6323" height="21.1514" rx="4.7289" transform="rotate(-15 124.248 488.408)" fill="white"/>
</clipPath>
<clipPath id="clip5_4615_4595">
<rect x="34.832" y="483.021" width="88.6323" height="21.1514" rx="4.7289" transform="rotate(-21.4962 34.832 483.021)" fill="white"/>
</clipPath>
<clipPath id="clip6_4615_4595">
<rect x="224.301" y="454.938" width="88.6323" height="21.1514" rx="4.7289" transform="rotate(15 224.301 454.938)" fill="white"/>
</clipPath>
<clipPath id="clip7_4615_4595">
<rect x="16.623" y="122.624" width="65.2258" height="65.4615" rx="32.6129" fill="white"/>
</clipPath>
<clipPath id="clip8_4615_4595">
<rect x="96.1328" y="122.624" width="65.2258" height="65.4615" rx="32.6129" fill="white"/>
</clipPath>
<clipPath id="clip9_4615_4595">
<rect x="175.641" y="122.624" width="65.2258" height="65.4615" rx="32.6129" fill="white"/>
</clipPath>
<clipPath id="clip10_4615_4595">
<rect x="255.15" y="122.624" width="65.2258" height="65.4615" rx="32.6129" fill="white"/>
</clipPath>
</defs>
</svg>
