<svg width="337" height="766" viewBox="0 0 337 766" fill="none" xmlns="http://www.w3.org/2000/svg">
<path d="M21 765H13C6.37258 765 0.99999 759.627 0.99999 753L1 94C1 87.3726 6.37258 82 13 82L324 82C330.627 82 336 87.3726 336 94L336 753C336 759.627 330.627 765 324 765H316" stroke="#534CFB" stroke-opacity="0.16" stroke-width="2" stroke-dasharray="8 8"/>
<g filter="url(#filter0_ddddd_4612_2126)">
<rect x="103.684" y="63" width="131.707" height="39.7246" rx="11.3513" fill="white"/>
<path d="M126.387 87.4739C128.346 87.4739 129.934 85.8858 129.934 83.9267C129.934 81.9676 128.346 80.3794 126.387 80.3794C124.428 80.3794 122.84 81.9676 122.84 83.9267C122.84 85.8858 124.428 87.4739 126.387 87.4739Z" stroke="#FFCB00" stroke-width="1.41891" stroke-linecap="round" stroke-linejoin="round"/>
<path d="M132.416 81.7983C133.242 81.797 134.057 81.9887 134.797 82.3582C135.536 82.7277 136.178 83.2648 136.673 83.9267" stroke="#FFCB00" stroke-width="1.41891" stroke-linecap="round" stroke-linejoin="round"/>
<path d="M116.1 83.9267C116.594 83.2648 117.237 82.7277 117.976 82.3582C118.715 81.9887 119.53 81.797 120.356 81.7983" stroke="#FFCB00" stroke-width="1.41891" stroke-linecap="round" stroke-linejoin="round"/>
<path d="M121.279 90.6663C121.746 89.7095 122.473 88.9032 123.376 88.3392C124.279 87.7751 125.323 87.4761 126.387 87.4761C127.452 87.4761 128.495 87.7751 129.399 88.3392C130.302 88.9032 131.028 89.7095 131.495 90.6663" stroke="#FFCB00" stroke-width="1.41891" stroke-linecap="round" stroke-linejoin="round"/>
<path d="M120.356 81.7982C119.818 81.7987 119.29 81.646 118.835 81.3578C118.38 81.0696 118.016 80.6579 117.787 80.1707C117.557 79.6835 117.471 79.141 117.538 78.6066C117.605 78.0722 117.823 77.5679 118.166 77.1527C118.509 76.7375 118.963 76.4285 119.475 76.2619C119.987 76.0952 120.536 76.0777 121.058 76.2115C121.58 76.3452 122.053 76.6247 122.422 77.0173C122.79 77.4098 123.04 77.8992 123.141 78.4283" stroke="#FFCB00" stroke-width="1.41891" stroke-linecap="round" stroke-linejoin="round"/>
<path d="M129.631 78.4283C129.732 77.8992 129.981 77.4098 130.35 77.0173C130.719 76.6247 131.192 76.3452 131.714 76.2115C132.235 76.0777 132.784 76.0952 133.297 76.2619C133.809 76.4285 134.263 76.7375 134.606 77.1527C134.949 77.5679 135.167 78.0722 135.234 78.6066C135.301 79.141 135.215 79.6835 134.985 80.1707C134.755 80.6579 134.392 81.0696 133.937 81.3578C133.482 81.646 132.954 81.7987 132.415 81.7982" stroke="#FFCB00" stroke-width="1.41891" stroke-linecap="round" stroke-linejoin="round"/>
<path d="M153.049 88.4852C150.283 88.4852 147.795 86.6723 147.795 82.9849C147.795 79.2975 150.314 77.4845 153.049 77.4845C155.492 77.4845 157.428 78.9595 157.72 81.0644H156.045C155.861 79.8045 154.601 78.898 153.034 78.898C150.944 78.898 149.438 80.3269 149.438 82.9849C149.438 85.6429 150.944 87.0717 153.034 87.0717C154.632 87.0717 155.907 86.1652 156.076 84.9054H157.689C157.459 87.0103 155.538 88.4852 153.049 88.4852ZM165.969 80.6188V88.3623H164.478V86.9949C164.063 87.9628 163.142 88.4852 161.989 88.4852C160.238 88.4852 159.101 87.2254 159.101 85.3817V80.6188H160.591V85.0898C160.591 86.3189 161.313 87.1485 162.404 87.1485C163.618 87.1485 164.478 86.1652 164.478 84.8132V80.6188H165.969ZM170.598 88.4852C168.785 88.4852 167.571 87.4712 167.463 85.8426H168.861C168.954 86.7337 169.599 87.2407 170.598 87.2407C171.489 87.2407 172.057 86.7644 172.057 86.196C172.057 84.1372 167.663 86.027 167.663 82.7237C167.663 81.387 168.8 80.4959 170.413 80.4959C172.165 80.4959 173.363 81.4638 173.44 82.9234H172.042C171.934 82.0323 171.074 81.6789 170.413 81.6789C169.614 81.6789 169.077 82.0784 169.077 82.6776C169.077 84.5981 173.501 82.6315 173.501 86.1652C173.501 87.5787 172.349 88.4852 170.598 88.4852ZM175.836 78.1913H177.326V80.6188H179.616V81.9094H177.326V85.7811C177.326 86.6108 177.772 87.0717 178.525 87.0717H179.616V88.3623H178.402C176.835 88.3623 175.836 87.4097 175.836 85.8272V81.9094H174.254V80.6188H175.836V78.1913ZM184.256 88.4852C181.936 88.4852 180.261 86.8105 180.261 84.4906C180.261 82.1706 181.936 80.4959 184.256 80.4959C186.576 80.4959 188.235 82.1706 188.235 84.4906C188.235 86.8105 186.576 88.4852 184.256 88.4852ZM184.256 87.1793C185.715 87.1793 186.714 86.0731 186.714 84.4906C186.714 82.908 185.715 81.8018 184.256 81.8018C182.781 81.8018 181.782 82.908 181.782 84.4906C181.782 86.0731 182.781 87.1793 184.256 87.1793ZM189.694 88.3623V80.6188H191.184V82.0016C191.507 81.1258 192.337 80.4959 193.474 80.4959C194.733 80.4959 195.671 81.0644 195.978 82.0784C196.285 81.2026 197.299 80.4959 198.498 80.4959C200.172 80.4959 201.217 81.6482 201.217 83.4458V88.3623H199.727V83.8606C199.727 82.6315 199.112 81.8018 198.083 81.8018C196.9 81.8018 196.193 82.6315 196.193 83.8606V88.3623H194.703V83.8606C194.703 82.6315 194.088 81.8018 193.074 81.8018C191.891 81.8018 191.184 82.6315 191.184 83.8606V88.3623H189.694ZM208.654 85.8426H210.144C209.867 87.4405 208.469 88.4852 206.564 88.4852C204.167 88.4852 202.677 86.5954 202.677 84.4445C202.677 82.2781 204.029 80.4959 206.41 80.4959C208.807 80.4959 210.082 82.2013 210.082 84.1679C210.082 84.3676 210.067 84.6135 210.052 84.7517H204.137C204.259 86.2113 205.212 87.21 206.564 87.21C207.701 87.21 208.439 86.7183 208.654 85.8426ZM206.41 81.6943C205.197 81.6943 204.413 82.3703 204.183 83.6609H208.577C208.485 82.4779 207.686 81.6943 206.41 81.6943ZM216.086 81.9094H214.965C213.551 81.9094 213.09 83.1692 213.09 84.8593V88.3623H211.6V80.6188H213.09V82.1091C213.444 81.0797 214.058 80.6188 215.149 80.6188H216.086V81.9094ZM219.826 88.4852C218.013 88.4852 216.799 87.4712 216.691 85.8426H218.09C218.182 86.7337 218.827 87.2407 219.826 87.2407C220.717 87.2407 221.285 86.7644 221.285 86.196C221.285 84.1372 216.891 86.027 216.891 82.7237C216.891 81.387 218.028 80.4959 219.641 80.4959C221.393 80.4959 222.591 81.4638 222.668 82.9234H221.27C221.162 82.0323 220.302 81.6789 219.641 81.6789C218.842 81.6789 218.305 82.0784 218.305 82.6776C218.305 84.5981 222.73 82.6315 222.73 86.1652C222.73 87.5787 221.577 88.4852 219.826 88.4852Z" fill="#111729"/>
</g>
<path d="M260 392C260 392 260 397.429 260 428.48C260 459.531 167 468 167 468" stroke="#534CFB" stroke-opacity="0.32" stroke-width="1.18" stroke-dasharray="7.11 7.11"/>
<path d="M85 392C85 392 85 394.546 85 427.64C85 460.734 166 473 166 473" stroke="#534CFB" stroke-opacity="0.32" stroke-width="1.18" stroke-dasharray="7.11 7.11"/>
<g filter="url(#filter1_d_4612_2126)">
<rect x="60.2344" y="409" width="48.61" height="20.7825" rx="4.7289" fill="white"/>
<path d="M73.5452 416.681L68.125 422.101" stroke="#FE4A22" stroke-width="0.602247" stroke-linecap="round" stroke-linejoin="round"/>
<path d="M73.5452 422.101L68.125 416.681" stroke="#FE4A22" stroke-width="0.602247" stroke-linecap="round" stroke-linejoin="round"/>
<path d="M81.0445 421.954C79.6357 421.954 78.3677 421.03 78.3677 419.152C78.3677 417.273 79.6513 416.35 81.0445 416.35C82.2889 416.35 83.2751 417.101 83.4238 418.173H82.5707C82.4768 417.532 81.835 417.07 81.0367 417.07C79.9722 417.07 79.2052 417.798 79.2052 419.152C79.2052 420.506 79.9722 421.234 81.0367 421.234C81.8507 421.234 82.5003 420.772 82.5864 420.13H83.4082C83.2908 421.202 82.3124 421.954 81.0445 421.954ZM85.7 417.884C86.7175 417.884 87.3906 418.471 87.3906 419.347V421.891H86.6314V421.249C86.4436 421.672 85.9426 421.954 85.3478 421.954C84.5416 421.954 84.0094 421.468 84.0094 420.764C84.0094 420.005 84.6121 419.535 85.5435 419.535H86.3653C86.5453 419.535 86.6314 419.441 86.6314 419.3C86.6314 418.823 86.287 418.494 85.6765 418.494C85.1287 418.494 84.7295 418.839 84.706 419.238H84.0016C84.0642 418.463 84.7686 417.884 85.7 417.884ZM85.4965 421.351C86.2166 421.351 86.6314 420.889 86.6314 420.161V420.067H85.6139C85.0973 420.067 84.7608 420.334 84.7608 420.748C84.7608 421.108 85.0582 421.351 85.4965 421.351ZM88.2701 421.891V417.946H89.0293V418.643C89.2406 418.15 89.7102 417.884 90.2972 417.884C91.1894 417.884 91.7686 418.526 91.7686 419.465V421.891H91.0094V419.614C91.0094 418.987 90.6416 418.565 90.0859 418.565C89.4676 418.565 89.0293 419.066 89.0293 419.754V421.891H88.2701ZM94.4711 421.954C93.2267 421.954 92.5144 421.007 92.5144 419.919C92.5144 418.831 93.2267 417.884 94.4711 417.884C95.3947 417.884 96.193 418.432 96.3026 419.324H95.5434C95.4729 418.878 95.019 418.549 94.4868 418.549C93.6963 418.549 93.3049 419.16 93.3049 419.919C93.3049 420.678 93.7041 421.288 94.4868 421.288C95.0268 421.288 95.426 421.007 95.5512 420.561H96.3026C96.1773 421.39 95.4729 421.954 94.4711 421.954ZM99.8393 420.608H100.598C100.458 421.422 99.7454 421.954 98.7749 421.954C97.5539 421.954 96.7947 420.991 96.7947 419.895C96.7947 418.792 97.4834 417.884 98.6966 417.884C99.9176 417.884 100.567 418.753 100.567 419.754C100.567 419.856 100.559 419.981 100.552 420.052H97.5382C97.6008 420.795 98.0861 421.304 98.7749 421.304C99.354 421.304 99.7297 421.054 99.8393 420.608ZM98.6966 418.494C98.0783 418.494 97.6791 418.839 97.5617 419.496H99.8002C99.7532 418.893 99.3462 418.494 98.6966 418.494ZM101.379 421.891V416.295H102.138V421.891H101.379Z" fill="#111729"/>
</g>
<path d="M171 513L174.406 507.1L167.594 507.1L171 513ZM170.41 389L170.41 392.444L171.59 392.444L171.59 389L170.41 389ZM170.41 399.333L170.41 406.222L171.59 406.222L171.59 399.333L170.41 399.333ZM170.41 413.111L170.41 420L171.59 420L171.59 413.111L170.41 413.111ZM170.41 426.889L170.41 433.778L171.59 433.778L171.59 426.889L170.41 426.889ZM170.41 440.667L170.41 447.556L171.59 447.556L171.59 440.667L170.41 440.667ZM170.41 454.444L170.41 461.333L171.59 461.333L171.59 454.444L170.41 454.444ZM170.41 468.222L170.41 475.111L171.59 475.111L171.59 468.222L170.41 468.222ZM170.41 482L170.41 488.889L171.59 488.889L171.59 482L170.41 482ZM170.41 495.778L170.41 502.667L171.59 502.667L171.59 495.778L170.41 495.778Z" fill="#534CFB" fill-opacity="0.32"/>
<g filter="url(#filter2_d_4612_2126)">
<rect x="145" y="409" width="48.61" height="20.7825" rx="4.7289" fill="white"/>
<path d="M158.311 416.681L152.891 422.101" stroke="#FE4A22" stroke-width="0.602247" stroke-linecap="round" stroke-linejoin="round"/>
<path d="M158.311 422.101L152.891 416.681" stroke="#FE4A22" stroke-width="0.602247" stroke-linecap="round" stroke-linejoin="round"/>
<path d="M165.81 421.954C164.401 421.954 163.133 421.03 163.133 419.152C163.133 417.273 164.417 416.35 165.81 416.35C167.055 416.35 168.041 417.101 168.189 418.173H167.336C167.242 417.532 166.601 417.07 165.802 417.07C164.738 417.07 163.971 417.798 163.971 419.152C163.971 420.506 164.738 421.234 165.802 421.234C166.616 421.234 167.266 420.772 167.352 420.13H168.174C168.056 421.202 167.078 421.954 165.81 421.954ZM170.466 417.884C171.483 417.884 172.156 418.471 172.156 419.347V421.891H171.397V421.249C171.209 421.672 170.708 421.954 170.113 421.954C169.307 421.954 168.775 421.468 168.775 420.764C168.775 420.005 169.378 419.535 170.309 419.535H171.131C171.311 419.535 171.397 419.441 171.397 419.3C171.397 418.823 171.053 418.494 170.442 418.494C169.894 418.494 169.495 418.839 169.472 419.238H168.767C168.83 418.463 169.534 417.884 170.466 417.884ZM170.262 421.351C170.982 421.351 171.397 420.889 171.397 420.161V420.067H170.38C169.863 420.067 169.526 420.334 169.526 420.748C169.526 421.108 169.824 421.351 170.262 421.351ZM173.036 421.891V417.946H173.795V418.643C174.006 418.15 174.476 417.884 175.063 417.884C175.955 417.884 176.534 418.526 176.534 419.465V421.891H175.775V419.614C175.775 418.987 175.407 418.565 174.851 418.565C174.233 418.565 173.795 419.066 173.795 419.754V421.891H173.036ZM179.237 421.954C177.992 421.954 177.28 421.007 177.28 419.919C177.28 418.831 177.992 417.884 179.237 417.884C180.16 417.884 180.959 418.432 181.068 419.324H180.309C180.239 418.878 179.785 418.549 179.252 418.549C178.462 418.549 178.071 419.16 178.071 419.919C178.071 420.678 178.47 421.288 179.252 421.288C179.792 421.288 180.192 421.007 180.317 420.561H181.068C180.943 421.39 180.239 421.954 179.237 421.954ZM184.605 420.608H185.364C185.223 421.422 184.511 421.954 183.54 421.954C182.32 421.954 181.56 420.991 181.56 419.895C181.56 418.792 182.249 417.884 183.462 417.884C184.683 417.884 185.333 418.753 185.333 419.754C185.333 419.856 185.325 419.981 185.317 420.052H182.304C182.366 420.795 182.852 421.304 183.54 421.304C184.12 421.304 184.495 421.054 184.605 420.608ZM183.462 418.494C182.844 418.494 182.445 418.839 182.327 419.496H184.566C184.519 418.893 184.112 418.494 183.462 418.494ZM186.145 421.891V416.295H186.904V421.891H186.145Z" fill="#111729"/>
</g>
<g filter="url(#filter3_d_4612_2126)">
<rect x="233" y="409" width="48.61" height="20.7825" rx="4.7289" fill="white"/>
<path d="M246.311 416.681L240.891 422.101" stroke="#FE4A22" stroke-width="0.602247" stroke-linecap="round" stroke-linejoin="round"/>
<path d="M246.311 422.101L240.891 416.681" stroke="#FE4A22" stroke-width="0.602247" stroke-linecap="round" stroke-linejoin="round"/>
<path d="M253.81 421.954C252.401 421.954 251.133 421.03 251.133 419.152C251.133 417.273 252.417 416.35 253.81 416.35C255.055 416.35 256.041 417.101 256.189 418.173H255.336C255.242 417.532 254.601 417.07 253.802 417.07C252.738 417.07 251.971 417.798 251.971 419.152C251.971 420.506 252.738 421.234 253.802 421.234C254.616 421.234 255.266 420.772 255.352 420.13H256.174C256.056 421.202 255.078 421.954 253.81 421.954ZM258.466 417.884C259.483 417.884 260.156 418.471 260.156 419.347V421.891H259.397V421.249C259.209 421.672 258.708 421.954 258.113 421.954C257.307 421.954 256.775 421.468 256.775 420.764C256.775 420.005 257.378 419.535 258.309 419.535H259.131C259.311 419.535 259.397 419.441 259.397 419.3C259.397 418.823 259.053 418.494 258.442 418.494C257.894 418.494 257.495 418.839 257.472 419.238H256.767C256.83 418.463 257.534 417.884 258.466 417.884ZM258.262 421.351C258.982 421.351 259.397 420.889 259.397 420.161V420.067H258.38C257.863 420.067 257.526 420.334 257.526 420.748C257.526 421.108 257.824 421.351 258.262 421.351ZM261.036 421.891V417.946H261.795V418.643C262.006 418.15 262.476 417.884 263.063 417.884C263.955 417.884 264.534 418.526 264.534 419.465V421.891H263.775V419.614C263.775 418.987 263.407 418.565 262.851 418.565C262.233 418.565 261.795 419.066 261.795 419.754V421.891H261.036ZM267.237 421.954C265.992 421.954 265.28 421.007 265.28 419.919C265.28 418.831 265.992 417.884 267.237 417.884C268.16 417.884 268.959 418.432 269.068 419.324H268.309C268.239 418.878 267.785 418.549 267.252 418.549C266.462 418.549 266.071 419.16 266.071 419.919C266.071 420.678 266.47 421.288 267.252 421.288C267.792 421.288 268.192 421.007 268.317 420.561H269.068C268.943 421.39 268.239 421.954 267.237 421.954ZM272.605 420.608H273.364C273.223 421.422 272.511 421.954 271.54 421.954C270.32 421.954 269.56 420.991 269.56 419.895C269.56 418.792 270.249 417.884 271.462 417.884C272.683 417.884 273.333 418.753 273.333 419.754C273.333 419.856 273.325 419.981 273.317 420.052H270.304C270.366 420.795 270.852 421.304 271.54 421.304C272.12 421.304 272.495 421.054 272.605 420.608ZM271.462 418.494C270.844 418.494 270.445 418.839 270.327 419.496H272.566C272.519 418.893 272.112 418.494 271.462 418.494ZM274.145 421.891V416.295H274.904V421.891H274.145Z" fill="#111729"/>
</g>
<path d="M289.694 175.525C277.552 215.5 257.735 209.79 258.311 254.947C258.887 300.104 258.888 300.202 258.888 300.202" stroke="#534CFB" stroke-opacity="0.32" stroke-width="1.18" stroke-dasharray="7.11 7.11"/>
<path d="M227.97 175.525C240.112 215.5 259.929 209.79 259.353 254.947C258.777 300.104 258.776 300.202 258.776 300.202" stroke="#534CFB" stroke-opacity="0.32" stroke-width="1.18" stroke-dasharray="7.11 7.11"/>
<g filter="url(#filter4_d_4612_2126)">
<g clip-path="url(#clip0_4612_2126)">
<rect x="232.408" y="268.526" width="48.61" height="20.7825" rx="4.7289" transform="rotate(-30 232.408 268.526)" fill="white"/>
<path d="M247.778 268.523L245.794 275.927" stroke="#FE4A22" stroke-width="0.602247" stroke-linecap="round" stroke-linejoin="round"/>
<path d="M250.488 273.217L243.084 271.233" stroke="#FE4A22" stroke-width="0.602247" stroke-linecap="round" stroke-linejoin="round"/>
<path d="M256.907 269.34C255.687 270.044 254.127 269.878 253.188 268.251C252.248 266.625 252.898 265.183 254.105 264.487C255.183 263.864 256.412 264.022 257.077 264.876L256.338 265.303C255.936 264.794 255.149 264.715 254.458 265.114C253.536 265.646 253.236 266.66 253.913 267.833C254.59 269.005 255.618 269.252 256.54 268.72C257.245 268.313 257.577 267.588 257.33 266.989L258.042 266.579C258.476 267.566 258.005 268.706 256.907 269.34ZM258.904 263.487C259.785 262.979 260.661 263.15 261.099 263.91L262.371 266.112L261.714 266.492L261.393 265.936C261.442 266.396 261.149 266.891 260.634 267.188C259.935 267.591 259.232 267.437 258.88 266.827C258.5 266.169 258.787 265.461 259.594 264.996L260.305 264.585C260.461 264.495 260.489 264.37 260.419 264.248C260.18 263.835 259.717 263.722 259.189 264.028C258.714 264.302 258.541 264.799 258.72 265.157L258.11 265.509C257.777 264.807 258.097 263.953 258.904 263.487ZM260.461 266.592C261.085 266.232 261.213 265.624 260.849 264.994L260.802 264.913L259.921 265.421C259.474 265.68 259.315 266.078 259.523 266.438C259.703 266.749 260.081 266.811 260.461 266.592ZM263.133 265.673L261.161 262.256L261.818 261.877L262.166 262.48C262.103 261.947 262.377 261.482 262.885 261.189C263.658 260.743 264.48 261.009 264.95 261.822L266.163 263.923L265.505 264.303L264.367 262.331C264.053 261.788 263.524 261.606 263.042 261.884C262.507 262.193 262.378 262.846 262.722 263.443L263.79 265.293L263.133 265.673ZM268.535 262.626C267.457 263.249 266.366 262.785 265.823 261.842C265.279 260.9 265.422 259.724 266.5 259.102C267.299 258.64 268.265 258.715 268.806 259.433L268.148 259.813C267.864 259.462 267.307 259.404 266.846 259.67C266.161 260.065 266.128 260.79 266.507 261.447C266.887 262.105 267.538 262.434 268.215 262.042C268.683 261.772 268.888 261.329 268.773 260.88L269.424 260.504C269.73 261.285 269.402 262.125 268.535 262.626ZM272.51 258.776L273.168 258.397C273.453 259.172 273.102 259.989 272.262 260.475C271.204 261.085 270.065 260.631 269.518 259.682C268.966 258.726 269.108 257.596 270.159 256.989C271.216 256.379 272.213 256.806 272.714 257.674C272.765 257.762 272.821 257.874 272.849 257.939L270.24 259.446C270.666 260.058 271.34 260.256 271.937 259.912C272.438 259.622 272.639 259.218 272.51 258.776ZM270.464 257.518C269.929 257.827 269.755 258.325 269.982 258.953L271.921 257.834C271.579 257.335 271.027 257.193 270.464 257.518ZM274.486 259.118L271.688 254.272L272.345 253.892L275.143 258.738L274.486 259.118Z" fill="#111729"/>
</g>
</g>
<path d="M258.735 308L254.673 300.378L262.797 300.378L258.735 308Z" fill="#534CFB" fill-opacity="0.32"/>
<path d="M199.794 175.525C187.652 215.5 167.834 209.79 168.41 254.947C168.987 300.104 168.988 300.202 168.988 300.202" stroke="#534CFB" stroke-opacity="0.32" stroke-width="1.18" stroke-dasharray="7.11 7.11"/>
<path d="M138.07 175.525C150.211 215.5 170.029 209.79 169.453 254.947C168.877 300.104 168.876 300.202 168.876 300.202" stroke="#534CFB" stroke-opacity="0.32" stroke-width="1.18" stroke-dasharray="7.11 7.11"/>
<g filter="url(#filter5_d_4612_2126)">
<g clip-path="url(#clip1_4612_2126)">
<rect x="147.965" y="249.044" width="48.61" height="20.7825" rx="4.7289" transform="rotate(15 147.965 249.044)" fill="white"/>
<path d="M158.833 259.909L152.195 263.741" stroke="#FE4A22" stroke-width="0.602247" stroke-linecap="round" stroke-linejoin="round"/>
<path d="M157.43 265.144L153.598 258.506" stroke="#FE4A22" stroke-width="0.602247" stroke-linecap="round" stroke-linejoin="round"/>
<path d="M164.713 266.943C163.353 266.578 162.367 265.358 162.853 263.543C163.339 261.729 164.818 261.169 166.164 261.53C167.366 261.852 168.124 262.833 167.99 263.907L167.166 263.686C167.242 263.042 166.741 262.43 165.97 262.223C164.942 261.948 164.013 262.452 163.662 263.76C163.312 265.068 163.864 265.97 164.892 266.245C165.679 266.456 166.426 266.178 166.675 265.58L167.469 265.793C167.078 266.798 165.938 267.271 164.713 266.943ZM170.264 264.216C171.247 264.48 171.745 265.221 171.518 266.068L170.86 268.525L170.126 268.328L170.292 267.708C170.002 268.068 169.445 268.21 168.87 268.056C168.091 267.848 167.703 267.241 167.885 266.561C168.082 265.828 168.785 265.53 169.685 265.771L170.479 265.984C170.653 266.03 170.76 265.962 170.797 265.826C170.92 265.365 170.673 264.958 170.083 264.8C169.554 264.658 169.079 264.888 168.953 265.267L168.273 265.085C168.534 264.352 169.364 263.975 170.264 264.216ZM169.17 267.513C169.865 267.699 170.386 267.361 170.574 266.657L170.598 266.567L169.615 266.303C169.116 266.17 168.722 266.34 168.615 266.74C168.522 267.088 168.746 267.399 169.17 267.513ZM171.709 268.752L172.73 264.942L173.463 265.139L173.283 265.811C173.615 265.39 174.137 265.254 174.704 265.406C175.566 265.637 175.959 266.407 175.716 267.314L175.088 269.658L174.355 269.461L174.945 267.261C175.107 266.657 174.861 266.153 174.324 266.009C173.727 265.849 173.174 266.22 172.995 266.885L172.442 268.949L171.709 268.752ZM177.683 270.418C176.481 270.096 176.038 268.997 176.319 267.946C176.601 266.895 177.534 266.164 178.736 266.487C179.628 266.726 180.257 267.461 180.132 268.352L179.399 268.155C179.446 267.706 179.093 267.271 178.579 267.133C177.815 266.929 177.279 267.417 177.083 268.15C176.886 268.884 177.114 269.577 177.87 269.779C178.392 269.919 178.85 269.75 179.086 269.352L179.812 269.546C179.477 270.315 178.65 270.677 177.683 270.418ZM183.216 270.507L183.95 270.703C183.603 271.453 182.777 271.783 181.84 271.532C180.66 271.216 180.176 270.089 180.46 269.031C180.745 267.965 181.646 267.266 182.817 267.58C183.997 267.896 184.399 268.903 184.14 269.871C184.114 269.969 184.074 270.088 184.048 270.154L181.137 269.375C181.005 270.109 181.343 270.726 182.008 270.904C182.567 271.054 182.995 270.909 183.216 270.507ZM182.659 268.17C182.062 268.01 181.588 268.239 181.304 268.844L183.466 269.423C183.577 268.829 183.287 268.338 182.659 268.17ZM184.372 272.145L185.82 266.74L186.553 266.936L185.105 272.342L184.372 272.145Z" fill="#111729"/>
</g>
</g>
<path d="M168.835 308L164.773 300.378L172.897 300.378L168.835 308Z" fill="#534CFB" fill-opacity="0.32"/>
<path d="M114.585 175.525C102.443 215.5 82.6252 209.79 83.2014 254.947C83.7776 300.104 83.7787 300.202 83.7787 300.202" stroke="#534CFB" stroke-opacity="0.32" stroke-width="1.18" stroke-dasharray="7.11 7.11"/>
<path d="M52.8586 175.525C65.0002 215.5 84.8182 209.79 84.2419 254.947C83.6657 300.104 83.6647 300.202 83.6647 300.202" stroke="#534CFB" stroke-opacity="0.32" stroke-width="1.18" stroke-dasharray="7.11 7.11"/>
<g filter="url(#filter6_d_4612_2126)">
<g clip-path="url(#clip2_4612_2126)">
<rect x="57.5684" y="260.464" width="48.61" height="20.7825" rx="4.7289" transform="rotate(-12.4477 57.5684 260.464)" fill="white"/>
<path d="M72.2225 265.096L68.098 271.557" stroke="#FE4A22" stroke-width="0.602247" stroke-linecap="round" stroke-linejoin="round"/>
<path d="M73.3908 270.389L66.9297 266.264" stroke="#FE4A22" stroke-width="0.602247" stroke-linecap="round" stroke-linejoin="round"/>
<path d="M80.6805 268.628C79.3048 268.932 77.8676 268.303 77.4627 266.469C77.0578 264.635 78.1122 263.456 79.4726 263.156C80.6878 262.888 81.8127 263.409 82.1891 264.424L81.356 264.608C81.1259 264.001 80.3997 263.689 79.6201 263.861C78.5807 264.09 77.9886 264.966 78.2805 266.288C78.5723 267.611 79.4782 268.156 80.5176 267.927C81.3125 267.751 81.8473 267.16 81.793 266.515L82.5955 266.338C82.712 267.41 81.9186 268.355 80.6805 268.628ZM84.3493 263.65C85.3429 263.431 86.1267 263.859 86.3156 264.715L86.8639 267.199L86.1226 267.363L85.9842 266.736C85.8919 267.189 85.4635 267.572 84.8826 267.701C84.0954 267.874 83.4711 267.515 83.3193 266.827C83.1557 266.086 83.6429 265.498 84.5524 265.297L85.3549 265.12C85.5307 265.081 85.5945 264.971 85.5642 264.833C85.4612 264.367 85.0541 264.12 84.458 264.252C83.923 264.37 83.6074 264.792 83.6705 265.187L82.9827 265.339C82.8768 264.569 83.4398 263.851 84.3493 263.65ZM84.898 267.08C85.6011 266.925 85.9066 266.384 85.7497 265.674L85.7295 265.582L84.7359 265.801C84.2315 265.913 83.9602 266.245 84.0496 266.65C84.1272 267.002 84.47 267.174 84.898 267.08ZM87.7227 267.01L86.8724 263.158L87.6138 262.994L87.7639 263.674C87.864 263.147 88.2652 262.786 88.8384 262.659C89.7097 262.467 90.4136 262.969 90.616 263.886L91.139 266.255L90.3977 266.419L89.9068 264.195C89.7718 263.584 89.3215 263.25 88.7788 263.37C88.1751 263.503 87.855 264.087 88.0035 264.759L88.4641 266.846L87.7227 267.01ZM93.7915 265.734C92.5763 266.002 91.6767 265.231 91.4422 264.169C91.2077 263.106 91.699 262.028 92.9142 261.76C93.8161 261.561 94.7137 261.924 95.0131 262.771L94.2717 262.935C94.1068 262.514 93.5926 262.291 93.0729 262.406C92.301 262.576 92.0504 263.257 92.2141 263.998C92.3777 264.74 92.8991 265.25 93.6634 265.081C94.1907 264.965 94.5198 264.603 94.5459 264.141L95.2796 263.979C95.3362 264.816 94.7698 265.518 93.7915 265.734ZM98.7433 263.262L99.4847 263.099C99.5225 263.924 98.9418 264.597 97.9941 264.806C96.8018 265.07 95.8529 264.293 95.6167 263.223C95.3789 262.146 95.8557 261.11 97.0404 260.849C98.2326 260.586 99.0543 261.294 99.2702 262.272C99.2921 262.372 99.3115 262.496 99.319 262.566L96.3766 263.216C96.598 263.928 97.1815 264.32 97.854 264.172C98.4196 264.047 98.7325 263.722 98.7433 263.262ZM97.172 261.445C96.5682 261.578 96.2526 262.001 96.2797 262.668L98.4655 262.186C98.2898 261.607 97.8063 261.305 97.172 261.445ZM100.524 264.184L99.3175 258.719L100.059 258.556L101.265 264.02L100.524 264.184Z" fill="#111729"/>
</g>
</g>
<path d="M83.6239 308L79.5618 300.378L87.686 300.378L83.6239 308Z" fill="#534CFB" fill-opacity="0.32"/>
<g filter="url(#filter7_dddddddd_4612_2126)">
<rect x="122" y="517.937" width="93.8106" height="93.8106" rx="15.6351" fill="white"/>
<g filter="url(#filter8_i_4612_2126)">
<rect x="132.42" y="528.36" width="5.2117" height="5.2117" rx="2.60585" fill="#0E3F7E" fill-opacity="0.06"/>
</g>
<g filter="url(#filter9_i_4612_2126)">
<rect x="200.172" y="528.36" width="5.2117" height="5.2117" rx="2.60585" fill="#0E3F7E" fill-opacity="0.06"/>
</g>
<g filter="url(#filter10_i_4612_2126)">
<rect x="132.42" y="596.113" width="5.2117" height="5.2117" rx="2.60585" fill="#0E3F7E" fill-opacity="0.06"/>
</g>
<g filter="url(#filter11_i_4612_2126)">
<rect x="200.172" y="596.113" width="5.2117" height="5.2117" rx="2.60585" fill="#0E3F7E" fill-opacity="0.06"/>
</g>
<path d="M169.218 553.02C171.167 553.02 173.072 553.598 174.692 554.681C176.313 555.763 177.576 557.302 178.321 559.103C179.067 560.903 179.262 562.884 178.882 564.796C178.502 566.707 177.563 568.463 176.185 569.841C174.807 571.219 173.052 572.158 171.14 572.538C169.229 572.918 167.247 572.723 165.447 571.977C163.646 571.231 162.108 569.968 161.025 568.348C159.942 566.727 159.364 564.822 159.364 562.874C159.364 560.26 160.402 557.754 162.25 555.906C164.098 554.058 166.604 553.02 169.218 553.02V553.02ZM192.329 552.572C192.17 552.847 191.942 553.074 191.666 553.232C191.391 553.389 191.079 553.471 190.761 553.468C190.446 553.47 190.136 553.385 189.866 553.221L188.835 552.617C188.333 553.047 187.757 553.381 187.133 553.602V554.812C187.133 555.287 186.945 555.742 186.609 556.078C186.273 556.414 185.817 556.603 185.342 556.603C184.867 556.603 184.411 556.414 184.075 556.078C183.739 555.742 183.55 555.287 183.55 554.812V553.602C182.927 553.381 182.35 553.047 181.848 552.617L180.818 553.221C180.548 553.385 180.238 553.47 179.922 553.468C179.53 553.465 179.149 553.334 178.839 553.095C178.528 552.855 178.305 552.52 178.203 552.141C178.101 551.762 178.127 551.36 178.275 550.997C178.424 550.634 178.688 550.33 179.027 550.131L180.057 549.526C179.993 549.202 179.963 548.872 179.967 548.541C179.963 548.21 179.993 547.88 180.057 547.556L179.027 546.951C178.82 546.837 178.639 546.683 178.493 546.497C178.347 546.312 178.239 546.099 178.177 545.872C178.114 545.645 178.097 545.407 178.128 545.173C178.159 544.939 178.236 544.714 178.355 544.51C178.598 544.1 178.992 543.802 179.453 543.68C179.914 543.559 180.405 543.623 180.818 543.861L181.848 544.465C182.35 544.035 182.927 543.701 183.55 543.48V542.271C183.55 541.795 183.739 541.34 184.075 541.004C184.411 540.668 184.867 540.479 185.342 540.479C185.817 540.479 186.273 540.668 186.609 541.004C186.945 541.34 187.133 541.795 187.133 542.271V543.48C187.757 543.701 188.333 544.035 188.835 544.465L189.866 543.861C190.279 543.623 190.769 543.559 191.23 543.68C191.691 543.802 192.086 544.1 192.329 544.51C192.448 544.714 192.525 544.939 192.556 545.173C192.586 545.407 192.57 545.645 192.507 545.872C192.445 546.099 192.337 546.312 192.191 546.497C192.045 546.683 191.864 546.837 191.657 546.951L190.627 547.556C190.691 547.88 190.721 548.21 190.717 548.541C190.721 548.872 190.691 549.202 190.627 549.526L191.657 550.131C191.864 550.245 192.045 550.399 192.191 550.585C192.337 550.77 192.445 550.983 192.507 551.21C192.57 551.437 192.586 551.675 192.556 551.909C192.525 552.143 192.448 552.368 192.329 552.572ZM185.342 550.333C185.696 550.333 186.043 550.228 186.337 550.031C186.632 549.834 186.861 549.554 186.997 549.227C187.133 548.899 187.168 548.539 187.099 548.192C187.03 547.844 186.859 547.525 186.609 547.274C186.358 547.024 186.039 546.853 185.691 546.784C185.344 546.715 184.984 546.75 184.656 546.886C184.329 547.021 184.049 547.251 183.852 547.546C183.655 547.84 183.55 548.187 183.55 548.541C183.55 549.016 183.739 549.472 184.075 549.808C184.411 550.144 184.867 550.333 185.342 550.333ZM190.358 560.321C189.89 560.377 189.463 560.615 189.17 560.984C188.876 561.353 188.74 561.823 188.791 562.291C188.88 563.079 188.925 563.872 188.925 564.665C188.932 569.487 187.162 574.143 183.953 577.744C182.503 575.663 180.634 573.909 178.467 572.593C175.978 574.977 172.664 576.308 169.218 576.308C165.771 576.308 162.458 574.977 159.969 572.593C157.801 573.909 155.932 575.663 154.482 577.744C151.962 574.903 150.317 571.395 149.743 567.642C149.17 563.889 149.693 560.049 151.249 556.586C152.806 553.123 155.33 550.183 158.517 548.12C161.705 546.057 165.421 544.959 169.218 544.958C169.831 544.954 170.444 544.984 171.054 545.047C171.289 545.068 171.526 545.042 171.752 544.971C171.977 544.9 172.186 544.785 172.367 544.634C172.548 544.482 172.697 544.296 172.806 544.086C172.915 543.877 172.982 543.648 173.002 543.413C173.023 543.177 172.997 542.94 172.926 542.715C172.855 542.49 172.74 542.281 172.589 542.1C172.437 541.919 172.251 541.77 172.041 541.661C171.832 541.552 171.603 541.485 171.368 541.464C170.673 541.397 169.934 541.375 169.218 541.375C164.525 541.376 159.942 542.796 156.069 545.447C152.197 548.098 149.216 551.857 147.516 556.231C145.817 560.606 145.479 565.391 146.546 569.961C147.613 574.531 150.036 578.672 153.497 581.842L153.788 582.11C158.046 585.876 163.534 587.955 169.218 587.955C174.902 587.955 180.39 585.876 184.648 582.11L184.939 581.842C187.326 579.663 189.233 577.01 190.536 574.052C191.84 571.095 192.511 567.897 192.508 564.665C192.512 563.737 192.46 562.81 192.351 561.888C192.324 561.654 192.25 561.428 192.135 561.223C192.02 561.017 191.865 560.837 191.68 560.691C191.495 560.545 191.283 560.438 191.056 560.374C190.829 560.311 190.592 560.292 190.358 560.321Z" fill="#42D0A1"/>
</g>
<g filter="url(#filter12_ddddd_4612_2126)">
<rect x="127.918" y="621.128" width="83.763" height="28.8302" rx="7.81755" fill="white"/>
<path d="M144.664 637.709C146.158 637.709 147.37 636.497 147.37 635.002C147.37 633.508 146.158 632.296 144.664 632.296C143.169 632.296 141.957 633.508 141.957 635.002C141.957 636.497 143.169 637.709 144.664 637.709Z" stroke="#42D0A1" stroke-width="0.902025" stroke-miterlimit="10"/>
<path d="M140.32 640.375C140.728 639.573 141.349 638.899 142.116 638.428C142.883 637.958 143.765 637.708 144.664 637.708C145.564 637.708 146.446 637.958 147.213 638.428C147.98 638.899 148.601 639.573 149.008 640.375" stroke="#42D0A1" stroke-width="0.902025" stroke-linecap="round" stroke-linejoin="round"/>
<path d="M149.534 631.755C150.132 631.755 150.616 631.27 150.616 630.672C150.616 630.074 150.132 629.589 149.534 629.589C148.936 629.589 148.451 630.074 148.451 630.672C148.451 631.27 148.936 631.755 149.534 631.755Z" stroke="#42D0A1" stroke-width="0.902025" stroke-linecap="round" stroke-linejoin="round"/>
<path d="M149.535 629.589V628.777" stroke="#42D0A1" stroke-width="0.902025" stroke-linecap="round" stroke-linejoin="round"/>
<path d="M148.595 630.131L147.898 629.725" stroke="#42D0A1" stroke-width="0.902025" stroke-linecap="round" stroke-linejoin="round"/>
<path d="M148.595 631.213L147.898 631.619" stroke="#42D0A1" stroke-width="0.902025" stroke-linecap="round" stroke-linejoin="round"/>
<path d="M149.535 631.754V632.566" stroke="#42D0A1" stroke-width="0.902025" stroke-linecap="round" stroke-linejoin="round"/>
<path d="M150.475 631.213L151.172 631.619" stroke="#42D0A1" stroke-width="0.902025" stroke-linecap="round" stroke-linejoin="round"/>
<path d="M150.475 630.131L151.172 629.725" stroke="#42D0A1" stroke-width="0.902025" stroke-linecap="round" stroke-linejoin="round"/>
<path d="M151.112 634.766C151.145 635.024 151.161 635.284 151.159 635.544C151.159 636.828 150.778 638.084 150.065 639.152C149.351 640.221 148.336 641.053 147.149 641.545C145.962 642.036 144.656 642.165 143.396 641.914C142.136 641.664 140.979 641.045 140.071 640.137C139.162 639.228 138.543 638.071 138.293 636.811C138.042 635.551 138.171 634.245 138.662 633.058C139.154 631.871 139.987 630.856 141.055 630.143C142.123 629.429 143.379 629.048 144.664 629.048C144.865 629.047 145.066 629.056 145.266 629.075" stroke="#42D0A1" stroke-width="0.902025" stroke-linecap="round" stroke-linejoin="round"/>
<path d="M163.987 639.131C162.018 639.131 160.245 637.84 160.245 635.214C160.245 632.588 162.039 631.297 163.987 631.297C165.727 631.297 167.105 632.347 167.313 633.846H166.121C165.989 632.949 165.092 632.304 163.976 632.304C162.488 632.304 161.416 633.321 161.416 635.214C161.416 637.107 162.488 638.124 163.976 638.124C165.114 638.124 166.022 637.479 166.142 636.582H167.291C167.127 638.081 165.759 639.131 163.987 639.131ZM173.537 639.043H172.345L170.528 636.133L168.701 639.043H167.498L169.927 635.181L167.552 631.385H168.734L170.517 634.229L172.312 631.385H173.493L171.119 635.181L173.537 639.043ZM178.907 639.043V632.391H176.511V631.385H182.441V632.391H180.045V639.043H178.907ZM186.158 637.249H187.219C187.022 638.387 186.027 639.131 184.67 639.131C182.963 639.131 181.902 637.785 181.902 636.253C181.902 634.711 182.865 633.442 184.561 633.442C186.267 633.442 187.176 634.656 187.176 636.056C187.176 636.199 187.165 636.374 187.154 636.472H182.941C183.029 637.512 183.707 638.223 184.67 638.223C185.48 638.223 186.005 637.873 186.158 637.249ZM184.561 634.295C183.696 634.295 183.138 634.776 182.974 635.695H186.103C186.038 634.853 185.469 634.295 184.561 634.295ZM190.38 633.442C191.802 633.442 192.743 634.262 192.743 635.488V639.043H191.682V638.146C191.419 638.737 190.719 639.131 189.887 639.131C188.76 639.131 188.016 638.453 188.016 637.468C188.016 636.407 188.859 635.75 190.161 635.75H191.31C191.561 635.75 191.682 635.619 191.682 635.422C191.682 634.754 191.2 634.295 190.347 634.295C189.581 634.295 189.023 634.776 188.99 635.334H188.005C188.093 634.251 189.078 633.442 190.38 633.442ZM190.095 638.289C191.102 638.289 191.682 637.643 191.682 636.625V636.494H190.259C189.537 636.494 189.067 636.866 189.067 637.446C189.067 637.949 189.482 638.289 190.095 638.289ZM193.972 639.043V633.529H195.034V634.514C195.264 633.89 195.854 633.442 196.664 633.442C197.561 633.442 198.229 633.846 198.447 634.568C198.666 633.945 199.388 633.442 200.242 633.442C201.434 633.442 202.178 634.262 202.178 635.542V639.043H201.117V635.838C201.117 634.962 200.679 634.372 199.946 634.372C199.104 634.372 198.601 634.962 198.601 635.838V639.043H197.539V635.838C197.539 634.962 197.102 634.372 196.38 634.372C195.537 634.372 195.034 634.962 195.034 635.838V639.043H193.972Z" fill="#111729"/>
</g>
<g filter="url(#filter13_dd_4612_2126)">
<rect x="56.7773" y="311.774" width="54.3823" height="54.3811" rx="27.1906" fill="white" shape-rendering="crispEdges"/>
<path d="M92.4666 333.867H88.643V330.893C88.643 329.654 88.1506 328.465 87.2742 327.589C86.3978 326.713 85.2091 326.22 83.9697 326.22C82.7303 326.22 81.5416 326.713 80.6652 327.589C79.7888 328.465 79.2964 329.654 79.2964 330.893V333.867H75.4728C75.0221 333.867 74.5899 334.046 74.2712 334.365C73.9525 334.684 73.7734 335.116 73.7734 335.567V347.462C73.7734 347.913 73.9525 348.345 74.2712 348.664C74.5899 348.983 75.0221 349.162 75.4728 349.162H92.4666C92.9173 349.162 93.3495 348.983 93.6682 348.664C93.9869 348.345 94.1659 347.913 94.1659 347.462V335.567C94.1659 335.116 93.9869 334.684 93.6682 334.365C93.3495 334.046 92.9173 333.867 92.4666 333.867ZM83.9697 342.789C83.7176 342.789 83.4712 342.714 83.2616 342.574C83.052 342.434 82.8886 342.235 82.7922 342.002C82.6957 341.769 82.6705 341.513 82.7196 341.266C82.7688 341.019 82.8902 340.792 83.0685 340.613C83.2467 340.435 83.4738 340.314 83.721 340.265C83.9683 340.215 84.2245 340.241 84.4574 340.337C84.6903 340.434 84.8894 340.597 85.0294 340.806C85.1695 341.016 85.2442 341.263 85.2442 341.515C85.2442 341.853 85.1099 342.177 84.8709 342.416C84.6319 342.655 84.3077 342.789 83.9697 342.789ZM86.9436 333.867H80.9958V330.893C80.9958 330.105 81.3091 329.348 81.8668 328.791C82.4245 328.233 83.181 327.92 83.9697 327.92C84.7584 327.92 85.5148 328.233 86.0726 328.791C86.6303 329.348 86.9436 330.105 86.9436 330.893V333.867Z" fill="#42D0A1"/>
<path d="M92.4666 333.867H88.643V330.893C88.643 329.654 88.1506 328.465 87.2742 327.589C86.3978 326.713 85.2091 326.22 83.9697 326.22C82.7303 326.22 81.5416 326.713 80.6652 327.589C79.7888 328.465 79.2964 329.654 79.2964 330.893V333.867H75.4728C75.0221 333.867 74.5899 334.046 74.2712 334.365C73.9525 334.684 73.7734 335.116 73.7734 335.567V347.462C73.7734 347.913 73.9525 348.345 74.2712 348.664C74.5899 348.983 75.0221 349.162 75.4728 349.162H92.4666C92.9173 349.162 93.3495 348.983 93.6682 348.664C93.9869 348.345 94.1659 347.913 94.1659 347.462V335.567C94.1659 335.116 93.9869 334.684 93.6682 334.365C93.3495 334.046 92.9173 333.867 92.4666 333.867ZM83.9697 342.789C83.7176 342.789 83.4712 342.714 83.2616 342.574C83.052 342.434 82.8886 342.235 82.7922 342.002C82.6957 341.769 82.6705 341.513 82.7196 341.266C82.7688 341.019 82.8902 340.792 83.0685 340.613C83.2467 340.435 83.4738 340.314 83.721 340.265C83.9683 340.215 84.2245 340.241 84.4574 340.337C84.6903 340.434 84.8894 340.597 85.0294 340.806C85.1695 341.016 85.2442 341.263 85.2442 341.515C85.2442 341.853 85.1099 342.177 84.8709 342.416C84.6319 342.655 84.3077 342.789 83.9697 342.789ZM86.9436 333.867H80.9958V330.893C80.9958 330.105 81.3091 329.348 81.8668 328.791C82.4245 328.233 83.181 327.92 83.9697 327.92C84.7584 327.92 85.5148 328.233 86.0726 328.791C86.6303 329.348 86.9436 330.105 86.9436 330.893V333.867Z" fill="url(#paint0_linear_4612_2126)"/>
<rect x="87.5137" y="330.69" width="7.09304" height="7.09304" rx="2.95543" fill="white"/>
<path d="M91.0604 329.434C90.1105 329.434 89.182 329.716 88.3922 330.243C87.6024 330.771 86.9869 331.521 86.6234 332.399C86.2599 333.276 86.1648 334.242 86.3501 335.174C86.5354 336.105 86.9928 336.961 87.6645 337.633C88.3361 338.304 89.1918 338.762 90.1235 338.947C91.0551 339.132 92.0207 339.037 92.8983 338.674C93.7758 338.31 94.5259 337.695 95.0536 336.905C95.5813 336.115 95.863 335.187 95.863 334.237C95.8605 332.964 95.3538 331.744 94.4536 330.843C93.5535 329.943 92.3334 329.437 91.0604 329.434V329.434ZM93.3462 333.396L90.6402 335.982C90.5702 336.048 90.4776 336.084 90.3816 336.084C90.3346 336.084 90.288 336.076 90.2444 336.058C90.2008 336.041 90.1611 336.015 90.1276 335.982L88.7746 334.689C88.737 334.656 88.7065 334.616 88.6848 334.572C88.6631 334.527 88.6508 334.478 88.6484 334.428C88.6461 334.379 88.6538 334.329 88.6711 334.282C88.6885 334.235 88.7151 334.193 88.7494 334.157C88.7836 334.12 88.8248 334.092 88.8705 334.072C88.9162 334.052 88.9655 334.042 89.0153 334.041C89.0651 334.041 89.1144 334.051 89.1604 334.07C89.2063 334.089 89.2478 334.118 89.2825 334.154L90.3816 335.202L92.8383 332.861C92.9101 332.798 93.0034 332.765 93.0986 332.77C93.1938 332.774 93.2836 332.816 93.3492 332.885C93.4148 332.954 93.4511 333.046 93.4506 333.141C93.45 333.236 93.4126 333.328 93.3462 333.396Z" fill="#FFCB00"/>
</g>
<path d="M69.5399 381.885V375.264H72.0273C73.3419 375.264 74.1363 376.059 74.1363 377.222C74.1363 378.385 73.3419 379.18 72.0273 379.18H70.3438V381.885H69.5399ZM70.3438 378.461H72.0273C72.9636 378.461 73.3135 377.875 73.3135 377.222C73.3135 376.569 72.9636 375.983 72.0273 375.983H70.3438V378.461ZM77.6635 377.79H77.0015C76.0368 377.79 75.7625 378.66 75.7625 379.785V381.885H75.0059V377.118H75.7625V378.083C75.9611 377.43 76.3583 377.118 77.0582 377.118H77.6635V377.79ZM80.3947 381.96C78.9855 381.96 77.9735 380.93 77.9735 379.501C77.9735 378.064 78.9855 377.042 80.3947 377.042C81.8133 377.042 82.8253 378.064 82.8253 379.501C82.8253 380.93 81.8133 381.96 80.3947 381.96ZM80.3947 381.279C81.3783 381.279 82.0498 380.542 82.0498 379.501C82.0498 378.461 81.3783 377.723 80.3947 377.723C79.4205 377.723 78.749 378.461 78.749 379.501C78.749 380.542 79.4205 381.279 80.3947 381.279ZM87.3146 381.885H86.5107L85.1677 379.965L83.8247 381.885H83.0208L84.7515 379.378L83.1721 377.118H84.0138L85.1677 378.783L86.3215 377.118H87.1633L85.5838 379.378L87.3146 381.885ZM88.0275 375.16H88.8976V376.22H88.0275V375.16ZM88.0842 381.885V377.118H88.8408V381.885H88.0842ZM93.5878 380.353H94.3539C94.1931 381.327 93.3514 381.96 92.1692 381.96C90.76 381.96 89.8142 380.835 89.8142 379.473C89.8142 378.073 90.6843 377.042 92.0841 377.042C93.4743 377.042 94.3066 378.007 94.3066 379.274C94.3066 379.378 94.2972 379.539 94.2877 379.605H90.5613C90.6181 380.589 91.2707 381.289 92.1692 381.289C92.9447 381.289 93.4365 380.948 93.5878 380.353ZM92.0841 377.686C91.2801 377.686 90.741 378.158 90.5992 379H93.5311C93.4743 378.196 92.9353 377.686 92.0841 377.686ZM96.9343 381.96C95.8277 381.96 95.1089 381.346 95.0333 380.353H95.7615C95.8277 380.967 96.2439 381.298 96.9343 381.298C97.5301 381.298 97.9273 380.967 97.9273 380.58C97.9273 379.161 95.1562 380.438 95.1562 378.376C95.1562 377.572 95.8372 377.042 96.8397 377.042C97.8895 377.042 98.5988 377.619 98.6556 378.499H97.9179C97.8517 377.894 97.2558 377.686 96.8208 377.686C96.2628 377.686 95.8939 377.95 95.8939 378.366C95.8939 379.653 98.684 378.376 98.684 380.561C98.684 381.412 97.9841 381.96 96.9343 381.96Z" fill="#677489"/>
<g filter="url(#filter14_dd_4612_2126)">
<rect x="143.994" y="311.774" width="54.3823" height="54.3811" rx="27.1906" fill="white" shape-rendering="crispEdges"/>
<path d="M179.683 333.867H175.86V330.893C175.86 329.654 175.367 328.465 174.491 327.589C173.615 326.713 172.426 326.22 171.186 326.22C169.947 326.22 168.758 326.713 167.882 327.589C167.006 328.465 166.513 329.654 166.513 330.893V333.867H162.69C162.239 333.867 161.807 334.046 161.488 334.365C161.169 334.684 160.99 335.116 160.99 335.567V347.462C160.99 347.913 161.169 348.345 161.488 348.664C161.807 348.983 162.239 349.162 162.69 349.162H179.683C180.134 349.162 180.566 348.983 180.885 348.664C181.204 348.345 181.383 347.913 181.383 347.462V335.567C181.383 335.116 181.204 334.684 180.885 334.365C180.566 334.046 180.134 333.867 179.683 333.867ZM171.186 342.789C170.934 342.789 170.688 342.714 170.478 342.574C170.269 342.434 170.105 342.235 170.009 342.002C169.913 341.769 169.887 341.513 169.936 341.266C169.986 341.019 170.107 340.792 170.285 340.613C170.463 340.435 170.691 340.314 170.938 340.265C171.185 340.215 171.441 340.241 171.674 340.337C171.907 340.434 172.106 340.597 172.246 340.806C172.386 341.016 172.461 341.263 172.461 341.515C172.461 341.853 172.327 342.177 172.088 342.416C171.849 342.655 171.525 342.789 171.186 342.789ZM174.16 333.867H168.213V330.893C168.213 330.105 168.526 329.348 169.084 328.791C169.641 328.233 170.398 327.92 171.186 327.92C171.975 327.92 172.732 328.233 173.289 328.791C173.847 329.348 174.16 330.105 174.16 330.893V333.867Z" fill="#42D0A1"/>
<path d="M179.683 333.867H175.86V330.893C175.86 329.654 175.367 328.465 174.491 327.589C173.615 326.713 172.426 326.22 171.186 326.22C169.947 326.22 168.758 326.713 167.882 327.589C167.006 328.465 166.513 329.654 166.513 330.893V333.867H162.69C162.239 333.867 161.807 334.046 161.488 334.365C161.169 334.684 160.99 335.116 160.99 335.567V347.462C160.99 347.913 161.169 348.345 161.488 348.664C161.807 348.983 162.239 349.162 162.69 349.162H179.683C180.134 349.162 180.566 348.983 180.885 348.664C181.204 348.345 181.383 347.913 181.383 347.462V335.567C181.383 335.116 181.204 334.684 180.885 334.365C180.566 334.046 180.134 333.867 179.683 333.867ZM171.186 342.789C170.934 342.789 170.688 342.714 170.478 342.574C170.269 342.434 170.105 342.235 170.009 342.002C169.913 341.769 169.887 341.513 169.936 341.266C169.986 341.019 170.107 340.792 170.285 340.613C170.463 340.435 170.691 340.314 170.938 340.265C171.185 340.215 171.441 340.241 171.674 340.337C171.907 340.434 172.106 340.597 172.246 340.806C172.386 341.016 172.461 341.263 172.461 341.515C172.461 341.853 172.327 342.177 172.088 342.416C171.849 342.655 171.525 342.789 171.186 342.789ZM174.16 333.867H168.213V330.893C168.213 330.105 168.526 329.348 169.084 328.791C169.641 328.233 170.398 327.92 171.186 327.92C171.975 327.92 172.732 328.233 173.289 328.791C173.847 329.348 174.16 330.105 174.16 330.893V333.867Z" fill="url(#paint1_linear_4612_2126)"/>
<rect x="174.73" y="330.69" width="7.09304" height="7.09304" rx="2.95543" fill="white"/>
<path d="M178.277 329.434C177.327 329.434 176.399 329.716 175.609 330.243C174.819 330.771 174.204 331.521 173.84 332.399C173.477 333.276 173.382 334.242 173.567 335.174C173.752 336.105 174.21 336.961 174.881 337.633C175.553 338.304 176.409 338.762 177.34 338.947C178.272 339.132 179.238 339.037 180.115 338.674C180.993 338.31 181.743 337.695 182.27 336.905C182.798 336.115 183.08 335.187 183.08 334.237C183.077 332.964 182.571 331.744 181.67 330.843C180.77 329.943 179.55 329.437 178.277 329.434V329.434ZM180.563 333.396L177.857 335.982C177.787 336.048 177.694 336.084 177.598 336.084C177.551 336.084 177.505 336.076 177.461 336.058C177.418 336.041 177.378 336.015 177.344 335.982L175.991 334.689C175.954 334.656 175.923 334.616 175.902 334.572C175.88 334.527 175.868 334.478 175.865 334.428C175.863 334.379 175.871 334.329 175.888 334.282C175.905 334.235 175.932 334.193 175.966 334.157C176 334.12 176.042 334.092 176.087 334.072C176.133 334.052 176.182 334.042 176.232 334.041C176.282 334.041 176.331 334.051 176.377 334.07C176.423 334.089 176.465 334.118 176.499 334.154L177.598 335.202L180.055 332.861C180.127 332.798 180.22 332.765 180.315 332.77C180.411 332.774 180.5 332.816 180.566 332.885C180.632 332.954 180.668 333.046 180.667 333.141C180.667 333.236 180.629 333.328 180.563 333.396Z" fill="#FFCB00"/>
</g>
<path d="M156.757 381.885V375.264H159.244C160.559 375.264 161.353 376.059 161.353 377.222C161.353 378.385 160.559 379.18 159.244 379.18H157.561V381.885H156.757ZM157.561 378.461H159.244C160.18 378.461 160.53 377.875 160.53 377.222C160.53 376.569 160.18 375.983 159.244 375.983H157.561V378.461ZM164.88 377.79H164.218C163.254 377.79 162.979 378.66 162.979 379.785V381.885H162.223V377.118H162.979V378.083C163.178 377.43 163.575 377.118 164.275 377.118H164.88V377.79ZM167.611 381.96C166.202 381.96 165.19 380.93 165.19 379.501C165.19 378.064 166.202 377.042 167.611 377.042C169.03 377.042 170.042 378.064 170.042 379.501C170.042 380.93 169.03 381.96 167.611 381.96ZM167.611 381.279C168.595 381.279 169.267 380.542 169.267 379.501C169.267 378.461 168.595 377.723 167.611 377.723C166.637 377.723 165.966 378.461 165.966 379.501C165.966 380.542 166.637 381.279 167.611 381.279ZM174.531 381.885H173.727L172.384 379.965L171.041 381.885H170.238L171.968 379.378L170.389 377.118H171.231L172.384 378.783L173.538 377.118H174.38L172.801 379.378L174.531 381.885ZM175.244 375.16H176.114V376.22H175.244V375.16ZM175.301 381.885V377.118H176.058V381.885H175.301ZM180.805 380.353H181.571C181.41 381.327 180.568 381.96 179.386 381.96C177.977 381.96 177.031 380.835 177.031 379.473C177.031 378.073 177.901 377.042 179.301 377.042C180.691 377.042 181.523 378.007 181.523 379.274C181.523 379.378 181.514 379.539 181.505 379.605H177.778C177.835 380.589 178.487 381.289 179.386 381.289C180.162 381.289 180.653 380.948 180.805 380.353ZM179.301 377.686C178.497 377.686 177.958 378.158 177.816 379H180.748C180.691 378.196 180.152 377.686 179.301 377.686ZM184.151 381.96C183.045 381.96 182.326 381.346 182.25 380.353H182.978C183.045 380.967 183.461 381.298 184.151 381.298C184.747 381.298 185.144 380.967 185.144 380.58C185.144 379.161 182.373 380.438 182.373 378.376C182.373 377.572 183.054 377.042 184.056 377.042C185.106 377.042 185.816 377.619 185.872 378.499H185.135C185.068 377.894 184.473 377.686 184.038 377.686C183.48 377.686 183.111 377.95 183.111 378.366C183.111 379.653 185.901 378.376 185.901 380.561C185.901 381.412 185.201 381.96 184.151 381.96Z" fill="#677489"/>
<g filter="url(#filter15_dd_4612_2126)">
<rect x="231.209" y="311.774" width="54.3823" height="54.3811" rx="27.1906" fill="white" shape-rendering="crispEdges"/>
<path d="M266.898 333.867H263.075V330.893C263.075 329.654 262.582 328.465 261.706 327.589C260.829 326.713 259.641 326.22 258.401 326.22C257.162 326.22 255.973 326.713 255.097 327.589C254.22 328.465 253.728 329.654 253.728 330.893V333.867H249.904C249.454 333.867 249.022 334.046 248.703 334.365C248.384 334.684 248.205 335.116 248.205 335.567V347.462C248.205 347.913 248.384 348.345 248.703 348.664C249.022 348.983 249.454 349.162 249.904 349.162H266.898C267.349 349.162 267.781 348.983 268.1 348.664C268.419 348.345 268.598 347.913 268.598 347.462V335.567C268.598 335.116 268.419 334.684 268.1 334.365C267.781 334.046 267.349 333.867 266.898 333.867ZM258.401 342.789C258.149 342.789 257.903 342.714 257.693 342.574C257.484 342.434 257.32 342.235 257.224 342.002C257.127 341.769 257.102 341.513 257.151 341.266C257.2 341.019 257.322 340.792 257.5 340.613C257.678 340.435 257.905 340.314 258.153 340.265C258.4 340.215 258.656 340.241 258.889 340.337C259.122 340.434 259.321 340.597 259.461 340.806C259.601 341.016 259.676 341.263 259.676 341.515C259.676 341.853 259.542 342.177 259.303 342.416C259.064 342.655 258.739 342.789 258.401 342.789ZM261.375 333.867H255.427V330.893C255.427 330.105 255.741 329.348 256.298 328.791C256.856 328.233 257.613 327.92 258.401 327.92C259.19 327.92 259.946 328.233 260.504 328.791C261.062 329.348 261.375 330.105 261.375 330.893V333.867Z" fill="#42D0A1"/>
<path d="M266.898 333.867H263.075V330.893C263.075 329.654 262.582 328.465 261.706 327.589C260.829 326.713 259.641 326.22 258.401 326.22C257.162 326.22 255.973 326.713 255.097 327.589C254.22 328.465 253.728 329.654 253.728 330.893V333.867H249.904C249.454 333.867 249.022 334.046 248.703 334.365C248.384 334.684 248.205 335.116 248.205 335.567V347.462C248.205 347.913 248.384 348.345 248.703 348.664C249.022 348.983 249.454 349.162 249.904 349.162H266.898C267.349 349.162 267.781 348.983 268.1 348.664C268.419 348.345 268.598 347.913 268.598 347.462V335.567C268.598 335.116 268.419 334.684 268.1 334.365C267.781 334.046 267.349 333.867 266.898 333.867ZM258.401 342.789C258.149 342.789 257.903 342.714 257.693 342.574C257.484 342.434 257.32 342.235 257.224 342.002C257.127 341.769 257.102 341.513 257.151 341.266C257.2 341.019 257.322 340.792 257.5 340.613C257.678 340.435 257.905 340.314 258.153 340.265C258.4 340.215 258.656 340.241 258.889 340.337C259.122 340.434 259.321 340.597 259.461 340.806C259.601 341.016 259.676 341.263 259.676 341.515C259.676 341.853 259.542 342.177 259.303 342.416C259.064 342.655 258.739 342.789 258.401 342.789ZM261.375 333.867H255.427V330.893C255.427 330.105 255.741 329.348 256.298 328.791C256.856 328.233 257.613 327.92 258.401 327.92C259.19 327.92 259.946 328.233 260.504 328.791C261.062 329.348 261.375 330.105 261.375 330.893V333.867Z" fill="url(#paint2_linear_4612_2126)"/>
<rect x="261.945" y="330.69" width="7.09304" height="7.09304" rx="2.95543" fill="white"/>
<path d="M265.492 329.434C264.542 329.434 263.614 329.716 262.824 330.243C262.034 330.771 261.419 331.521 261.055 332.399C260.692 333.276 260.596 334.242 260.782 335.174C260.967 336.105 261.424 336.961 262.096 337.633C262.768 338.304 263.623 338.762 264.555 338.947C265.487 339.132 266.452 339.037 267.33 338.674C268.207 338.31 268.958 337.695 269.485 336.905C270.013 336.115 270.295 335.187 270.295 334.237C270.292 332.964 269.785 331.744 268.885 330.843C267.985 329.943 266.765 329.437 265.492 329.434V329.434ZM267.778 333.396L265.072 335.982C265.002 336.048 264.909 336.084 264.813 336.084C264.766 336.084 264.72 336.076 264.676 336.058C264.632 336.041 264.593 336.015 264.559 335.982L263.206 334.689C263.169 334.656 263.138 334.616 263.116 334.572C263.095 334.527 263.082 334.478 263.08 334.428C263.078 334.379 263.085 334.329 263.103 334.282C263.12 334.235 263.147 334.193 263.181 334.157C263.215 334.12 263.256 334.092 263.302 334.072C263.348 334.052 263.397 334.042 263.447 334.041C263.497 334.041 263.546 334.051 263.592 334.07C263.638 334.089 263.679 334.118 263.714 334.154L264.813 335.202L267.27 332.861C267.342 332.798 267.435 332.765 267.53 332.77C267.625 332.774 267.715 332.816 267.781 332.885C267.846 332.954 267.883 333.046 267.882 333.141C267.882 333.236 267.844 333.328 267.778 333.396Z" fill="#FFCB00"/>
</g>
<path d="M243.971 381.885V375.264H246.459C247.774 375.264 248.568 376.059 248.568 377.222C248.568 378.385 247.774 379.18 246.459 379.18H244.775V381.885H243.971ZM244.775 378.461H246.459C247.395 378.461 247.745 377.875 247.745 377.222C247.745 376.569 247.395 375.983 246.459 375.983H244.775V378.461ZM252.095 377.79H251.433C250.468 377.79 250.194 378.66 250.194 379.785V381.885H249.438V377.118H250.194V378.083C250.393 377.43 250.79 377.118 251.49 377.118H252.095V377.79ZM254.826 381.96C253.417 381.96 252.405 380.93 252.405 379.501C252.405 378.064 253.417 377.042 254.826 377.042C256.245 377.042 257.257 378.064 257.257 379.501C257.257 380.93 256.245 381.96 254.826 381.96ZM254.826 381.279C255.81 381.279 256.481 380.542 256.481 379.501C256.481 378.461 255.81 377.723 254.826 377.723C253.852 377.723 253.181 378.461 253.181 379.501C253.181 380.542 253.852 381.279 254.826 381.279ZM261.746 381.885H260.942L259.599 379.965L258.256 381.885H257.452L259.183 379.378L257.604 377.118H258.445L259.599 378.783L260.753 377.118H261.595L260.015 379.378L261.746 381.885ZM262.459 375.16H263.329V376.22H262.459V375.16ZM262.516 381.885V377.118H263.272V381.885H262.516ZM268.019 380.353H268.786C268.625 381.327 267.783 381.96 266.601 381.96C265.192 381.96 264.246 380.835 264.246 379.473C264.246 378.073 265.116 377.042 266.516 377.042C267.906 377.042 268.738 378.007 268.738 379.274C268.738 379.378 268.729 379.539 268.719 379.605H264.993C265.05 380.589 265.702 381.289 266.601 381.289C267.376 381.289 267.868 380.948 268.019 380.353ZM266.516 377.686C265.712 377.686 265.173 378.158 265.031 379H267.963C267.906 378.196 267.367 377.686 266.516 377.686ZM271.366 381.96C270.259 381.96 269.541 381.346 269.465 380.353H270.193C270.259 380.967 270.675 381.298 271.366 381.298C271.962 381.298 272.359 380.967 272.359 380.58C272.359 379.161 269.588 380.438 269.588 378.376C269.588 377.572 270.269 377.042 271.271 377.042C272.321 377.042 273.03 377.619 273.087 378.499H272.35C272.283 377.894 271.687 377.686 271.252 377.686C270.694 377.686 270.326 377.95 270.326 378.366C270.326 379.653 273.116 378.376 273.116 380.561C273.116 381.412 272.416 381.96 271.366 381.96Z" fill="#677489"/>
<g filter="url(#filter16_ddddi_4612_2126)">
<rect x="112.113" y="449.098" width="113.54" height="32.44" rx="16.22" fill="#534CFB"/>
<rect x="112.113" y="449.098" width="113.54" height="32.44" rx="16.22" fill="url(#paint3_radial_4612_2126)"/>
<rect x="112.62" y="449.605" width="112.526" height="31.4262" rx="15.7131" stroke="white" stroke-opacity="0.12" stroke-width="1.01375"/>
<rect x="111.606" y="448.591" width="114.138" height="33.4537" rx="16.7269" stroke="#534CFB" stroke-width="1.01375"/>
<mask id="mask0_4612_2126" style="mask-type:luminance" maskUnits="userSpaceOnUse" x="81" y="441" width="176" height="39">
<path d="M237.279 441.311H100.387C89.899 441.311 81.3965 449.813 81.3965 460.302C81.3965 470.791 89.899 479.293 100.387 479.293H237.279C247.767 479.293 256.27 470.791 256.27 460.302C256.27 449.813 247.767 441.311 237.279 441.311Z" fill="white"/>
</mask>
<g mask="url(#mask0_4612_2126)">
<mask id="mask1_4612_2126" style="mask-type:luminance" maskUnits="userSpaceOnUse" x="85" y="463" width="167" height="22">
<path d="M85.9737 463.466H251.617V484.568H85.9737V463.466Z" fill="white"/>
</mask>
<g mask="url(#mask1_4612_2126)">
<path d="M197.92 474.857C197.397 474.857 196.972 474.433 196.972 473.909C196.972 473.386 197.397 472.962 197.92 472.962C198.443 472.962 198.867 473.386 198.867 473.909C198.867 474.433 198.443 474.857 197.92 474.857Z" fill="white" fill-opacity="0.4"/>
<path d="M118.085 469.929C117.757 469.929 117.491 469.663 117.491 469.335C117.491 469.008 117.757 468.742 118.085 468.742C118.412 468.742 118.678 469.008 118.678 469.335C118.678 469.663 118.412 469.929 118.085 469.929Z" fill="white" fill-opacity="0.4"/>
<path d="M107.328 473.509C106.886 473.509 106.528 473.15 106.528 472.708C106.528 472.266 106.886 471.907 107.328 471.907C107.77 471.907 108.129 472.266 108.129 472.708C108.129 473.15 107.77 473.509 107.328 473.509Z" fill="white" fill-opacity="0.3"/>
<path d="M141.26 479.492C140.914 479.492 140.633 479.211 140.633 478.865C140.633 478.519 140.914 478.238 141.26 478.238C141.606 478.238 141.887 478.519 141.887 478.865C141.887 479.211 141.606 479.492 141.26 479.492Z" fill="white" fill-opacity="0.4"/>
<path d="M227.913 471.314C227.494 471.314 227.154 470.975 227.154 470.556C227.154 470.137 227.494 469.797 227.913 469.797C228.332 469.797 228.672 470.137 228.672 470.556C228.672 470.975 228.332 471.314 227.913 471.314Z" fill="white" fill-opacity="0.4"/>
<path d="M205.613 478.457C205.261 478.457 204.976 478.171 204.976 477.819C204.976 477.467 205.261 477.182 205.613 477.182C205.965 477.182 206.25 477.467 206.25 477.819C206.25 478.171 205.965 478.457 205.613 478.457Z" fill="white" fill-opacity="0.5"/>
<path d="M225.522 481.373C224.948 481.373 224.482 480.907 224.482 480.333C224.482 479.758 224.948 479.292 225.522 479.292C226.097 479.292 226.562 479.758 226.562 480.333C226.562 480.907 226.097 481.373 225.522 481.373Z" fill="white" fill-opacity="0.4"/>
<path d="M221.199 466.272C220.715 466.272 220.323 465.88 220.323 465.397C220.323 464.913 220.715 464.521 221.199 464.521C221.682 464.521 222.074 464.913 222.074 465.397C222.074 465.88 221.682 466.272 221.199 466.272Z" fill="white" fill-opacity="0.3"/>
<path d="M234.015 478.097C233.471 478.097 233.03 477.656 233.03 477.112C233.03 476.568 233.471 476.127 234.015 476.127C234.559 476.127 235 476.568 235 477.112C235 477.656 234.559 478.097 234.015 478.097Z" fill="white" fill-opacity="0.4"/>
<path d="M243.577 474.276C243.215 474.276 242.921 473.982 242.921 473.619C242.921 473.256 243.215 472.962 243.577 472.962C243.94 472.962 244.234 473.256 244.234 473.619C244.234 473.982 243.94 474.276 243.577 474.276Z" fill="white" fill-opacity="0.4"/>
</g>
</g>
<g clip-path="url(#clip3_4612_2126)">
<g clip-path="url(#clip4_4612_2126)">
<path d="M143.093 458.585C141.449 456.942 138.785 456.942 137.142 458.585L134.795 460.932C134.981 460.912 135.168 460.903 135.357 460.903C135.951 460.903 136.529 460.997 137.076 461.179L138.406 459.85C138.863 459.391 139.471 459.14 140.117 459.14C140.763 459.14 141.37 459.391 141.828 459.85C142.285 460.306 142.536 460.913 142.536 461.559C142.536 462.206 142.285 462.814 141.828 463.27L139.225 465.873C138.768 466.33 138.161 466.581 137.514 466.581C136.867 466.581 136.26 466.33 135.802 465.873C135.58 465.652 135.407 465.393 135.287 465.112C134.991 465.128 134.714 465.252 134.502 465.464L133.809 466.158C133.998 466.51 134.241 466.841 134.538 467.138C136.182 468.781 138.846 468.781 140.489 467.138L143.093 464.534C144.735 462.892 144.735 460.228 143.093 458.585Z" fill="white"/>
<path d="M137.54 469.58C136.945 469.58 136.362 469.484 135.802 469.293L134.463 470.633C134.006 471.091 133.399 471.342 132.752 471.342C132.106 471.342 131.499 471.091 131.041 470.633C130.584 470.177 130.333 469.569 130.333 468.923C130.333 468.277 130.584 467.669 131.041 467.212L133.644 464.609C134.102 464.153 134.709 463.901 135.355 463.901C136.003 463.901 136.608 464.153 137.066 464.609C137.288 464.831 137.462 465.089 137.582 465.371C137.88 465.355 138.158 465.231 138.369 465.019L139.062 464.326C138.871 463.973 138.628 463.642 138.331 463.344C136.687 461.702 134.024 461.702 132.38 463.344L129.777 465.948C128.134 467.591 128.134 470.255 129.777 471.898C131.421 473.542 134.084 473.542 135.727 471.898L138.071 469.555C137.896 469.571 137.72 469.58 137.541 469.58H137.54Z" fill="white"/>
<path d="M149.597 460.984C150.269 460.984 150.843 461.108 151.32 461.356C151.798 461.601 152.16 461.946 152.405 462.39C152.65 462.832 152.773 463.346 152.773 463.933C152.773 464.521 152.65 465.035 152.405 465.476C152.16 465.915 151.798 466.258 151.32 466.506C150.843 466.752 150.269 466.873 149.597 466.873H147.828V470.374H145.969V460.984H149.597ZM149.354 465.403C150.385 465.403 150.901 464.914 150.901 463.933C150.901 462.948 150.385 462.454 149.354 462.454H147.828V465.403H149.354Z" fill="white"/>
<path d="M154.348 470.374V463.292H156.074V464.343L156.211 464.369C156.382 463.975 156.605 463.688 156.882 463.505C157.161 463.321 157.5 463.228 157.899 463.228C158.301 463.228 158.607 463.296 158.818 463.433L158.515 464.967L158.378 464.993C158.264 464.945 158.153 464.91 158.045 464.89C157.939 464.868 157.81 464.856 157.656 464.856C157.157 464.856 156.776 465.031 156.515 465.382C156.255 465.73 156.126 466.29 156.126 467.061V470.374H154.348Z" fill="white"/>
<path d="M162.999 470.511C162.306 470.511 161.697 470.369 161.174 470.083C160.649 469.799 160.242 469.381 159.951 468.831C159.663 468.282 159.52 467.616 159.52 466.835C159.52 466.057 159.663 465.393 159.951 464.839C160.242 464.287 160.649 463.868 161.174 463.583C161.697 463.298 162.306 463.155 162.999 463.155C163.691 463.155 164.299 463.298 164.824 463.583C165.35 463.868 165.76 464.287 166.05 464.839C166.341 465.393 166.486 466.057 166.486 466.835C166.486 467.616 166.341 468.282 166.05 468.831C165.76 469.381 165.35 469.799 164.824 470.083C164.299 470.369 163.691 470.511 162.999 470.511ZM162.999 468.998C164.098 468.998 164.648 468.278 164.648 466.835C164.648 466.086 164.507 465.538 164.225 465.19C163.943 464.839 163.534 464.664 162.999 464.664C161.898 464.664 161.349 465.388 161.349 466.835C161.349 468.278 161.898 468.998 162.999 468.998Z" fill="white"/>
<path d="M169.106 470.375H167.234L169.256 466.704L167.341 463.293H169.243L170.47 465.622H170.615L171.85 463.293H173.692L171.838 466.704L173.804 470.375H171.906L170.572 467.789H170.423L169.106 470.375Z" fill="white"/>
<path d="M175.49 473.379C175.184 473.379 174.909 473.355 174.661 473.306C174.415 473.261 174.216 473.2 174.062 473.123L174.345 471.682L174.46 471.644C174.568 471.701 174.7 471.746 174.857 471.781C175.017 471.815 175.18 471.832 175.349 471.832C175.633 471.832 175.871 471.794 176.063 471.717C176.253 471.642 176.414 471.518 176.546 471.345C176.679 471.174 176.798 470.934 176.9 470.627L174.075 463.292H175.939L177.695 468.216H177.849L179.567 463.292H181.375L178.533 470.819C178.304 471.426 178.054 471.914 177.781 472.285C177.509 472.655 177.189 472.93 176.819 473.11C176.448 473.289 176.005 473.379 175.49 473.379Z" fill="white"/>
<path d="M184.601 460.984V468.818H188.82V470.374H182.742V460.984H184.601Z" fill="white"/>
<path d="M191.035 462.442C190.715 462.442 190.455 462.346 190.253 462.151C190.05 461.958 189.949 461.707 189.949 461.399C189.949 461.094 190.05 460.845 190.253 460.651C190.455 460.454 190.715 460.356 191.035 460.356C191.248 460.356 191.439 460.402 191.608 460.493C191.775 460.581 191.905 460.704 191.996 460.86C192.087 461.017 192.133 461.197 192.133 461.399C192.133 461.599 192.087 461.778 191.996 461.937C191.905 462.094 191.775 462.218 191.608 462.309C191.439 462.398 191.248 462.442 191.035 462.442ZM190.15 470.374V463.292H191.928V470.374H190.15Z" fill="white"/>
<path d="M193.961 470.374V463.292H195.67V464.331L195.803 464.365C196.244 463.559 196.959 463.155 197.949 463.155C198.766 463.155 199.365 463.38 199.748 463.826C200.133 464.271 200.325 464.919 200.325 465.771V470.374H198.547V465.989C198.547 465.519 198.451 465.18 198.261 464.972C198.073 464.764 197.771 464.66 197.359 464.66C196.848 464.66 196.451 464.825 196.166 465.156C195.881 465.484 195.739 466.001 195.739 466.707V470.374H193.961Z" fill="white"/>
<path d="M202.258 470.374V460.445H204.036V465.955H204.211L206.258 463.292H208.062V463.437L205.656 466.549L208.331 470.211V470.374H206.455L204.211 467.386H204.036V470.374H202.258Z" fill="white"/>
</g>
</g>
</g>
<g filter="url(#filter17_d_4612_2126)">
<rect x="13" y="119" width="72.4732" height="72.7088" rx="36.2366" fill="white" fill-opacity="0.7" shape-rendering="crispEdges"/>
<g clip-path="url(#clip5_4612_2126)">
<rect x="16.623" y="122.624" width="65.2258" height="65.4615" rx="32.6129" fill="url(#paint4_radial_4612_2126)"/>
<g filter="url(#filter18_i_4612_2126)">
<rect x="16.623" y="122.624" width="65.2258" height="65.4043" rx="3.62366" fill="white" fill-opacity="0.01"/>
</g>
</g>
</g>
<g filter="url(#filter19_d_4612_2126)">
<rect x="92.5098" y="119" width="72.4732" height="72.7088" rx="36.2366" fill="white" fill-opacity="0.7" shape-rendering="crispEdges"/>
<g clip-path="url(#clip6_4612_2126)">
<rect x="96.1328" y="122.624" width="65.2258" height="65.4615" rx="32.6129" fill="url(#paint5_radial_4612_2126)"/>
</g>
</g>
<g filter="url(#filter20_d_4612_2126)">
<rect x="172.018" y="119" width="72.4732" height="72.7088" rx="36.2366" fill="white" fill-opacity="0.7" shape-rendering="crispEdges"/>
<g clip-path="url(#clip7_4612_2126)">
<rect x="175.641" y="122.624" width="65.2258" height="65.4615" rx="32.6129" fill="url(#paint6_radial_4612_2126)"/>
<g filter="url(#filter21_i_4612_2126)">
<rect x="175.641" y="122.624" width="65.2258" height="65.4043" rx="3.62366" fill="white" fill-opacity="0.01"/>
</g>
</g>
</g>
<g filter="url(#filter22_d_4612_2126)">
<rect x="251.527" y="119" width="72.4732" height="72.7088" rx="36.2366" fill="white" fill-opacity="0.7" shape-rendering="crispEdges"/>
<g clip-path="url(#clip8_4612_2126)">
<rect x="255.15" y="122.624" width="65.2258" height="65.4615" rx="32.6129" fill="url(#paint7_radial_4612_2126)"/>
<rect x="255.15" y="122.624" width="65.2258" height="65.4043" rx="32.6129" fill="white" fill-opacity="0.01"/>
</g>
</g>
<defs>
<filter id="filter0_ddddd_4612_2126" x="7.19794" y="0.568108" width="324.678" height="232.696" filterUnits="userSpaceOnUse" color-interpolation-filters="sRGB">
<feFlood flood-opacity="0" result="BackgroundImageFix"/>
<feColorMatrix in="SourceAlpha" type="matrix" values="0 0 0 0 0 0 0 0 0 0 0 0 0 0 0 0 0 0 127 0" result="hardAlpha"/>
<feOffset dy="2.83781"/>
<feGaussianBlur stdDeviation="2.12836"/>
<feComposite in2="hardAlpha" operator="out"/>
<feColorMatrix type="matrix" values="0 0 0 0 0 0 0 0 0 0 0 0 0 0 0 0 0 0 0.04 0"/>
<feBlend mode="normal" in2="BackgroundImageFix" result="effect1_dropShadow_4612_2126"/>
<feColorMatrix in="SourceAlpha" type="matrix" values="0 0 0 0 0 0 0 0 0 0 0 0 0 0 0 0 0 0 127 0" result="hardAlpha"/>
<feOffset dy="34.0538"/>
<feGaussianBlur stdDeviation="48.2428"/>
<feComposite in2="hardAlpha" operator="out"/>
<feColorMatrix type="matrix" values="0 0 0 0 0.184314 0 0 0 0 0.188235 0 0 0 0 0.215686 0 0 0 0.05 0"/>
<feBlend mode="normal" in2="effect1_dropShadow_4612_2126" result="effect2_dropShadow_4612_2126"/>
<feColorMatrix in="SourceAlpha" type="matrix" values="0 0 0 0 0 0 0 0 0 0 0 0 0 0 0 0 0 0 127 0" result="hardAlpha"/>
<feOffset dy="5.67563"/>
<feGaussianBlur stdDeviation="4.25672"/>
<feComposite in2="hardAlpha" operator="out"/>
<feColorMatrix type="matrix" values="0 0 0 0 0.133333 0 0 0 0 0.164706 0 0 0 0 0.207843 0 0 0 0.04 0"/>
<feBlend mode="normal" in2="effect2_dropShadow_4612_2126" result="effect3_dropShadow_4612_2126"/>
<feColorMatrix in="SourceAlpha" type="matrix" values="0 0 0 0 0 0 0 0 0 0 0 0 0 0 0 0 0 0 127 0" result="hardAlpha"/>
<feOffset dy="1.41891"/>
<feGaussianBlur stdDeviation="0.709453"/>
<feComposite in2="hardAlpha" operator="out"/>
<feColorMatrix type="matrix" values="0 0 0 0 0 0 0 0 0 0 0 0 0 0 0 0 0 0 0.05 0"/>
<feBlend mode="normal" in2="effect3_dropShadow_4612_2126" result="effect4_dropShadow_4612_2126"/>
<feColorMatrix in="SourceAlpha" type="matrix" values="0 0 0 0 0 0 0 0 0 0 0 0 0 0 0 0 0 0 127 0" result="hardAlpha"/>
<feMorphology radius="1.41891" operator="dilate" in="SourceAlpha" result="effect5_dropShadow_4612_2126"/>
<feOffset/>
<feComposite in2="hardAlpha" operator="out"/>
<feColorMatrix type="matrix" values="0 0 0 0 0.129412 0 0 0 0 0.129412 0 0 0 0 0.14902 0 0 0 0.05 0"/>
<feBlend mode="normal" in2="effect4_dropShadow_4612_2126" result="effect5_dropShadow_4612_2126"/>
<feBlend mode="normal" in="SourceGraphic" in2="effect5_dropShadow_4612_2126" result="shape"/>
</filter>
<filter id="filter1_d_4612_2126" x="59.5116" y="408.277" width="50.055" height="22.2283" filterUnits="userSpaceOnUse" color-interpolation-filters="sRGB">
<feFlood flood-opacity="0" result="BackgroundImageFix"/>
<feColorMatrix in="SourceAlpha" type="matrix" values="0 0 0 0 0 0 0 0 0 0 0 0 0 0 0 0 0 0 127 0" result="hardAlpha"/>
<feMorphology radius="0.722817" operator="dilate" in="SourceAlpha" result="effect1_dropShadow_4612_2126"/>
<feOffset/>
<feComposite in2="hardAlpha" operator="out"/>
<feColorMatrix type="matrix" values="0 0 0 0 0.129412 0 0 0 0 0.129412 0 0 0 0 0.14902 0 0 0 0.05 0"/>
<feBlend mode="normal" in2="BackgroundImageFix" result="effect1_dropShadow_4612_2126"/>
<feBlend mode="normal" in="SourceGraphic" in2="effect1_dropShadow_4612_2126" result="shape"/>
</filter>
<filter id="filter2_d_4612_2126" x="144.277" y="408.277" width="50.055" height="22.2283" filterUnits="userSpaceOnUse" color-interpolation-filters="sRGB">
<feFlood flood-opacity="0" result="BackgroundImageFix"/>
<feColorMatrix in="SourceAlpha" type="matrix" values="0 0 0 0 0 0 0 0 0 0 0 0 0 0 0 0 0 0 127 0" result="hardAlpha"/>
<feMorphology radius="0.722817" operator="dilate" in="SourceAlpha" result="effect1_dropShadow_4612_2126"/>
<feOffset/>
<feComposite in2="hardAlpha" operator="out"/>
<feColorMatrix type="matrix" values="0 0 0 0 0.129412 0 0 0 0 0.129412 0 0 0 0 0.14902 0 0 0 0.05 0"/>
<feBlend mode="normal" in2="BackgroundImageFix" result="effect1_dropShadow_4612_2126"/>
<feBlend mode="normal" in="SourceGraphic" in2="effect1_dropShadow_4612_2126" result="shape"/>
</filter>
<filter id="filter3_d_4612_2126" x="232.277" y="408.277" width="50.055" height="22.2283" filterUnits="userSpaceOnUse" color-interpolation-filters="sRGB">
<feFlood flood-opacity="0" result="BackgroundImageFix"/>
<feColorMatrix in="SourceAlpha" type="matrix" values="0 0 0 0 0 0 0 0 0 0 0 0 0 0 0 0 0 0 127 0" result="hardAlpha"/>
<feMorphology radius="0.722817" operator="dilate" in="SourceAlpha" result="effect1_dropShadow_4612_2126"/>
<feOffset/>
<feComposite in2="hardAlpha" operator="out"/>
<feColorMatrix type="matrix" values="0 0 0 0 0.129412 0 0 0 0 0.129412 0 0 0 0 0.14902 0 0 0 0.05 0"/>
<feBlend mode="normal" in2="BackgroundImageFix" result="effect1_dropShadow_4612_2126"/>
<feBlend mode="normal" in="SourceGraphic" in2="effect1_dropShadow_4612_2126" result="shape"/>
</filter>
<filter id="filter4_d_4612_2126" x="231.685" y="243.498" width="53.9339" height="43.7489" filterUnits="userSpaceOnUse" color-interpolation-filters="sRGB">
<feFlood flood-opacity="0" result="BackgroundImageFix"/>
<feColorMatrix in="SourceAlpha" type="matrix" values="0 0 0 0 0 0 0 0 0 0 0 0 0 0 0 0 0 0 127 0" result="hardAlpha"/>
<feMorphology radius="0.722817" operator="dilate" in="SourceAlpha" result="effect1_dropShadow_4612_2126"/>
<feOffset/>
<feComposite in2="hardAlpha" operator="out"/>
<feColorMatrix type="matrix" values="0 0 0 0 0.129412 0 0 0 0 0.129412 0 0 0 0 0.14902 0 0 0 0.05 0"/>
<feBlend mode="normal" in2="BackgroundImageFix" result="effect1_dropShadow_4612_2126"/>
<feBlend mode="normal" in="SourceGraphic" in2="effect1_dropShadow_4612_2126" result="shape"/>
</filter>
<filter id="filter5_d_4612_2126" x="141.863" y="248.322" width="53.7777" height="34.1014" filterUnits="userSpaceOnUse" color-interpolation-filters="sRGB">
<feFlood flood-opacity="0" result="BackgroundImageFix"/>
<feColorMatrix in="SourceAlpha" type="matrix" values="0 0 0 0 0 0 0 0 0 0 0 0 0 0 0 0 0 0 127 0" result="hardAlpha"/>
<feMorphology radius="0.722817" operator="dilate" in="SourceAlpha" result="effect1_dropShadow_4612_2126"/>
<feOffset/>
<feComposite in2="hardAlpha" operator="out"/>
<feColorMatrix type="matrix" values="0 0 0 0 0.129412 0 0 0 0 0.129412 0 0 0 0 0.14902 0 0 0 0.05 0"/>
<feBlend mode="normal" in2="BackgroundImageFix" result="effect1_dropShadow_4612_2126"/>
<feBlend mode="normal" in="SourceGraphic" in2="effect1_dropShadow_4612_2126" result="shape"/>
</filter>
<filter id="filter6_d_4612_2126" x="56.8455" y="249.264" width="53.3929" height="32.2176" filterUnits="userSpaceOnUse" color-interpolation-filters="sRGB">
<feFlood flood-opacity="0" result="BackgroundImageFix"/>
<feColorMatrix in="SourceAlpha" type="matrix" values="0 0 0 0 0 0 0 0 0 0 0 0 0 0 0 0 0 0 127 0" result="hardAlpha"/>
<feMorphology radius="0.722817" operator="dilate" in="SourceAlpha" result="effect1_dropShadow_4612_2126"/>
<feOffset/>
<feComposite in2="hardAlpha" operator="out"/>
<feColorMatrix type="matrix" values="0 0 0 0 0.129412 0 0 0 0 0.129412 0 0 0 0 0.14902 0 0 0 0.05 0"/>
<feBlend mode="normal" in2="BackgroundImageFix" result="effect1_dropShadow_4612_2126"/>
<feBlend mode="normal" in="SourceGraphic" in2="effect1_dropShadow_4612_2126" result="shape"/>
</filter>
<filter id="filter7_dddddddd_4612_2126" x="101.153" y="516.634" width="135.504" height="147.23" filterUnits="userSpaceOnUse" color-interpolation-filters="sRGB">
<feFlood flood-opacity="0" result="BackgroundImageFix"/>
<feColorMatrix in="SourceAlpha" type="matrix" values="0 0 0 0 0 0 0 0 0 0 0 0 0 0 0 0 0 0 127 0" result="hardAlpha"/>
<feMorphology radius="10.4234" operator="erode" in="SourceAlpha" result="effect1_dropShadow_4612_2126"/>
<feOffset dy="20.8468"/>
<feGaussianBlur stdDeviation="10.4234"/>
<feComposite in2="hardAlpha" operator="out"/>
<feColorMatrix type="matrix" values="0 0 0 0 0.164706 0 0 0 0 0.2 0 0 0 0 0.27451 0 0 0 0.04 0"/>
<feBlend mode="normal" in2="BackgroundImageFix" result="effect1_dropShadow_4612_2126"/>
<feColorMatrix in="SourceAlpha" type="matrix" values="0 0 0 0 0 0 0 0 0 0 0 0 0 0 0 0 0 0 127 0" result="hardAlpha"/>
<feMorphology radius="3.25731" operator="erode" in="SourceAlpha" result="effect2_dropShadow_4612_2126"/>
<feOffset dy="6.51462"/>
<feGaussianBlur stdDeviation="3.25731"/>
<feComposite in2="hardAlpha" operator="out"/>
<feColorMatrix type="matrix" values="0 0 0 0 0.164706 0 0 0 0 0.2 0 0 0 0 0.27451 0 0 0 0.03 0"/>
<feBlend mode="normal" in2="effect1_dropShadow_4612_2126" result="effect2_dropShadow_4612_2126"/>
<feColorMatrix in="SourceAlpha" type="matrix" values="0 0 0 0 0 0 0 0 0 0 0 0 0 0 0 0 0 0 127 0" result="hardAlpha"/>
<feMorphology radius="1.95439" operator="erode" in="SourceAlpha" result="effect3_dropShadow_4612_2126"/>
<feOffset dy="3.90877"/>
<feGaussianBlur stdDeviation="1.95439"/>
<feComposite in2="hardAlpha" operator="out"/>
<feColorMatrix type="matrix" values="0 0 0 0 0.258824 0 0 0 0 0.815686 0 0 0 0 0.631373 0 0 0 0.05 0"/>
<feBlend mode="normal" in2="effect2_dropShadow_4612_2126" result="effect3_dropShadow_4612_2126"/>
<feColorMatrix in="SourceAlpha" type="matrix" values="0 0 0 0 0 0 0 0 0 0 0 0 0 0 0 0 0 0 127 0" result="hardAlpha"/>
<feMorphology radius="0.651462" operator="erode" in="SourceAlpha" result="effect4_dropShadow_4612_2126"/>
<feOffset dy="1.30292"/>
<feGaussianBlur stdDeviation="0.651462"/>
<feComposite in2="hardAlpha" operator="out"/>
<feColorMatrix type="matrix" values="0 0 0 0 0.258824 0 0 0 0 0.815686 0 0 0 0 0.631373 0 0 0 0.03 0"/>
<feBlend mode="normal" in2="effect3_dropShadow_4612_2126" result="effect4_dropShadow_4612_2126"/>
<feColorMatrix in="SourceAlpha" type="matrix" values="0 0 0 0 0 0 0 0 0 0 0 0 0 0 0 0 0 0 127 0" result="hardAlpha"/>
<feMorphology radius="1.30292" operator="dilate" in="SourceAlpha" result="effect5_dropShadow_4612_2126"/>
<feOffset/>
<feComposite in2="hardAlpha" operator="out"/>
<feColorMatrix type="matrix" values="0 0 0 0 0.258824 0 0 0 0 0.815686 0 0 0 0 0.631373 0 0 0 0.06 0"/>
<feBlend mode="normal" in2="effect4_dropShadow_4612_2126" result="effect5_dropShadow_4612_2126"/>
<feColorMatrix in="SourceAlpha" type="matrix" values="0 0 0 0 0 0 0 0 0 0 0 0 0 0 0 0 0 0 127 0" result="hardAlpha"/>
<feMorphology radius="10.4234" operator="erode" in="SourceAlpha" result="effect6_dropShadow_4612_2126"/>
<feOffset dy="31.2702"/>
<feGaussianBlur stdDeviation="15.6351"/>
<feComposite in2="hardAlpha" operator="out"/>
<feColorMatrix type="matrix" values="0 0 0 0 0.258824 0 0 0 0 0.815686 0 0 0 0 0.631373 0 0 0 0.12 0"/>
<feBlend mode="normal" in2="effect5_dropShadow_4612_2126" result="effect6_dropShadow_4612_2126"/>
<feColorMatrix in="SourceAlpha" type="matrix" values="0 0 0 0 0 0 0 0 0 0 0 0 0 0 0 0 0 0 127 0" result="hardAlpha"/>
<feMorphology radius="10.4234" operator="erode" in="SourceAlpha" result="effect7_dropShadow_4612_2126"/>
<feOffset dy="20.8468"/>
<feGaussianBlur stdDeviation="10.4234"/>
<feComposite in2="hardAlpha" operator="out"/>
<feColorMatrix type="matrix" values="0 0 0 0 0.258824 0 0 0 0 0.815686 0 0 0 0 0.631373 0 0 0 0.16 0"/>
<feBlend mode="normal" in2="effect6_dropShadow_4612_2126" result="effect7_dropShadow_4612_2126"/>
<feColorMatrix in="SourceAlpha" type="matrix" values="0 0 0 0 0 0 0 0 0 0 0 0 0 0 0 0 0 0 127 0" result="hardAlpha"/>
<feMorphology radius="3.25731" operator="erode" in="SourceAlpha" result="effect8_dropShadow_4612_2126"/>
<feOffset dy="6.51462"/>
<feGaussianBlur stdDeviation="3.25731"/>
<feComposite in2="hardAlpha" operator="out"/>
<feColorMatrix type="matrix" values="0 0 0 0 0.258824 0 0 0 0 0.815686 0 0 0 0 0.631373 0 0 0 0.12 0"/>
<feBlend mode="normal" in2="effect7_dropShadow_4612_2126" result="effect8_dropShadow_4612_2126"/>
<feBlend mode="normal" in="SourceGraphic" in2="effect8_dropShadow_4612_2126" result="shape"/>
</filter>
<filter id="filter8_i_4612_2126" x="132.42" y="528.36" width="5.21094" height="6.51484" filterUnits="userSpaceOnUse" color-interpolation-filters="sRGB">
<feFlood flood-opacity="0" result="BackgroundImageFix"/>
<feBlend mode="normal" in="SourceGraphic" in2="BackgroundImageFix" result="shape"/>
<feColorMatrix in="SourceAlpha" type="matrix" values="0 0 0 0 0 0 0 0 0 0 0 0 0 0 0 0 0 0 127 0" result="hardAlpha"/>
<feOffset dy="1.30292"/>
<feGaussianBlur stdDeviation="1.30292"/>
<feComposite in2="hardAlpha" operator="arithmetic" k2="-1" k3="1"/>
<feColorMatrix type="matrix" values="0 0 0 0 0.054902 0 0 0 0 0.247059 0 0 0 0 0.494118 0 0 0 0.08 0"/>
<feBlend mode="normal" in2="shape" result="effect1_innerShadow_4612_2126"/>
</filter>
<filter id="filter9_i_4612_2126" x="200.172" y="528.36" width="5.21094" height="6.51484" filterUnits="userSpaceOnUse" color-interpolation-filters="sRGB">
<feFlood flood-opacity="0" result="BackgroundImageFix"/>
<feBlend mode="normal" in="SourceGraphic" in2="BackgroundImageFix" result="shape"/>
<feColorMatrix in="SourceAlpha" type="matrix" values="0 0 0 0 0 0 0 0 0 0 0 0 0 0 0 0 0 0 127 0" result="hardAlpha"/>
<feOffset dy="1.30292"/>
<feGaussianBlur stdDeviation="1.30292"/>
<feComposite in2="hardAlpha" operator="arithmetic" k2="-1" k3="1"/>
<feColorMatrix type="matrix" values="0 0 0 0 0.054902 0 0 0 0 0.247059 0 0 0 0 0.494118 0 0 0 0.08 0"/>
<feBlend mode="normal" in2="shape" result="effect1_innerShadow_4612_2126"/>
</filter>
<filter id="filter10_i_4612_2126" x="132.42" y="596.113" width="5.21094" height="6.51484" filterUnits="userSpaceOnUse" color-interpolation-filters="sRGB">
<feFlood flood-opacity="0" result="BackgroundImageFix"/>
<feBlend mode="normal" in="SourceGraphic" in2="BackgroundImageFix" result="shape"/>
<feColorMatrix in="SourceAlpha" type="matrix" values="0 0 0 0 0 0 0 0 0 0 0 0 0 0 0 0 0 0 127 0" result="hardAlpha"/>
<feOffset dy="1.30292"/>
<feGaussianBlur stdDeviation="1.30292"/>
<feComposite in2="hardAlpha" operator="arithmetic" k2="-1" k3="1"/>
<feColorMatrix type="matrix" values="0 0 0 0 0.054902 0 0 0 0 0.247059 0 0 0 0 0.494118 0 0 0 0.08 0"/>
<feBlend mode="normal" in2="shape" result="effect1_innerShadow_4612_2126"/>
</filter>
<filter id="filter11_i_4612_2126" x="200.172" y="596.113" width="5.21094" height="6.51484" filterUnits="userSpaceOnUse" color-interpolation-filters="sRGB">
<feFlood flood-opacity="0" result="BackgroundImageFix"/>
<feBlend mode="normal" in="SourceGraphic" in2="BackgroundImageFix" result="shape"/>
<feColorMatrix in="SourceAlpha" type="matrix" values="0 0 0 0 0 0 0 0 0 0 0 0 0 0 0 0 0 0 127 0" result="hardAlpha"/>
<feOffset dy="1.30292"/>
<feGaussianBlur stdDeviation="1.30292"/>
<feComposite in2="hardAlpha" operator="arithmetic" k2="-1" k3="1"/>
<feColorMatrix type="matrix" values="0 0 0 0 0.054902 0 0 0 0 0.247059 0 0 0 0 0.494118 0 0 0 0.08 0"/>
<feBlend mode="normal" in2="shape" result="effect1_innerShadow_4612_2126"/>
</filter>
<filter id="filter12_ddddd_4612_2126" x="59.2071" y="576.668" width="221.185" height="166.252" filterUnits="userSpaceOnUse" color-interpolation-filters="sRGB">
<feFlood flood-opacity="0" result="BackgroundImageFix"/>
<feColorMatrix in="SourceAlpha" type="matrix" values="0 0 0 0 0 0 0 0 0 0 0 0 0 0 0 0 0 0 127 0" result="hardAlpha"/>
<feOffset dy="2.02091"/>
<feGaussianBlur stdDeviation="1.51568"/>
<feComposite in2="hardAlpha" operator="out"/>
<feColorMatrix type="matrix" values="0 0 0 0 0 0 0 0 0 0 0 0 0 0 0 0 0 0 0.04 0"/>
<feBlend mode="normal" in2="BackgroundImageFix" result="effect1_dropShadow_4612_2126"/>
<feColorMatrix in="SourceAlpha" type="matrix" values="0 0 0 0 0 0 0 0 0 0 0 0 0 0 0 0 0 0 127 0" result="hardAlpha"/>
<feOffset dy="24.2509"/>
<feGaussianBlur stdDeviation="34.3554"/>
<feComposite in2="hardAlpha" operator="out"/>
<feColorMatrix type="matrix" values="0 0 0 0 0.184314 0 0 0 0 0.188235 0 0 0 0 0.215686 0 0 0 0.05 0"/>
<feBlend mode="normal" in2="effect1_dropShadow_4612_2126" result="effect2_dropShadow_4612_2126"/>
<feColorMatrix in="SourceAlpha" type="matrix" values="0 0 0 0 0 0 0 0 0 0 0 0 0 0 0 0 0 0 127 0" result="hardAlpha"/>
<feOffset dy="4.04181"/>
<feGaussianBlur stdDeviation="3.03136"/>
<feComposite in2="hardAlpha" operator="out"/>
<feColorMatrix type="matrix" values="0 0 0 0 0.133333 0 0 0 0 0.164706 0 0 0 0 0.207843 0 0 0 0.04 0"/>
<feBlend mode="normal" in2="effect2_dropShadow_4612_2126" result="effect3_dropShadow_4612_2126"/>
<feColorMatrix in="SourceAlpha" type="matrix" values="0 0 0 0 0 0 0 0 0 0 0 0 0 0 0 0 0 0 127 0" result="hardAlpha"/>
<feOffset dy="1.01045"/>
<feGaussianBlur stdDeviation="0.505227"/>
<feComposite in2="hardAlpha" operator="out"/>
<feColorMatrix type="matrix" values="0 0 0 0 0 0 0 0 0 0 0 0 0 0 0 0 0 0 0.05 0"/>
<feBlend mode="normal" in2="effect3_dropShadow_4612_2126" result="effect4_dropShadow_4612_2126"/>
<feColorMatrix in="SourceAlpha" type="matrix" values="0 0 0 0 0 0 0 0 0 0 0 0 0 0 0 0 0 0 127 0" result="hardAlpha"/>
<feMorphology radius="1.01045" operator="dilate" in="SourceAlpha" result="effect5_dropShadow_4612_2126"/>
<feOffset/>
<feComposite in2="hardAlpha" operator="out"/>
<feColorMatrix type="matrix" values="0 0 0 0 0.129412 0 0 0 0 0.129412 0 0 0 0 0.14902 0 0 0 0.05 0"/>
<feBlend mode="normal" in2="effect4_dropShadow_4612_2126" result="effect5_dropShadow_4612_2126"/>
<feBlend mode="normal" in="SourceGraphic" in2="effect5_dropShadow_4612_2126" result="shape"/>
</filter>
<filter id="filter13_dd_4612_2126" x="51.9218" y="306.919" width="64.0939" height="64.0925" filterUnits="userSpaceOnUse" color-interpolation-filters="sRGB">
<feFlood flood-opacity="0" result="BackgroundImageFix"/>
<feColorMatrix in="SourceAlpha" type="matrix" values="0 0 0 0 0 0 0 0 0 0 0 0 0 0 0 0 0 0 127 0" result="hardAlpha"/>
<feOffset/>
<feGaussianBlur stdDeviation="2.42778"/>
<feComposite in2="hardAlpha" operator="out"/>
<feColorMatrix type="matrix" values="0 0 0 0 0.572549 0 0 0 0 0.611765 0 0 0 0 0.768627 0 0 0 0.02 0"/>
<feBlend mode="normal" in2="BackgroundImageFix" result="effect1_dropShadow_4612_2126"/>
<feColorMatrix in="SourceAlpha" type="matrix" values="0 0 0 0 0 0 0 0 0 0 0 0 0 0 0 0 0 0 127 0" result="hardAlpha"/>
<feOffset dy="1.94222"/>
<feGaussianBlur stdDeviation="0.971112"/>
<feComposite in2="hardAlpha" operator="out"/>
<feColorMatrix type="matrix" values="0 0 0 0 0.572549 0 0 0 0 0.611765 0 0 0 0 0.768627 0 0 0 0.24 0"/>
<feBlend mode="normal" in2="effect1_dropShadow_4612_2126" result="effect2_dropShadow_4612_2126"/>
<feBlend mode="normal" in="SourceGraphic" in2="effect2_dropShadow_4612_2126" result="shape"/>
</filter>
<filter id="filter14_dd_4612_2126" x="139.139" y="306.919" width="64.0939" height="64.0925" filterUnits="userSpaceOnUse" color-interpolation-filters="sRGB">
<feFlood flood-opacity="0" result="BackgroundImageFix"/>
<feColorMatrix in="SourceAlpha" type="matrix" values="0 0 0 0 0 0 0 0 0 0 0 0 0 0 0 0 0 0 127 0" result="hardAlpha"/>
<feOffset/>
<feGaussianBlur stdDeviation="2.42778"/>
<feComposite in2="hardAlpha" operator="out"/>
<feColorMatrix type="matrix" values="0 0 0 0 0.572549 0 0 0 0 0.611765 0 0 0 0 0.768627 0 0 0 0.02 0"/>
<feBlend mode="normal" in2="BackgroundImageFix" result="effect1_dropShadow_4612_2126"/>
<feColorMatrix in="SourceAlpha" type="matrix" values="0 0 0 0 0 0 0 0 0 0 0 0 0 0 0 0 0 0 127 0" result="hardAlpha"/>
<feOffset dy="1.94222"/>
<feGaussianBlur stdDeviation="0.971112"/>
<feComposite in2="hardAlpha" operator="out"/>
<feColorMatrix type="matrix" values="0 0 0 0 0.572549 0 0 0 0 0.611765 0 0 0 0 0.768627 0 0 0 0.24 0"/>
<feBlend mode="normal" in2="effect1_dropShadow_4612_2126" result="effect2_dropShadow_4612_2126"/>
<feBlend mode="normal" in="SourceGraphic" in2="effect2_dropShadow_4612_2126" result="shape"/>
</filter>
<filter id="filter15_dd_4612_2126" x="226.353" y="306.919" width="64.0939" height="64.0925" filterUnits="userSpaceOnUse" color-interpolation-filters="sRGB">
<feFlood flood-opacity="0" result="BackgroundImageFix"/>
<feColorMatrix in="SourceAlpha" type="matrix" values="0 0 0 0 0 0 0 0 0 0 0 0 0 0 0 0 0 0 127 0" result="hardAlpha"/>
<feOffset/>
<feGaussianBlur stdDeviation="2.42778"/>
<feComposite in2="hardAlpha" operator="out"/>
<feColorMatrix type="matrix" values="0 0 0 0 0.572549 0 0 0 0 0.611765 0 0 0 0 0.768627 0 0 0 0.02 0"/>
<feBlend mode="normal" in2="BackgroundImageFix" result="effect1_dropShadow_4612_2126"/>
<feColorMatrix in="SourceAlpha" type="matrix" values="0 0 0 0 0 0 0 0 0 0 0 0 0 0 0 0 0 0 127 0" result="hardAlpha"/>
<feOffset dy="1.94222"/>
<feGaussianBlur stdDeviation="0.971112"/>
<feComposite in2="hardAlpha" operator="out"/>
<feColorMatrix type="matrix" values="0 0 0 0 0.572549 0 0 0 0 0.611765 0 0 0 0 0.768627 0 0 0 0.24 0"/>
<feBlend mode="normal" in2="effect1_dropShadow_4612_2126" result="effect2_dropShadow_4612_2126"/>
<feBlend mode="normal" in="SourceGraphic" in2="effect2_dropShadow_4612_2126" result="shape"/>
</filter>
<filter id="filter16_ddddi_4612_2126" x="7.91366" y="433.463" width="322.96" height="312.646" filterUnits="userSpaceOnUse" color-interpolation-filters="sRGB">
<feFlood flood-opacity="0" result="BackgroundImageFix"/>
<feColorMatrix in="SourceAlpha" type="matrix" values="0 0 0 0 0 0 0 0 0 0 0 0 0 0 0 0 0 0 127 0" result="hardAlpha"/>
<feOffset dy="12.9679"/>
<feGaussianBlur stdDeviation="12.9684"/>
<feComposite in2="hardAlpha" operator="out"/>
<feColorMatrix type="matrix" values="0 0 0 0 0.32549 0 0 0 0 0.298039 0 0 0 0 0.984314 0 0 0 0.22 0"/>
<feBlend mode="normal" in2="BackgroundImageFix" result="effect1_dropShadow_4612_2126"/>
<feColorMatrix in="SourceAlpha" type="matrix" values="0 0 0 0 0 0 0 0 0 0 0 0 0 0 0 0 0 0 127 0" result="hardAlpha"/>
<feOffset dy="43.2273"/>
<feGaussianBlur stdDeviation="21.6137"/>
<feComposite in2="hardAlpha" operator="out"/>
<feColorMatrix type="matrix" values="0 0 0 0 0.32549 0 0 0 0 0.298039 0 0 0 0 0.984314 0 0 0 0.19 0"/>
<feBlend mode="normal" in2="effect1_dropShadow_4612_2126" result="effect2_dropShadow_4612_2126"/>
<feColorMatrix in="SourceAlpha" type="matrix" values="0 0 0 0 0 0 0 0 0 0 0 0 0 0 0 0 0 0 127 0" result="hardAlpha"/>
<feOffset dy="99.4235"/>
<feGaussianBlur stdDeviation="30.2594"/>
<feComposite in2="hardAlpha" operator="out"/>
<feColorMatrix type="matrix" values="0 0 0 0 0.32549 0 0 0 0 0.298039 0 0 0 0 0.984314 0 0 0 0.11 0"/>
<feBlend mode="normal" in2="effect2_dropShadow_4612_2126" result="effect3_dropShadow_4612_2126"/>
<feColorMatrix in="SourceAlpha" type="matrix" values="0 0 0 0 0 0 0 0 0 0 0 0 0 0 0 0 0 0 127 0" result="hardAlpha"/>
<feOffset dy="181.556"/>
<feGaussianBlur stdDeviation="36.7434"/>
<feComposite in2="hardAlpha" operator="out"/>
<feColorMatrix type="matrix" values="0 0 0 0 0.32549 0 0 0 0 0.298039 0 0 0 0 0.984314 0 0 0 0.03 0"/>
<feBlend mode="normal" in2="effect3_dropShadow_4612_2126" result="effect4_dropShadow_4612_2126"/>
<feBlend mode="normal" in="SourceGraphic" in2="effect4_dropShadow_4612_2126" result="shape"/>
<feColorMatrix in="SourceAlpha" type="matrix" values="0 0 0 0 0 0 0 0 0 0 0 0 0 0 0 0 0 0 127 0" result="hardAlpha"/>
<feMorphology radius="1.33714" operator="erode" in="SourceAlpha" result="effect5_innerShadow_4612_2126"/>
<feOffset/>
<feComposite in2="hardAlpha" operator="arithmetic" k2="-1" k3="1"/>
<feColorMatrix type="matrix" values="0 0 0 0 1 0 0 0 0 1 0 0 0 0 1 0 0 0 0.32 0"/>
<feBlend mode="normal" in2="shape" result="effect5_innerShadow_4612_2126"/>
</filter>
<filter id="filter17_d_4612_2126" x="9" y="119" width="80.4727" height="80.709" filterUnits="userSpaceOnUse" color-interpolation-filters="sRGB">
<feFlood flood-opacity="0" result="BackgroundImageFix"/>
<feColorMatrix in="SourceAlpha" type="matrix" values="0 0 0 0 0 0 0 0 0 0 0 0 0 0 0 0 0 0 127 0" result="hardAlpha"/>
<feOffset dy="4"/>
<feGaussianBlur stdDeviation="2"/>
<feComposite in2="hardAlpha" operator="out"/>
<feColorMatrix type="matrix" values="0 0 0 0 0 0 0 0 0 0 0 0 0 0 0 0 0 0 0.05 0"/>
<feBlend mode="normal" in2="BackgroundImageFix" result="effect1_dropShadow_4612_2126"/>
<feBlend mode="normal" in="SourceGraphic" in2="effect1_dropShadow_4612_2126" result="shape"/>
</filter>
<filter id="filter18_i_4612_2126" x="16.623" y="122.624" width="65.2266" height="65.4043" filterUnits="userSpaceOnUse" color-interpolation-filters="sRGB">
<feFlood flood-opacity="0" result="BackgroundImageFix"/>
<feBlend mode="normal" in="SourceGraphic" in2="BackgroundImageFix" result="shape"/>
<feColorMatrix in="SourceAlpha" type="matrix" values="0 0 0 0 0 0 0 0 0 0 0 0 0 0 0 0 0 0 127 0" result="hardAlpha"/>
<feMorphology radius="0.905914" operator="erode" in="SourceAlpha" result="effect1_innerShadow_4612_2126"/>
<feOffset/>
<feComposite in2="hardAlpha" operator="arithmetic" k2="-1" k3="1"/>
<feColorMatrix type="matrix" values="0 0 0 0 0 0 0 0 0 0 0 0 0 0 0 0 0 0 0.05 0"/>
<feBlend mode="normal" in2="shape" result="effect1_innerShadow_4612_2126"/>
</filter>
<filter id="filter19_d_4612_2126" x="88.5098" y="119" width="80.4727" height="80.709" filterUnits="userSpaceOnUse" color-interpolation-filters="sRGB">
<feFlood flood-opacity="0" result="BackgroundImageFix"/>
<feColorMatrix in="SourceAlpha" type="matrix" values="0 0 0 0 0 0 0 0 0 0 0 0 0 0 0 0 0 0 127 0" result="hardAlpha"/>
<feOffset dy="4"/>
<feGaussianBlur stdDeviation="2"/>
<feComposite in2="hardAlpha" operator="out"/>
<feColorMatrix type="matrix" values="0 0 0 0 0 0 0 0 0 0 0 0 0 0 0 0 0 0 0.05 0"/>
<feBlend mode="normal" in2="BackgroundImageFix" result="effect1_dropShadow_4612_2126"/>
<feBlend mode="normal" in="SourceGraphic" in2="effect1_dropShadow_4612_2126" result="shape"/>
</filter>
<filter id="filter20_d_4612_2126" x="168.018" y="119" width="80.4727" height="80.709" filterUnits="userSpaceOnUse" color-interpolation-filters="sRGB">
<feFlood flood-opacity="0" result="BackgroundImageFix"/>
<feColorMatrix in="SourceAlpha" type="matrix" values="0 0 0 0 0 0 0 0 0 0 0 0 0 0 0 0 0 0 127 0" result="hardAlpha"/>
<feOffset dy="4"/>
<feGaussianBlur stdDeviation="2"/>
<feComposite in2="hardAlpha" operator="out"/>
<feColorMatrix type="matrix" values="0 0 0 0 0 0 0 0 0 0 0 0 0 0 0 0 0 0 0.05 0"/>
<feBlend mode="normal" in2="BackgroundImageFix" result="effect1_dropShadow_4612_2126"/>
<feBlend mode="normal" in="SourceGraphic" in2="effect1_dropShadow_4612_2126" result="shape"/>
</filter>
<filter id="filter21_i_4612_2126" x="175.641" y="122.624" width="65.2266" height="65.4043" filterUnits="userSpaceOnUse" color-interpolation-filters="sRGB">
<feFlood flood-opacity="0" result="BackgroundImageFix"/>
<feBlend mode="normal" in="SourceGraphic" in2="BackgroundImageFix" result="shape"/>
<feColorMatrix in="SourceAlpha" type="matrix" values="0 0 0 0 0 0 0 0 0 0 0 0 0 0 0 0 0 0 127 0" result="hardAlpha"/>
<feMorphology radius="0.905914" operator="erode" in="SourceAlpha" result="effect1_innerShadow_4612_2126"/>
<feOffset/>
<feComposite in2="hardAlpha" operator="arithmetic" k2="-1" k3="1"/>
<feColorMatrix type="matrix" values="0 0 0 0 0 0 0 0 0 0 0 0 0 0 0 0 0 0 0.05 0"/>
<feBlend mode="normal" in2="shape" result="effect1_innerShadow_4612_2126"/>
</filter>
<filter id="filter22_d_4612_2126" x="247.527" y="119" width="80.4727" height="80.709" filterUnits="userSpaceOnUse" color-interpolation-filters="sRGB">
<feFlood flood-opacity="0" result="BackgroundImageFix"/>
<feColorMatrix in="SourceAlpha" type="matrix" values="0 0 0 0 0 0 0 0 0 0 0 0 0 0 0 0 0 0 127 0" result="hardAlpha"/>
<feOffset dy="4"/>
<feGaussianBlur stdDeviation="2"/>
<feComposite in2="hardAlpha" operator="out"/>
<feColorMatrix type="matrix" values="0 0 0 0 0 0 0 0 0 0 0 0 0 0 0 0 0 0 0.05 0"/>
<feBlend mode="normal" in2="BackgroundImageFix" result="effect1_dropShadow_4612_2126"/>
<feBlend mode="normal" in="SourceGraphic" in2="effect1_dropShadow_4612_2126" result="shape"/>
</filter>
<linearGradient id="paint0_linear_4612_2126" x1="83.9697" y1="326.22" x2="83.9697" y2="349.162" gradientUnits="userSpaceOnUse">
<stop offset="0.46" stop-color="white" stop-opacity="0.1"/>
<stop offset="0.54" stop-color="white" stop-opacity="0"/>
</linearGradient>
<linearGradient id="paint1_linear_4612_2126" x1="171.186" y1="326.22" x2="171.186" y2="349.162" gradientUnits="userSpaceOnUse">
<stop offset="0.46" stop-color="white" stop-opacity="0.1"/>
<stop offset="0.54" stop-color="white" stop-opacity="0"/>
</linearGradient>
<linearGradient id="paint2_linear_4612_2126" x1="258.401" y1="326.22" x2="258.401" y2="349.162" gradientUnits="userSpaceOnUse">
<stop offset="0.46" stop-color="white" stop-opacity="0.1"/>
<stop offset="0.54" stop-color="white" stop-opacity="0"/>
</linearGradient>
<radialGradient id="paint3_radial_4612_2126" cx="0" cy="0" r="1" gradientUnits="userSpaceOnUse" gradientTransform="translate(146.175 481.538) scale(82.9315 113.596)">
<stop stop-color="white" stop-opacity="0.16"/>
<stop offset="1" stop-color="white" stop-opacity="0"/>
</radialGradient>
<radialGradient id="paint4_radial_4612_2126" cx="0" cy="0" r="1" gradientUnits="userSpaceOnUse" gradientTransform="translate(48.7598 116.392) scale(157.338 105.203)">
<stop stop-color="#6C47FF" stop-opacity="0.3"/>
<stop offset="0.4124" stop-color="#FFF963" stop-opacity="0.24"/>
<stop offset="0.6234" stop-color="#38DAFD" stop-opacity="0.18"/>
<stop offset="0.9189" stop-color="#6248F6" stop-opacity="0"/>
</radialGradient>
<radialGradient id="paint5_radial_4612_2126" cx="0" cy="0" r="1" gradientUnits="userSpaceOnUse" gradientTransform="translate(128.27 116.392) scale(157.338 105.203)">
<stop stop-color="#6C47FF" stop-opacity="0.3"/>
<stop offset="0.4124" stop-color="#FFF963" stop-opacity="0.24"/>
<stop offset="0.6234" stop-color="#38DAFD" stop-opacity="0.18"/>
<stop offset="0.9189" stop-color="#6248F6" stop-opacity="0"/>
</radialGradient>
<radialGradient id="paint6_radial_4612_2126" cx="0" cy="0" r="1" gradientUnits="userSpaceOnUse" gradientTransform="translate(207.777 116.392) scale(157.338 105.203)">
<stop stop-color="#6C47FF" stop-opacity="0.3"/>
<stop offset="0.4124" stop-color="#FFF963" stop-opacity="0.24"/>
<stop offset="0.6234" stop-color="#38DAFD" stop-opacity="0.18"/>
<stop offset="0.9189" stop-color="#6248F6" stop-opacity="0"/>
</radialGradient>
<radialGradient id="paint7_radial_4612_2126" cx="0" cy="0" r="1" gradientUnits="userSpaceOnUse" gradientTransform="translate(287.287 116.392) scale(157.338 105.203)">
<stop stop-color="#6C47FF" stop-opacity="0.3"/>
<stop offset="0.4124" stop-color="#FFF963" stop-opacity="0.24"/>
<stop offset="0.6234" stop-color="#38DAFD" stop-opacity="0.18"/>
<stop offset="0.9189" stop-color="#6248F6" stop-opacity="0"/>
</radialGradient>
<clipPath id="clip0_4612_2126">
<rect x="232.408" y="268.526" width="48.61" height="20.7825" rx="4.7289" transform="rotate(-30 232.408 268.526)" fill="white"/>
</clipPath>
<clipPath id="clip1_4612_2126">
<rect x="147.965" y="249.044" width="48.61" height="20.7825" rx="4.7289" transform="rotate(15 147.965 249.044)" fill="white"/>
</clipPath>
<clipPath id="clip2_4612_2126">
<rect x="57.5684" y="260.464" width="48.61" height="20.7825" rx="4.7289" transform="rotate(-12.4477 57.5684 260.464)" fill="white"/>
</clipPath>
<clipPath id="clip3_4612_2126">
<rect width="81.1" height="16.22" fill="white" transform="translate(128.334 457.208)"/>
</clipPath>
<clipPath id="clip4_4612_2126">
<rect width="79.8985" height="16.22" fill="white" transform="translate(128.936 457.208)"/>
</clipPath>
<clipPath id="clip5_4612_2126">
<rect x="16.623" y="122.624" width="65.2258" height="65.4615" rx="32.6129" fill="white"/>
</clipPath>
<clipPath id="clip6_4612_2126">
<rect x="96.1328" y="122.624" width="65.2258" height="65.4615" rx="32.6129" fill="white"/>
</clipPath>
<clipPath id="clip7_4612_2126">
<rect x="175.641" y="122.624" width="65.2258" height="65.4615" rx="32.6129" fill="white"/>
</clipPath>
<clipPath id="clip8_4612_2126">
<rect x="255.15" y="122.624" width="65.2258" height="65.4615" rx="32.6129" fill="white"/>
</clipPath>
</defs>
</svg>
