<svg width="516" height="578" viewBox="0 0 516 578" fill="none" xmlns="http://www.w3.org/2000/svg">
<mask id="path-1-inside-1_4422_1575" fill="white">
<path d="M12 578C5.37259 578 -2.78021e-07 572.627 -6.20976e-07 566L-2.92894e-05 12C-2.96323e-05 5.37256 5.37255 -1.98371e-07 12 -4.43075e-07L504 -1.86091e-05C510.627 -1.88538e-05 516 5.37254 516 12L516 566C516 572.627 510.627 578 504 578L12 578Z"/>
</mask>
<path fill-rule="evenodd" clip-rule="evenodd" d="M-6.20976e-07 566C-5.36739e-07 567.628 0.277824 569.191 0.788642 570.644L1.25183 570.452C0.450618 569.111 -5.38207e-07 567.599 -6.20976e-07 566ZM8.08413 575.455L7.78961 576.166L7.0235 578.013L6.98087 578.116C8.4966 578.996 10.1926 579.6 12 579.858C12.6532 579.952 13.321 580 14 580L15.9677 580L15.9677 579L15.9677 577L15.9677 576L12 576C10.6288 576 9.3114 575.808 8.08413 575.455ZM23.9032 576L23.9032 577L23.9032 579L23.9032 580L31.8387 580L31.8387 579L31.8387 577L31.8387 576L23.9032 576ZM39.7742 576L39.7742 577L39.7742 579L39.7742 580L47.7097 580L47.7097 579L47.7097 577L47.7097 576L39.7742 576ZM55.6452 576L55.6452 577L55.6452 579L55.6452 580L63.5807 580L63.5807 579L63.5807 577L63.5807 576L55.6452 576ZM71.5161 576L71.5161 577L71.5161 579L71.5161 580L79.4516 580L79.4516 579L79.4516 577L79.4516 576L71.5161 576ZM87.3871 576L87.3871 577L87.3871 579L87.3871 580L95.3226 580L95.3226 579L95.3226 577L95.3226 576L87.3871 576ZM103.258 576L103.258 577L103.258 579L103.258 580L111.194 580L111.194 579L111.194 577L111.194 576L103.258 576ZM119.129 576L119.129 577L119.129 579L119.129 580L127.065 580L127.065 579L127.065 577L127.065 576L119.129 576ZM135 576L135 577L135 579L135 580L142.936 580L142.936 579L142.936 577L142.936 576L135 576ZM150.871 576L150.871 577L150.871 579L150.871 580L158.806 580L158.806 579L158.806 577L158.806 576L150.871 576ZM166.742 576L166.742 577L166.742 579L166.742 580L174.677 580L174.677 579L174.677 577L174.677 576L166.742 576ZM182.613 576L182.613 577L182.613 579L182.613 580L190.548 580L190.548 579L190.548 577L190.548 576L182.613 576ZM198.484 576L198.484 577L198.484 579L198.484 580L206.419 580L206.419 579L206.419 577L206.419 576L198.484 576ZM214.355 576L214.355 577L214.355 579L214.355 580L222.29 580L222.29 579L222.29 577L222.29 576L214.355 576ZM230.226 576L230.226 577L230.226 579L230.226 580L238.161 580L238.161 579L238.161 577L238.161 576L230.226 576ZM246.097 576L246.097 577L246.097 579L246.097 580L254.032 580L254.032 579L254.032 577L254.032 576L246.097 576ZM261.968 576L261.968 577L261.968 579L261.968 580L269.903 580L269.903 579L269.903 577L269.903 576L261.968 576ZM277.839 576L277.839 577L277.839 579L277.839 580L285.774 580L285.774 579L285.774 577L285.774 576L277.839 576ZM293.71 576L293.71 577L293.71 579L293.71 580L301.645 580L301.645 579L301.645 577L301.645 576L293.71 576ZM309.581 576L309.581 577L309.581 579L309.581 580L317.516 580L317.516 579L317.516 577L317.516 576L309.581 576ZM325.452 576L325.452 577L325.452 579L325.452 580L333.387 580L333.387 579L333.387 577L333.387 576L325.452 576ZM341.323 576L341.323 577L341.323 579L341.323 580L349.258 580L349.258 579L349.258 577L349.258 576L341.323 576ZM357.194 576L357.194 577L357.194 579L357.194 580L365.129 580L365.129 579L365.129 577L365.129 576L357.194 576ZM373.065 576L373.065 577L373.065 579L373.065 580L381 580L381 579L381 577L381 576L373.065 576ZM388.936 576L388.936 577L388.936 579L388.936 580L396.871 580L396.871 579L396.871 577L396.871 576L388.936 576ZM404.807 576L404.807 577L404.807 579L404.807 580L412.742 580L412.742 579L412.742 577L412.742 576L404.807 576ZM420.677 576L420.677 577L420.677 579L420.677 580L428.613 580L428.613 579L428.613 577L428.613 576L420.677 576ZM436.548 576L436.548 577L436.548 579L436.548 580L444.484 580L444.484 579L444.484 577L444.484 576L436.548 576ZM452.419 576L452.419 577L452.419 579L452.419 580L460.355 580L460.355 579L460.355 577L460.355 576L452.419 576ZM468.29 576L468.29 577L468.29 579L468.29 580L476.226 580L476.226 579L476.226 577L476.226 576L468.29 576ZM484.161 576L484.161 577L484.161 579L484.161 580L492.097 580L492.097 579L492.097 577L492.097 576L484.161 576ZM500.032 576L500.032 577L500.032 579L500.032 580L504 580C504.118 580 504.237 579.999 504.354 579.996C506.12 579.952 507.809 579.58 509.36 578.937L508.977 578.013L508.21 576.166L507.827 575.242C506.828 575.656 505.746 575.914 504.609 575.982C504.408 575.994 504.205 576 504 576L500.032 576ZM516.013 570.976L514.166 570.21L513.242 569.827C513.486 569.239 513.675 568.622 513.804 567.982C513.932 567.343 514 566.68 514 566M515 562.043L517 562.043L518 562.043L518 566M518 554.129L518 546.214L517 546.214L515 546.214L514 546.214L514 554.129L515 554.129L517 554.129L518 554.129ZM515 562.043L514 562.043L515 562.043ZM514 566L514 562.043L514 566ZM514 538.3L515 538.3L517 538.3L518 538.3L518 530.386L517 530.386L515 530.386L514 530.386L514 538.3ZM514 522.471L515 522.471L517 522.471L518 522.471L518 514.557L517 514.557L515 514.557L514 514.557L514 522.471ZM514 506.643L515 506.643L517 506.643L518 506.643L518 498.729L517 498.729L515 498.729L514 498.729L514 506.643ZM514 490.814L515 490.814L517 490.814L518 490.814L518 482.9L517 482.9L515 482.9L514 482.9L514 490.814ZM514 474.986L515 474.986L517 474.986L518 474.986L518 467.071L517 467.071L515 467.071L514 467.071L514 474.986ZM514 459.157L515 459.157L517 459.157L518 459.157L518 451.243L517 451.243L515 451.243L514 451.243L514 459.157ZM514 443.329L515 443.329L517 443.329L518 443.329L518 435.414L517 435.414L515 435.414L514 435.414L514 443.329ZM514 427.5L515 427.5L517 427.5L518 427.5L518 419.586L517 419.586L515 419.586L514 419.586L514 427.5ZM514 411.671L515 411.671L517 411.671L518 411.671L518 403.757L517 403.757L515 403.757L514 403.757L514 411.671ZM514 395.843L515 395.843L517 395.843L518 395.843L518 387.929L517 387.929L515 387.929L514 387.929L514 395.843ZM514 380.014L515 380.014L517 380.014L518 380.014L518 372.1L517 372.1L515 372.1L514 372.1L514 380.014ZM514 364.186L515 364.186L517 364.186L518 364.186L518 356.271L517 356.271L515 356.271L514 356.271L514 364.186ZM514 348.357L515 348.357L517 348.357L518 348.357L518 340.443L517 340.443L515 340.443L514 340.443L514 348.357ZM514 332.528L515 332.528L517 332.528L518 332.528L518 324.614L517 324.614L515 324.614L514 324.614L514 332.528ZM514 316.7L515 316.7L517 316.7L518 316.7L518 308.786L517 308.786L515 308.786L514 308.786L514 316.7ZM514 300.871L515 300.871L517 300.871L518 300.871L518 292.957L517 292.957L515 292.957L514 292.957L514 300.871ZM514 285.043L515 285.043L517 285.043L518 285.043L518 277.129L517 277.129L515 277.129L514 277.129L514 285.043ZM514 269.214L515 269.214L517 269.214L518 269.214L518 261.3L517 261.3L515 261.3L514 261.3L514 269.214ZM514 253.386L515 253.386L517 253.386L518 253.386L518 245.471L517 245.471L515 245.471L514 245.471L514 253.386ZM514 237.557L515 237.557L517 237.557L518 237.557L518 229.643L517 229.643L515 229.643L514 229.643L514 237.557ZM514 221.729L515 221.729L517 221.729L518 221.729L518 213.814L517 213.814L515 213.814L514 213.814L514 221.729ZM514 205.9L515 205.9L517 205.9L518 205.9L518 197.986L517 197.986L515 197.986L514 197.986L514 205.9ZM514 190.071L515 190.071L517 190.071L518 190.071L518 182.157L517 182.157L515 182.157L514 182.157L514 190.071ZM514 174.243L515 174.243L517 174.243L518 174.243L518 166.329L517 166.329L515 166.329L514 166.329L514 174.243ZM514 158.414L515 158.414L517 158.414L518 158.414L518 150.5L517 150.5L515 150.5L514 150.5L514 158.414ZM514 142.586L515 142.586L517 142.586L518 142.586L518 134.672L517 134.672L515 134.672L514 134.672L514 142.586ZM514 126.757L515 126.757L517 126.757L518 126.757L518 118.843L517 118.843L515 118.843L514 118.843L514 126.757ZM514 110.929L515 110.929L517 110.929L518 110.929L518 103.014L517 103.014L515 103.014L514 103.014L514 110.929ZM514 95.1002L515 95.1002L517 95.1002L518 95.1002L518 87.1859L517 87.1859L515 87.1859L514 87.1859L514 95.1002ZM514 79.2716L515 79.2716L517 79.2716L518 79.2716L518 71.3573L517 71.3573L515 71.3573L514 71.3573L514 79.2716ZM514 63.443L515 63.443L517 63.443L518 63.443L518 55.5288L517 55.5288L515 55.5288L514 55.5288L514 63.443ZM514 47.6145L515 47.6145L517 47.6145L518 47.6145L518 39.7002L517 39.7002L515 39.7002L514 39.7002L514 47.6145ZM514 31.7859L515 31.7859L517 31.7859L518 31.7859L518 23.8716L517 23.8716L515 23.8716L514 23.8716L514 31.7859ZM514 15.9573L515 15.9573L517 15.9573L518 15.9573L518 12C518 10.9342 517.881 9.89482 517.654 8.89506C517.478 8.11747 517.237 7.36381 516.937 6.64042L516.013 7.02348L514.166 7.78959L513.242 8.17265C513.465 8.71037 513.642 9.2722 513.77 9.85356C513.92 10.5439 514 11.2619 514 12L514 15.9573ZM508.976 -0.0132024L508.21 1.83427L507.827 2.75798C507.239 2.51408 506.622 2.32457 505.982 2.19603C505.342 2.06749 504.68 1.99998 504 1.99998L500.032 1.99998L500.032 0.999982L500.032 -1.00002L500.032 -2.00002L504 -2.00002C505.184 -2.00002 506.336 -1.85256 507.437 -1.5746C508.097 -1.40779 508.739 -1.19405 509.36 -0.936908L508.976 -0.0132024ZM492.097 -2.00002L484.161 -2.00002L484.161 -1.00002L484.161 0.999982L484.161 1.99998L492.097 1.99998L492.097 0.999982L492.097 -1.00002L492.097 -2.00002ZM476.226 1.99998L476.226 0.999982L476.226 -1.00002L476.226 -2.00002L468.29 -2.00002L468.29 -1.00002L468.29 0.999983L468.29 1.99998L476.226 1.99998ZM460.355 1.99998L460.355 0.999983L460.355 -1.00002L460.355 -2.00002L452.419 -2.00002L452.419 -1.00002L452.419 0.999983L452.419 1.99998L460.355 1.99998ZM444.484 1.99998L444.484 0.999984L444.484 -1.00002L444.484 -2.00002L436.548 -2.00002L436.548 -1.00002L436.548 0.999984L436.548 1.99998L444.484 1.99998ZM428.613 1.99998L428.613 0.999984L428.613 -1.00002L428.613 -2.00002L420.677 -2.00002L420.677 -1.00002L420.677 0.999984L420.677 1.99998L428.613 1.99998ZM412.742 1.99998L412.742 0.999985L412.742 -1.00002L412.742 -2.00002L404.806 -2.00001L404.806 -1.00001L404.806 0.999985L404.806 1.99999L412.742 1.99998ZM396.871 1.99999L396.871 0.999985L396.871 -1.00001L396.871 -2.00001L388.935 -2.00001L388.935 -1.00001L388.935 0.999986L388.935 1.99999L396.871 1.99999ZM381 1.99999L381 0.999986L381 -1.00001L381 -2.00001L373.064 -2.00001L373.064 -1.00001L373.064 0.999986L373.064 1.99999L381 1.99999ZM365.129 1.99999L365.129 0.999987L365.129 -1.00001L365.129 -2.00001L357.193 -2.00001L357.193 -1.00001L357.193 0.999987L357.193 1.99999L365.129 1.99999ZM349.258 1.99999L349.258 0.999987L349.258 -1.00001L349.258 -2.00001L341.323 -2.00001L341.323 -1.00001L341.323 0.999987L341.323 1.99999L349.258 1.99999ZM333.387 1.99999L333.387 0.999988L333.387 -1.00001L333.387 -2.00001L325.452 -2.00001L325.452 -1.00001L325.452 0.999988L325.452 1.99999L333.387 1.99999ZM317.516 1.99999L317.516 0.999988L317.516 -1.00001L317.516 -2.00001L309.581 -2.00001L309.581 -1.00001L309.581 0.999989L309.581 1.99999L317.516 1.99999ZM301.645 1.99999L301.645 0.999989L301.645 -1.00001L301.645 -2.00001L293.71 -2.00001L293.71 -1.00001L293.71 0.999989L293.71 1.99999L301.645 1.99999ZM285.774 1.99999L285.774 0.999989L285.774 -1.00001L285.774 -2.00001L277.839 -2.00001L277.839 -1.00001L277.839 0.99999L277.839 1.99999L285.774 1.99999ZM269.903 1.99999L269.903 0.99999L269.903 -1.00001L269.903 -2.00001L261.968 -2.00001L261.968 -1.00001L261.968 0.99999L261.968 1.99999L269.903 1.99999ZM254.032 1.99999L254.032 0.999991L254.032 -1.00001L254.032 -2.00001L246.097 -2.00001L246.097 -1.00001L246.097 0.999991L246.097 1.99999L254.032 1.99999ZM238.161 1.99999L238.161 0.999991L238.161 -1.00001L238.161 -2.00001L230.226 -2.00001L230.226 -1.00001L230.226 0.999991L230.226 1.99999L238.161 1.99999ZM222.29 1.99999L222.29 0.999992L222.29 -1.00001L222.29 -2.00001L214.355 -2.00001L214.355 -1.00001L214.355 0.999992L214.355 1.99999L222.29 1.99999ZM206.419 1.99999L206.419 0.999992L206.419 -1.00001L206.419 -2.00001L198.484 -2.00001L198.484 -1.00001L198.484 0.999993L198.484 1.99999L206.419 1.99999ZM190.548 1.99999L190.548 0.999993L190.548 -1.00001L190.548 -2.00001L182.613 -2.00001L182.613 -1.00001L182.613 0.999993L182.613 1.99999L190.548 1.99999ZM174.677 1.99999L174.677 0.999994L174.677 -1.00001L174.677 -2.00001L166.742 -2.00001L166.742 -1.00001L166.742 0.999994L166.742 1.99999L174.677 1.99999ZM158.806 1.99999L158.806 0.999994L158.806 -1.00001L158.806 -2.00001L150.871 -2.00001L150.871 -1.00001L150.871 0.999994L150.871 1.99999L158.806 1.99999ZM142.935 1.99999L142.935 0.999995L142.935 -1.00001L142.935 -2.00001L135 -2L135 -1L135 0.999995L135 2L142.935 1.99999ZM127.064 2L127.064 0.999995L127.064 -1L127.064 -2L119.129 -2L119.129 -1L119.129 0.999996L119.129 2L127.064 2ZM111.193 2L111.193 0.999996L111.193 -1L111.193 -2L103.258 -2L103.258 -1L103.258 0.999996L103.258 2L111.193 2ZM95.3225 2L95.3225 0.999996L95.3225 -1L95.3225 -2L87.387 -2L87.387 -1L87.387 0.999997L87.387 2L95.3225 2ZM79.4515 2L79.4515 0.999997L79.4515 -1L79.4515 -2L71.516 -2L71.516 -1L71.516 0.999997L71.516 2L79.4515 2ZM63.5805 2L63.5805 0.999998L63.5805 -1L63.5805 -2L55.6451 -2L55.6451 -1L55.6451 0.999998L55.6451 2L63.5805 2ZM47.7096 2L47.7096 0.999998L47.7096 -1L47.7096 -2L39.7741 -2L39.7741 -1L39.7741 0.999999L39.7741 2L47.7096 2ZM31.8386 2L31.8386 0.999999L31.8386 -1L31.8386 -2L23.9031 -2L23.9031 -1L23.9031 0.999999L23.9031 2L31.8386 2ZM15.9676 2L15.9676 0.999999L15.9676 -1L15.9676 -2L14 -2C13.3209 -2 12.6532 -1.95166 12 -1.85822C10.1926 -1.59967 8.49657 -0.995972 6.98083 -0.115967L7.02346 -0.0131839L7.78957 1.83429L8.0841 2.54456C9.31137 2.19165 10.6288 2 12 2L15.9676 2ZM1.2518 7.5481L0.788609 7.35602C0.277793 8.80927 -2.93736e-05 10.3722 -2.92894e-05 12C-2.93721e-05 10.4005 0.450589 8.88879 1.2518 7.5481ZM517.575 569.437C517.408 570.097 517.194 570.739 516.937 571.36L516.013 570.976M517.575 569.437C517.825 568.446 517.969 567.414 517.996 566.354L517.575 569.437ZM517.996 566.354C517.999 566.236 518 566.118 518 566L517.996 566.354Z" fill="#534CFB" fill-opacity="0.16" mask="url(#path-1-inside-1_4422_1575)"/>
</svg>
