<svg width="265" height="83" viewBox="0 0 265 83" fill="none" xmlns="http://www.w3.org/2000/svg">
<path d="M264.234 -49.6992C264.234 23.0556 205.255 82.0349 132.5 82.0349C59.7452 82.0349 0.765896 23.0556 0.765896 -49.6992C0.765896 -122.454 59.7452 -181.433 132.5 -181.433C205.255 -181.433 264.234 -122.454 264.234 -49.6992Z" fill="#42D0A1" fill-opacity="0.02" stroke="url(#paint0_linear_4422_1812)" stroke-width="1.53179"/>
<path d="M233.775 -49.699C233.775 6.23329 188.433 51.5754 132.501 51.5754C76.5689 51.5754 31.2268 6.23329 31.2268 -49.699C31.2268 -105.631 76.5689 -150.973 132.501 -150.973C188.433 -150.973 233.775 -105.631 233.775 -49.699Z" fill="#42D0A1" fill-opacity="0.03" stroke="url(#paint1_linear_4422_1812)" stroke-width="1.53179"/>
<path d="M207.079 -52.317C207.087 -52.0772 207.094 -51.8371 207.1 -51.5968C206.679 -51.5884 206.343 -51.2413 206.35 -50.8196C206.355 -50.4468 206.358 -50.0734 206.358 -49.6992C206.358 -49.3251 206.355 -48.9517 206.35 -48.5789C206.343 -48.1572 206.679 -47.8101 207.1 -47.8018C207.094 -47.5614 207.087 -47.3213 207.079 -47.0815C206.658 -47.0982 206.302 -46.7717 206.283 -46.3504C206.25 -45.604 206.206 -44.8606 206.151 -44.1202C206.119 -43.6997 206.434 -43.3331 206.853 -43.2997C206.833 -43.0606 206.812 -42.8219 206.789 -42.5835C206.37 -42.6253 205.995 -42.3207 205.951 -41.9013C205.873 -41.1586 205.785 -40.4191 205.685 -39.6832C205.628 -39.2653 205.92 -38.8805 206.337 -38.8219C206.302 -38.5835 206.266 -38.3456 206.229 -38.108C205.813 -38.175 205.421 -37.8936 205.352 -37.4776C205.229 -36.7426 205.096 -36.0112 204.952 -35.2837C204.87 -34.87 205.138 -34.4683 205.551 -34.3845C205.502 -34.1479 205.451 -33.9118 205.4 -33.6761C204.989 -33.7683 204.58 -33.5111 204.486 -33.1001C204.319 -32.3745 204.142 -31.6529 203.954 -30.9356C203.847 -30.5277 204.09 -30.1104 204.497 -30.0017C204.433 -29.7686 204.369 -29.536 204.303 -29.3039C203.898 -29.4209 203.475 -29.1891 203.355 -28.7847C203.145 -28.0701 202.924 -27.36 202.692 -26.6545C202.561 -26.2539 202.778 -25.8226 203.177 -25.6893C203.1 -25.4615 203.022 -25.2342 202.942 -25.0074C202.545 -25.1488 202.109 -24.9432 201.965 -24.5467C201.711 -23.8459 201.447 -23.1501 201.173 -22.4594C201.017 -22.0674 201.208 -21.6238 201.598 -21.4664C201.507 -21.2436 201.415 -21.0214 201.322 -20.7997C200.935 -20.9649 200.486 -20.7863 200.319 -20.3993C200.023 -19.7158 199.717 -19.0376 199.402 -18.365C199.223 -17.9832 199.386 -17.5288 199.766 -17.348C199.661 -17.1308 199.556 -16.9142 199.449 -16.6981C199.072 -16.8866 198.614 -16.7355 198.423 -16.3594C198.087 -15.6956 197.741 -15.0376 197.385 -14.3856C197.183 -14.0154 197.319 -13.5519 197.687 -13.3484C197.57 -13.1377 197.451 -12.9277 197.331 -12.7184C196.967 -12.9293 196.5 -12.8062 196.287 -12.4423C195.911 -11.8 195.525 -11.1638 195.131 -10.534C194.907 -10.1767 195.014 -9.70588 195.37 -9.48044C195.24 -9.27769 195.109 -9.07562 194.977 -8.87422C194.626 -9.10678 194.152 -9.0121 193.918 -8.6617C193.504 -8.04315 193.081 -7.4312 192.648 -6.82604C192.403 -6.48287 192.482 -6.00644 192.823 -5.75996C192.682 -5.5654 192.539 -5.37156 192.395 -5.17844C192.058 -5.43173 191.58 -5.36573 191.325 -5.03008C190.874 -4.43778 190.415 -3.85249 189.947 -3.27441C189.682 -2.94659 189.732 -2.46628 190.058 -2.19971C189.905 -2.01395 189.75 -1.82896 189.595 -1.64472C189.274 -1.91779 188.793 -1.88065 188.518 -1.56094C188.033 -0.996948 187.539 -0.440361 187.038 0.108635C186.753 0.419937 186.774 0.902351 187.084 1.18803C186.919 1.36424 186.754 1.53966 186.588 1.71427C186.284 1.42245 185.801 1.43061 185.508 1.73324C184.99 2.26704 184.464 2.79305 183.93 3.31106C183.627 3.60473 183.619 4.08754 183.911 4.39127C183.736 4.55728 183.561 4.72247 183.385 4.88681C183.099 4.57729 182.617 4.55647 182.305 4.84093C181.756 5.34256 181.2 5.83603 180.636 6.32112C180.316 6.59608 180.279 7.07751 180.552 7.39822C180.368 7.55345 180.183 7.70779 179.997 7.86125C179.73 7.53514 179.25 7.4854 178.922 7.75064C178.344 8.21837 177.759 8.67757 177.167 9.12801C176.831 9.38327 176.765 9.8616 177.018 10.1981C176.825 10.3419 176.631 10.4848 176.437 10.6267C176.19 10.2852 175.714 10.2066 175.371 10.4517C174.766 10.8838 174.154 11.307 173.535 11.7211C173.185 11.9557 173.09 12.4292 173.323 12.7804C173.121 12.9122 172.919 13.0431 172.716 13.1731C172.491 12.8173 172.02 12.7102 171.663 12.9341C171.033 13.3288 170.397 13.7142 169.754 14.0901C169.391 14.3032 169.267 14.7701 169.478 15.1346C169.269 15.2543 169.059 15.373 168.848 15.4907C168.645 15.122 168.181 14.9866 167.811 15.1885C167.159 15.5441 166.501 15.8902 165.837 16.2265C165.461 16.4171 165.31 16.8757 165.499 17.2524C165.283 17.3591 165.066 17.4647 164.849 17.5694C164.668 17.189 164.214 17.0258 163.832 17.2049C163.159 17.5205 162.481 17.8262 161.797 18.1219C161.41 18.2893 161.232 18.7379 161.397 19.1253C161.175 19.2185 160.953 19.3106 160.73 19.4017C160.573 19.0111 160.129 18.8206 159.737 18.9762C159.047 19.2504 158.351 19.5145 157.65 19.7683C157.254 19.9118 157.048 20.3487 157.189 20.7455C156.963 20.825 156.735 20.9034 156.507 20.9807C156.374 20.5812 155.943 20.3641 155.542 20.4955C154.837 20.727 154.127 20.9481 153.412 21.1587C153.008 21.2779 152.776 21.7014 152.893 22.106C152.661 22.1718 152.428 22.2365 152.195 22.3001C152.086 21.8932 151.669 21.6503 151.261 21.7571C150.544 21.9449 149.822 22.1222 149.097 22.2889C148.686 22.3833 148.429 22.7919 148.521 23.2029C148.285 23.2545 148.049 23.3049 147.812 23.3543C147.728 22.9415 147.327 22.6736 146.913 22.7554C146.186 22.8994 145.454 23.0326 144.719 23.155C144.303 23.2243 144.022 23.6166 144.089 24.0324C143.851 24.0694 143.613 24.1054 143.375 24.1402C143.316 23.7231 142.931 23.4314 142.514 23.488C141.778 23.5878 141.038 23.6767 140.296 23.7546C139.876 23.7986 139.571 24.1732 139.613 24.5924C139.375 24.6149 139.136 24.6364 138.897 24.6567C138.864 24.2368 138.497 23.9224 138.077 23.9538C137.336 24.0091 136.593 24.0535 135.846 24.0868C135.425 24.1056 135.099 24.4613 135.115 24.8822C134.875 24.8904 134.635 24.8976 134.395 24.9036C134.387 24.4824 134.04 24.1467 133.618 24.153C133.245 24.1585 132.872 24.1613 132.498 24.1613C132.123 24.1613 131.75 24.1585 131.377 24.153C130.956 24.1467 130.608 24.4824 130.6 24.9036C130.36 24.8976 130.12 24.8904 129.88 24.8822C129.896 24.4613 129.57 24.1056 129.149 24.0868C128.402 24.0535 127.659 24.0091 126.918 23.9538C126.498 23.9224 126.131 24.2368 126.098 24.6567C125.859 24.6364 125.62 24.6149 125.382 24.5924C125.424 24.1733 125.119 23.7986 124.7 23.7546C123.957 23.6767 123.217 23.5878 122.481 23.488C122.064 23.4314 121.679 23.7231 121.62 24.1402C121.382 24.1054 121.144 24.0694 120.906 24.0324C120.973 23.6166 120.692 23.2243 120.276 23.155C119.541 23.0326 118.809 22.8994 118.082 22.7554C117.668 22.6736 117.267 22.9415 117.183 23.3543C116.946 23.3049 116.71 23.2545 116.474 23.2029C116.567 22.7919 116.309 22.3833 115.898 22.2889C115.173 22.1222 114.451 21.9449 113.734 21.7571C113.326 21.6503 112.909 21.8932 112.8 22.3001C112.567 22.2365 112.334 22.1718 112.102 22.106C112.219 21.7014 111.987 21.2779 111.583 21.1587C110.868 20.9481 110.158 20.727 109.453 20.4955C109.052 20.3641 108.621 20.5812 108.488 20.9807C108.26 20.9034 108.032 20.825 107.806 20.7455C107.947 20.3487 107.741 19.9118 107.345 19.7683C106.644 19.5145 105.948 19.2504 105.258 18.9762C104.866 18.8206 104.422 19.0111 104.265 19.4017C104.042 19.3106 103.82 19.2185 103.598 19.1253C103.763 18.7379 103.585 18.2893 103.198 18.1219C102.514 17.8262 101.836 17.5205 101.163 17.2049C100.782 17.0258 100.327 17.189 100.146 17.5694C99.9291 17.4647 99.7124 17.3591 99.4964 17.2524C99.6849 16.8757 99.5338 16.4171 99.1576 16.2265C98.4939 15.8902 97.8359 15.5441 97.1838 15.1885C96.8136 14.9866 96.3502 15.122 96.1466 15.4907C95.936 15.373 95.726 15.2543 95.5166 15.1346C95.7276 14.7701 95.6045 14.3032 95.2406 14.0901C94.5982 13.7142 93.9621 13.3288 93.3323 12.9341C92.975 12.7102 92.5042 12.8173 92.2787 13.1731C92.076 13.0431 91.8739 12.9122 91.6725 12.7803C91.9051 12.4292 91.8104 11.9557 91.46 11.7211C90.8414 11.307 90.2295 10.8838 89.6243 10.4517C89.2811 10.2066 88.8047 10.2852 88.5582 10.6267C88.3637 10.4848 88.1698 10.3419 87.9767 10.1981C88.23 9.86159 88.164 9.38326 87.8284 9.12799C87.2361 8.67755 86.6508 8.21835 86.0727 7.75061C85.7449 7.48537 85.2646 7.53513 84.998 7.86124C84.8122 7.70778 84.6272 7.55342 84.443 7.39821C84.7161 7.0775 84.6789 6.59607 84.3592 6.32109C83.7952 5.836 83.2386 5.34254 82.6896 4.8409C82.3783 4.55646 81.8959 4.57726 81.6102 4.88678C81.434 4.72244 81.2586 4.55727 81.084 4.39124C81.3758 4.08751 81.3677 3.6047 81.065 3.31103C80.5312 2.79302 80.0052 2.26701 79.4872 1.73322C79.1936 1.4306 78.7108 1.42242 78.407 1.71424C78.241 1.53963 78.0758 1.36422 77.9115 1.18801C78.221 0.902336 78.2418 0.419907 77.9574 0.108604C77.4557 -0.440384 76.9623 -0.996971 76.4772 -1.56097C76.2022 -1.88068 75.7207 -1.9178 75.4 -1.64475C75.2448 -1.82899 75.0905 -2.01398 74.937 -2.19974C75.2631 -2.4663 75.3129 -2.94661 75.0477 -3.27444C74.5799 -3.85252 74.1207 -4.43781 73.6703 -5.03011C73.415 -5.36575 72.9367 -5.43176 72.6001 -5.17847C72.4564 -5.37159 72.3135 -5.56542 72.1716 -5.75997C72.5131 -6.00645 72.5917 -6.48289 72.3466 -6.82607C71.9145 -7.43122 71.4913 -8.04317 71.0772 -8.66171C70.8426 -9.01212 70.3691 -9.1068 70.0179 -8.87424C69.8861 -9.07564 69.7552 -9.27771 69.6252 -9.48045C69.981 -9.70589 70.0881 -10.1767 69.8642 -10.534C69.4695 -11.1638 69.0841 -11.8 68.7082 -12.4423C68.4951 -12.8062 68.0282 -12.9293 67.6637 -12.7184C67.544 -12.9277 67.4253 -13.1377 67.3076 -13.3484C67.6763 -13.5519 67.8117 -14.0154 67.6098 -14.3856C67.2542 -15.0376 66.9081 -15.6956 66.5718 -16.3594C66.3812 -16.7355 65.9226 -16.8866 65.5459 -16.6981C65.4392 -16.9142 65.3336 -17.1308 65.2289 -17.348C65.6093 -17.5288 65.7725 -17.9832 65.5934 -18.365C65.2778 -19.0376 64.9721 -19.7158 64.6764 -20.3993C64.509 -20.7863 64.0604 -20.9649 63.673 -20.7997C63.5798 -21.0214 63.4877 -21.2436 63.3965 -21.4664C63.7872 -21.6237 63.9777 -22.0674 63.8221 -22.4594C63.5479 -23.1501 63.2838 -23.8459 63.03 -24.5467C62.8865 -24.9432 62.4496 -25.1488 62.0528 -25.0074C61.9734 -25.2342 61.8949 -25.4615 61.8176 -25.6893C62.2171 -25.8226 62.4342 -26.2539 62.3028 -26.6545C62.0713 -27.3599 61.8502 -28.07 61.6396 -28.7846C61.5204 -29.1891 61.0969 -29.4209 60.6923 -29.3039C60.6265 -29.536 60.5618 -29.7686 60.4982 -30.0016C60.9051 -30.1104 61.148 -30.5277 61.0412 -30.9356C60.8534 -31.6529 60.6761 -32.3745 60.5094 -33.1001C60.4151 -33.5111 60.0064 -33.7682 59.5954 -33.676C59.5438 -33.9118 59.4934 -34.1479 59.444 -34.3844C59.8568 -34.4683 60.1247 -34.87 60.0429 -35.2836C59.8989 -36.0112 59.7657 -36.7425 59.6433 -37.4776C59.5741 -37.8935 59.1817 -38.175 58.7659 -38.1079C58.7289 -38.3455 58.6929 -38.5835 58.6581 -38.8218C59.0752 -38.8805 59.3669 -39.2653 59.3103 -39.6831C59.2105 -40.4191 59.1216 -41.1585 59.0437 -41.9012C58.9997 -42.3206 58.6251 -42.6253 58.2059 -42.5834C58.1834 -42.8218 58.162 -43.0606 58.1417 -43.2996C58.5615 -43.3331 58.8759 -43.6996 58.8445 -44.1201C58.7892 -44.8605 58.7448 -45.604 58.7115 -46.3503C58.6927 -46.7716 58.337 -47.0982 57.9161 -47.0815C57.9079 -47.3213 57.9007 -47.5613 57.8947 -47.8017C58.3159 -47.8101 58.6516 -48.1572 58.6453 -48.5788C58.6398 -48.9516 58.637 -49.3251 58.637 -49.6992C58.637 -50.0733 58.6398 -50.4468 58.6453 -50.8196C58.6516 -51.2412 58.3159 -51.5884 57.8947 -51.5967C57.9007 -51.8371 57.9079 -52.0771 57.9161 -52.3169C58.337 -52.3003 58.6927 -52.6268 58.7115 -53.0481C58.7448 -53.7944 58.7892 -54.5379 58.8445 -55.2783C58.8759 -55.6988 58.5615 -56.0653 58.1417 -56.0988C58.162 -56.3378 58.1834 -56.5766 58.2059 -56.815C58.625 -56.7731 58.9997 -57.0778 59.0437 -57.4972C59.1216 -58.2399 59.2105 -58.9793 59.3103 -59.7153C59.3669 -60.1332 59.0752 -60.5179 58.6581 -60.5766C58.6929 -60.8149 58.7289 -61.0529 58.7659 -61.2905C59.1817 -61.2234 59.574 -61.5049 59.6433 -61.9209C59.7657 -62.6559 59.8989 -63.3873 60.0429 -64.1148C60.1247 -64.5285 59.8568 -64.9302 59.444 -65.014C59.4934 -65.2505 59.5438 -65.4867 59.5954 -65.7224C60.0064 -65.6302 60.4151 -65.8873 60.5094 -66.2983C60.6761 -67.024 60.8534 -67.7456 61.0412 -68.4629C61.148 -68.8708 60.9051 -69.288 60.4982 -69.3968C60.5618 -69.6298 60.6265 -69.8624 60.6923 -70.0945C61.0969 -69.9775 61.5204 -70.2093 61.6396 -70.6138C61.8502 -71.3284 62.0713 -72.0385 62.3028 -72.7439C62.4342 -73.1446 62.2171 -73.5759 61.8176 -73.7092C61.8949 -73.937 61.9733 -74.1643 62.0528 -74.3911C62.4496 -74.2497 62.8865 -74.4553 63.03 -74.8517C63.2838 -75.5525 63.5479 -76.2484 63.8221 -76.9391C63.9777 -77.331 63.7872 -77.7747 63.3965 -77.9321C63.4877 -78.1549 63.5798 -78.3771 63.673 -78.5988C64.0604 -78.4335 64.509 -78.6122 64.6764 -78.9992C64.9721 -79.6827 65.2778 -80.3609 65.5934 -81.0335C65.7725 -81.4152 65.6093 -81.8697 65.2289 -82.0505C65.3336 -82.2677 65.4392 -82.4843 65.5459 -82.7003C65.9226 -82.5119 66.3812 -82.663 66.5718 -83.0391C66.9081 -83.7029 67.2542 -84.3609 67.6098 -85.0129C67.8117 -85.3831 67.6763 -85.8466 67.3076 -86.0501C67.4253 -86.2607 67.544 -86.4707 67.6637 -86.6801C68.0282 -86.4692 68.4951 -86.5923 68.7082 -86.9562C69.0841 -87.5985 69.4695 -88.2347 69.8642 -88.8644C70.0881 -89.2218 69.981 -89.6926 69.6252 -89.918C69.7552 -90.1208 69.8861 -90.3228 70.0179 -90.5242C70.3691 -90.2917 70.8426 -90.3864 71.0772 -90.7368C71.4913 -91.3553 71.9145 -91.9673 72.3466 -92.5724C72.5917 -92.9156 72.5131 -93.392 72.1716 -93.6385C72.3135 -93.8331 72.4564 -94.0269 72.6002 -94.22C72.9367 -93.9667 73.415 -94.0327 73.6703 -94.3684C74.1207 -94.9607 74.5799 -95.546 75.0477 -96.1241C75.3129 -96.4519 75.2632 -96.9322 74.9371 -97.1988C75.0905 -97.3845 75.2449 -97.5695 75.4001 -97.7537C75.7208 -97.4807 76.2022 -97.5178 76.4772 -97.8375C76.9623 -98.4015 77.4557 -98.9581 77.9574 -99.5071C78.2418 -99.8184 78.221 -100.301 77.9115 -100.587C78.0758 -100.763 78.241 -100.938 78.407 -101.113C78.7108 -100.821 79.1936 -100.829 79.4873 -101.132C80.0053 -101.666 80.5313 -102.192 81.0651 -102.71C81.3677 -103.003 81.3759 -103.486 81.084 -103.79C81.2587 -103.956 81.4341 -104.121 81.6103 -104.285C81.8959 -103.976 82.3784 -103.955 82.6897 -104.239C83.2387 -104.741 83.7953 -105.234 84.3592 -105.72C84.679 -105.995 84.7161 -106.476 84.443 -106.797C84.6273 -106.952 84.8123 -107.106 84.998 -107.26C85.2646 -106.934 85.7449 -106.884 86.0727 -107.149C86.6508 -107.617 87.2361 -108.076 87.8284 -108.526C88.164 -108.782 88.23 -109.26 87.9767 -109.597C88.1699 -109.74 88.3637 -109.883 88.5583 -110.025C88.8047 -109.684 89.2812 -109.605 89.6243 -109.85C90.2295 -110.282 90.8414 -110.705 91.46 -111.12C91.8104 -111.354 91.9051 -111.828 91.6725 -112.179C91.8739 -112.311 92.076 -112.442 92.2787 -112.572C92.5042 -112.216 92.975 -112.109 93.3323 -112.333C93.9621 -112.727 94.5982 -113.113 95.2406 -113.489C95.6045 -113.702 95.7276 -114.169 95.5166 -114.533C95.726 -114.653 95.936 -114.771 96.1466 -114.889C96.3502 -114.52 96.8136 -114.385 97.1838 -114.587C97.8359 -114.943 98.4939 -115.289 99.1576 -115.625C99.5338 -115.816 99.6849 -116.274 99.4964 -116.651C99.7124 -116.758 99.929 -116.863 100.146 -116.968C100.327 -116.587 100.782 -116.424 101.163 -116.603C101.836 -116.919 102.514 -117.225 103.198 -117.52C103.585 -117.688 103.763 -118.136 103.598 -118.524C103.82 -118.617 104.042 -118.709 104.265 -118.8C104.422 -118.41 104.866 -118.219 105.258 -118.375C105.948 -118.649 106.644 -118.913 107.345 -119.167C107.741 -119.31 107.947 -119.747 107.806 -120.144C108.032 -120.223 108.26 -120.302 108.488 -120.379C108.621 -119.98 109.052 -119.763 109.453 -119.894C110.158 -120.125 110.868 -120.347 111.583 -120.557C111.987 -120.676 112.219 -121.1 112.102 -121.504C112.334 -121.57 112.567 -121.635 112.8 -121.699C112.909 -121.292 113.326 -121.049 113.734 -121.156C114.451 -121.343 115.173 -121.521 115.898 -121.687C116.309 -121.782 116.567 -122.19 116.474 -122.601C116.71 -122.653 116.946 -122.703 117.183 -122.753C117.267 -122.34 117.668 -122.072 118.082 -122.154C118.809 -122.298 119.541 -122.431 120.276 -122.553C120.692 -122.623 120.973 -123.015 120.906 -123.431C121.144 -123.468 121.382 -123.504 121.62 -123.539C121.679 -123.122 122.064 -122.83 122.481 -122.886C123.217 -122.986 123.957 -123.075 124.7 -123.153C125.119 -123.197 125.424 -123.572 125.382 -123.991C125.62 -124.013 125.859 -124.035 126.098 -124.055C126.131 -123.635 126.498 -123.321 126.918 -123.352C127.659 -123.408 128.402 -123.452 129.149 -123.485C129.57 -123.504 129.896 -123.86 129.88 -124.281C130.12 -124.289 130.36 -124.296 130.6 -124.302C130.608 -123.881 130.955 -123.545 131.377 -123.551C131.75 -123.557 132.123 -123.56 132.498 -123.56C132.872 -123.56 133.245 -123.557 133.618 -123.551C134.04 -123.545 134.387 -123.881 134.395 -124.302C134.635 -124.296 134.875 -124.289 135.115 -124.281C135.099 -123.86 135.425 -123.504 135.846 -123.485C136.593 -123.452 137.336 -123.408 138.077 -123.352C138.497 -123.321 138.864 -123.635 138.897 -124.055C139.136 -124.035 139.375 -124.013 139.613 -123.991C139.571 -123.572 139.876 -123.197 140.295 -123.153C141.038 -123.075 141.778 -122.986 142.514 -122.886C142.931 -122.83 143.316 -123.122 143.375 -123.539C143.613 -123.504 143.851 -123.468 144.089 -123.431C144.022 -123.015 144.303 -122.623 144.719 -122.553C145.454 -122.431 146.186 -122.298 146.913 -122.154C147.327 -122.072 147.728 -122.34 147.812 -122.753C148.049 -122.703 148.285 -122.653 148.521 -122.601C148.428 -122.19 148.686 -121.782 149.097 -121.687C149.822 -121.521 150.544 -121.343 151.261 -121.156C151.669 -121.049 152.086 -121.292 152.195 -121.699C152.428 -121.635 152.661 -121.57 152.893 -121.504C152.776 -121.1 153.008 -120.676 153.412 -120.557C154.127 -120.347 154.837 -120.125 155.542 -119.894C155.943 -119.763 156.374 -119.98 156.507 -120.379C156.735 -120.302 156.963 -120.223 157.189 -120.144C157.048 -119.747 157.254 -119.31 157.65 -119.167C158.351 -118.913 159.047 -118.649 159.737 -118.375C160.129 -118.219 160.573 -118.41 160.73 -118.8C160.953 -118.709 161.175 -118.617 161.397 -118.524C161.232 -118.136 161.41 -117.688 161.797 -117.52C162.481 -117.225 163.159 -116.919 163.832 -116.603C164.214 -116.424 164.668 -116.587 164.849 -116.968C165.066 -116.863 165.283 -116.758 165.499 -116.651C165.31 -116.274 165.461 -115.816 165.837 -115.625C166.501 -115.289 167.159 -114.943 167.811 -114.587C168.181 -114.385 168.645 -114.52 168.848 -114.889C169.059 -114.771 169.269 -114.653 169.478 -114.533C169.267 -114.169 169.391 -113.702 169.754 -113.489C170.397 -113.113 171.033 -112.727 171.663 -112.333C172.02 -112.109 172.491 -112.216 172.716 -112.572C172.919 -112.442 173.121 -112.311 173.323 -112.179C173.09 -111.828 173.185 -111.354 173.535 -111.12C174.154 -110.705 174.766 -110.282 175.371 -109.85C175.714 -109.605 176.19 -109.684 176.437 -110.025C176.631 -109.883 176.825 -109.74 177.018 -109.597C176.765 -109.26 176.831 -108.782 177.167 -108.526C177.759 -108.076 178.344 -107.617 178.922 -107.149C179.25 -106.884 179.73 -106.934 179.997 -107.26C180.183 -107.106 180.368 -106.952 180.552 -106.797C180.279 -106.476 180.316 -105.995 180.636 -105.72C181.2 -105.234 181.756 -104.741 182.305 -104.239C182.617 -103.955 183.099 -103.976 183.385 -104.285C183.561 -104.121 183.736 -103.956 183.911 -103.79C183.619 -103.486 183.627 -103.003 183.93 -102.709C184.464 -102.191 184.99 -101.665 185.508 -101.132C185.801 -100.829 186.284 -100.821 186.588 -101.113C186.754 -100.938 186.919 -100.763 187.084 -100.586C186.774 -100.301 186.753 -99.8184 187.038 -99.5071C187.539 -98.9581 188.033 -98.4015 188.518 -97.8375C188.793 -97.5178 189.274 -97.4807 189.595 -97.7537C189.75 -97.5695 189.905 -97.3845 190.058 -97.1987C189.732 -96.9322 189.682 -96.4519 189.947 -96.124C190.415 -95.5459 190.874 -94.9607 191.325 -94.3684C191.58 -94.0327 192.058 -93.9667 192.395 -94.22C192.539 -94.0269 192.682 -93.833 192.823 -93.6385C192.482 -93.392 192.403 -92.9156 192.648 -92.5724C193.081 -91.9672 193.504 -91.3553 193.918 -90.7368C194.152 -90.3863 194.626 -90.2917 194.977 -90.5242C195.109 -90.3228 195.24 -90.1208 195.37 -89.918C195.014 -89.6926 194.907 -89.2217 195.131 -88.8644C195.525 -88.2346 195.911 -87.5985 196.287 -86.9562C196.5 -86.5923 196.967 -86.4692 197.331 -86.6801C197.451 -86.4707 197.57 -86.2607 197.687 -86.0501C197.319 -85.8466 197.183 -85.3831 197.385 -85.0129C197.741 -84.3608 198.087 -83.7029 198.423 -83.0391C198.614 -82.663 199.072 -82.5119 199.449 -82.7003C199.556 -82.4843 199.661 -82.2677 199.766 -82.0505C199.386 -81.8697 199.223 -81.4152 199.402 -81.0335C199.717 -80.3609 200.023 -79.6827 200.319 -78.9992C200.486 -78.6122 200.935 -78.4335 201.322 -78.5988C201.415 -78.3771 201.507 -78.1549 201.598 -77.9321C201.208 -77.7747 201.017 -77.331 201.173 -76.9391C201.447 -76.2484 201.711 -75.5525 201.965 -74.8518C202.109 -74.4553 202.545 -74.2497 202.942 -74.3911C203.022 -74.1643 203.1 -73.937 203.177 -73.7092C202.778 -73.5759 202.561 -73.1446 202.692 -72.7439C202.924 -72.0385 203.145 -71.3284 203.355 -70.6138C203.475 -70.2094 203.898 -69.9776 204.303 -70.0946C204.369 -69.8624 204.433 -69.6299 204.497 -69.3968C204.09 -69.2881 203.847 -68.8708 203.954 -68.4629C204.142 -67.7456 204.319 -67.024 204.486 -66.2984C204.58 -65.8874 204.989 -65.6302 205.4 -65.7224C205.451 -65.4867 205.502 -65.2506 205.551 -65.014C205.138 -64.9302 204.87 -64.5285 204.952 -64.1148C205.096 -63.3873 205.229 -62.6559 205.352 -61.9209C205.421 -61.5049 205.813 -61.2235 206.229 -61.2905C206.266 -61.0529 206.302 -60.815 206.337 -60.5766C205.92 -60.518 205.628 -60.1332 205.685 -59.7153C205.785 -58.9794 205.873 -58.24 205.951 -57.4972C205.995 -57.0779 206.37 -56.7732 206.789 -56.815C206.812 -56.5766 206.833 -56.3379 206.853 -56.0988C206.434 -56.0654 206.119 -55.6988 206.151 -55.2783C206.206 -54.5379 206.25 -53.7945 206.283 -53.0481C206.302 -52.6269 206.658 -52.3003 207.079 -52.317Z" fill="#42D0A1" fill-opacity="0.03" stroke="url(#paint2_linear_4422_1812)" stroke-width="1.53179" stroke-linecap="round" stroke-dasharray="2.28 2.28"/>
<path d="M182.648 -53.0437C182.692 -52.3669 182.723 -51.6865 182.741 -51.0026C182.664 -51.0008 182.603 -50.9371 182.605 -50.8604C182.614 -50.4743 182.618 -50.0871 182.618 -49.6989C182.618 -49.3107 182.614 -48.9235 182.605 -48.5374C182.603 -48.4607 182.664 -48.397 182.741 -48.3952C182.723 -47.7113 182.692 -47.0308 182.648 -46.354C182.571 -46.3592 182.505 -46.3013 182.5 -46.2247C182.447 -45.4513 182.376 -44.6828 182.289 -43.9194C182.28 -43.8432 182.335 -43.7742 182.411 -43.7654C182.331 -43.0865 182.238 -42.4118 182.131 -41.7415C182.055 -41.7536 181.984 -41.7021 181.972 -41.6263C181.848 -40.8617 181.707 -40.1029 181.549 -39.3503C181.533 -39.2752 181.581 -39.2015 181.656 -39.1856C181.514 -38.5175 181.358 -37.8542 181.19 -37.1962C181.116 -37.2153 181.04 -37.1707 181.021 -37.0964C180.827 -36.3469 180.616 -35.6043 180.388 -34.8689C180.365 -34.7955 180.406 -34.7177 180.48 -34.6949C180.276 -34.043 180.059 -33.3968 179.83 -32.7566C179.758 -32.7826 179.678 -32.7452 179.652 -32.673C179.39 -31.9453 179.11 -31.2254 178.815 -30.5138C178.786 -30.4429 178.819 -30.3616 178.89 -30.3321C178.627 -29.7024 178.352 -29.0792 178.064 -28.4627C177.994 -28.4953 177.911 -28.4654 177.879 -28.396C177.55 -27.6963 177.205 -27.0055 176.845 -26.3239C176.809 -26.2561 176.835 -26.172 176.903 -26.136C176.583 -25.5338 176.251 -24.9388 175.907 -24.3514C175.841 -24.3903 175.755 -24.3682 175.716 -24.302C175.324 -23.6362 174.917 -22.9801 174.496 -22.3345C174.454 -22.2702 174.472 -22.1841 174.536 -22.142C174.162 -21.5722 173.776 -21.0104 173.379 -20.4569C173.317 -20.5017 173.23 -20.4876 173.185 -20.4253C172.734 -19.7987 172.268 -19.1829 171.789 -18.5785C171.741 -18.5184 171.751 -18.4309 171.811 -18.3832C171.386 -17.8504 170.95 -17.3264 170.505 -16.8115C170.447 -16.8619 170.359 -16.8558 170.308 -16.7979C169.801 -16.2156 169.281 -15.6452 168.748 -15.0871C168.695 -15.0316 168.697 -14.9436 168.752 -14.8905C168.28 -14.3991 167.799 -13.9173 167.307 -13.4454C167.254 -13.5008 167.166 -13.5028 167.111 -13.4498C166.552 -12.9167 165.982 -12.3964 165.4 -11.8893C165.342 -11.8389 165.336 -11.7511 165.386 -11.6932C164.871 -11.2473 164.347 -10.8117 163.815 -10.3867C163.767 -10.4468 163.679 -10.4568 163.619 -10.4091C163.015 -9.9297 162.399 -9.46394 161.772 -9.01231C161.71 -8.96741 161.696 -8.88058 161.741 -8.81826C161.187 -8.42169 160.626 -8.03609 160.056 -7.66176C160.014 -7.72597 159.928 -7.744 159.863 -7.70203C159.218 -7.28045 158.562 -6.87335 157.896 -6.48121C157.83 -6.44225 157.807 -6.35709 157.846 -6.2909C157.259 -5.94717 156.664 -5.61502 156.062 -5.29476C156.026 -5.36257 155.942 -5.38848 155.874 -5.35263C155.192 -4.99265 154.501 -4.64792 153.802 -4.31889C153.732 -4.28622 153.702 -4.20346 153.735 -4.13397C153.119 -3.84619 152.495 -3.57056 151.866 -3.30737C151.836 -3.37823 151.755 -3.41182 151.684 -3.38241C150.972 -3.08732 150.252 -2.80816 149.525 -2.54536C149.453 -2.51928 149.415 -2.43965 149.441 -2.36743C148.801 -2.13824 148.155 -1.92169 147.503 -1.71805C147.48 -1.79134 147.402 -1.83234 147.329 -1.80965C146.593 -1.58218 145.851 -1.37118 145.101 -1.17708C145.027 -1.15783 144.982 -1.08202 145.002 -1.00771C144.343 -0.839233 143.68 -0.683762 143.012 -0.541557C142.996 -0.616646 142.923 -0.664703 142.847 -0.648933C142.095 -0.490952 141.336 -0.349854 140.571 -0.226051C140.496 -0.213776 140.444 -0.142448 140.456 -0.0666733C139.786 0.0399551 139.111 0.133331 138.432 0.213173C138.424 0.13694 138.355 0.0822678 138.278 0.0910263C137.515 0.178665 136.746 0.249161 135.973 0.302109C135.896 0.30735 135.839 0.373642 135.844 0.450218C135.167 0.49469 134.486 0.525764 133.803 0.543175C133.801 0.466446 133.737 0.405693 133.66 0.40744C133.274 0.416222 132.887 0.420631 132.499 0.420631C132.111 0.420631 131.723 0.416222 131.337 0.40744C131.261 0.405693 131.197 0.466446 131.195 0.543175C130.511 0.525764 129.831 0.49469 129.154 0.450218C129.159 0.373642 129.101 0.30735 129.025 0.302109C128.251 0.249161 127.483 0.178665 126.719 0.0910263C126.643 0.0822678 126.574 0.13694 126.565 0.213173C125.886 0.133331 125.212 0.0399551 124.541 -0.0666733C124.554 -0.142448 124.502 -0.213776 124.426 -0.226051C123.662 -0.349854 122.903 -0.490952 122.15 -0.648933C122.075 -0.664703 122.001 -0.616646 121.986 -0.541557C121.317 -0.683762 120.654 -0.839233 119.996 -1.00771C120.015 -1.08202 119.971 -1.15783 119.896 -1.17708C119.147 -1.37118 118.404 -1.58218 117.669 -1.80965C117.595 -1.83234 117.518 -1.79134 117.495 -1.71805C116.843 -1.92169 116.197 -2.13824 115.557 -2.36743C115.583 -2.43965 115.545 -2.51928 115.473 -2.54536C114.745 -2.80815 114.025 -3.08732 113.314 -3.38241C113.243 -3.41182 113.162 -3.37823 113.132 -3.30737C112.502 -3.57056 111.879 -3.8462 111.263 -4.13397C111.295 -4.20346 111.265 -4.28622 111.196 -4.31889C110.496 -4.64792 109.805 -4.99265 109.124 -5.35263C109.056 -5.38848 108.972 -5.36257 108.936 -5.29476C108.334 -5.61502 107.739 -5.94717 107.151 -6.2909C107.19 -6.35709 107.168 -6.44225 107.102 -6.48121C106.436 -6.87335 105.78 -7.28045 105.134 -7.70203C105.07 -7.744 104.984 -7.72597 104.942 -7.66176C104.372 -8.03609 103.81 -8.4217 103.257 -8.81826C103.302 -8.88058 103.288 -8.96742 103.225 -9.01231C102.599 -9.46394 101.983 -9.9297 101.378 -10.4091C101.318 -10.4568 101.231 -10.4468 101.183 -10.3867C100.65 -10.8117 100.126 -11.2473 99.6115 -11.6932C99.6618 -11.7511 99.6557 -11.8389 99.5978 -11.8893C99.0156 -12.3964 98.4452 -12.9167 97.8871 -13.4498C97.8315 -13.5028 97.7436 -13.5008 97.6905 -13.4454C97.1991 -13.9173 96.7173 -14.3991 96.2454 -14.8905C96.3008 -14.9436 96.3028 -15.0316 96.2497 -15.0871C95.7167 -15.6452 95.1964 -16.2156 94.6893 -16.7979C94.6389 -16.8558 94.5511 -16.8619 94.4932 -16.8115C94.0473 -17.3264 93.6117 -17.8504 93.1867 -18.3832C93.2467 -18.4309 93.2568 -18.5184 93.2091 -18.5785C92.7297 -19.1829 92.2639 -19.7987 91.8123 -20.4253C91.7674 -20.4876 91.6805 -20.5017 91.6182 -20.4569C91.2217 -21.0104 90.8361 -21.5722 90.4617 -22.142C90.5259 -22.1841 90.544 -22.2702 90.502 -22.3345C90.0804 -22.9801 89.6733 -23.6362 89.2812 -24.302C89.2422 -24.3682 89.1571 -24.3903 89.0909 -24.3514C88.7471 -24.9388 88.415 -25.5338 88.0947 -26.136C88.1625 -26.172 88.1885 -26.2561 88.1526 -26.3239C87.7926 -27.0055 87.4479 -27.6963 87.1189 -28.396C87.0862 -28.4654 87.0034 -28.4953 86.934 -28.4627C86.6462 -29.0791 86.3705 -29.7023 86.1074 -30.3321C86.1782 -30.3616 86.2118 -30.4429 86.1824 -30.5138C85.8873 -31.2254 85.6081 -31.9453 85.3453 -32.6729C85.3193 -32.7451 85.2396 -32.7826 85.1674 -32.7566C84.9382 -33.3968 84.7217 -34.043 84.518 -34.6949C84.5913 -34.7177 84.6323 -34.7955 84.6096 -34.8689C84.3822 -35.6043 84.1712 -36.3469 83.9771 -37.0963C83.9578 -37.1707 83.882 -37.2153 83.8077 -37.1962C83.6392 -37.8542 83.4837 -38.5175 83.3415 -39.1856C83.4166 -39.2015 83.4647 -39.2752 83.4489 -39.3503C83.2909 -40.1029 83.1498 -40.8617 83.026 -41.6263C83.0138 -41.7021 82.9424 -41.7536 82.8667 -41.7414C82.76 -42.4118 82.6667 -43.0865 82.5868 -43.7654C82.663 -43.7742 82.7177 -43.8431 82.709 -43.9194C82.6213 -44.6828 82.5508 -45.4513 82.4979 -46.2247C82.4926 -46.3013 82.4263 -46.3592 82.3498 -46.354C82.3053 -47.0308 82.2742 -47.7113 82.2568 -48.3952C82.3335 -48.397 82.3943 -48.4607 82.3925 -48.5374C82.3838 -48.9235 82.3794 -49.3107 82.3794 -49.6989C82.3794 -50.0871 82.3838 -50.4743 82.3925 -50.8604C82.3943 -50.9371 82.3335 -51.0007 82.2568 -51.0026C82.2742 -51.6865 82.3053 -52.3669 82.3498 -53.0437C82.4263 -53.0386 82.4926 -53.0965 82.4979 -53.173C82.5508 -53.9464 82.6213 -54.715 82.709 -55.4783C82.7177 -55.5546 82.663 -55.6235 82.5868 -55.6324C82.6667 -56.3113 82.76 -56.986 82.8667 -57.6563C82.9424 -57.6441 83.0138 -57.6956 83.026 -57.7714C83.1498 -58.536 83.2909 -59.2948 83.4489 -60.0474C83.4647 -60.1226 83.4166 -60.1963 83.3415 -60.2121C83.4837 -60.8803 83.6392 -61.5435 83.8077 -62.2016C83.882 -62.1824 83.9578 -62.2271 83.9771 -62.3014C84.1712 -63.0509 84.3822 -63.7935 84.6096 -64.5289C84.6323 -64.6022 84.5913 -64.6801 84.518 -64.7029C84.7217 -65.3548 84.9382 -66.001 85.1674 -66.6412C85.2396 -66.6152 85.3193 -66.6526 85.3453 -66.7248C85.6081 -67.4525 85.8873 -68.1724 86.1824 -68.884C86.2118 -68.9549 86.1782 -69.0362 86.1073 -69.0657C86.3705 -69.6954 86.6462 -70.3186 86.9339 -70.935C87.0034 -70.9025 87.0862 -70.9323 87.1189 -71.0018C87.4479 -71.7015 87.7926 -72.3923 88.1526 -73.0738C88.1885 -73.1417 88.1625 -73.2258 88.0947 -73.2617C88.415 -73.864 88.7471 -74.459 89.0909 -75.0464C89.1571 -75.0075 89.2422 -75.0296 89.2812 -75.0957C89.6733 -75.7616 90.0804 -76.4176 90.502 -77.0633C90.544 -77.1276 90.5259 -77.2137 90.4617 -77.2558C90.8361 -77.8256 91.2217 -78.3874 91.6182 -78.9408C91.6805 -78.896 91.7674 -78.9102 91.8123 -78.9725C92.2639 -79.5991 92.7297 -80.2148 93.2091 -80.8193C93.2568 -80.8794 93.2467 -80.9668 93.1867 -81.0146C93.6117 -81.5474 94.0473 -82.0714 94.4932 -82.5862C94.5511 -82.5359 94.6389 -82.542 94.6893 -82.5999C95.1964 -83.1821 95.7167 -83.7525 96.2497 -84.3107C96.3028 -84.3662 96.3008 -84.4541 96.2454 -84.5072C96.7173 -84.9986 97.1991 -85.4804 97.6905 -85.9524C97.7436 -85.8969 97.8316 -85.895 97.8871 -85.948C98.4452 -86.4811 99.0156 -87.0014 99.5978 -87.5084C99.6557 -87.5589 99.6618 -87.6466 99.6115 -87.7046C100.126 -88.1505 100.65 -88.5861 101.183 -89.0111C101.231 -88.951 101.318 -88.941 101.378 -88.9887C101.983 -89.4681 102.599 -89.9338 103.225 -90.3855C103.288 -90.4303 103.302 -90.5172 103.257 -90.5795C103.81 -90.9761 104.372 -91.3617 104.942 -91.736C104.984 -91.6718 105.07 -91.6538 105.134 -91.6957C105.78 -92.1173 106.436 -92.5244 107.102 -92.9166C107.168 -92.9555 107.19 -93.0407 107.151 -93.1069C107.739 -93.4506 108.334 -93.7827 108.936 -94.103C108.972 -94.0352 109.056 -94.0093 109.124 -94.0451C109.805 -94.4051 110.496 -94.7498 111.196 -95.0789C111.265 -95.1115 111.295 -95.1943 111.263 -95.2638C111.879 -95.5516 112.502 -95.8272 113.132 -96.0904C113.162 -96.0195 113.243 -95.986 113.314 -96.0154C114.025 -96.3104 114.745 -96.5896 115.473 -96.8524C115.545 -96.8785 115.583 -96.9581 115.557 -97.0303C116.197 -97.2595 116.843 -97.4761 117.495 -97.6797C117.518 -97.6064 117.595 -97.5654 117.669 -97.5881C118.404 -97.8156 119.147 -98.0266 119.896 -98.2207C119.971 -98.2399 120.015 -98.3157 119.996 -98.3901C120.654 -98.5585 121.317 -98.714 121.986 -98.8562C122.001 -98.7811 122.075 -98.7331 122.15 -98.7488C122.903 -98.9068 123.662 -99.0479 124.426 -99.1717C124.502 -99.184 124.554 -99.2553 124.541 -99.3311C125.212 -99.4377 125.886 -99.5311 126.565 -99.6109C126.574 -99.5347 126.643 -99.48 126.719 -99.4888C127.483 -99.5764 128.251 -99.6469 129.025 -99.6999C129.101 -99.7051 129.159 -99.7714 129.154 -99.848C129.831 -99.8925 130.511 -99.9235 131.195 -99.9409C131.197 -99.8642 131.261 -99.8035 131.337 -99.8052C131.723 -99.814 132.111 -99.8184 132.499 -99.8184C132.887 -99.8184 133.274 -99.814 133.66 -99.8052C133.737 -99.8035 133.801 -99.8642 133.803 -99.9409C134.486 -99.9235 135.167 -99.8925 135.844 -99.848C135.839 -99.7714 135.896 -99.7051 135.973 -99.6999C136.746 -99.6469 137.515 -99.5764 138.278 -99.4888C138.355 -99.48 138.423 -99.5347 138.432 -99.6109C139.111 -99.5311 139.786 -99.4377 140.456 -99.3311C140.444 -99.2553 140.496 -99.184 140.571 -99.1717C141.336 -99.0479 142.095 -98.9068 142.847 -98.7488C142.923 -98.7331 142.996 -98.7811 143.012 -98.8562C143.68 -98.714 144.343 -98.5585 145.002 -98.3901C144.982 -98.3157 145.027 -98.2399 145.101 -98.2207C145.851 -98.0266 146.593 -97.8156 147.329 -97.5881C147.402 -97.5654 147.48 -97.6064 147.503 -97.6797C148.155 -97.4761 148.801 -97.2595 149.441 -97.0303C149.415 -96.9581 149.453 -96.8785 149.525 -96.8524C150.252 -96.5896 150.972 -96.3104 151.684 -96.0154C151.755 -95.986 151.836 -96.0195 151.866 -96.0904C152.495 -95.8272 153.119 -95.5516 153.735 -95.2638C153.702 -95.1943 153.732 -95.1115 153.802 -95.0789C154.501 -94.7499 155.192 -94.4051 155.874 -94.0451C155.942 -94.0093 156.026 -94.0352 156.062 -94.103C156.664 -93.7828 157.259 -93.4506 157.846 -93.1069C157.807 -93.0407 157.83 -92.9555 157.896 -92.9166C158.562 -92.5244 159.218 -92.1173 159.863 -91.6957C159.928 -91.6538 160.014 -91.6718 160.056 -91.736C160.626 -91.3617 161.187 -90.9761 161.741 -90.5795C161.696 -90.5172 161.71 -90.4303 161.772 -90.3855C162.399 -89.9338 163.015 -89.4681 163.619 -88.9887C163.679 -88.941 163.767 -88.951 163.815 -89.0111C164.347 -88.5861 164.871 -88.1505 165.386 -87.7046C165.336 -87.6466 165.342 -87.5589 165.4 -87.5084C165.982 -87.0014 166.552 -86.4811 167.111 -85.948C167.166 -85.895 167.254 -85.8969 167.307 -85.9524C167.799 -85.4804 168.28 -84.9986 168.752 -84.5072C168.697 -84.4541 168.695 -84.3662 168.748 -84.3107C169.281 -83.7525 169.801 -83.1821 170.308 -82.5999C170.359 -82.542 170.447 -82.5359 170.505 -82.5862C170.95 -82.0714 171.386 -81.5474 171.811 -81.0146C171.751 -80.9668 171.741 -80.8794 171.789 -80.8193C172.268 -80.2148 172.734 -79.5991 173.185 -78.9725C173.23 -78.9102 173.317 -78.896 173.379 -78.9408C173.776 -78.3874 174.162 -77.8256 174.536 -77.2558C174.472 -77.2137 174.454 -77.1276 174.496 -77.0633C174.917 -76.4176 175.324 -75.7616 175.716 -75.0957C175.755 -75.0296 175.841 -75.0075 175.907 -75.0464C176.251 -74.459 176.583 -73.864 176.903 -73.2617C176.835 -73.2258 176.809 -73.1417 176.845 -73.0738C177.205 -72.3923 177.55 -71.7015 177.879 -71.0018C177.911 -70.9323 177.994 -70.9025 178.064 -70.935C178.352 -70.3186 178.627 -69.6954 178.89 -69.0657C178.819 -69.0362 178.786 -68.9549 178.815 -68.884C179.11 -68.1724 179.39 -67.4525 179.652 -66.7248C179.678 -66.6526 179.758 -66.6152 179.83 -66.6412C180.059 -66.001 180.276 -65.3548 180.48 -64.7029C180.406 -64.6801 180.365 -64.6023 180.388 -64.5289C180.616 -63.7935 180.827 -63.0509 181.021 -62.3014C181.04 -62.2271 181.116 -62.1824 181.19 -62.2016C181.358 -61.5435 181.514 -60.8803 181.656 -60.2121C181.581 -60.1963 181.533 -60.1226 181.549 -60.0474C181.707 -59.2949 181.848 -58.536 181.972 -57.7714C181.984 -57.6957 182.055 -57.6442 182.131 -57.6563C182.238 -56.986 182.331 -56.3113 182.411 -55.6324C182.335 -55.6236 182.28 -55.5546 182.289 -55.4784C182.376 -54.715 182.447 -53.9464 182.5 -53.173C182.505 -53.0965 182.571 -53.0386 182.648 -53.0437Z" fill="#42D0A1" fill-opacity="0.04" stroke="url(#paint3_linear_4422_1812)" stroke-width="0.27824" stroke-linecap="round" stroke-dasharray="2.28 2.28"/>
<defs>
<linearGradient id="paint0_linear_4422_1812" x1="132.5" y1="-182.199" x2="132.5" y2="82.8008" gradientUnits="userSpaceOnUse">
<stop stop-color="#42D0A1" stop-opacity="0.16"/>
<stop offset="1" stop-color="#42D0A1" stop-opacity="0"/>
</linearGradient>
<linearGradient id="paint1_linear_4422_1812" x1="132.501" y1="-151.739" x2="132.501" y2="52.3413" gradientUnits="userSpaceOnUse">
<stop stop-color="#42D0A1" stop-opacity="0.16"/>
<stop offset="1" stop-color="#42D0A1" stop-opacity="0"/>
</linearGradient>
<linearGradient id="paint2_linear_4422_1812" x1="132.498" y1="-124.326" x2="132.498" y2="24.9272" gradientUnits="userSpaceOnUse">
<stop stop-color="#42D0A1" stop-opacity="0.16"/>
<stop offset="1" stop-color="#42D0A1" stop-opacity="0"/>
</linearGradient>
<linearGradient id="paint3_linear_4422_1812" x1="132.499" y1="-99.9575" x2="132.499" y2="0.559753" gradientUnits="userSpaceOnUse">
<stop stop-color="#42D0A1" stop-opacity="0.16"/>
<stop offset="1" stop-color="#42D0A1" stop-opacity="0"/>
</linearGradient>
</defs>
</svg>
