<svg width="289" height="264" viewBox="0 0 289 264" fill="none" xmlns="http://www.w3.org/2000/svg">
<g filter="url(#filter0_dddddd_4422_1796)">
<g clip-path="url(#clip0_4422_1796)">
<rect x="12" y="1.80078" width="265" height="226" rx="16" fill="white"/>
<path d="M51.3327 105.301L43.9993 112.634L40.666 109.301" stroke="#42D0A1" stroke-width="1.5" stroke-linecap="round" stroke-linejoin="round"/>
<path d="M63.036 114.801V105.001L65.92 105.001C68.664 105.001 70.806 106.779 70.806 109.901C70.806 113.023 68.664 114.801 65.92 114.801L63.036 114.801ZM64.226 113.723L65.892 113.723C67.796 113.723 69.56 112.603 69.56 109.901C69.56 107.199 67.796 106.079 65.892 106.079L64.226 106.079V113.723ZM77.4966 112.533L78.6306 112.533C78.3926 113.975 77.1466 114.913 75.3966 114.913C73.3106 114.913 71.9106 113.247 71.9106 111.231C71.9106 109.159 73.1986 107.633 75.2706 107.633C77.3286 107.633 78.5606 109.061 78.5606 110.937C78.5606 111.091 78.5466 111.329 78.5326 111.427L73.0166 111.427C73.1006 112.883 74.0666 113.919 75.3966 113.919C76.5446 113.919 77.2726 113.415 77.4966 112.533ZM75.2706 108.585C74.0806 108.585 73.2826 109.285 73.0726 110.531L77.4126 110.531C77.3286 109.341 76.5306 108.585 75.2706 108.585ZM83.0925 114.913C80.8665 114.913 79.6625 113.163 79.6625 111.273C79.6625 109.383 80.8665 107.633 83.0925 107.633C84.6745 107.633 86.0885 108.557 86.2985 110.125L85.1925 110.125C85.0525 109.271 84.1705 108.641 83.1065 108.641C81.5665 108.641 80.8245 109.831 80.8245 111.273C80.8245 112.715 81.5805 113.905 83.1065 113.905C84.1705 113.905 84.9405 113.373 85.1925 112.519L86.2845 112.519C86.0465 113.961 84.8845 114.913 83.0925 114.913ZM87.7261 114.801V104.847L88.8461 104.847V114.801L87.7261 114.801ZM90.6623 104.847L91.9503 104.847V106.415L90.6623 106.415V104.847ZM90.7463 114.801V107.745L91.8663 107.745V114.801L90.7463 114.801ZM93.7131 114.801V107.745L94.8331 107.745V109.103C95.1971 108.123 96.0791 107.633 97.1571 107.633C98.7531 107.633 99.7891 108.767 99.7891 110.489V114.801L98.6691 114.801V110.671C98.6691 109.467 97.9691 108.655 96.9051 108.655C95.7011 108.655 94.8331 109.621 94.8331 110.993V114.801L93.7131 114.801ZM106.823 112.533L107.957 112.533C107.719 113.975 106.473 114.913 104.723 114.913C102.637 114.913 101.237 113.247 101.237 111.231C101.237 109.159 102.525 107.633 104.597 107.633C106.655 107.633 107.887 109.061 107.887 110.937C107.887 111.091 107.873 111.329 107.859 111.427L102.343 111.427C102.427 112.883 103.393 113.919 104.723 113.919C105.871 113.919 106.599 113.415 106.823 112.533ZM104.597 108.585C103.407 108.585 102.609 109.285 102.399 110.531L106.739 110.531C106.655 109.341 105.857 108.585 104.597 108.585ZM112.843 114.801V105.001L114.033 105.001V114.801L112.843 114.801ZM115.998 114.801V107.745L117.118 107.745V109.103C117.482 108.123 118.364 107.633 119.442 107.633C121.038 107.633 122.074 108.767 122.074 110.489V114.801L120.954 114.801V110.671C120.954 109.467 120.254 108.655 119.19 108.655C117.986 108.655 117.118 109.621 117.118 110.993V114.801L115.998 114.801ZM126.549 107.633C128.383 107.633 129.531 108.683 129.531 110.251V114.801L128.411 114.801V113.583C128.033 114.395 127.095 114.913 126.003 114.913C124.519 114.913 123.553 114.073 123.553 112.785C123.553 111.441 124.659 110.587 126.367 110.587L127.963 110.587C128.271 110.587 128.411 110.433 128.411 110.209C128.411 109.243 127.725 108.585 126.521 108.585C125.485 108.585 124.673 109.229 124.617 109.999L123.553 109.999C123.679 108.641 124.967 107.633 126.549 107.633ZM126.171 113.961C127.585 113.961 128.411 113.079 128.411 111.623V111.441L126.437 111.441C125.387 111.441 124.701 111.945 124.701 112.771C124.701 113.499 125.275 113.961 126.171 113.961ZM134.212 114.913C131.986 114.913 130.782 113.163 130.782 111.273C130.782 109.383 131.986 107.633 134.212 107.633C135.794 107.633 137.208 108.557 137.418 110.125L136.312 110.125C136.172 109.271 135.29 108.641 134.226 108.641C132.686 108.641 131.944 109.831 131.944 111.273C131.944 112.715 132.7 113.905 134.226 113.905C135.29 113.905 136.06 113.373 136.312 112.519L137.404 112.519C137.166 113.961 136.004 114.913 134.212 114.913ZM141.813 114.913C139.587 114.913 138.383 113.163 138.383 111.273C138.383 109.383 139.587 107.633 141.813 107.633C143.395 107.633 144.809 108.557 145.019 110.125L143.913 110.125C143.773 109.271 142.891 108.641 141.827 108.641C140.287 108.641 139.545 109.831 139.545 111.273C139.545 112.715 140.301 113.905 141.827 113.905C142.891 113.905 143.661 113.373 143.913 112.519L145.005 112.519C144.767 113.961 143.605 114.913 141.813 114.913ZM152.467 107.745V114.801L151.347 114.801V113.443C150.983 114.423 150.115 114.913 149.023 114.913C147.427 114.913 146.391 113.779 146.391 112.057V107.745L147.511 107.745V111.875C147.511 113.079 148.211 113.891 149.275 113.891C150.493 113.891 151.347 112.925 151.347 111.553V107.745L152.467 107.745ZM158.254 108.739L157.274 108.739C155.846 108.739 155.44 110.027 155.44 111.693V114.801L154.32 114.801V107.745L155.44 107.745V109.173C155.734 108.207 156.322 107.745 157.358 107.745L158.254 107.745V108.739ZM161.931 107.633C163.765 107.633 164.913 108.683 164.913 110.251V114.801L163.793 114.801V113.583C163.415 114.395 162.477 114.913 161.385 114.913C159.901 114.913 158.935 114.073 158.935 112.785C158.935 111.441 160.041 110.587 161.749 110.587L163.345 110.587C163.653 110.587 163.793 110.433 163.793 110.209C163.793 109.243 163.107 108.585 161.903 108.585C160.867 108.585 160.055 109.229 159.999 109.999L158.935 109.999C159.061 108.641 160.349 107.633 161.931 107.633ZM161.553 113.961C162.967 113.961 163.793 113.079 163.793 111.623V111.441L161.819 111.441C160.769 111.441 160.083 111.945 160.083 112.771C160.083 113.499 160.657 113.961 161.553 113.961ZM167.299 105.491L168.419 105.491V107.745L170.589 107.745V108.739L168.419 108.739V112.561C168.419 113.345 168.867 113.807 169.553 113.807L170.589 113.807V114.801L169.511 114.801C168.167 114.801 167.299 113.961 167.299 112.589V108.739L165.829 108.739V107.745L167.299 107.745V105.491ZM176.795 112.533L177.929 112.533C177.691 113.975 176.445 114.913 174.695 114.913C172.609 114.913 171.209 113.247 171.209 111.231C171.209 109.159 172.497 107.633 174.569 107.633C176.627 107.633 177.859 109.061 177.859 110.937C177.859 111.091 177.845 111.329 177.831 111.427L172.315 111.427C172.399 112.883 173.365 113.919 174.695 113.919C175.843 113.919 176.571 113.415 176.795 112.533ZM174.569 108.585C173.379 108.585 172.581 109.285 172.371 110.531L176.711 110.531C176.627 109.341 175.829 108.585 174.569 108.585ZM188.107 110.153C188.877 110.573 189.339 111.371 189.409 112.365L189.577 114.801L188.429 114.801L188.261 112.435C188.205 111.483 187.589 110.811 186.665 110.811L184.005 110.811V114.801L182.815 114.801V105.001L186.525 105.001C188.457 105.001 189.647 106.163 189.647 107.871C189.647 108.949 189.031 109.719 188.107 110.153ZM184.005 106.065V109.733L186.525 109.733C187.897 109.733 188.415 108.837 188.415 107.871C188.415 106.905 187.897 106.065 186.525 106.065L184.005 106.065ZM196.606 112.533L197.74 112.533C197.502 113.975 196.256 114.913 194.506 114.913C192.42 114.913 191.02 113.247 191.02 111.231C191.02 109.159 192.308 107.633 194.38 107.633C196.438 107.633 197.67 109.061 197.67 110.937C197.67 111.091 197.656 111.329 197.642 111.427L192.126 111.427C192.21 112.883 193.176 113.919 194.506 113.919C195.654 113.919 196.382 113.415 196.606 112.533ZM194.38 108.585C193.19 108.585 192.392 109.285 192.182 110.531L196.522 110.531C196.438 109.341 195.64 108.585 194.38 108.585ZM205.632 117.657L204.512 117.657V113.667C204.092 114.423 203.182 114.913 202.202 114.913C200.004 114.913 198.772 113.331 198.772 111.273C198.772 109.215 199.976 107.633 202.16 107.633C203.168 107.633 204.092 108.137 204.512 108.907V107.745L205.632 107.745V117.657ZM202.272 113.905C203.686 113.905 204.624 112.869 204.624 111.273C204.624 109.677 203.686 108.641 202.272 108.641C200.858 108.641 199.934 109.677 199.934 111.273C199.934 112.869 200.858 113.905 202.272 113.905ZM213.361 107.745V114.801L212.241 114.801V113.443C211.877 114.423 211.009 114.913 209.917 114.913C208.321 114.913 207.285 113.779 207.285 112.057V107.745L208.405 107.745V111.875C208.405 113.079 209.105 113.891 210.169 113.891C211.387 113.891 212.241 112.925 212.241 111.553V107.745L213.361 107.745ZM220.395 112.533L221.529 112.533C221.291 113.975 220.045 114.913 218.295 114.913C216.209 114.913 214.809 113.247 214.809 111.231C214.809 109.159 216.097 107.633 218.169 107.633C220.227 107.633 221.459 109.061 221.459 110.937C221.459 111.091 221.445 111.329 221.431 111.427L215.915 111.427C215.999 112.883 216.965 113.919 218.295 113.919C219.443 113.919 220.171 113.415 220.395 112.533ZM218.169 108.585C216.979 108.585 216.181 109.285 215.971 110.531L220.311 110.531C220.227 109.341 219.429 108.585 218.169 108.585ZM225.349 114.913C223.711 114.913 222.647 114.003 222.535 112.533L223.613 112.533C223.711 113.443 224.327 113.933 225.349 113.933C226.231 113.933 226.819 113.443 226.819 112.869C226.819 110.769 222.717 112.659 222.717 109.607C222.717 108.417 223.725 107.633 225.209 107.633C226.763 107.633 227.813 108.487 227.897 109.789L226.805 109.789C226.707 108.893 225.825 108.585 225.181 108.585C224.355 108.585 223.809 108.977 223.809 109.593C223.809 111.497 227.939 109.607 227.939 112.841C227.939 114.101 226.903 114.913 225.349 114.913ZM230.149 105.491L231.269 105.491V107.745L233.439 107.745V108.739L231.269 108.739V112.561C231.269 113.345 231.717 113.807 232.403 113.807L233.439 113.807V114.801L232.361 114.801C231.017 114.801 230.149 113.961 230.149 112.589V108.739L228.679 108.739V107.745L230.149 107.745V105.491ZM237.175 114.913C235.537 114.913 234.473 114.003 234.361 112.533L235.439 112.533C235.537 113.443 236.153 113.933 237.175 113.933C238.057 113.933 238.645 113.443 238.645 112.869C238.645 110.769 234.543 112.659 234.543 109.607C234.543 108.417 235.551 107.633 237.035 107.633C238.589 107.633 239.639 108.487 239.723 109.789L238.631 109.789C238.533 108.893 237.651 108.585 237.007 108.585C236.181 108.585 235.635 108.977 235.635 109.593C235.635 111.497 239.765 109.607 239.765 112.841C239.765 114.101 238.729 114.913 237.175 114.913Z" fill="#111729"/>
<path d="M51.3327 130.301L43.9993 137.634L40.666 134.301" stroke="#42D0A1" stroke-width="1.5" stroke-linecap="round" stroke-linejoin="round"/>
<path d="M63.036 139.801V130.001L64.59 130.001L67.824 138.191L71.044 130.001L72.598 130.001V139.801L71.436 139.801V131.989L68.342 139.801L67.292 139.801L64.198 131.989V139.801L63.036 139.801ZM77.2888 132.633C79.1228 132.633 80.2708 133.683 80.2708 135.251V139.801L79.1508 139.801V138.583C78.7728 139.395 77.8348 139.913 76.7428 139.913C75.2588 139.913 74.2928 139.073 74.2928 137.785C74.2928 136.441 75.3988 135.587 77.1068 135.587L78.7028 135.587C79.0108 135.587 79.1508 135.433 79.1508 135.209C79.1508 134.243 78.4648 133.585 77.2608 133.585C76.2248 133.585 75.4128 134.229 75.3568 134.999L74.2928 134.999C74.4188 133.641 75.7068 132.633 77.2888 132.633ZM76.9108 138.961C78.3248 138.961 79.1508 138.079 79.1508 136.623V136.441L77.1768 136.441C76.1268 136.441 75.4408 136.945 75.4408 137.771C75.4408 138.499 76.0148 138.961 76.9108 138.961ZM86.7859 139.801L84.0419 136.273L83.1179 137.113V139.801L81.9839 139.801V129.847L83.1179 129.847V135.727L86.4359 132.745L87.9199 132.745L84.8959 135.503L88.1999 139.801L86.7859 139.801ZM94.1353 137.533L95.2693 137.533C95.0312 138.975 93.7853 139.913 92.0353 139.913C89.9493 139.913 88.5493 138.247 88.5493 136.231C88.5493 134.159 89.8373 132.633 91.9093 132.633C93.9673 132.633 95.1993 134.061 95.1993 135.937C95.1993 136.091 95.1853 136.329 95.1713 136.427L89.6553 136.427C89.7393 137.883 90.7053 138.919 92.0353 138.919C93.1833 138.919 93.9113 138.415 94.1353 137.533ZM91.9093 133.585C90.7193 133.585 89.9213 134.285 89.7113 135.531L94.0513 135.531C93.9673 134.341 93.1693 133.585 91.9093 133.585ZM103.333 139.913C101.135 139.913 99.7351 138.597 99.6091 136.595L100.785 136.595C100.911 137.953 101.807 138.835 103.333 138.835C104.691 138.835 105.671 138.317 105.671 137.127C105.671 134.607 99.9451 135.993 99.9451 132.493C99.9451 130.939 101.303 129.889 103.263 129.889C105.223 129.889 106.581 131.023 106.721 132.787L105.545 132.787C105.433 131.681 104.579 130.967 103.263 130.967C101.933 130.967 101.149 131.555 101.149 132.493C101.149 134.999 106.917 133.445 106.917 137.127C106.917 138.905 105.377 139.913 103.333 139.913ZM111.086 132.633C112.92 132.633 114.068 133.683 114.068 135.251V139.801L112.948 139.801V138.583C112.57 139.395 111.632 139.913 110.54 139.913C109.056 139.913 108.09 139.073 108.09 137.785C108.09 136.441 109.196 135.587 110.904 135.587L112.5 135.587C112.808 135.587 112.948 135.433 112.948 135.209C112.948 134.243 112.262 133.585 111.058 133.585C110.022 133.585 109.21 134.229 109.154 134.999L108.09 134.999C108.216 133.641 109.504 132.633 111.086 132.633ZM110.708 138.961C112.122 138.961 112.948 138.079 112.948 136.623V136.441L110.974 136.441C109.924 136.441 109.238 136.945 109.238 137.771C109.238 138.499 109.812 138.961 110.708 138.961ZM117.34 139.801L114.75 132.745L115.912 132.745L117.914 138.401L119.916 132.745L121.092 132.745L118.502 139.801L117.34 139.801ZM127.139 137.533L128.273 137.533C128.035 138.975 126.789 139.913 125.039 139.913C122.953 139.913 121.553 138.247 121.553 136.231C121.553 134.159 122.841 132.633 124.913 132.633C126.971 132.633 128.203 134.061 128.203 135.937C128.203 136.091 128.189 136.329 128.175 136.427L122.659 136.427C122.743 137.883 123.709 138.919 125.039 138.919C126.187 138.919 126.915 138.415 127.139 137.533ZM124.913 133.585C123.723 133.585 122.925 134.285 122.715 135.531L127.055 135.531C126.971 134.341 126.173 133.585 124.913 133.585ZM137.513 139.913C134.755 139.913 132.711 137.785 132.711 134.901C132.711 132.017 134.755 129.889 137.513 129.889C140.271 129.889 142.329 132.017 142.329 134.901C142.329 137.785 140.271 139.913 137.513 139.913ZM137.513 138.835C139.571 138.835 141.097 137.155 141.097 134.901C141.097 132.647 139.571 130.967 137.513 130.967C135.455 130.967 133.943 132.647 133.943 134.901C133.943 137.155 135.455 138.835 137.513 138.835ZM151.016 130.841C150.33 130.841 149.896 131.289 149.896 132.045V132.745L152.08 132.745V133.739L149.896 133.739V139.801L148.776 139.801V133.739L145.71 133.739V139.801L144.59 139.801V133.739L143.12 133.739V132.745L144.59 132.745V132.031C144.59 130.687 145.444 129.847 146.788 129.847L147.908 129.847V130.841L146.844 130.841C146.158 130.841 145.71 131.289 145.71 132.045V132.745L148.776 132.745V132.031C148.776 130.687 149.63 129.847 150.974 129.847L152.08 129.847V130.841L151.016 130.841ZM158.01 137.533L159.144 137.533C158.906 138.975 157.66 139.913 155.91 139.913C153.824 139.913 152.424 138.247 152.424 136.231C152.424 134.159 153.712 132.633 155.784 132.633C157.842 132.633 159.074 134.061 159.074 135.937C159.074 136.091 159.06 136.329 159.046 136.427L153.53 136.427C153.614 137.883 154.58 138.919 155.91 138.919C157.058 138.919 157.786 138.415 158.01 137.533ZM155.784 133.585C154.594 133.585 153.796 134.285 153.586 135.531L157.926 135.531C157.842 134.341 157.044 133.585 155.784 133.585ZM164.516 133.739L163.536 133.739C162.108 133.739 161.702 135.027 161.702 136.693V139.801H160.582V132.745L161.702 132.745V134.173C161.996 133.207 162.584 132.745 163.62 132.745L164.516 132.745V133.739ZM167.968 139.913C166.33 139.913 165.266 139.003 165.154 137.533L166.232 137.533C166.33 138.443 166.946 138.933 167.968 138.933C168.85 138.933 169.438 138.443 169.438 137.869C169.438 135.769 165.336 137.659 165.336 134.607C165.336 133.417 166.344 132.633 167.828 132.633C169.382 132.633 170.432 133.487 170.516 134.789L169.424 134.789C169.326 133.893 168.444 133.585 167.8 133.585C166.974 133.585 166.428 133.977 166.428 134.593C166.428 136.497 170.558 134.607 170.558 137.841C170.558 139.101 169.522 139.913 167.968 139.913Z" fill="#111729"/>
<path d="M51.3327 155.801L43.9993 163.134L40.666 159.801" stroke="#42D0A1" stroke-width="1.5" stroke-linecap="round" stroke-linejoin="round"/>
<path d="M69.742 164.801L68.734 162.155L64.366 162.155L63.344 164.801L62.098 164.801L66.004 155.001L67.082 155.001L70.988 164.801L69.742 164.801ZM64.772 161.091L68.314 161.091L66.55 156.471L64.772 161.091ZM72.0718 167.657V157.745L73.1918 157.745V158.907C73.6258 158.137 74.5358 157.633 75.5438 157.633C77.7278 157.633 78.9318 159.215 78.9318 161.273C78.9318 163.331 77.6998 164.913 75.5158 164.913C74.5218 164.913 73.6118 164.423 73.1918 163.667V167.657L72.0718 167.657ZM75.4318 163.905C76.8458 163.905 77.7698 162.869 77.7698 161.273C77.7698 159.677 76.8458 158.641 75.4318 158.641C74.0178 158.641 73.0938 159.677 73.0938 161.273C73.0938 162.869 74.0178 163.905 75.4318 163.905ZM80.4253 167.657V157.745L81.5453 157.745V158.907C81.9793 158.137 82.8893 157.633 83.8973 157.633C86.0813 157.633 87.2853 159.215 87.2853 161.273C87.2853 163.331 86.0533 164.913 83.8693 164.913C82.8753 164.913 81.9653 164.423 81.5453 163.667V167.657L80.4253 167.657ZM83.7853 163.905C85.1993 163.905 86.1233 162.869 86.1233 161.273C86.1233 159.677 85.1993 158.641 83.7853 158.641C82.3713 158.641 81.4473 159.677 81.4473 161.273C81.4473 162.869 82.3713 163.905 83.7853 163.905ZM88.7788 164.801V154.847L89.8988 154.847V164.801L88.7788 164.801ZM97.399 157.745L95.159 163.835L93.871 167.657L92.793 167.657L93.689 164.913L91.057 157.745L92.219 157.745L94.221 163.345L96.223 157.745L97.399 157.745ZM101.946 164.801V155.001L104.83 155.001C107.574 155.001 109.716 156.779 109.716 159.901C109.716 163.023 107.574 164.801 104.83 164.801L101.946 164.801ZM103.136 163.723L104.802 163.723C106.706 163.723 108.47 162.603 108.47 159.901C108.47 157.199 106.706 156.079 104.802 156.079L103.136 156.079V163.723ZM111.143 154.847L112.431 154.847V156.415L111.143 156.415V154.847ZM111.227 164.801V157.745L112.347 157.745V164.801L111.227 164.801ZM116.644 164.913C115.006 164.913 113.942 164.003 113.83 162.533L114.908 162.533C115.006 163.443 115.622 163.933 116.644 163.933C117.526 163.933 118.114 163.443 118.114 162.869C118.114 160.769 114.012 162.659 114.012 159.607C114.012 158.417 115.02 157.633 116.504 157.633C118.058 157.633 119.108 158.487 119.192 159.789L118.1 159.789C118.002 158.893 117.12 158.585 116.476 158.585C115.65 158.585 115.104 158.977 115.104 159.593C115.104 161.497 119.234 159.607 119.234 162.841C119.234 164.101 118.198 164.913 116.644 164.913ZM123.739 164.913C121.513 164.913 120.309 163.163 120.309 161.273C120.309 159.383 121.513 157.633 123.739 157.633C125.321 157.633 126.735 158.557 126.945 160.125L125.839 160.125C125.699 159.271 124.817 158.641 123.753 158.641C122.213 158.641 121.471 159.831 121.471 161.273C121.471 162.715 122.227 163.905 123.753 163.905C124.817 163.905 125.587 163.373 125.839 162.519L126.931 162.519C126.693 163.961 125.531 164.913 123.739 164.913ZM131.495 164.913C129.409 164.913 127.911 163.387 127.911 161.273C127.911 159.145 129.409 157.633 131.495 157.633C133.595 157.633 135.093 159.145 135.093 161.273C135.093 163.387 133.595 164.913 131.495 164.913ZM131.495 163.905C132.951 163.905 133.945 162.813 133.945 161.273C133.945 159.733 132.951 158.641 131.495 158.641C130.053 158.641 129.059 159.733 129.059 161.273C129.059 162.813 130.053 163.905 131.495 163.905ZM142.609 157.745V164.801L141.489 164.801V163.443C141.125 164.423 140.257 164.913 139.165 164.913C137.569 164.913 136.533 163.779 136.533 162.057V157.745L137.653 157.745V161.875C137.653 163.079 138.353 163.891 139.417 163.891C140.635 163.891 141.489 162.925 141.489 161.553V157.745L142.609 157.745ZM144.463 164.801V157.745L145.583 157.745V159.103C145.947 158.123 146.829 157.633 147.907 157.633C149.503 157.633 150.539 158.767 150.539 160.489V164.801L149.419 164.801V160.671C149.419 159.467 148.719 158.655 147.655 158.655C146.451 158.655 145.583 159.621 145.583 160.993V164.801L144.463 164.801ZM152.903 155.491L154.023 155.491V157.745L156.193 157.745V158.739L154.023 158.739V162.561C154.023 163.345 154.471 163.807 155.157 163.807L156.193 163.807V164.801L155.115 164.801C153.771 164.801 152.903 163.961 152.903 162.589V158.739L151.433 158.739V157.745L152.903 157.745V155.491ZM159.929 164.913C158.291 164.913 157.227 164.003 157.115 162.533L158.193 162.533C158.291 163.443 158.907 163.933 159.929 163.933C160.811 163.933 161.399 163.443 161.399 162.869C161.399 160.769 157.297 162.659 157.297 159.607C157.297 158.417 158.305 157.633 159.789 157.633C161.343 157.633 162.393 158.487 162.477 159.789L161.385 159.789C161.287 158.893 160.405 158.585 159.761 158.585C158.935 158.585 158.389 158.977 158.389 159.593C158.389 161.497 162.519 159.607 162.519 162.841C162.519 164.101 161.483 164.913 159.929 164.913Z" fill="#111729"/>
<path d="M51.3327 181.301L43.9993 188.634L40.666 185.301" stroke="#42D0A1" stroke-width="1.5" stroke-linecap="round" stroke-linejoin="round"/>
<path d="M63.036 190.801V181.001L66.718 181.001C68.664 181.001 69.84 182.177 69.84 183.899C69.84 185.621 68.664 186.797 66.718 186.797L64.226 186.797V190.801L63.036 190.801ZM64.226 185.733L66.718 185.733C68.104 185.733 68.622 184.865 68.622 183.899C68.622 182.933 68.104 182.065 66.718 182.065L64.226 182.065V185.733ZM73.5153 183.633C75.3493 183.633 76.4973 184.683 76.4973 186.251V190.801L75.3773 190.801V189.583C74.9993 190.395 74.0613 190.913 72.9693 190.913C71.4853 190.913 70.5193 190.073 70.5193 188.785C70.5193 187.441 71.6253 186.587 73.3333 186.587L74.9293 186.587C75.2373 186.587 75.3773 186.433 75.3773 186.209C75.3773 185.243 74.6913 184.585 73.4873 184.585C72.4513 184.585 71.6393 185.229 71.5833 185.999L70.5193 185.999C70.6453 184.641 71.9333 183.633 73.5153 183.633ZM73.1373 189.961C74.5513 189.961 75.3773 189.079 75.3773 187.623V187.441L73.4033 187.441C72.3533 187.441 71.6673 187.945 71.6673 188.771C71.6673 189.499 72.2413 189.961 73.1373 189.961ZM84.1895 183.745V190.801L83.0695 190.801V189.443C82.7055 190.423 81.8375 190.913 80.7455 190.913C79.1495 190.913 78.1135 189.779 78.1135 188.057V183.745L79.2335 183.745V187.875C79.2335 189.079 79.9335 189.891 80.9975 189.891C82.2155 189.891 83.0695 188.925 83.0695 187.553V183.745L84.1895 183.745ZM88.4931 190.913C86.8551 190.913 85.7911 190.003 85.6791 188.533H86.7571C86.8551 189.443 87.4711 189.933 88.4931 189.933C89.3751 189.933 89.9631 189.443 89.9631 188.869C89.9631 186.769 85.8611 188.659 85.8611 185.607C85.8611 184.417 86.8691 183.633 88.3531 183.633C89.9071 183.633 90.9571 184.487 91.0411 185.789L89.9491 185.789C89.8511 184.893 88.9691 184.585 88.3251 184.585C87.4991 184.585 86.9531 184.977 86.9531 185.593C86.9531 187.497 91.0831 185.607 91.0831 188.841C91.0831 190.101 90.0471 190.913 88.4931 190.913ZM97.7446 188.533L98.8786 188.533C98.6406 189.975 97.3946 190.913 95.6446 190.913C93.5586 190.913 92.1586 189.247 92.1586 187.231C92.1586 185.159 93.4466 183.633 95.5186 183.633C97.5766 183.633 98.8086 185.061 98.8086 186.937C98.8086 187.091 98.7946 187.329 98.7806 187.427L93.2646 187.427C93.3486 188.883 94.3146 189.919 95.6446 189.919C96.7926 189.919 97.5206 189.415 97.7446 188.533ZM95.5186 184.585C94.3286 184.585 93.5306 185.285 93.3206 186.531L97.6606 186.531C97.5766 185.341 96.7786 184.585 95.5186 184.585ZM106.831 190.913C104.745 190.913 103.247 189.387 103.247 187.273C103.247 185.145 104.745 183.633 106.831 183.633C108.931 183.633 110.429 185.145 110.429 187.273C110.429 189.387 108.931 190.913 106.831 190.913ZM106.831 189.905C108.287 189.905 109.281 188.813 109.281 187.273C109.281 185.733 108.287 184.641 106.831 184.641C105.389 184.641 104.395 185.733 104.395 187.273C104.395 188.813 105.389 189.905 106.831 189.905ZM115.803 184.739L114.823 184.739C113.395 184.739 112.989 186.027 112.989 187.693V190.801L111.869 190.801V183.745L112.989 183.745V185.173C113.283 184.207 113.871 183.745 114.907 183.745L115.803 183.745V184.739ZM124.714 190.913C122.264 190.913 119.996 189.275 119.996 185.901C119.996 182.513 122.278 180.889 124.714 180.889C126.842 180.889 128.592 182.219 128.858 184.053L127.598 184.053C127.43 182.849 126.212 181.967 124.714 181.967C122.67 181.967 121.228 183.353 121.228 185.901C121.228 188.449 122.67 189.835 124.714 189.835C126.24 189.835 127.472 188.953 127.612 187.749L128.844 187.749C128.634 189.583 126.884 190.913 124.714 190.913ZM132.974 183.633C134.808 183.633 135.956 184.683 135.956 186.251V190.801L134.836 190.801V189.583C134.458 190.395 133.52 190.913 132.428 190.913C130.944 190.913 129.978 190.073 129.978 188.785C129.978 187.441 131.084 186.587 132.792 186.587L134.388 186.587C134.696 186.587 134.836 186.433 134.836 186.209C134.836 185.243 134.15 184.585 132.946 184.585C131.91 184.585 131.098 185.229 131.042 185.999L129.978 185.999C130.104 184.641 131.392 183.633 132.974 183.633ZM132.596 189.961C134.01 189.961 134.836 189.079 134.836 187.623V187.441L132.862 187.441C131.812 187.441 131.126 187.945 131.126 188.771C131.126 189.499 131.7 189.961 132.596 189.961ZM137.613 190.801V183.745L138.733 183.745V185.103C139.097 184.123 139.979 183.633 141.057 183.633C142.653 183.633 143.689 184.767 143.689 186.489V190.801L142.569 190.801V186.671C142.569 185.467 141.869 184.655 140.805 184.655C139.601 184.655 138.733 185.621 138.733 186.993V190.801L137.613 190.801ZM148.567 190.913C146.341 190.913 145.137 189.163 145.137 187.273C145.137 185.383 146.341 183.633 148.567 183.633C150.149 183.633 151.563 184.557 151.773 186.125L150.667 186.125C150.527 185.271 149.645 184.641 148.581 184.641C147.041 184.641 146.299 185.831 146.299 187.273C146.299 188.715 147.055 189.905 148.581 189.905C149.645 189.905 150.415 189.373 150.667 188.519L151.759 188.519C151.521 189.961 150.359 190.913 148.567 190.913ZM158.325 188.533H159.459C159.221 189.975 157.975 190.913 156.225 190.913C154.139 190.913 152.739 189.247 152.739 187.231C152.739 185.159 154.027 183.633 156.099 183.633C158.157 183.633 159.389 185.061 159.389 186.937C159.389 187.091 159.375 187.329 159.361 187.427L153.845 187.427C153.929 188.883 154.895 189.919 156.225 189.919C157.373 189.919 158.101 189.415 158.325 188.533ZM156.099 184.585C154.909 184.585 154.111 185.285 153.901 186.531L158.241 186.531C158.157 185.341 157.359 184.585 156.099 184.585ZM160.953 190.801V180.847L162.073 180.847V190.801L160.953 190.801ZM170.599 190.913C168.401 190.913 167.001 189.597 166.875 187.595L168.051 187.595C168.177 188.953 169.073 189.835 170.599 189.835C171.957 189.835 172.937 189.317 172.937 188.127C172.937 185.607 167.211 186.993 167.211 183.493C167.211 181.939 168.569 180.889 170.529 180.889C172.489 180.889 173.847 182.023 173.987 183.787L172.811 183.787C172.699 182.681 171.845 181.967 170.529 181.967C169.199 181.967 168.415 182.555 168.415 183.493C168.415 185.999 174.183 184.445 174.183 188.127C174.183 189.905 172.643 190.913 170.599 190.913ZM181.697 183.745V190.801L180.577 190.801V189.443C180.213 190.423 179.345 190.913 178.253 190.913C176.657 190.913 175.621 189.779 175.621 188.057V183.745L176.741 183.745V187.875C176.741 189.079 177.441 189.891 178.505 189.891C179.723 189.891 180.577 188.925 180.577 187.553V183.745L181.697 183.745ZM187.065 190.913C186.085 190.913 185.161 190.409 184.727 189.639V190.801L183.607 190.801V180.847L184.727 180.847V184.893C185.161 184.137 186.071 183.633 187.065 183.633C189.263 183.633 190.467 185.215 190.467 187.273C190.467 189.331 189.263 190.913 187.065 190.913ZM186.967 189.905C188.395 189.905 189.319 188.869 189.319 187.273C189.319 185.677 188.395 184.641 186.967 184.641C185.553 184.641 184.629 185.677 184.629 187.273C184.629 188.869 185.553 189.905 186.967 189.905ZM194.286 190.913C192.648 190.913 191.584 190.003 191.472 188.533L192.55 188.533C192.648 189.443 193.264 189.933 194.286 189.933C195.168 189.933 195.756 189.443 195.756 188.869C195.756 186.769 191.654 188.659 191.654 185.607C191.654 184.417 192.662 183.633 194.146 183.633C195.7 183.633 196.75 184.487 196.834 185.789H195.742C195.644 184.893 194.762 184.585 194.118 184.585C193.292 184.585 192.746 184.977 192.746 185.593C192.746 187.497 196.876 185.607 196.876 188.841C196.876 190.101 195.84 190.913 194.286 190.913ZM201.382 190.913C199.156 190.913 197.952 189.163 197.952 187.273C197.952 185.383 199.156 183.633 201.382 183.633C202.964 183.633 204.378 184.557 204.588 186.125L203.482 186.125C203.342 185.271 202.46 184.641 201.396 184.641C199.856 184.641 199.114 185.831 199.114 187.273C199.114 188.715 199.87 189.905 201.396 189.905C202.46 189.905 203.23 189.373 203.482 188.519L204.574 188.519C204.336 189.961 203.174 190.913 201.382 190.913ZM209.893 184.739L208.913 184.739C207.485 184.739 207.079 186.027 207.079 187.693V190.801L205.959 190.801V183.745L207.079 183.745V185.173C207.373 184.207 207.961 183.745 208.997 183.745H209.893V184.739ZM211.002 180.847L212.29 180.847V182.415L211.002 182.415V180.847ZM211.086 190.801V183.745L212.206 183.745V190.801L211.086 190.801ZM214.109 193.657V183.745L215.229 183.745V184.907C215.663 184.137 216.573 183.633 217.581 183.633C219.765 183.633 220.969 185.215 220.969 187.273C220.969 189.331 219.737 190.913 217.553 190.913C216.559 190.913 215.649 190.423 215.229 189.667V193.657L214.109 193.657ZM217.469 189.905C218.883 189.905 219.807 188.869 219.807 187.273C219.807 185.677 218.883 184.641 217.469 184.641C216.055 184.641 215.131 185.677 215.131 187.273C215.131 188.869 216.055 189.905 217.469 189.905ZM223.094 181.491L224.214 181.491V183.745L226.384 183.745V184.739L224.214 184.739V188.561C224.214 189.345 224.662 189.807 225.348 189.807L226.384 189.807V190.801L225.306 190.801C223.962 190.801 223.094 189.961 223.094 188.589V184.739L221.624 184.739V183.745L223.094 183.745V181.491ZM227.518 180.847L228.806 180.847V182.415L227.518 182.415V180.847ZM227.602 190.801V183.745L228.722 183.745V190.801L227.602 190.801ZM233.747 190.913C231.661 190.913 230.163 189.387 230.163 187.273C230.163 185.145 231.661 183.633 233.747 183.633C235.847 183.633 237.345 185.145 237.345 187.273C237.345 189.387 235.847 190.913 233.747 190.913ZM233.747 189.905C235.203 189.905 236.197 188.813 236.197 187.273C236.197 185.733 235.203 184.641 233.747 184.641C232.305 184.641 231.311 185.733 231.311 187.273C231.311 188.813 232.305 189.905 233.747 189.905ZM238.785 190.801V183.745L239.905 183.745V185.103C240.269 184.123 241.151 183.633 242.229 183.633C243.825 183.633 244.861 184.767 244.861 186.489V190.801L243.741 190.801V186.671C243.741 185.467 243.041 184.655 241.977 184.655C240.773 184.655 239.905 185.621 239.905 186.993V190.801L238.785 190.801ZM249.165 190.913C247.527 190.913 246.463 190.003 246.351 188.533L247.429 188.533C247.527 189.443 248.143 189.933 249.165 189.933C250.047 189.933 250.635 189.443 250.635 188.869C250.635 186.769 246.533 188.659 246.533 185.607C246.533 184.417 247.541 183.633 249.025 183.633C250.579 183.633 251.629 184.487 251.713 185.789L250.621 185.789C250.523 184.893 249.641 184.585 248.997 184.585C248.171 184.585 247.625 184.977 247.625 185.593C247.625 187.497 251.755 185.607 251.755 188.841C251.755 190.101 250.719 190.913 249.165 190.913Z" fill="#111729"/>
<path d="M276.234 -48.6992C276.234 24.0556 217.255 83.0349 144.5 83.0349C71.7452 83.0349 12.7659 24.0556 12.7659 -48.6992C12.7659 -121.454 71.7452 -180.433 144.5 -180.433C217.255 -180.433 276.234 -121.454 276.234 -48.6992Z" fill="#42D0A1" fill-opacity="0.02" stroke="url(#paint0_linear_4422_1796)" stroke-width="1.53179"/>
<path d="M245.775 -48.699C245.775 7.23329 200.433 52.5754 144.501 52.5754C88.5689 52.5754 43.2268 7.23329 43.2268 -48.699C43.2268 -104.631 88.5689 -149.973 144.501 -149.973C200.433 -149.973 245.775 -104.631 245.775 -48.699Z" fill="#42D0A1" fill-opacity="0.03" stroke="url(#paint1_linear_4422_1796)" stroke-width="1.53179"/>
<path d="M219.079 -51.317C219.087 -51.0772 219.094 -50.8371 219.1 -50.5968C218.679 -50.5884 218.343 -50.2413 218.35 -49.8196C218.355 -49.4468 218.358 -49.0734 218.358 -48.6992C218.358 -48.3251 218.355 -47.9517 218.35 -47.5789C218.343 -47.1572 218.679 -46.8101 219.1 -46.8018C219.094 -46.5614 219.087 -46.3213 219.079 -46.0815C218.658 -46.0982 218.302 -45.7717 218.283 -45.3504C218.25 -44.604 218.206 -43.8606 218.151 -43.1202C218.119 -42.6997 218.434 -42.3331 218.853 -42.2997C218.833 -42.0606 218.812 -41.8219 218.789 -41.5835C218.37 -41.6253 217.995 -41.3207 217.951 -40.9013C217.873 -40.1586 217.785 -39.4191 217.685 -38.6832C217.628 -38.2653 217.92 -37.8805 218.337 -37.8219C218.302 -37.5835 218.266 -37.3456 218.229 -37.108C217.813 -37.175 217.421 -36.8936 217.352 -36.4776C217.229 -35.7426 217.096 -35.0112 216.952 -34.2837C216.87 -33.87 217.138 -33.4683 217.551 -33.3845C217.502 -33.1479 217.451 -32.9118 217.4 -32.6761C216.989 -32.7683 216.58 -32.5111 216.486 -32.1001C216.319 -31.3745 216.142 -30.6529 215.954 -29.9356C215.847 -29.5277 216.09 -29.1104 216.497 -29.0017C216.433 -28.7686 216.369 -28.536 216.303 -28.3039C215.898 -28.4209 215.475 -28.1891 215.355 -27.7847C215.145 -27.0701 214.924 -26.36 214.692 -25.6545C214.561 -25.2539 214.778 -24.8226 215.177 -24.6893C215.1 -24.4615 215.022 -24.2342 214.942 -24.0074C214.545 -24.1488 214.109 -23.9432 213.965 -23.5467C213.711 -22.8459 213.447 -22.1501 213.173 -21.4594C213.017 -21.0674 213.208 -20.6238 213.598 -20.4664C213.507 -20.2436 213.415 -20.0214 213.322 -19.7997C212.935 -19.9649 212.486 -19.7863 212.319 -19.3993C212.023 -18.7158 211.717 -18.0376 211.402 -17.365C211.223 -16.9832 211.386 -16.5288 211.766 -16.348C211.661 -16.1308 211.556 -15.9142 211.449 -15.6981C211.072 -15.8866 210.614 -15.7355 210.423 -15.3594C210.087 -14.6956 209.741 -14.0376 209.385 -13.3856C209.183 -13.0154 209.319 -12.5519 209.687 -12.3484C209.57 -12.1377 209.451 -11.9277 209.331 -11.7184C208.967 -11.9293 208.5 -11.8062 208.287 -11.4423C207.911 -10.8 207.525 -10.1638 207.131 -9.53403C206.907 -9.17671 207.014 -8.70588 207.37 -8.48044C207.24 -8.27769 207.109 -8.07562 206.977 -7.87422C206.626 -8.10678 206.152 -8.0121 205.918 -7.6617C205.504 -7.04315 205.081 -6.4312 204.648 -5.82604C204.403 -5.48287 204.482 -5.00644 204.823 -4.75996C204.682 -4.5654 204.539 -4.37156 204.395 -4.17844C204.058 -4.43173 203.58 -4.36573 203.325 -4.03008C202.874 -3.43778 202.415 -2.85249 201.947 -2.27441C201.682 -1.94659 201.732 -1.46628 202.058 -1.19971C201.905 -1.01395 201.75 -0.828957 201.595 -0.644722C201.274 -0.917786 200.793 -0.880646 200.518 -0.560944C200.033 0.00305176 199.539 0.559639 199.038 1.10863C198.753 1.41994 198.774 1.90235 199.084 2.18803C198.919 2.36424 198.754 2.53966 198.588 2.71427C198.284 2.42245 197.801 2.43061 197.508 2.73324C196.99 3.26704 196.464 3.79305 195.93 4.31106C195.627 4.60473 195.619 5.08754 195.911 5.39127C195.736 5.55728 195.561 5.72247 195.385 5.88681C195.099 5.57729 194.617 5.55647 194.305 5.84093C193.756 6.34256 193.2 6.83603 192.636 7.32112C192.316 7.59608 192.279 8.07751 192.552 8.39822C192.368 8.55345 192.183 8.70779 191.997 8.86125C191.73 8.53514 191.25 8.4854 190.922 8.75064C190.344 9.21837 189.759 9.67757 189.167 10.128C188.831 10.3833 188.765 10.8616 189.018 11.1981C188.825 11.3419 188.631 11.4848 188.437 11.6267C188.19 11.2852 187.714 11.2066 187.371 11.4517C186.766 11.8838 186.154 12.307 185.535 12.7211C185.185 12.9557 185.09 13.4292 185.323 13.7804C185.121 13.9122 184.919 14.0431 184.716 14.1731C184.491 13.8173 184.02 13.7102 183.663 13.9341C183.033 14.3288 182.397 14.7142 181.754 15.0901C181.391 15.3032 181.267 15.7701 181.478 16.1346C181.269 16.2543 181.059 16.373 180.848 16.4907C180.645 16.122 180.181 15.9866 179.811 16.1885C179.159 16.5441 178.501 16.8902 177.837 17.2265C177.461 17.4171 177.31 17.8757 177.499 18.2524C177.283 18.3591 177.066 18.4647 176.849 18.5694C176.668 18.189 176.214 18.0258 175.832 18.2049C175.159 18.5205 174.481 18.8262 173.797 19.1219C173.41 19.2893 173.232 19.7379 173.397 20.1253C173.175 20.2185 172.953 20.3106 172.73 20.4017C172.573 20.0111 172.129 19.8206 171.737 19.9762C171.047 20.2504 170.351 20.5145 169.65 20.7683C169.254 20.9118 169.048 21.3487 169.189 21.7455C168.963 21.825 168.735 21.9034 168.507 21.9807C168.374 21.5812 167.943 21.3641 167.542 21.4955C166.837 21.727 166.127 21.9481 165.412 22.1587C165.008 22.2779 164.776 22.7014 164.893 23.106C164.661 23.1718 164.428 23.2365 164.195 23.3001C164.086 22.8932 163.669 22.6503 163.261 22.7571C162.544 22.9449 161.822 23.1222 161.097 23.2889C160.686 23.3833 160.429 23.7919 160.521 24.2029C160.285 24.2545 160.049 24.3049 159.812 24.3543C159.728 23.9415 159.327 23.6736 158.913 23.7554C158.186 23.8994 157.454 24.0326 156.719 24.155C156.303 24.2243 156.022 24.6166 156.089 25.0324C155.851 25.0694 155.613 25.1054 155.375 25.1402C155.316 24.7231 154.931 24.4314 154.514 24.488C153.778 24.5878 153.038 24.6767 152.296 24.7546C151.876 24.7986 151.571 25.1732 151.613 25.5924C151.375 25.6149 151.136 25.6364 150.897 25.6567C150.864 25.2368 150.497 24.9224 150.077 24.9538C149.336 25.0091 148.593 25.0535 147.846 25.0868C147.425 25.1056 147.099 25.4613 147.115 25.8822C146.875 25.8904 146.635 25.8976 146.395 25.9036C146.387 25.4824 146.04 25.1467 145.618 25.153C145.245 25.1585 144.872 25.1613 144.498 25.1613C144.123 25.1613 143.75 25.1585 143.377 25.153C142.956 25.1467 142.608 25.4824 142.6 25.9036C142.36 25.8976 142.12 25.8904 141.88 25.8822C141.896 25.4613 141.57 25.1056 141.149 25.0868C140.402 25.0535 139.659 25.0091 138.918 24.9538C138.498 24.9224 138.131 25.2368 138.098 25.6567C137.859 25.6364 137.62 25.6149 137.382 25.5924C137.424 25.1733 137.119 24.7986 136.7 24.7546C135.957 24.6767 135.217 24.5878 134.481 24.488C134.064 24.4314 133.679 24.7231 133.62 25.1402C133.382 25.1054 133.144 25.0694 132.906 25.0324C132.973 24.6166 132.692 24.2243 132.276 24.155C131.541 24.0326 130.809 23.8994 130.082 23.7554C129.668 23.6736 129.267 23.9415 129.183 24.3543C128.946 24.3049 128.71 24.2545 128.474 24.2029C128.567 23.7919 128.309 23.3833 127.898 23.2889C127.173 23.1222 126.451 22.9449 125.734 22.7571C125.326 22.6503 124.909 22.8932 124.8 23.3001C124.567 23.2365 124.334 23.1718 124.102 23.106C124.219 22.7014 123.987 22.2779 123.583 22.1587C122.868 21.9481 122.158 21.727 121.453 21.4955C121.052 21.3641 120.621 21.5812 120.488 21.9807C120.26 21.9034 120.032 21.825 119.806 21.7455C119.947 21.3487 119.741 20.9118 119.345 20.7683C118.644 20.5145 117.948 20.2504 117.258 19.9762C116.866 19.8206 116.422 20.0111 116.265 20.4017C116.042 20.3106 115.82 20.2185 115.598 20.1253C115.763 19.7379 115.585 19.2893 115.198 19.1219C114.514 18.8262 113.836 18.5205 113.163 18.2049C112.782 18.0258 112.327 18.189 112.146 18.5694C111.929 18.4647 111.712 18.3591 111.496 18.2524C111.685 17.8757 111.534 17.4171 111.158 17.2265C110.494 16.8902 109.836 16.5441 109.184 16.1885C108.814 15.9866 108.35 16.122 108.147 16.4907C107.936 16.373 107.726 16.2543 107.517 16.1346C107.728 15.7701 107.604 15.3032 107.241 15.0901C106.598 14.7142 105.962 14.3288 105.332 13.9341C104.975 13.7102 104.504 13.8173 104.279 14.1731C104.076 14.0431 103.874 13.9122 103.673 13.7803C103.905 13.4292 103.81 12.9557 103.46 12.7211C102.841 12.307 102.229 11.8838 101.624 11.4517C101.281 11.2066 100.805 11.2852 100.558 11.6267C100.364 11.4848 100.17 11.3419 99.9767 11.1981C100.23 10.8616 100.164 10.3833 99.8284 10.128C99.2361 9.67755 98.6508 9.21835 98.0727 8.75061C97.7449 8.48537 97.2646 8.53513 96.998 8.86124C96.8122 8.70778 96.6272 8.55342 96.443 8.39821C96.7161 8.0775 96.6789 7.59607 96.3592 7.32109C95.7952 6.836 95.2386 6.34254 94.6896 5.8409C94.3783 5.55646 93.8959 5.57726 93.6102 5.88678C93.434 5.72244 93.2586 5.55727 93.084 5.39124C93.3758 5.08751 93.3677 4.6047 93.065 4.31103C92.5312 3.79302 92.0052 3.26701 91.4872 2.73322C91.1936 2.4306 90.7108 2.42242 90.407 2.71424C90.241 2.53963 90.0758 2.36422 89.9115 2.18801C90.221 1.90234 90.2418 1.41991 89.9574 1.1086C89.4557 0.559616 88.9623 0.00302887 88.4772 -0.560974C88.2022 -0.880676 87.7207 -0.917801 87.4 -0.644753C87.2448 -0.828987 87.0905 -1.01398 86.937 -1.19974C87.2631 -1.4663 87.3129 -1.94661 87.0477 -2.27444C86.5799 -2.85252 86.1207 -3.43781 85.6703 -4.03011C85.415 -4.36575 84.9367 -4.43176 84.6001 -4.17847C84.4564 -4.37159 84.3135 -4.56542 84.1716 -4.75997C84.5131 -5.00645 84.5917 -5.48289 84.3466 -5.82607C83.9145 -6.43122 83.4913 -7.04317 83.0772 -7.66171C82.8426 -8.01212 82.3691 -8.1068 82.0179 -7.87424C81.8861 -8.07564 81.7552 -8.27771 81.6252 -8.48045C81.981 -8.70589 82.0881 -9.17673 81.8642 -9.53405C81.4695 -10.1638 81.0841 -10.8 80.7082 -11.4423C80.4951 -11.8062 80.0282 -11.9293 79.6637 -11.7184C79.544 -11.9277 79.4253 -12.1377 79.3076 -12.3484C79.6763 -12.5519 79.8117 -13.0154 79.6098 -13.3856C79.2542 -14.0376 78.9081 -14.6956 78.5718 -15.3594C78.3812 -15.7355 77.9226 -15.8866 77.5459 -15.6981C77.4392 -15.9142 77.3336 -16.1308 77.2289 -16.348C77.6093 -16.5288 77.7725 -16.9832 77.5934 -17.365C77.2778 -18.0376 76.9721 -18.7158 76.6764 -19.3993C76.509 -19.7863 76.0604 -19.9649 75.673 -19.7997C75.5798 -20.0214 75.4877 -20.2436 75.3965 -20.4664C75.7872 -20.6237 75.9777 -21.0674 75.8221 -21.4594C75.5479 -22.1501 75.2838 -22.8459 75.03 -23.5467C74.8865 -23.9432 74.4496 -24.1488 74.0528 -24.0074C73.9734 -24.2342 73.8949 -24.4615 73.8176 -24.6893C74.2171 -24.8226 74.4342 -25.2539 74.3028 -25.6545C74.0713 -26.3599 73.8502 -27.07 73.6396 -27.7846C73.5204 -28.1891 73.0969 -28.4209 72.6923 -28.3039C72.6265 -28.536 72.5618 -28.7686 72.4982 -29.0016C72.9051 -29.1104 73.148 -29.5277 73.0412 -29.9356C72.8534 -30.6529 72.6761 -31.3745 72.5094 -32.1001C72.4151 -32.5111 72.0064 -32.7682 71.5954 -32.676C71.5438 -32.9118 71.4934 -33.1479 71.444 -33.3844C71.8568 -33.4683 72.1247 -33.87 72.0429 -34.2836C71.8989 -35.0112 71.7657 -35.7425 71.6433 -36.4776C71.5741 -36.8935 71.1817 -37.175 70.7659 -37.1079C70.7289 -37.3455 70.6929 -37.5835 70.6581 -37.8218C71.0752 -37.8805 71.3669 -38.2653 71.3103 -38.6831C71.2105 -39.4191 71.1216 -40.1585 71.0437 -40.9012C70.9997 -41.3206 70.6251 -41.6253 70.2059 -41.5834C70.1834 -41.8218 70.162 -42.0606 70.1417 -42.2996C70.5615 -42.3331 70.8759 -42.6996 70.8445 -43.1201C70.7892 -43.8605 70.7448 -44.604 70.7115 -45.3503C70.6927 -45.7716 70.337 -46.0982 69.9161 -46.0815C69.9079 -46.3213 69.9007 -46.5613 69.8947 -46.8017C70.3159 -46.8101 70.6516 -47.1572 70.6453 -47.5788C70.6398 -47.9516 70.637 -48.3251 70.637 -48.6992C70.637 -49.0733 70.6398 -49.4468 70.6453 -49.8196C70.6516 -50.2412 70.3159 -50.5884 69.8947 -50.5967C69.9007 -50.8371 69.9079 -51.0771 69.9161 -51.3169C70.337 -51.3003 70.6927 -51.6268 70.7115 -52.0481C70.7448 -52.7944 70.7892 -53.5379 70.8445 -54.2783C70.8759 -54.6988 70.5615 -55.0653 70.1417 -55.0988C70.162 -55.3378 70.1834 -55.5766 70.2059 -55.815C70.625 -55.7731 70.9997 -56.0778 71.0437 -56.4972C71.1216 -57.2399 71.2105 -57.9793 71.3103 -58.7153C71.3669 -59.1332 71.0752 -59.5179 70.6581 -59.5766C70.6929 -59.8149 70.7289 -60.0529 70.7659 -60.2905C71.1817 -60.2234 71.574 -60.5049 71.6433 -60.9209C71.7657 -61.6559 71.8989 -62.3873 72.0429 -63.1148C72.1247 -63.5285 71.8568 -63.9302 71.444 -64.014C71.4934 -64.2505 71.5438 -64.4867 71.5954 -64.7224C72.0064 -64.6302 72.4151 -64.8873 72.5094 -65.2983C72.6761 -66.024 72.8534 -66.7456 73.0412 -67.4629C73.148 -67.8708 72.9051 -68.288 72.4982 -68.3968C72.5618 -68.6298 72.6265 -68.8624 72.6923 -69.0945C73.0969 -68.9775 73.5204 -69.2093 73.6396 -69.6138C73.8502 -70.3284 74.0713 -71.0385 74.3028 -71.7439C74.4342 -72.1446 74.2171 -72.5759 73.8176 -72.7092C73.8949 -72.937 73.9733 -73.1643 74.0528 -73.3911C74.4496 -73.2497 74.8865 -73.4553 75.03 -73.8517C75.2838 -74.5525 75.5479 -75.2484 75.8221 -75.9391C75.9777 -76.331 75.7872 -76.7747 75.3965 -76.9321C75.4877 -77.1549 75.5798 -77.3771 75.673 -77.5988C76.0604 -77.4335 76.509 -77.6122 76.6764 -77.9992C76.9721 -78.6827 77.2778 -79.3609 77.5934 -80.0335C77.7725 -80.4152 77.6093 -80.8697 77.2289 -81.0505C77.3336 -81.2677 77.4392 -81.4843 77.5459 -81.7003C77.9226 -81.5119 78.3812 -81.663 78.5718 -82.0391C78.9081 -82.7029 79.2542 -83.3609 79.6098 -84.0129C79.8117 -84.3831 79.6763 -84.8466 79.3076 -85.0501C79.4253 -85.2607 79.544 -85.4707 79.6637 -85.6801C80.0282 -85.4692 80.4951 -85.5923 80.7082 -85.9562C81.0841 -86.5985 81.4695 -87.2347 81.8642 -87.8644C82.0881 -88.2218 81.981 -88.6926 81.6252 -88.918C81.7552 -89.1208 81.8861 -89.3228 82.0179 -89.5242C82.3691 -89.2917 82.8426 -89.3864 83.0772 -89.7368C83.4913 -90.3553 83.9145 -90.9673 84.3466 -91.5724C84.5917 -91.9156 84.5131 -92.392 84.1716 -92.6385C84.3135 -92.8331 84.4564 -93.0269 84.6002 -93.22C84.9367 -92.9667 85.415 -93.0327 85.6703 -93.3684C86.1207 -93.9607 86.5799 -94.546 87.0477 -95.1241C87.3129 -95.4519 87.2632 -95.9322 86.9371 -96.1988C87.0905 -96.3845 87.2449 -96.5695 87.4001 -96.7537C87.7208 -96.4807 88.2022 -96.5178 88.4772 -96.8375C88.9623 -97.4015 89.4557 -97.9581 89.9574 -98.5071C90.2418 -98.8184 90.221 -99.3008 89.9115 -99.5865C90.0758 -99.7627 90.241 -99.9381 90.407 -100.113C90.7108 -99.8209 91.1936 -99.8291 91.4873 -100.132C92.0053 -100.666 92.5313 -101.192 93.0651 -101.71C93.3677 -102.003 93.3759 -102.486 93.084 -102.79C93.2587 -102.956 93.4341 -103.121 93.6103 -103.285C93.8959 -102.976 94.3784 -102.955 94.6897 -103.239C95.2387 -103.741 95.7953 -104.234 96.3592 -104.72C96.679 -104.995 96.7161 -105.476 96.443 -105.797C96.6273 -105.952 96.8123 -106.106 96.998 -106.26C97.2646 -105.934 97.7449 -105.884 98.0727 -106.149C98.6508 -106.617 99.2361 -107.076 99.8284 -107.526C100.164 -107.782 100.23 -108.26 99.9767 -108.597C100.17 -108.74 100.364 -108.883 100.558 -109.025C100.805 -108.684 101.281 -108.605 101.624 -108.85C102.229 -109.282 102.841 -109.705 103.46 -110.12C103.81 -110.354 103.905 -110.828 103.673 -111.179C103.874 -111.311 104.076 -111.442 104.279 -111.572C104.504 -111.216 104.975 -111.109 105.332 -111.333C105.962 -111.727 106.598 -112.113 107.241 -112.489C107.604 -112.702 107.728 -113.169 107.517 -113.533C107.726 -113.653 107.936 -113.771 108.147 -113.889C108.35 -113.52 108.814 -113.385 109.184 -113.587C109.836 -113.943 110.494 -114.289 111.158 -114.625C111.534 -114.816 111.685 -115.274 111.496 -115.651C111.712 -115.758 111.929 -115.863 112.146 -115.968C112.327 -115.587 112.782 -115.424 113.163 -115.603C113.836 -115.919 114.514 -116.225 115.198 -116.52C115.585 -116.688 115.763 -117.136 115.598 -117.524C115.82 -117.617 116.042 -117.709 116.265 -117.8C116.422 -117.41 116.866 -117.219 117.258 -117.375C117.948 -117.649 118.644 -117.913 119.345 -118.167C119.741 -118.31 119.947 -118.747 119.806 -119.144C120.032 -119.223 120.26 -119.302 120.488 -119.379C120.621 -118.98 121.052 -118.763 121.453 -118.894C122.158 -119.125 122.868 -119.347 123.583 -119.557C123.987 -119.676 124.219 -120.1 124.102 -120.504C124.334 -120.57 124.567 -120.635 124.8 -120.699C124.909 -120.292 125.326 -120.049 125.734 -120.156C126.451 -120.343 127.173 -120.521 127.898 -120.687C128.309 -120.782 128.567 -121.19 128.474 -121.601C128.71 -121.653 128.946 -121.703 129.183 -121.753C129.267 -121.34 129.668 -121.072 130.082 -121.154C130.809 -121.298 131.541 -121.431 132.276 -121.553C132.692 -121.623 132.973 -122.015 132.906 -122.431C133.144 -122.468 133.382 -122.504 133.62 -122.539C133.679 -122.122 134.064 -121.83 134.481 -121.886C135.217 -121.986 135.957 -122.075 136.7 -122.153C137.119 -122.197 137.424 -122.572 137.382 -122.991C137.62 -123.013 137.859 -123.035 138.098 -123.055C138.131 -122.635 138.498 -122.321 138.918 -122.352C139.659 -122.408 140.402 -122.452 141.149 -122.485C141.57 -122.504 141.896 -122.86 141.88 -123.281C142.12 -123.289 142.36 -123.296 142.6 -123.302C142.608 -122.881 142.955 -122.545 143.377 -122.551C143.75 -122.557 144.123 -122.56 144.498 -122.56C144.872 -122.56 145.245 -122.557 145.618 -122.551C146.04 -122.545 146.387 -122.881 146.395 -123.302C146.635 -123.296 146.875 -123.289 147.115 -123.281C147.099 -122.86 147.425 -122.504 147.846 -122.485C148.593 -122.452 149.336 -122.408 150.077 -122.352C150.497 -122.321 150.864 -122.635 150.897 -123.055C151.136 -123.035 151.375 -123.013 151.613 -122.991C151.571 -122.572 151.876 -122.197 152.295 -122.153C153.038 -122.075 153.778 -121.986 154.514 -121.886C154.931 -121.83 155.316 -122.122 155.375 -122.539C155.613 -122.504 155.851 -122.468 156.089 -122.431C156.022 -122.015 156.303 -121.623 156.719 -121.553C157.454 -121.431 158.186 -121.298 158.913 -121.154C159.327 -121.072 159.728 -121.34 159.812 -121.753C160.049 -121.703 160.285 -121.653 160.521 -121.601C160.428 -121.19 160.686 -120.782 161.097 -120.687C161.822 -120.521 162.544 -120.343 163.261 -120.156C163.669 -120.049 164.086 -120.292 164.195 -120.699C164.428 -120.635 164.661 -120.57 164.893 -120.504C164.776 -120.1 165.008 -119.676 165.412 -119.557C166.127 -119.347 166.837 -119.125 167.542 -118.894C167.943 -118.763 168.374 -118.98 168.507 -119.379C168.735 -119.302 168.963 -119.223 169.189 -119.144C169.048 -118.747 169.254 -118.31 169.65 -118.167C170.351 -117.913 171.047 -117.649 171.737 -117.375C172.129 -117.219 172.573 -117.41 172.73 -117.8C172.953 -117.709 173.175 -117.617 173.397 -117.524C173.232 -117.136 173.41 -116.688 173.797 -116.52C174.481 -116.225 175.159 -115.919 175.832 -115.603C176.214 -115.424 176.668 -115.587 176.849 -115.968C177.066 -115.863 177.283 -115.758 177.499 -115.651C177.31 -115.274 177.461 -114.816 177.837 -114.625C178.501 -114.289 179.159 -113.943 179.811 -113.587C180.181 -113.385 180.645 -113.52 180.848 -113.889C181.059 -113.771 181.269 -113.653 181.478 -113.533C181.267 -113.169 181.391 -112.702 181.754 -112.489C182.397 -112.113 183.033 -111.727 183.663 -111.333C184.02 -111.109 184.491 -111.216 184.716 -111.572C184.919 -111.442 185.121 -111.311 185.323 -111.179C185.09 -110.828 185.185 -110.354 185.535 -110.12C186.154 -109.705 186.766 -109.282 187.371 -108.85C187.714 -108.605 188.19 -108.684 188.437 -109.025C188.631 -108.883 188.825 -108.74 189.018 -108.597C188.765 -108.26 188.831 -107.782 189.167 -107.526C189.759 -107.076 190.344 -106.617 190.922 -106.149C191.25 -105.884 191.73 -105.934 191.997 -106.26C192.183 -106.106 192.368 -105.952 192.552 -105.797C192.279 -105.476 192.316 -104.995 192.636 -104.72C193.2 -104.234 193.756 -103.741 194.305 -103.239C194.617 -102.955 195.099 -102.976 195.385 -103.285C195.561 -103.121 195.736 -102.956 195.911 -102.79C195.619 -102.486 195.627 -102.003 195.93 -101.709C196.464 -101.191 196.99 -100.665 197.508 -100.132C197.801 -99.8291 198.284 -99.8209 198.588 -100.113C198.754 -99.9381 198.919 -99.7627 199.084 -99.5865C198.774 -99.3008 198.753 -98.8184 199.038 -98.5071C199.539 -97.9581 200.033 -97.4015 200.518 -96.8375C200.793 -96.5178 201.274 -96.4807 201.595 -96.7537C201.75 -96.5695 201.905 -96.3845 202.058 -96.1987C201.732 -95.9322 201.682 -95.4519 201.947 -95.124C202.415 -94.5459 202.874 -93.9607 203.325 -93.3684C203.58 -93.0327 204.058 -92.9667 204.395 -93.22C204.539 -93.0269 204.682 -92.833 204.823 -92.6385C204.482 -92.392 204.403 -91.9156 204.648 -91.5724C205.081 -90.9672 205.504 -90.3553 205.918 -89.7368C206.152 -89.3863 206.626 -89.2917 206.977 -89.5242C207.109 -89.3228 207.24 -89.1208 207.37 -88.918C207.014 -88.6926 206.907 -88.2217 207.131 -87.8644C207.525 -87.2346 207.911 -86.5985 208.287 -85.9562C208.5 -85.5923 208.967 -85.4692 209.331 -85.6801C209.451 -85.4707 209.57 -85.2607 209.687 -85.0501C209.319 -84.8466 209.183 -84.3831 209.385 -84.0129C209.741 -83.3608 210.087 -82.7029 210.423 -82.0391C210.614 -81.663 211.072 -81.5119 211.449 -81.7003C211.556 -81.4843 211.661 -81.2677 211.766 -81.0505C211.386 -80.8697 211.223 -80.4152 211.402 -80.0335C211.717 -79.3609 212.023 -78.6827 212.319 -77.9992C212.486 -77.6122 212.935 -77.4335 213.322 -77.5988C213.415 -77.3771 213.507 -77.1549 213.598 -76.9321C213.208 -76.7747 213.017 -76.331 213.173 -75.9391C213.447 -75.2484 213.711 -74.5525 213.965 -73.8518C214.109 -73.4553 214.545 -73.2497 214.942 -73.3911C215.022 -73.1643 215.1 -72.937 215.177 -72.7092C214.778 -72.5759 214.561 -72.1446 214.692 -71.7439C214.924 -71.0385 215.145 -70.3284 215.355 -69.6138C215.475 -69.2094 215.898 -68.9776 216.303 -69.0946C216.369 -68.8624 216.433 -68.6299 216.497 -68.3968C216.09 -68.2881 215.847 -67.8708 215.954 -67.4629C216.142 -66.7456 216.319 -66.024 216.486 -65.2984C216.58 -64.8874 216.989 -64.6302 217.4 -64.7224C217.451 -64.4867 217.502 -64.2506 217.551 -64.014C217.138 -63.9302 216.87 -63.5285 216.952 -63.1148C217.096 -62.3873 217.229 -61.6559 217.352 -60.9209C217.421 -60.5049 217.813 -60.2235 218.229 -60.2905C218.266 -60.0529 218.302 -59.815 218.337 -59.5766C217.92 -59.518 217.628 -59.1332 217.685 -58.7153C217.785 -57.9794 217.873 -57.24 217.951 -56.4972C217.995 -56.0779 218.37 -55.7732 218.789 -55.815C218.812 -55.5766 218.833 -55.3379 218.853 -55.0988C218.434 -55.0654 218.119 -54.6988 218.151 -54.2783C218.206 -53.5379 218.25 -52.7945 218.283 -52.0481C218.302 -51.6269 218.658 -51.3003 219.079 -51.317Z" fill="#42D0A1" fill-opacity="0.03" stroke="url(#paint2_linear_4422_1796)" stroke-width="1.53179" stroke-linecap="round" stroke-dasharray="2.28 2.28"/>
<g filter="url(#filter1_dddd_4422_1796)">
<rect x="94.3984" y="34" width="100.203" height="33.6016" rx="8" fill="white"/>
<rect x="94.9985" y="34.6001" width="99.003" height="32.4014" rx="7.3999" stroke="url(#paint3_linear_4422_1796)" stroke-width="1.2002"/>
<path d="M111.083 55.8008L110.212 53.4875L106.352 53.4875L105.482 55.8008L104.091 55.8008L107.665 46.7036L108.912 46.7036L112.486 55.8008L111.083 55.8008ZM106.807 52.3049L109.77 52.3049L108.289 48.3931L106.807 52.3049ZM119.055 49.2508V55.8008L117.794 55.8008V54.6441C117.443 55.4629 116.663 55.9047 115.689 55.9047C114.207 55.9047 113.245 54.8391 113.245 53.2796V49.2508L114.506 49.2508V53.0326C114.506 54.0723 115.117 54.7741 116.04 54.7741C117.066 54.7741 117.794 53.9424 117.794 52.7987V49.2508L119.055 49.2508ZM121.424 47.1975L122.684 47.1975V49.2508L124.621 49.2508V50.3425L122.684 50.3425V53.6175C122.684 54.3192 123.061 54.7091 123.698 54.7091L124.621 54.7091V55.8008L123.594 55.8008C122.268 55.8008 121.424 54.995 121.424 53.6565V50.3425L120.085 50.3425V49.2508L121.424 49.2508V47.1975ZM128.545 55.9047C126.583 55.9047 125.167 54.4882 125.167 52.5258C125.167 50.5634 126.583 49.1469 128.545 49.1469C130.508 49.1469 131.911 50.5634 131.911 52.5258C131.911 54.4882 130.508 55.9047 128.545 55.9047ZM128.545 54.8001C129.78 54.8001 130.625 53.8644 130.625 52.5258C130.625 51.1872 129.78 50.2515 128.545 50.2515C127.298 50.2515 126.453 51.1872 126.453 52.5258C126.453 53.8644 127.298 54.8001 128.545 54.8001ZM133.146 55.8008V49.2508L134.406 49.2508V50.4205C134.679 49.6797 135.381 49.1469 136.343 49.1469C137.408 49.1469 138.201 49.6277 138.461 50.4854C138.721 49.7447 139.578 49.1469 140.592 49.1469C142.009 49.1469 142.892 50.1216 142.892 51.6421V55.8008L141.632 55.8008V51.993C141.632 50.9533 141.112 50.2515 140.241 50.2515C139.241 50.2515 138.643 50.9533 138.643 51.993V55.8008L137.382 55.8008V51.993C137.382 50.9533 136.862 50.2515 136.005 50.2515C135.004 50.2515 134.406 50.9533 134.406 51.993V55.8008L133.146 55.8008ZM146.989 49.1469C148.678 49.1469 149.796 50.1216 149.796 51.5771V55.8008L148.535 55.8008V54.7351C148.223 55.4369 147.391 55.9047 146.404 55.9047C145.065 55.9047 144.181 55.099 144.181 53.9294C144.181 52.6688 145.182 51.889 146.729 51.889L148.093 51.889C148.392 51.889 148.535 51.7331 148.535 51.4991C148.535 50.7064 147.963 50.1605 146.95 50.1605C146.04 50.1605 145.377 50.7324 145.338 51.3952L144.168 51.3952C144.272 50.1086 145.442 49.1469 146.989 49.1469ZM146.651 54.9041C147.846 54.9041 148.535 54.1373 148.535 52.9287V52.7727L146.846 52.7727C145.988 52.7727 145.429 53.2146 145.429 53.9034C145.429 54.5012 145.923 54.9041 146.651 54.9041ZM151.946 47.1975L153.207 47.1975V49.2508L155.143 49.2508V50.3425L153.207 50.3425V53.6175C153.207 54.3192 153.584 54.7091 154.221 54.7091L155.143 54.7091V55.8008L154.117 55.8008C152.791 55.8008 151.946 54.995 151.946 53.6565V50.3425L150.608 50.3425V49.2508L151.946 49.2508V47.1975ZM156.14 46.5087L157.544 46.5087V48.0942L156.14 48.0942V46.5087ZM156.218 55.8008V49.2508L157.479 49.2508V55.8008L156.218 55.8008ZM161.946 55.9047C159.88 55.9047 158.697 54.3322 158.697 52.5258C158.697 50.7194 159.88 49.1469 161.946 49.1469C163.48 49.1469 164.805 50.0566 164.987 51.5381L163.726 51.5381C163.609 50.7973 162.856 50.2515 161.972 50.2515C160.659 50.2515 160.01 51.2652 160.01 52.5258C160.01 53.7864 160.672 54.8001 161.972 54.8001C162.869 54.8001 163.532 54.3322 163.739 53.5915L164.987 53.5915C164.779 54.969 163.609 55.9047 161.946 55.9047ZM168.703 49.1469C170.393 49.1469 171.511 50.1216 171.511 51.5771V55.8008L170.25 55.8008V54.7351C169.938 55.4369 169.106 55.9047 168.119 55.9047C166.78 55.9047 165.896 55.099 165.896 53.9294C165.896 52.6688 166.897 51.889 168.444 51.889L169.808 51.889C170.107 51.889 170.25 51.7331 170.25 51.4991C170.25 50.7064 169.678 50.1605 168.664 50.1605C167.755 50.1605 167.092 50.7324 167.053 51.3952L165.883 51.3952C165.987 50.1086 167.157 49.1469 168.703 49.1469ZM168.366 54.9041C169.561 54.9041 170.25 54.1373 170.25 52.9287V52.7727L168.561 52.7727C167.703 52.7727 167.144 53.2146 167.144 53.9034C167.144 54.5012 167.638 54.9041 168.366 54.9041ZM173.036 55.8008V46.5087L174.297 46.5087V55.8008L173.036 55.8008ZM176.031 55.8008V46.5087L177.292 46.5087V55.8008L176.031 55.8008ZM184.342 49.2508L182.041 55.5669L181.054 58.452L179.845 58.452L180.729 55.8658L178.298 49.2508L179.598 49.2508L181.313 54.1633L183.042 49.2508L184.342 49.2508Z" fill="#111729"/>
</g>
</g>
</g>
<defs>
<filter id="filter0_dddddd_4422_1796" x="0" y="0.800781" width="289" height="263" filterUnits="userSpaceOnUse" color-interpolation-filters="sRGB">
<feFlood flood-opacity="0" result="BackgroundImageFix"/>
<feColorMatrix in="SourceAlpha" type="matrix" values="0 0 0 0 0 0 0 0 0 0 0 0 0 0 0 0 0 0 127 0" result="hardAlpha"/>
<feMorphology radius="12" operator="erode" in="SourceAlpha" result="effect1_dropShadow_4422_1796"/>
<feOffset dy="24"/>
<feGaussianBlur stdDeviation="12"/>
<feComposite in2="hardAlpha" operator="out"/>
<feColorMatrix type="matrix" values="0 0 0 0 0.054902 0 0 0 0 0.247059 0 0 0 0 0.494118 0 0 0 0.04 0"/>
<feBlend mode="normal" in2="BackgroundImageFix" result="effect1_dropShadow_4422_1796"/>
<feColorMatrix in="SourceAlpha" type="matrix" values="0 0 0 0 0 0 0 0 0 0 0 0 0 0 0 0 0 0 127 0" result="hardAlpha"/>
<feMorphology radius="6" operator="erode" in="SourceAlpha" result="effect2_dropShadow_4422_1796"/>
<feOffset dy="12"/>
<feGaussianBlur stdDeviation="6"/>
<feComposite in2="hardAlpha" operator="out"/>
<feColorMatrix type="matrix" values="0 0 0 0 0.054902 0 0 0 0 0.247059 0 0 0 0 0.494118 0 0 0 0.04 0"/>
<feBlend mode="normal" in2="effect1_dropShadow_4422_1796" result="effect2_dropShadow_4422_1796"/>
<feColorMatrix in="SourceAlpha" type="matrix" values="0 0 0 0 0 0 0 0 0 0 0 0 0 0 0 0 0 0 127 0" result="hardAlpha"/>
<feMorphology radius="3" operator="erode" in="SourceAlpha" result="effect3_dropShadow_4422_1796"/>
<feOffset dy="6"/>
<feGaussianBlur stdDeviation="3"/>
<feComposite in2="hardAlpha" operator="out"/>
<feColorMatrix type="matrix" values="0 0 0 0 0.164706 0 0 0 0 0.2 0 0 0 0 0.27451 0 0 0 0.04 0"/>
<feBlend mode="normal" in2="effect2_dropShadow_4422_1796" result="effect3_dropShadow_4422_1796"/>
<feColorMatrix in="SourceAlpha" type="matrix" values="0 0 0 0 0 0 0 0 0 0 0 0 0 0 0 0 0 0 127 0" result="hardAlpha"/>
<feMorphology radius="1.5" operator="erode" in="SourceAlpha" result="effect4_dropShadow_4422_1796"/>
<feOffset dy="3"/>
<feGaussianBlur stdDeviation="1.5"/>
<feComposite in2="hardAlpha" operator="out"/>
<feColorMatrix type="matrix" values="0 0 0 0 0.164706 0 0 0 0 0.2 0 0 0 0 0.27451 0 0 0 0.04 0"/>
<feBlend mode="normal" in2="effect3_dropShadow_4422_1796" result="effect4_dropShadow_4422_1796"/>
<feColorMatrix in="SourceAlpha" type="matrix" values="0 0 0 0 0 0 0 0 0 0 0 0 0 0 0 0 0 0 127 0" result="hardAlpha"/>
<feMorphology radius="0.5" operator="erode" in="SourceAlpha" result="effect5_dropShadow_4422_1796"/>
<feOffset dy="1"/>
<feGaussianBlur stdDeviation="0.5"/>
<feComposite in2="hardAlpha" operator="out"/>
<feColorMatrix type="matrix" values="0 0 0 0 0.164706 0 0 0 0 0.2 0 0 0 0 0.270588 0 0 0 0.04 0"/>
<feBlend mode="normal" in2="effect4_dropShadow_4422_1796" result="effect5_dropShadow_4422_1796"/>
<feColorMatrix in="SourceAlpha" type="matrix" values="0 0 0 0 0 0 0 0 0 0 0 0 0 0 0 0 0 0 127 0" result="hardAlpha"/>
<feMorphology radius="1" operator="dilate" in="SourceAlpha" result="effect6_dropShadow_4422_1796"/>
<feOffset/>
<feComposite in2="hardAlpha" operator="out"/>
<feColorMatrix type="matrix" values="0 0 0 0 0.054902 0 0 0 0 0.247059 0 0 0 0 0.494118 0 0 0 0.04 0"/>
<feBlend mode="normal" in2="effect5_dropShadow_4422_1796" result="effect6_dropShadow_4422_1796"/>
<feBlend mode="normal" in="SourceGraphic" in2="effect6_dropShadow_4422_1796" result="shape"/>
</filter>
<filter id="filter1_dddd_4422_1796" x="88.1762" y="34" width="112.648" height="52.2682" filterUnits="userSpaceOnUse" color-interpolation-filters="sRGB">
<feFlood flood-opacity="0" result="BackgroundImageFix"/>
<feColorMatrix in="SourceAlpha" type="matrix" values="0 0 0 0 0 0 0 0 0 0 0 0 0 0 0 0 0 0 127 0" result="hardAlpha"/>
<feMorphology radius="6.22222" operator="erode" in="SourceAlpha" result="effect1_dropShadow_4422_1796"/>
<feOffset dy="12.4444"/>
<feGaussianBlur stdDeviation="6.22222"/>
<feComposite in2="hardAlpha" operator="out"/>
<feColorMatrix type="matrix" values="0 0 0 0 0.164706 0 0 0 0 0.2 0 0 0 0 0.27451 0 0 0 0.04 0"/>
<feBlend mode="normal" in2="BackgroundImageFix" result="effect1_dropShadow_4422_1796"/>
<feColorMatrix in="SourceAlpha" type="matrix" values="0 0 0 0 0 0 0 0 0 0 0 0 0 0 0 0 0 0 127 0" result="hardAlpha"/>
<feMorphology radius="1.94444" operator="erode" in="SourceAlpha" result="effect2_dropShadow_4422_1796"/>
<feOffset dy="3.88889"/>
<feGaussianBlur stdDeviation="1.94444"/>
<feComposite in2="hardAlpha" operator="out"/>
<feColorMatrix type="matrix" values="0 0 0 0 0.164706 0 0 0 0 0.2 0 0 0 0 0.27451 0 0 0 0.03 0"/>
<feBlend mode="normal" in2="effect1_dropShadow_4422_1796" result="effect2_dropShadow_4422_1796"/>
<feColorMatrix in="SourceAlpha" type="matrix" values="0 0 0 0 0 0 0 0 0 0 0 0 0 0 0 0 0 0 127 0" result="hardAlpha"/>
<feMorphology radius="1.16667" operator="erode" in="SourceAlpha" result="effect3_dropShadow_4422_1796"/>
<feOffset dy="2.33333"/>
<feGaussianBlur stdDeviation="1.16667"/>
<feComposite in2="hardAlpha" operator="out"/>
<feColorMatrix type="matrix" values="0 0 0 0 0.164706 0 0 0 0 0.2 0 0 0 0 0.27451 0 0 0 0.05 0"/>
<feBlend mode="normal" in2="effect2_dropShadow_4422_1796" result="effect3_dropShadow_4422_1796"/>
<feColorMatrix in="SourceAlpha" type="matrix" values="0 0 0 0 0 0 0 0 0 0 0 0 0 0 0 0 0 0 127 0" result="hardAlpha"/>
<feMorphology radius="0.388889" operator="erode" in="SourceAlpha" result="effect4_dropShadow_4422_1796"/>
<feOffset dy="0.777778"/>
<feGaussianBlur stdDeviation="0.388889"/>
<feComposite in2="hardAlpha" operator="out"/>
<feColorMatrix type="matrix" values="0 0 0 0 0.164706 0 0 0 0 0.2 0 0 0 0 0.27451 0 0 0 0.03 0"/>
<feBlend mode="normal" in2="effect3_dropShadow_4422_1796" result="effect4_dropShadow_4422_1796"/>
<feBlend mode="normal" in="SourceGraphic" in2="effect4_dropShadow_4422_1796" result="shape"/>
</filter>
<linearGradient id="paint0_linear_4422_1796" x1="144.5" y1="-181.199" x2="144.5" y2="83.8008" gradientUnits="userSpaceOnUse">
<stop stop-color="#42D0A1" stop-opacity="0.16"/>
<stop offset="1" stop-color="#42D0A1" stop-opacity="0"/>
</linearGradient>
<linearGradient id="paint1_linear_4422_1796" x1="144.501" y1="-150.739" x2="144.501" y2="53.3413" gradientUnits="userSpaceOnUse">
<stop stop-color="#42D0A1" stop-opacity="0.16"/>
<stop offset="1" stop-color="#42D0A1" stop-opacity="0"/>
</linearGradient>
<linearGradient id="paint2_linear_4422_1796" x1="144.498" y1="-123.326" x2="144.498" y2="25.9272" gradientUnits="userSpaceOnUse">
<stop stop-color="#42D0A1" stop-opacity="0.16"/>
<stop offset="1" stop-color="#42D0A1" stop-opacity="0"/>
</linearGradient>
<linearGradient id="paint3_linear_4422_1796" x1="144.5" y1="25.8329" x2="144.5" y2="67.6016" gradientUnits="userSpaceOnUse">
<stop stop-color="#42D0A1"/>
<stop offset="1" stop-color="white" stop-opacity="0"/>
</linearGradient>
<clipPath id="clip0_4422_1796">
<rect x="12" y="1.80078" width="265" height="226" rx="16" fill="white"/>
</clipPath>
</defs>
</svg>
