<svg width="1440" height="825" viewBox="0 0 1440 825" fill="none" xmlns="http://www.w3.org/2000/svg">
<line x1="373.001" y1="572" x2="1067" y2="573" stroke="#534CFB" stroke-opacity="0.16" stroke-width="2" stroke-dasharray="8 8"/>
<path d="M-32 432L131 432C158.614 432 181 409.614 181 382V-20" stroke="#534CFB" stroke-opacity="0.16" stroke-width="2" stroke-dasharray="8 8"/>
<path d="M-16 353L322 353C349.614 353 372 375.386 372 403V980" stroke="#534CFB" stroke-opacity="0.16" stroke-width="2"/>
<path d="M1472 432L1309 432C1281.39 432 1259 409.614 1259 382V-20" stroke="#534CFB" stroke-opacity="0.16" stroke-width="2"/>
<path d="M1456 353L1118 353C1090.39 353 1068 375.386 1068 403V980" stroke="#534CFB" stroke-opacity="0.16" stroke-width="2" stroke-dasharray="8 8"/>
<path d="M186.333 84C186.333 81.0545 183.946 78.6667 181 78.6667C178.054 78.6667 175.667 81.0545 175.667 84C175.667 86.9455 178.054 89.3333 181 89.3333C183.946 89.3333 186.333 86.9455 186.333 84ZM181.707 51.2929C181.317 50.9024 180.683 50.9024 180.293 51.2929L173.929 57.6569C173.538 58.0474 173.538 58.6805 173.929 59.0711C174.319 59.4616 174.953 59.4616 175.343 59.0711L181 53.4142L186.657 59.0711C187.047 59.4616 187.681 59.4616 188.071 59.0711C188.462 58.6805 188.462 58.0474 188.071 57.6569L181.707 51.2929ZM182 84L182 52L180 52L180 84L182 84Z" fill="#534CFB" fill-opacity="0.32"/>
<path d="M1062.67 776C1062.67 778.946 1065.05 781.333 1068 781.333C1070.95 781.333 1073.33 778.946 1073.33 776C1073.33 773.054 1070.95 770.667 1068 770.667C1065.05 770.667 1062.67 773.054 1062.67 776ZM1067.29 808.707C1067.68 809.098 1068.32 809.098 1068.71 808.707L1075.07 802.343C1075.46 801.953 1075.46 801.319 1075.07 800.929C1074.68 800.538 1074.05 800.538 1073.66 800.929L1068 806.586L1062.34 800.929C1061.95 800.538 1061.32 800.538 1060.93 800.929C1060.54 801.319 1060.54 801.953 1060.93 802.343L1067.29 808.707ZM1067 776V808L1069 808V776L1067 776Z" fill="#534CFB" fill-opacity="0.32"/>
</svg>
