<svg width="113" height="53" viewBox="0 0 113 53" fill="none" xmlns="http://www.w3.org/2000/svg">
<g filter="url(#filter0_dddd_4422_1818)">
<rect x="6.39844" width="100.203" height="33.6016" rx="8" fill="white"/>
<rect x="6.99854" y="0.600101" width="99.003" height="32.4014" rx="7.3999" stroke="url(#paint0_linear_4422_1818)" stroke-width="1.2002"/>
<path d="M23.0828 21.8008L22.2121 19.4875L18.3523 19.4875L17.4815 21.8008L16.091 21.8008L19.6649 12.7036L20.9125 12.7036L24.4863 21.8008L23.0828 21.8008ZM18.8071 18.3049L21.7702 18.3049L20.2887 14.3931L18.8071 18.3049ZM31.0547 15.2508V21.8008L29.7941 21.8008V20.6441C29.4432 21.4629 28.6634 21.9047 27.6887 21.9047C26.2072 21.9047 25.2455 20.8391 25.2455 19.2796V15.2508L26.5061 15.2508V19.0326C26.5061 20.0723 27.1169 20.7741 28.0396 20.7741C29.0663 20.7741 29.7941 19.9424 29.7941 18.7987V15.2508L31.0547 15.2508ZM33.4237 13.1975L34.6843 13.1975V15.2508L36.6207 15.2508V16.3425L34.6843 16.3425V19.6175C34.6843 20.3192 35.0612 20.7091 35.698 20.7091L36.6207 20.7091V21.8008L35.594 21.8008C34.2684 21.8008 33.4237 20.995 33.4237 19.6565V16.3425L32.0851 16.3425V15.2508L33.4237 15.2508V13.1975ZM40.5455 21.9047C38.5831 21.9047 37.1665 20.4882 37.1665 18.5258C37.1665 16.5634 38.5831 15.1469 40.5455 15.1469C42.5078 15.1469 43.9114 16.5634 43.9114 18.5258C43.9114 20.4882 42.5078 21.9047 40.5455 21.9047ZM40.5455 20.8001C41.7801 20.8001 42.6248 19.8644 42.6248 18.5258C42.6248 17.1872 41.7801 16.2515 40.5455 16.2515C39.2978 16.2515 38.4531 17.1872 38.4531 18.5258C38.4531 19.8644 39.2978 20.8001 40.5455 20.8001ZM45.1455 21.8008V15.2508L46.4061 15.2508V16.4205C46.679 15.6797 47.3808 15.1469 48.3425 15.1469C49.4082 15.1469 50.2009 15.6277 50.4608 16.4854C50.7208 15.7447 51.5785 15.1469 52.5922 15.1469C54.0087 15.1469 54.8924 16.1216 54.8924 17.6421V21.8008L53.6318 21.8008V17.993C53.6318 16.9533 53.112 16.2515 52.2413 16.2515C51.2406 16.2515 50.6428 16.9533 50.6428 17.993V21.8008L49.3822 21.8008V17.993C49.3822 16.9533 48.8623 16.2515 48.0046 16.2515C47.0039 16.2515 46.4061 16.9533 46.4061 17.993V21.8008L45.1455 21.8008ZM58.9886 15.1469C60.6781 15.1469 61.7957 16.1216 61.7957 17.5771V21.8008L60.5351 21.8008V20.7351C60.2232 21.4369 59.3915 21.9047 58.4038 21.9047C57.0652 21.9047 56.1815 21.099 56.1815 19.9294C56.1815 18.6688 57.1822 17.889 58.7287 17.889L60.0933 17.889C60.3922 17.889 60.5351 17.7331 60.5351 17.4991C60.5351 16.7064 59.9633 16.1605 58.9496 16.1605C58.0399 16.1605 57.3771 16.7324 57.3381 17.3952L56.1685 17.3952C56.2725 16.1086 57.4421 15.1469 58.9886 15.1469ZM58.6507 20.9041C59.8463 20.9041 60.5351 20.1373 60.5351 18.9287V18.7727L58.8456 18.7727C57.9879 18.7727 57.4291 19.2146 57.4291 19.9034C57.4291 20.5012 57.9229 20.9041 58.6507 20.9041ZM63.9463 13.1975L65.207 13.1975V15.2508L67.1433 15.2508V16.3425L65.207 16.3425V19.6175C65.207 20.3192 65.5838 20.7091 66.2206 20.7091L67.1433 20.7091V21.8008L66.1167 21.8008C64.7911 21.8008 63.9463 20.995 63.9463 19.6565V16.3425L62.6078 16.3425V15.2508L63.9463 15.2508V13.1975ZM68.1404 12.5087L69.5439 12.5087V14.0942L68.1404 14.0942V12.5087ZM68.2184 21.8008V15.2508L69.479 15.2508V21.8008L68.2184 21.8008ZM73.946 21.9047C71.8796 21.9047 70.697 20.3322 70.697 18.5258C70.697 16.7194 71.8796 15.1469 73.946 15.1469C75.4795 15.1469 76.8051 16.0566 76.9871 17.5381L75.7264 17.5381C75.6095 16.7973 74.8557 16.2515 73.972 16.2515C72.6594 16.2515 72.0096 17.2652 72.0096 18.5258C72.0096 19.7864 72.6724 20.8001 73.972 20.8001C74.8687 20.8001 75.5315 20.3322 75.7394 19.5915L76.9871 19.5915C76.7791 20.969 75.6095 21.9047 73.946 21.9047ZM80.7035 15.1469C82.393 15.1469 83.5106 16.1216 83.5106 17.5771V21.8008L82.25 21.8008V20.7351C81.9381 21.4369 81.1064 21.9047 80.1187 21.9047C78.7801 21.9047 77.8964 21.099 77.8964 19.9294C77.8964 18.6688 78.897 17.889 80.4436 17.889L81.8081 17.889C82.107 17.889 82.25 17.7331 82.25 17.4991C82.25 16.7064 81.6782 16.1605 80.6645 16.1605C79.7548 16.1605 79.092 16.7324 79.053 17.3952L77.8834 17.3952C77.9873 16.1086 79.157 15.1469 80.7035 15.1469ZM80.3656 20.9041C81.5612 20.9041 82.25 20.1373 82.25 18.9287V18.7727L80.5605 18.7727C79.7028 18.7727 79.144 19.2146 79.144 19.9034C79.144 20.5012 79.6378 20.9041 80.3656 20.9041ZM85.0359 21.8008V12.5087L86.2965 12.5087V21.8008L85.0359 21.8008ZM88.0311 21.8008V12.5087L89.2917 12.5087V21.8008L88.0311 21.8008ZM96.3415 15.2508L94.0413 21.5669L93.0536 24.452L91.845 24.452L92.7287 21.8658L90.2984 15.2508L91.598 15.2508L93.3135 20.1633L95.042 15.2508L96.3415 15.2508Z" fill="#111729"/>
</g>
<defs>
<filter id="filter0_dddd_4422_1818" x="0.176216" y="0" width="112.648" height="52.2682" filterUnits="userSpaceOnUse" color-interpolation-filters="sRGB">
<feFlood flood-opacity="0" result="BackgroundImageFix"/>
<feColorMatrix in="SourceAlpha" type="matrix" values="0 0 0 0 0 0 0 0 0 0 0 0 0 0 0 0 0 0 127 0" result="hardAlpha"/>
<feMorphology radius="6.22222" operator="erode" in="SourceAlpha" result="effect1_dropShadow_4422_1818"/>
<feOffset dy="12.4444"/>
<feGaussianBlur stdDeviation="6.22222"/>
<feComposite in2="hardAlpha" operator="out"/>
<feColorMatrix type="matrix" values="0 0 0 0 0.164706 0 0 0 0 0.2 0 0 0 0 0.27451 0 0 0 0.04 0"/>
<feBlend mode="normal" in2="BackgroundImageFix" result="effect1_dropShadow_4422_1818"/>
<feColorMatrix in="SourceAlpha" type="matrix" values="0 0 0 0 0 0 0 0 0 0 0 0 0 0 0 0 0 0 127 0" result="hardAlpha"/>
<feMorphology radius="1.94444" operator="erode" in="SourceAlpha" result="effect2_dropShadow_4422_1818"/>
<feOffset dy="3.88889"/>
<feGaussianBlur stdDeviation="1.94444"/>
<feComposite in2="hardAlpha" operator="out"/>
<feColorMatrix type="matrix" values="0 0 0 0 0.164706 0 0 0 0 0.2 0 0 0 0 0.27451 0 0 0 0.03 0"/>
<feBlend mode="normal" in2="effect1_dropShadow_4422_1818" result="effect2_dropShadow_4422_1818"/>
<feColorMatrix in="SourceAlpha" type="matrix" values="0 0 0 0 0 0 0 0 0 0 0 0 0 0 0 0 0 0 127 0" result="hardAlpha"/>
<feMorphology radius="1.16667" operator="erode" in="SourceAlpha" result="effect3_dropShadow_4422_1818"/>
<feOffset dy="2.33333"/>
<feGaussianBlur stdDeviation="1.16667"/>
<feComposite in2="hardAlpha" operator="out"/>
<feColorMatrix type="matrix" values="0 0 0 0 0.164706 0 0 0 0 0.2 0 0 0 0 0.27451 0 0 0 0.05 0"/>
<feBlend mode="normal" in2="effect2_dropShadow_4422_1818" result="effect3_dropShadow_4422_1818"/>
<feColorMatrix in="SourceAlpha" type="matrix" values="0 0 0 0 0 0 0 0 0 0 0 0 0 0 0 0 0 0 127 0" result="hardAlpha"/>
<feMorphology radius="0.388889" operator="erode" in="SourceAlpha" result="effect4_dropShadow_4422_1818"/>
<feOffset dy="0.777778"/>
<feGaussianBlur stdDeviation="0.388889"/>
<feComposite in2="hardAlpha" operator="out"/>
<feColorMatrix type="matrix" values="0 0 0 0 0.164706 0 0 0 0 0.2 0 0 0 0 0.27451 0 0 0 0.03 0"/>
<feBlend mode="normal" in2="effect3_dropShadow_4422_1818" result="effect4_dropShadow_4422_1818"/>
<feBlend mode="normal" in="SourceGraphic" in2="effect4_dropShadow_4422_1818" result="shape"/>
</filter>
<linearGradient id="paint0_linear_4422_1818" x1="56.5" y1="-8.16706" x2="56.5" y2="33.6016" gradientUnits="userSpaceOnUse">
<stop stop-color="#42D0A1"/>
<stop offset="1" stop-color="white" stop-opacity="0"/>
</linearGradient>
</defs>
</svg>
