<svg width="40" height="40" viewBox="0 0 40 40" fill="none" xmlns="http://www.w3.org/2000/svg">
<path d="M30.9528 4.45318C30.4966 4.26372 29.9942 4.21456 29.51 4.31197C29.0257 4.40938 28.5815 4.64894 28.234 5.00006L11.609 21.6094L2.49963 30.7344C2.15086 31.084 1.91345 31.5291 1.81734 32.0135C1.72123 32.4979 1.77073 32.9999 1.95959 33.4562C2.14846 33.9125 2.46823 34.3026 2.87857 34.5774C3.2889 34.8521 3.77142 34.9992 4.26525 35.0001H29.9996C30.6627 35.0001 31.2986 34.7367 31.7674 34.2678C32.2362 33.799 32.4996 33.1631 32.4996 32.5001V6.76568C32.4999 6.27034 32.353 5.78609 32.0776 5.37437C31.8022 4.96265 31.4107 4.64203 30.9528 4.45318V4.45318ZM29.9996 32.5001H13.7496V23.0157L29.9996 6.76568V32.5001Z" fill="#534CFB"/>
</svg>
