<svg width="24" height="25" viewBox="0 0 24 25" fill="none" xmlns="http://www.w3.org/2000/svg">
<path d="M19.5 8L16.125 8V5.375C16.125 4.28098 15.6904 3.23177 14.9168 2.45818C14.1432 1.6846 13.094 1.25 12 1.25C10.906 1.25 9.85677 1.6846 9.08318 2.45818C8.3096 3.23177 7.875 4.28098 7.875 5.375V8L4.5 8C4.10218 8 3.72064 8.15804 3.43934 8.43934C3.15804 8.72064 3 9.10218 3 9.5V20C3 20.3978 3.15804 20.7794 3.43934 21.0607C3.72064 21.342 4.10218 21.5 4.5 21.5L19.5 21.5C19.8978 21.5 20.2794 21.342 20.5607 21.0607C20.842 20.7794 21 20.3978 21 20V9.5C21 9.10218 20.842 8.72064 20.5607 8.43934C20.2794 8.15804 19.8978 8 19.5 8ZM12 15.875C11.7775 15.875 11.56 15.809 11.375 15.6854C11.19 15.5618 11.0458 15.3861 10.9606 15.1805C10.8755 14.975 10.8532 14.7488 10.8966 14.5305C10.94 14.3123 11.0472 14.1118 11.2045 13.9545C11.3618 13.7972 11.5623 13.69 11.7805 13.6466C11.9988 13.6032 12.225 13.6255 12.4305 13.7106C12.6361 13.7958 12.8118 13.94 12.9354 14.125C13.059 14.31 13.125 14.5275 13.125 14.75C13.125 15.0484 13.0065 15.3345 12.7955 15.5455C12.5845 15.7565 12.2984 15.875 12 15.875ZM14.625 8L9.375 8V5.375C9.375 4.67881 9.65156 4.01113 10.1438 3.51884C10.6361 3.02656 11.3038 2.75 12 2.75C12.6962 2.75 13.3639 3.02656 13.8562 3.51884C14.3484 4.01113 14.625 4.67881 14.625 5.375V8Z" fill="#42D0A1"/>
<path d="M19.5 8L16.125 8V5.375C16.125 4.28098 15.6904 3.23177 14.9168 2.45818C14.1432 1.6846 13.094 1.25 12 1.25C10.906 1.25 9.85677 1.6846 9.08318 2.45818C8.3096 3.23177 7.875 4.28098 7.875 5.375V8L4.5 8C4.10218 8 3.72064 8.15804 3.43934 8.43934C3.15804 8.72064 3 9.10218 3 9.5V20C3 20.3978 3.15804 20.7794 3.43934 21.0607C3.72064 21.342 4.10218 21.5 4.5 21.5L19.5 21.5C19.8978 21.5 20.2794 21.342 20.5607 21.0607C20.842 20.7794 21 20.3978 21 20V9.5C21 9.10218 20.842 8.72064 20.5607 8.43934C20.2794 8.15804 19.8978 8 19.5 8ZM12 15.875C11.7775 15.875 11.56 15.809 11.375 15.6854C11.19 15.5618 11.0458 15.3861 10.9606 15.1805C10.8755 14.975 10.8532 14.7488 10.8966 14.5305C10.94 14.3123 11.0472 14.1118 11.2045 13.9545C11.3618 13.7972 11.5623 13.69 11.7805 13.6466C11.9988 13.6032 12.225 13.6255 12.4305 13.7106C12.6361 13.7958 12.8118 13.94 12.9354 14.125C13.059 14.31 13.125 14.5275 13.125 14.75C13.125 15.0484 13.0065 15.3345 12.7955 15.5455C12.5845 15.7565 12.2984 15.875 12 15.875ZM14.625 8L9.375 8V5.375C9.375 4.67881 9.65156 4.01113 10.1438 3.51884C10.6361 3.02656 11.3038 2.75 12 2.75C12.6962 2.75 13.3639 3.02656 13.8562 3.51884C14.3484 4.01113 14.625 4.67881 14.625 5.375V8Z" fill="url(#paint0_linear_4422_1989)"/>
<rect x="15.1309" y="5.19531" width="6.26087" height="6.26087" rx="2.6087" fill="white"/>
<path d="M18.2606 4.08643C17.4222 4.08643 16.6026 4.33505 15.9055 4.80085C15.2084 5.26665 14.665 5.92871 14.3442 6.70331C14.0233 7.47791 13.9394 8.33026 14.1029 9.15257C14.2665 9.97488 14.6702 10.7302 15.2631 11.3231C15.856 11.9159 16.6113 12.3197 17.4336 12.4832C18.2559 12.6468 19.1083 12.5629 19.8829 12.242C20.6575 11.9212 21.3195 11.3778 21.7853 10.6807C22.2511 9.98357 22.4997 9.16398 22.4997 8.32556C22.4976 7.20193 22.0503 6.12494 21.2558 5.33042C20.4612 4.53589 19.3842 4.08858 18.2606 4.08643ZM20.2783 7.58371L17.8897 9.86632C17.8279 9.92441 17.7462 9.95652 17.6614 9.95599C17.62 9.95658 17.5788 9.94897 17.5404 9.93358C17.5019 9.91818 17.4668 9.89533 17.4372 9.86632L16.243 8.72501C16.2098 8.69611 16.1829 8.66081 16.1638 8.62123C16.1446 8.58166 16.1337 8.53862 16.1316 8.49471C16.1295 8.4508 16.1364 8.40692 16.1517 8.36571C16.167 8.3245 16.1905 8.28682 16.2207 8.25492C16.251 8.22302 16.2873 8.19757 16.3277 8.18009C16.368 8.16261 16.4115 8.15347 16.4554 8.15322C16.4994 8.15296 16.543 8.1616 16.5835 8.1786C16.624 8.19561 16.6607 8.22064 16.6913 8.25219L17.6614 9.17746L19.8299 7.11088C19.8933 7.05557 19.9756 7.0269 20.0597 7.03088C20.1437 7.03485 20.223 7.07116 20.2809 7.13222C20.3388 7.19328 20.3709 7.27435 20.3704 7.35849C20.3699 7.44263 20.3369 7.52333 20.2783 7.58371Z" fill="#FFCB00"/>
<defs>
<linearGradient id="paint0_linear_4422_1989" x1="12" y1="1.25" x2="12" y2="21.5" gradientUnits="userSpaceOnUse">
<stop offset="0.46" stop-color="white" stop-opacity="0.1"/>
<stop offset="0.54" stop-color="white" stop-opacity="0"/>
</linearGradient>
</defs>
</svg>
