<svg width="40" height="40" viewBox="0 0 40 40" fill="none" xmlns="http://www.w3.org/2000/svg">
<path d="M30.9539 4.45318C30.4977 4.26372 29.9954 4.21456 29.5111 4.31197C29.0268 4.40938 28.5826 4.64894 28.2351 5.00006L17.8601 15.3594L2.50077 30.7344C2.26062 30.97 2.07149 31.2525 1.94516 31.5643C1.81882 31.8761 1.75797 32.2106 1.76639 32.5469C1.76387 32.6098 1.76912 32.6728 1.78202 32.7344C1.80014 32.9817 1.85818 33.2244 1.95389 33.4532C2.16731 33.9683 2.54679 34.3973 3.03202 34.6719L3.18827 34.7657L3.53202 34.8907C3.76938 34.9662 4.01733 35.0031 4.26639 35.0001H30.0008C30.6638 35.0001 31.2997 34.7367 31.7685 34.2678C32.2374 33.799 32.5008 33.1631 32.5008 32.5001V6.76568C32.501 6.27034 32.3541 5.78609 32.0787 5.37437C31.8033 4.96265 31.4118 4.64203 30.9539 4.45318V4.45318ZM30.0008 32.5001H20.0008V16.7657L30.0008 6.76568V32.5001Z" fill="#FFCB00"/>
</svg>
