<svg width="24" height="25" viewBox="0 0 24 25" fill="none" xmlns="http://www.w3.org/2000/svg">
<path d="M18.3849 12.5C19.0829 11.5389 19.6857 10.5122 20.1849 9.43439C21.2255 7.12814 21.2349 5.29064 20.2224 4.27814C18.5817 2.64689 15.2349 3.81876 12.0005 6.12501C8.76612 3.81876 5.41924 2.64689 3.77862 4.27814C2.76612 5.29064 2.77549 7.12814 3.81612 9.43439C4.31526 10.5122 4.9181 11.5389 5.61612 12.5C4.9181 13.4611 4.31526 14.4878 3.81612 15.5656C2.77549 17.8719 2.76612 19.7094 3.77862 20.7219C4.30362 21.2469 5.00674 21.4813 5.83174 21.4813C7.55674 21.4813 9.80674 20.4406 12.0005 18.875C14.1942 20.4406 16.4442 21.4813 18.1692 21.4813C18.9942 21.4813 19.6974 21.2469 20.2224 20.7219C21.2349 19.7094 21.2255 17.8719 20.1849 15.5656C19.6857 14.4878 19.0829 13.4611 18.3849 12.5ZM18.1692 5.02814C18.6192 5.02814 18.9567 5.13126 19.163 5.33751C19.688 5.87189 19.5567 7.16564 18.8161 8.81564C18.4258 9.66417 17.9615 10.4767 17.4286 11.2438C16.8286 10.5031 16.163 9.77189 15.4505 9.05001C14.738 8.32814 14.0067 7.69064 13.2474 7.07189C15.3005 5.67501 17.063 5.02814 18.1692 5.02814ZM16.5099 12.5C15.8533 13.3396 15.1457 14.1379 14.3911 14.8906C13.6334 15.6428 12.8354 16.3533 12.0005 17.0188C11.1656 16.3533 10.3676 15.6428 9.60987 14.8906C8.85528 14.1379 8.14769 13.3396 7.49112 12.5C8.14769 11.6605 8.85528 10.8621 9.60987 10.1094C10.3676 9.3572 11.1656 8.64678 12.0005 7.98126C12.8354 8.64678 13.6334 9.3572 14.3911 10.1094C15.1457 10.8621 15.8533 11.6605 16.5099 12.5ZM5.18487 8.81564C4.44424 7.16564 4.31299 5.87189 4.83799 5.33751C5.04424 5.13126 5.38174 5.02814 5.83174 5.02814C6.93799 5.02814 8.70049 5.67501 10.7536 7.07189C9.99424 7.69064 9.25362 8.35626 8.55049 9.05001C7.84737 9.74376 7.17237 10.5031 6.57237 11.2438C6.03949 10.4767 5.57519 9.66417 5.18487 8.81564ZM4.83799 19.6625C4.31299 19.1281 4.44424 17.8344 5.18487 16.1844C5.57519 15.3359 6.03949 14.5233 6.57237 13.7563C7.17237 14.4969 7.83799 15.2281 8.55049 15.95C9.26299 16.6719 9.99424 17.3094 10.7536 17.9281C7.86612 19.8875 5.55049 20.375 4.83799 19.6625ZM19.163 19.6625C18.9567 19.8688 18.6192 19.9719 18.1692 19.9719C17.063 19.9719 15.3005 19.325 13.2474 17.9281C14.0067 17.3094 14.7474 16.6438 15.4505 15.95C16.1536 15.2563 16.8286 14.4969 17.4286 13.7563C17.9615 14.5233 18.4258 15.3359 18.8161 16.1844C19.5567 17.8344 19.688 19.1281 19.163 19.6625ZM13.1255 12.5C13.1255 12.7225 13.0595 12.94 12.9359 13.125C12.8123 13.31 12.6366 13.4542 12.431 13.5394C12.2254 13.6245 11.9992 13.6468 11.781 13.6034C11.5628 13.56 11.3623 13.4528 11.205 13.2955C11.0477 13.1382 10.9405 12.9377 10.8971 12.7195C10.8537 12.5013 10.876 12.2751 10.9611 12.0695C11.0463 11.8639 11.1905 11.6882 11.3755 11.5646C11.5605 11.441 11.778 11.375 12.0005 11.375C12.2989 11.375 12.585 11.4935 12.796 11.7045C13.007 11.9155 13.1255 12.2016 13.1255 12.5Z" fill="#534CFB"/>
</svg>
