<svg width="32" height="32" viewBox="0 0 32 32" fill="none" xmlns="http://www.w3.org/2000/svg">
<path d="M29.8996 12.1752C29.7744 11.7815 29.5332 11.4347 29.2075 11.1804C28.8818 10.9261 28.4869 10.7762 28.0746 10.7502L20.6996 10.2752C20.6887 10.2739 20.6783 10.2698 20.6695 10.2632C20.6608 10.2566 20.6539 10.2478 20.6496 10.2377L17.8996 3.30023C17.7511 2.91693 17.4902 2.58749 17.1511 2.35517C16.812 2.12286 16.4106 1.99854 15.9996 1.99854C15.5885 1.99854 15.1871 2.12286 14.848 2.35517C14.5089 2.58749 14.248 2.91693 14.0996 3.30023L11.3496 10.2377C11.3452 10.2478 11.3384 10.2566 11.3296 10.2632C11.3208 10.2698 11.3104 10.2739 11.2996 10.2752L3.92456 10.7502C3.51219 10.7762 3.11728 10.9261 2.79161 11.1804C2.46594 11.4347 2.22471 11.7815 2.09956 12.1752C1.96948 12.5741 1.96188 13.0029 2.07774 13.4061C2.19359 13.8094 2.42759 14.1687 2.74956 14.4377L8.39956 19.1377C8.41241 19.1506 8.42153 19.1666 8.42593 19.1843C8.43034 19.2019 8.42986 19.2204 8.42456 19.2377L6.73706 25.8752C6.62204 26.3243 6.64389 26.7975 6.79981 27.2341C6.95572 27.6706 7.23858 28.0506 7.61206 28.3252C7.97585 28.5863 8.40927 28.7329 8.85686 28.7463C9.30445 28.7597 9.74584 28.6392 10.1246 28.4002L15.9871 24.6877H16.0121L22.3246 28.6752C22.6484 28.8857 23.0259 28.9985 23.4121 29.0002C23.838 28.9945 24.2522 28.8594 24.5996 28.6127C24.939 28.3667 25.1959 28.0236 25.3364 27.6286C25.477 27.2337 25.4947 26.8054 25.3871 26.4002L23.5746 19.2377C23.5693 19.2204 23.5688 19.2019 23.5732 19.1843C23.5776 19.1666 23.5867 19.1506 23.5996 19.1377L29.2496 14.4377C29.5715 14.1687 29.8055 13.8094 29.9214 13.4061C30.0372 13.0029 30.0296 12.5741 29.8996 12.1752ZM27.9746 12.9002L22.3121 17.6002C22.0114 17.8553 21.7886 18.1899 21.6692 18.5658C21.5499 18.9416 21.5387 19.3434 21.6371 19.7252L23.4496 26.8877C23.4621 26.9377 23.4621 26.9502 23.4496 26.9627C23.4412 26.9788 23.4281 26.9919 23.4121 27.0002H23.3871L17.0871 23.0002C16.7622 22.7936 16.3846 22.685 15.9996 22.6877V4.00023C16.0121 4.00023 16.0246 4.00023 16.0371 4.03773L18.7996 10.9752C18.9404 11.3364 19.1807 11.6502 19.4927 11.8803C19.8046 12.1104 20.1754 12.2473 20.5621 12.2752L27.9496 12.7502C27.9621 12.7502 27.9746 12.7502 27.9871 12.8002C27.9996 12.8502 27.9871 12.8877 27.9746 12.9002Z" fill="#FFCB00"/>
</svg>
