<svg width="40" height="40" viewBox="0 0 40 40" fill="none" xmlns="http://www.w3.org/2000/svg">
<path d="M30.9539 4.45269C30.4977 4.26323 29.9954 4.21407 29.5111 4.31148C29.0268 4.40889 28.5826 4.64846 28.2351 4.99957L2.50077 30.7339C2.26062 30.9696 2.07149 31.252 1.94516 31.5638C1.81882 31.8757 1.75797 32.2101 1.76639 32.5464C1.76387 32.6093 1.76912 32.6723 1.78202 32.7339C1.80014 32.9812 1.85818 33.224 1.95389 33.4527C2.16731 33.9678 2.54679 34.3968 3.03202 34.6714L3.18827 34.7652L3.53202 34.8902C3.76938 34.9657 4.01733 35.0026 4.26639 34.9996H30.0008C30.6638 34.9996 31.2997 34.7362 31.7685 34.2673C32.2374 33.7985 32.5008 33.1626 32.5008 32.4996V6.76519C32.501 6.26986 32.3541 5.7856 32.0787 5.37388C31.8033 4.96217 31.4118 4.64154 30.9539 4.45269V4.45269ZM30.0008 32.4996H26.2508V10.5152L30.0008 6.76519V32.4996Z" fill="#42D0A1"/>
</svg>
