<svg width="40" height="40" viewBox="0 0 40 40" fill="none" xmlns="http://www.w3.org/2000/svg">
<path d="M34.6875 24.7499L27.3594 21.6249C26.9813 21.4554 26.5662 21.3851 26.1534 21.4207C25.7405 21.4562 25.3436 21.5964 25 21.828L21.0781 24.4374C18.6879 23.2765 16.7526 21.3522 15.5781 18.9686V18.9686L18.1719 14.9999C18.4019 14.6559 18.5425 14.26 18.5807 13.848C18.6189 13.4359 18.5535 13.0209 18.3906 12.6405L15.25 5.31239C15.0308 4.81757 14.6598 4.40542 14.1906 4.13571C13.7214 3.866 13.1785 3.75275 12.6406 3.81239C10.5306 4.0888 8.59277 5.12203 7.18738 6.71998C5.78199 8.31793 5.00469 10.3719 5 12.4999C5 24.9061 15.0937 34.9999 27.5 34.9999C29.628 34.9952 31.682 34.2179 33.2799 32.8125C34.8779 31.4071 35.9111 29.4693 36.1875 27.3593C36.2471 26.8214 36.1339 26.2785 35.8642 25.8093C35.5945 25.3401 35.1823 24.969 34.6875 24.7499Z" fill="#118EFF"/>
</svg>
