<svg preserveAspectRatio="xMinYMin slice" viewBox="0 0 1440 878" fill="none" xmlns="http://www.w3.org/2000/svg">
<g clip-path="url(#clip0_4422_1851)">
<rect width="100%" height="100%" transform="matrix(0.994522 -0.104528 0 1 0 151.35)" fill="#111729"/>
<rect width="1.00552" height="100%" transform="matrix(0.994522 -0.104528 0 1 180 132.431)" fill="#424770" fill-opacity="0.2"/>
<rect x="0.250003" y="0.225104" width="0.50276" height="100%" transform="matrix(0.994522 -0.104528 0 1 450.019 104.077)" stroke="#424770" stroke-opacity="0.2" stroke-width="0.50276"/>
<rect x="0.250003" y="0.225104" width="0.502761" height="100%" transform="matrix(0.994522 -0.104528 0 1 720.038 75.697)" stroke="#424770" stroke-opacity="0.2" stroke-width="0.502761"/>
<rect width="1.00552" height="100%" transform="matrix(0.994522 -0.104528 0 1 990.055 47.2905)" fill="url(#paint0_linear_4422_1851)"/>
<rect width="1.00552" height="100%" transform="matrix(0.994522 -0.104528 0 1 1259 19.0205)" fill="#424770" fill-opacity="0.2"/>
</g>
<defs>
<linearGradient id="paint0_linear_4422_1851" x1="0.502761" y1="0" x2="0.502761" y2="100%" gradientUnits="userSpaceOnUse">
<stop stop-color="#424770" stop-opacity="0.3"/>
<stop offset="0.5" stop-color="#424770" stop-opacity="0.3"/>
<stop offset="0.5" stop-opacity="0"/>
<stop offset="1" stop-opacity="0"/>
</linearGradient>
<clipPath id="clip0_4422_1851">
<rect width="100%" height="100%" fill="white" transform="matrix(0.994522 -0.104528 0 1 0 151.35)"/>
</clipPath>
</defs>
</svg>
