<svg width="15" height="15" viewBox="0 0 15 15" fill="none" xmlns="http://www.w3.org/2000/svg">
<g id="Warning">
<path id="Vector" d="M13.0676 11.0913L13.0678 11.0917C13.179 11.2811 13.2381 11.4965 13.2391 11.7162C13.2401 11.9358 13.1829 12.1518 13.0734 12.3421C12.964 12.5325 12.8061 12.6906 12.6157 12.8002C12.4254 12.9098 12.2095 12.9671 11.9899 12.9663H11.9897H2.36466H2.36442C2.1448 12.9671 1.92887 12.9098 1.73857 12.8002C1.54826 12.6906 1.39035 12.5325 1.28087 12.3421C1.1714 12.1518 1.11425 11.9358 1.11525 11.7162C1.11624 11.4965 1.17533 11.2811 1.28652 11.0917L1.28673 11.0913L6.09376 2.77884L6.09382 2.77873C6.20342 2.58833 6.36127 2.43018 6.55146 2.32021C6.74165 2.21024 6.95746 2.15234 7.17716 2.15234C7.39685 2.15234 7.61266 2.21024 7.80285 2.32021C7.99304 2.43018 8.15089 2.58833 8.26049 2.77873L8.26055 2.77884L13.0676 11.0913ZM6.8236 6.11275C6.72983 6.20652 6.67716 6.33369 6.67716 6.4663V8.6538C6.67716 8.78641 6.72983 8.91359 6.8236 9.00736C6.91737 9.10113 7.04455 9.1538 7.17716 9.1538C7.30976 9.1538 7.43694 9.10113 7.53071 9.00736C7.62448 8.91359 7.67716 8.78641 7.67716 8.6538V6.4663C7.67716 6.3337 7.62448 6.20652 7.53071 6.11275C7.43694 6.01898 7.30976 5.9663 7.17716 5.9663C7.04455 5.9663 6.91737 6.01898 6.8236 6.11275ZM6.77784 11.2202C6.89604 11.2991 7.035 11.3413 7.17716 11.3413C7.36778 11.3413 7.5506 11.2656 7.68539 11.1308C7.82018 10.996 7.89591 10.8132 7.89591 10.6226C7.89591 10.4804 7.85375 10.3414 7.77477 10.2232C7.6958 10.105 7.58354 10.0129 7.45221 9.95852C7.32087 9.90412 7.17636 9.88988 7.03693 9.91761C6.89751 9.94535 6.76944 10.0138 6.66892 10.1143C6.5684 10.2148 6.49995 10.3429 6.47222 10.4823C6.44448 10.6218 6.45872 10.7663 6.51312 10.8976C6.56752 11.0289 6.65964 11.1412 6.77784 11.2202Z" fill="#FE4A22" stroke="#FE4A22" stroke-width="0.125"/>
</g>
</svg>
